<?xml version="1.0" encoding="UTF-8" standalone="no"?>
<!-- Created with Inkscape (http://www.inkscape.org/) -->

<svg
   xmlns:dc="http://purl.org/dc/elements/1.1/"
   xmlns:cc="http://creativecommons.org/ns#"
   xmlns:rdf="http://www.w3.org/1999/02/22-rdf-syntax-ns#"
   xmlns:svg="http://www.w3.org/2000/svg"
   xmlns="http://www.w3.org/2000/svg"
   xmlns:xlink="http://www.w3.org/1999/xlink"
   xmlns:sodipodi="http://sodipodi.sourceforge.net/DTD/sodipodi-0.dtd"
   xmlns:inkscape="http://www.inkscape.org/namespaces/inkscape"
   width="48.000011"
   height="48.014492"
   id="svg5453"
   version="1.1"
   inkscape:version="0.48+devel r12338"
   sodipodi:docname="unsettings.svg">
  <defs
     id="defs5455">
    <linearGradient
       inkscape:collect="always"
       xlink:href="#linearGradient1435"
       id="linearGradient1441"
       x1="407.54944"
       y1="-547.81915"
       x2="407.54944"
       y2="-499.79965"
       gradientUnits="userSpaceOnUse" />
    <linearGradient
       inkscape:collect="always"
       id="linearGradient1435">
      <stop
         style="stop-color:#6135b4;stop-opacity:1"
         offset="0"
         id="stop1437" />
      <stop
         style="stop-color:#8e4fcf;stop-opacity:1"
         offset="1"
         id="stop1439" />
    </linearGradient>
    <linearGradient
       inkscape:collect="always"
       xlink:href="#linearGradient1443"
       id="linearGradient1813"
       gradientUnits="userSpaceOnUse"
       x1="-3.9152865"
       y1="-53.170017"
       x2="-3.9152865"
       y2="12.152496"
       gradientTransform="matrix(0.43055599,0,0,-0.43055599,27.49825,15.16983)" />
    <linearGradient
       inkscape:collect="always"
       id="linearGradient1443">
      <stop
         style="stop-color:#aa9ad5;stop-opacity:1"
         offset="0"
         id="stop1445" />
      <stop
         style="stop-color:#f2edf9;stop-opacity:1"
         offset="1"
         id="stop1447" />
    </linearGradient>
    <linearGradient
       inkscape:collect="always"
       xlink:href="#linearGradient1435"
       id="linearGradient2600"
       x1="415.32663"
       y1="546.0296"
       x2="415.32663"
       y2="501.53546"
       gradientUnits="userSpaceOnUse" />
  </defs>
  <sodipodi:namedview
     id="base"
     pagecolor="#ffffff"
     bordercolor="#666666"
     borderopacity="1.0"
     inkscape:pageopacity="0"
     inkscape:pageshadow="2"
     inkscape:zoom="4.9422552"
     inkscape:cx="7.3221068"
     inkscape:cy="43.971399"
     inkscape:document-units="px"
     inkscape:current-layer="layer1"
     showgrid="false"
     fit-margin-top="0"
     fit-margin-left="0"
     fit-margin-right="0"
     fit-margin-bottom="0"
     inkscape:window-width="1366"
     inkscape:window-height="714"
     inkscape:window-x="0"
     inkscape:window-y="30"
     inkscape:window-maximized="1" />
  <metadata
     id="metadata5458">
    <rdf:RDF>
      <cc:Work
         rdf:about="">
        <dc:format>image/svg+xml</dc:format>
        <dc:type
           rdf:resource="http://purl.org/dc/dcmitype/StillImage" />
        <dc:title></dc:title>
      </cc:Work>
    </rdf:RDF>
  </metadata>
  <g
     inkscape:label="Capa 1"
     inkscape:groupmode="layer"
     id="layer1"
     transform="translate(-384.57143,-499.78351)">
    <rect
       style="color:#000000;fill:#333333;fill-opacity:1;fill-rule:nonzero;stroke:none;stroke-width:0.2;marker:none;visibility:visible;display:inline;overflow:visible;enable-background:accumulate"
       id="rect6294"
       width="45.5"
       height="45.5"
       x="385.82144"
       y="501.04074"
       ry="6.3565426" />
    <rect
       ry="5.8565426"
       y="501.54074"
       x="386.32144"
       height="44.5"
       width="44.5"
       id="rect6296"
       style="color:#000000;fill:url(#linearGradient2600);fill-opacity:1.0;fill-rule:nonzero;stroke:none;stroke-width:0.2;marker:none;visibility:visible;display:inline;overflow:visible;enable-background:accumulate" />
    <path
       id="path6361"
       d="m 386.32143,507.97828 0,-0.5625 c 0,-3.2445 2.59922,-5.875 5.84375,-5.875 l 32.8125,0 c 3.24452,0 5.84375,2.6305 5.84375,5.875 l 0,0.5625 c 0,-3.2445 -2.59923,-5.875 -5.84375,-5.875 l -32.8125,0 C 388.92065,502.10328 386.32143,504.73378 386.32143,507.97828 Z"
       style="color:#000000;fill:#ffffff;fill-opacity:1;fill-rule:nonzero;stroke:none;stroke-width:0.2;marker:none;visibility:visible;display:inline;overflow:visible;enable-background:accumulate"
       inkscape:connector-curvature="0" />
    <path
       inkscape:connector-curvature="0"
       style="color:#000000;fill:#000000;fill-opacity:1;fill-rule:nonzero;stroke:none;stroke-width:0.2;marker:none;visibility:visible;display:inline;overflow:visible;enable-background:accumulate"
       d="m 386.32143,539.60328 0,0.5625 c 0,3.2445 2.59922,5.875 5.84375,5.875 l 32.8125,0 c 3.24452,0 5.84375,-2.6305 5.84375,-5.875 l 0,-0.5625 c 0,3.2445 -2.59923,5.875 -5.84375,5.875 l -32.8125,0 C 388.92065,545.47828 386.32143,542.84778 386.32143,539.60328 Z"
       id="path6388" />
    <g
       transform="matrix(0.9375,0,0,0.9375,25.53572,32.730131)"
       id="g2507">
      <path
         inkscape:connector-curvature="0"
         id="path1455"
         transform="translate(384.57143,499.798)"
         d="m 22.0625,9.9375 -1.03125,3.5 c -0.811907,0.226972 -1.588166,0.540287 -2.3125,0.9375 l -3.25,-1.75 -2.75,2.75 1.75,3.1875 c -0.41306,0.724565 -0.75917,1.496867 -1,2.3125 l -3.5625,1.0625 0,3.875 3.5,1.03125 c 0.230879,0.859074 0.548368,1.67526 0.96875,2.4375 l -1.75,3.28125 2.71875,2.71875 3.21875,-1.75 c 0.760848,0.433746 1.576926,0.788082 2.4375,1.03125 l 1.0625,3.53125 3.875,0 L 27,34.5625 c 0.860547,-0.243168 1.676653,-0.597504 2.4375,-1.03125 l 3.21875,1.75 2.71875,-2.75 -1.75,-3.25 c 0.420404,-0.76224 0.737854,-1.578426 0.96875,-2.4375 l 3.5,-1.03125 0,-3.875 -3.5625,-1.0625 c -0.240847,-0.815633 -0.586918,-1.587935 -1,-2.3125 l 1.75,-3.1875 -2.75,-2.75 -3.25,1.75 c -0.724332,-0.397213 -1.500618,-0.710528 -2.3125,-0.9375 L 25.9375,9.9375 22.0625,9.9375 z m 2.0625,8.6875 c 2.90668,0 5.25,2.34332 5.25,5.25 0,2.90626 -2.34332,5.28125 -5.25,5.28125 -2.90625,0 -5.28125,-2.37499 -5.28125,-5.28125 C 18.84375,20.96832 21.21875,18.625 24.125,18.625 Z"
         style="fill:none;stroke:none" />
      <path
         inkscape:connector-curvature="0"
         id="path1624"
         d="m 397.51056,515.58516 -0.22011,0.22012 1.56833,2.88903 c 0.0562,-0.10838 0.10485,-0.22445 0.16509,-0.33017 L 397.51056,515.58516 z m 22.12173,0 -1.5133,2.77898 c 0.0602,0.10572 0.10895,0.22179 0.16509,0.33017 l 1.56833,-2.88903 L 419.63229,515.58516 z m -10.9508,2.83401 c -2.90626,0 -5.25529,2.3486 -5.25529,5.25528 0,0.10917 0.021,0.2226 0.0275,0.33018 0.1542,-2.7674 2.42163,-4.95263 5.22777,-4.95263 2.80657,0 5.0736,2.18523 5.22777,4.95263 0.006,-0.10758 0.0275,-0.22101 0.0275,-0.33018 C 413.93677,520.76777 411.58817,518.41917 408.68149,518.41917 z m -14.19753,7.20882 0,0.63283 3.49435,1.04556 c 0.19739,0.72799 0.46509,1.42877 0.79793,2.09111 l 0.16508,-0.30266 c -0.41473,-0.7533 -0.73311,-1.57342 -0.96301,-2.42129 L 394.48396,525.62799 z m 28.17494,0 -3.49436,1.04555 c -0.22991,0.84787 -0.54825,1.66799 -0.96301,2.42129 l 0.16509,0.30266 c 0.33284,-0.66234 0.60051,-1.36312 0.79792,-2.09111 L 422.6589,526.26082 422.6589,525.62799 z m -25.25839,6.93367 -0.22012,0.41272 2.75146,2.75146 3.2192,-1.73342 c 0.76616,0.43655 1.58167,0.77481 2.4488,1.01804 l 1.04556,3.52187 3.85204,0 1.04555,-3.52187 c 0.8671,-0.24323 1.68265,-0.58149 2.4488,-1.01804 l 3.21921,1.73342 2.75146,-2.75146 -0.22012,-0.41272 -2.53134,2.53135 -3.21921,-1.73342 c -0.76615,0.43654 -1.5817,0.77481 -2.4488,1.01804 l -1.04555,3.52186 -3.85204,0 -1.04556,-3.52186 c -0.86713,-0.24323 -1.68264,-0.5815 -2.4488,-1.01804 l -3.2192,1.73342 L 397.40051,532.56166 Z"
         style="fill:#000000;fill-opacity:0.23629144;fill-rule:nonzero;stroke:none" />
      <path
         style="fill:#000000;fill-opacity:0.11952329;fill-rule:nonzero;stroke:none"
         d="m 397.51056,516.218 -0.22011,0.22012 1.56833,2.88903 c 0.0562,-0.10839 0.10485,-0.22446 0.16509,-0.33018 L 397.51056,516.218 z m 22.12173,0 -1.5133,2.77897 c 0.0602,0.10572 0.10895,0.22179 0.16509,0.33018 l 1.56833,-2.88903 L 419.63229,516.218 z m -10.9508,2.834 c -2.90626,0 -5.25529,2.3486 -5.25529,5.25529 0,0.10917 0.021,0.2226 0.0275,0.33017 0.1542,-2.76739 2.42163,-4.95262 5.22777,-4.95262 2.80657,0 5.0736,2.18523 5.22777,4.95262 0.006,-0.10757 0.0275,-0.221 0.0275,-0.33017 C 413.93677,521.4006 411.58817,519.052 408.68149,519.052 z m -14.19753,7.20882 0,0.63284 3.49435,1.04555 c 0.19739,0.72799 0.46509,1.42877 0.79793,2.09111 l 0.16508,-0.30266 c -0.41473,-0.7533 -0.73311,-1.57341 -0.96301,-2.42128 L 394.48396,526.26082 z m 28.17494,0 -3.49436,1.04556 c -0.22991,0.84787 -0.54825,1.66798 -0.96301,2.42128 l 0.16509,0.30266 c 0.33284,-0.66234 0.60051,-1.36312 0.79792,-2.09111 L 422.6589,526.89366 422.6589,526.26082 z m -25.25839,6.93368 -0.22012,0.41272 2.75146,2.75146 3.2192,-1.73342 c 0.76616,0.43654 1.58167,0.77481 2.4488,1.01804 l 1.04556,3.52186 3.85204,0 1.04555,-3.52186 c 0.8671,-0.24323 1.68265,-0.5815 2.4488,-1.01804 l 3.21921,1.73342 2.75146,-2.75146 -0.22012,-0.41272 -2.53134,2.53134 -3.21921,-1.73342 c -0.76615,0.43655 -1.5817,0.77481 -2.4488,1.01804 l -1.04555,3.52187 -3.85204,0 -1.04556,-3.52187 c -0.86713,-0.24323 -1.68264,-0.58149 -2.4488,-1.01804 l -3.2192,1.73342 L 397.40051,533.1945 Z"
         id="path1727"
         inkscape:connector-curvature="0" />
      <path
         inkscape:connector-curvature="0"
         id="path1729"
         d="m 397.51056,516.85084 -0.22011,0.22011 1.56833,2.88903 c 0.0562,-0.10838 0.10485,-0.22445 0.16509,-0.33017 L 397.51056,516.85084 z m 22.12173,0 -1.5133,2.77897 c 0.0602,0.10572 0.10895,0.22179 0.16509,0.33017 l 1.56833,-2.88903 L 419.63229,516.85084 z m -10.9508,2.834 c -2.90626,0 -5.25529,2.3486 -5.25529,5.25528 0,0.10917 0.021,0.2226 0.0275,0.33018 0.1542,-2.7674 2.42163,-4.95263 5.22777,-4.95263 2.80657,0 5.0736,2.18523 5.22777,4.95263 0.006,-0.10758 0.0275,-0.22101 0.0275,-0.33018 C 413.93677,522.03344 411.58817,519.68484 408.68149,519.68484 z m -14.19753,7.20882 0,0.63283 3.49435,1.04556 c 0.19739,0.72799 0.46509,1.42877 0.79793,2.09111 l 0.16508,-0.30266 c -0.41473,-0.7533 -0.73311,-1.57341 -0.96301,-2.42129 L 394.48396,526.89366 z m 28.17494,0 -3.49436,1.04555 c -0.22991,0.84788 -0.54825,1.66799 -0.96301,2.42129 l 0.16509,0.30266 c 0.33284,-0.66234 0.60051,-1.36312 0.79792,-2.09111 L 422.6589,527.52649 422.6589,526.89366 z m -25.25839,6.93367 -0.22012,0.41272 2.75146,2.75146 3.2192,-1.73342 c 0.76616,0.43655 1.58167,0.77481 2.4488,1.01804 l 1.04556,3.52187 3.85204,0 1.04555,-3.52187 c 0.8671,-0.24323 1.68265,-0.58149 2.4488,-1.01804 l 3.21921,1.73342 2.75146,-2.75146 -0.22012,-0.41272 -2.53134,2.53135 -3.21921,-1.73342 c -0.76615,0.43654 -1.5817,0.77481 -2.4488,1.01804 l -1.04555,3.52186 -3.85204,0 -1.04556,-3.52186 c -0.86713,-0.24323 -1.68264,-0.5815 -2.4488,-1.01804 l -3.2192,1.73342 L 397.40051,533.82733 Z"
         style="fill:#000000;fill-opacity:0.05882353;fill-rule:nonzero;stroke:none" />
      <path
         style="fill:#ffffff;fill-opacity:0.23629144;fill-rule:nonzero;stroke:none"
         d="m 397.51056,532.01084 -0.22011,-0.22012 1.56833,-2.88903 c 0.0562,0.10838 0.10485,0.22445 0.16509,0.33017 L 397.51056,532.01084 z m 22.12173,0 -1.5133,-2.77898 c 0.0602,-0.10572 0.10895,-0.22179 0.16509,-0.33017 l 1.56833,2.88903 L 419.63229,532.01084 z m -10.9508,-2.83401 c -2.90626,0 -5.25529,-2.3486 -5.25529,-5.25528 0,-0.10917 0.021,-0.2226 0.0275,-0.33018 0.1542,2.7674 2.42163,4.95263 5.22777,4.95263 2.80657,0 5.0736,-2.18523 5.22777,-4.95263 0.006,0.10758 0.0275,0.22101 0.0275,0.33018 C 413.93677,526.82823 411.58817,529.17683 408.68149,529.17683 z m -14.19753,-7.20882 0,-0.63283 3.49435,-1.04556 c 0.19739,-0.72799 0.46509,-1.42877 0.79793,-2.09111 l 0.16508,0.30266 c -0.41473,0.7533 -0.73311,1.57342 -0.96301,2.42129 L 394.48396,521.96801 z m 28.17494,0 -3.49436,-1.04555 c -0.22991,-0.84787 -0.54825,-1.66799 -0.96301,-2.42129 l 0.16509,-0.30266 c 0.33284,0.66234 0.60051,1.36312 0.79792,2.09111 l 3.49436,1.04556 L 422.6589,521.96801 z m -25.25839,-6.93367 -0.22012,-0.41272 2.75146,-2.75146 3.2192,1.73342 c 0.76616,-0.43655 1.58167,-0.77481 2.4488,-1.01804 l 1.04556,-3.52187 3.85204,0 1.04555,3.52187 c 0.8671,0.24323 1.68265,0.58149 2.4488,1.01804 l 3.21921,-1.73342 2.75146,2.75146 -0.22012,0.41272 -2.53134,-2.53135 -3.21921,1.73342 c -0.76615,-0.43654 -1.5817,-0.77481 -2.4488,-1.01804 l -1.04555,-3.52186 -3.85204,0 -1.04556,3.52186 c -0.86713,0.24323 -1.68264,0.5815 -2.4488,1.01804 l -3.2192,-1.73342 L 397.40051,515.03434 Z"
         id="path1731"
         inkscape:connector-curvature="0" />
      <path
         inkscape:connector-curvature="0"
         id="path1733"
         d="m 397.51056,531.378 -0.22011,-0.22012 1.56833,-2.88903 c 0.0562,0.10839 0.10485,0.22446 0.16509,0.33018 L 397.51056,531.378 z m 22.12173,0 -1.5133,-2.77897 c 0.0602,-0.10572 0.10895,-0.22179 0.16509,-0.33018 l 1.56833,2.88903 L 419.63229,531.378 z m -10.9508,-2.834 c -2.90626,0 -5.25529,-2.3486 -5.25529,-5.25529 0,-0.10917 0.021,-0.2226 0.0275,-0.33017 0.1542,2.76739 2.42163,4.95262 5.22777,4.95262 2.80657,0 5.0736,-2.18523 5.22777,-4.95262 0.006,0.10757 0.0275,0.221 0.0275,0.33017 C 413.93677,526.1954 411.58817,528.544 408.68149,528.544 z m -14.19753,-7.20882 0,-0.63284 3.49435,-1.04555 c 0.19739,-0.72799 0.46509,-1.42877 0.79793,-2.09111 l 0.16508,0.30266 c -0.41473,0.7533 -0.73311,1.57341 -0.96301,2.42128 L 394.48396,521.33518 z m 28.17494,0 -3.49436,-1.04556 c -0.22991,-0.84787 -0.54825,-1.66798 -0.96301,-2.42128 l 0.16509,-0.30266 c 0.33284,0.66234 0.60051,1.36312 0.79792,2.09111 l 3.49436,1.04555 L 422.6589,521.33518 z m -25.25839,-6.93368 -0.22012,-0.41272 2.75146,-2.75146 3.2192,1.73342 c 0.76616,-0.43654 1.58167,-0.77481 2.4488,-1.01804 l 1.04556,-3.52186 3.85204,0 1.04555,3.52186 c 0.8671,0.24323 1.68265,0.5815 2.4488,1.01804 l 3.21921,-1.73342 2.75146,2.75146 -0.22012,0.41272 -2.53134,-2.53134 -3.21921,1.73342 c -0.76615,-0.43655 -1.5817,-0.77481 -2.4488,-1.01804 l -1.04555,-3.52187 -3.85204,0 -1.04556,3.52187 c -0.86713,0.24323 -1.68264,0.58149 -2.4488,1.01804 l -3.2192,-1.73342 L 397.40051,514.4015 Z"
         style="fill:#ffffff;fill-opacity:0.11952329;fill-rule:nonzero;stroke:none" />
      <path
         style="fill:#ffffff;fill-opacity:0.05882353;fill-rule:nonzero;stroke:none"
         d="m 397.51056,530.74516 -0.22011,-0.22011 1.56833,-2.88903 c 0.0562,0.10838 0.10485,0.22445 0.16509,0.33017 L 397.51056,530.74516 z m 22.12173,0 -1.5133,-2.77897 c 0.0602,-0.10572 0.10895,-0.22179 0.16509,-0.33017 l 1.56833,2.88903 L 419.63229,530.74516 z m -10.9508,-2.834 c -2.90626,0 -5.25529,-2.3486 -5.25529,-5.25528 0,-0.10917 0.021,-0.2226 0.0275,-0.33018 0.1542,2.7674 2.42163,4.95263 5.22777,4.95263 2.80657,0 5.0736,-2.18523 5.22777,-4.95263 0.006,0.10758 0.0275,0.22101 0.0275,0.33018 C 413.93677,525.56256 411.58817,527.91116 408.68149,527.91116 z m -14.19753,-7.20882 0,-0.63283 3.49435,-1.04556 c 0.19739,-0.72799 0.46509,-1.42877 0.79793,-2.09111 l 0.16508,0.30266 c -0.41473,0.7533 -0.73311,1.57341 -0.96301,2.42129 L 394.48396,520.70234 z m 28.17494,0 -3.49436,-1.04555 c -0.22991,-0.84788 -0.54825,-1.66799 -0.96301,-2.42129 l 0.16509,-0.30266 c 0.33284,0.66234 0.60051,1.36312 0.79792,2.09111 l 3.49436,1.04556 L 422.6589,520.70234 z m -25.25839,-6.93367 -0.22012,-0.41272 2.75146,-2.75146 3.2192,1.73342 c 0.76616,-0.43655 1.58167,-0.77481 2.4488,-1.01804 l 1.04556,-3.52187 3.85204,0 1.04555,3.52187 c 0.8671,0.24323 1.68265,0.58149 2.4488,1.01804 l 3.21921,-1.73342 2.75146,2.75146 -0.22012,0.41272 -2.53134,-2.53135 -3.21921,1.73342 c -0.76615,-0.43654 -1.5817,-0.77481 -2.4488,-1.01804 l -1.04555,-3.52186 -3.85204,0 -1.04556,3.52186 c -0.86713,0.24323 -1.68264,0.5815 -2.4488,1.01804 l -3.2192,-1.73342 L 397.40051,513.76867 Z"
         id="path1735"
         inkscape:connector-curvature="0" />
      <path
         inkscape:connector-curvature="0"
         id="path1493"
         transform="translate(384.57143,499.798)"
         d="m 22.0625,9.9375 -1.03125,3.5 c -0.811907,0.226972 -1.588166,0.540287 -2.3125,0.9375 l -3.25,-1.75 -2.75,2.75 1.75,3.1875 c -0.41306,0.724565 -0.75917,1.496867 -1,2.3125 l -3.5625,1.0625 0,3.875 3.5,1.03125 c 0.230879,0.859074 0.548368,1.67526 0.96875,2.4375 l -1.75,3.28125 2.71875,2.71875 3.21875,-1.75 c 0.760848,0.433746 1.576926,0.788082 2.4375,1.03125 l 1.0625,3.53125 3.875,0 L 27,34.5625 c 0.860547,-0.243168 1.676653,-0.597504 2.4375,-1.03125 l 3.21875,1.75 2.71875,-2.75 -1.75,-3.25 c 0.420404,-0.76224 0.737854,-1.578426 0.96875,-2.4375 l 3.5,-1.03125 0,-3.875 -3.5625,-1.0625 c -0.240847,-0.815633 -0.586918,-1.587935 -1,-2.3125 l 1.75,-3.1875 -2.75,-2.75 -3.25,1.75 c -0.724332,-0.397213 -1.500618,-0.710528 -2.3125,-0.9375 L 25.9375,9.9375 22.0625,9.9375 z m 2.0625,8.6875 c 2.90668,0 5.25,2.34332 5.25,5.25 0,2.90626 -2.34332,5.28125 -5.25,5.28125 -2.90625,0 -5.28125,-2.37499 -5.28125,-5.28125 C 18.84375,20.96832 21.21875,18.625 24.125,18.625 Z"
         style="fill:none;stroke:none" />
      <path
         inkscape:connector-curvature="0"
         id="path88"
         transform="translate(384.57143,499.798)"
         d="m 22.0625,9.9375 -1.03125,3.5 c -0.811907,0.226972 -1.588166,0.540287 -2.3125,0.9375 l -3.25,-1.75 -2.75,2.75 1.75,3.1875 c -0.41306,0.724565 -0.75917,1.496867 -1,2.3125 l -3.5625,1.0625 0,3.875 3.5,1.03125 c 0.230879,0.859074 0.548368,1.67526 0.96875,2.4375 l -1.75,3.28125 2.71875,2.71875 3.21875,-1.75 c 0.760848,0.433746 1.576926,0.788082 2.4375,1.03125 l 1.0625,3.53125 3.875,0 L 27,34.5625 c 0.860547,-0.243168 1.676653,-0.597504 2.4375,-1.03125 l 3.21875,1.75 2.71875,-2.75 -1.75,-3.25 c 0.420404,-0.76224 0.737854,-1.578426 0.96875,-2.4375 l 3.5,-1.03125 0,-3.875 -3.5625,-1.0625 c -0.240847,-0.815633 -0.586918,-1.587935 -1,-2.3125 l 1.75,-3.1875 -2.75,-2.75 -3.25,1.75 c -0.724332,-0.397213 -1.500618,-0.710528 -2.3125,-0.9375 L 25.9375,9.9375 22.0625,9.9375 z m 2.0625,8.6875 c 2.90668,0 5.25,2.34332 5.25,5.25 0,2.90626 -2.34332,5.28125 -5.25,5.28125 -2.90625,0 -5.28125,-2.37499 -5.28125,-5.28125 C 18.84375,20.96832 21.21875,18.625 24.125,18.625 Z"
         style="fill:url(#linearGradient1813);fill-opacity:1;fill-rule:nonzero;stroke:none" />
    </g>
  </g>
</svg>
