<?xml version="1.0" encoding="UTF-8" standalone="no"?>
<!-- Created with Inkscape (http://www.inkscape.org/) -->

<svg
   xmlns:dc="http://purl.org/dc/elements/1.1/"
   xmlns:cc="http://creativecommons.org/ns#"
   xmlns:rdf="http://www.w3.org/1999/02/22-rdf-syntax-ns#"
   xmlns:svg="http://www.w3.org/2000/svg"
   xmlns="http://www.w3.org/2000/svg"
   xmlns:xlink="http://www.w3.org/1999/xlink"
   xmlns:sodipodi="http://sodipodi.sourceforge.net/DTD/sodipodi-0.dtd"
   xmlns:inkscape="http://www.inkscape.org/namespaces/inkscape"
   width="48"
   height="48"
   id="svg2"
   version="1.1"
   inkscape:version="0.48+devel r12310"
   sodipodi:docname="folder-network.svg">
  <defs
     id="defs4">
    <linearGradient
       inkscape:collect="always"
       id="linearGradient1035-4">
      <stop
         style="stop-color:#ffffff;stop-opacity:1"
         offset="0"
         id="stop1037-6" />
      <stop
         style="stop-color:#ececec;stop-opacity:1"
         offset="1"
         id="stop1039-2" />
    </linearGradient>
    <linearGradient
       gradientTransform="matrix(0.87849084,0,0,-0.87849084,3.832436,-879.39555)"
       y2="-1052.8083"
       x2="27.709515"
       y1="-1004.9823"
       x1="27.709515"
       gradientUnits="userSpaceOnUse"
       id="linearGradient2700-9"
       xlink:href="#linearGradient1045-3"
       inkscape:collect="always" />
    <linearGradient
       id="linearGradient1045-3"
       inkscape:collect="always">
      <stop
         id="stop1047-5"
         offset="0"
         style="stop-color:#000000;stop-opacity:1;" />
      <stop
         id="stop1049-0"
         offset="1"
         style="stop-color:#000000;stop-opacity:0;" />
    </linearGradient>
    <linearGradient
       gradientUnits="userSpaceOnUse"
       y2="33.41077"
       x2="-1006.7538"
       y1="33.41077"
       x1="-1050.2408"
       id="linearGradient2875-0"
       xlink:href="#linearGradient2869-6"
       inkscape:collect="always"
       gradientTransform="matrix(0.95835365,0,0,0.95835365,-42.83876,0.99951249)" />
    <linearGradient
       id="linearGradient2869-6"
       inkscape:collect="always">
      <stop
         id="stop2871-0"
         offset="0"
         style="stop-color:#f9f9f9;stop-opacity:1" />
      <stop
         id="stop2873-0"
         offset="1"
         style="stop-color:#ffffff;stop-opacity:1" />
    </linearGradient>
    <linearGradient
       gradientTransform="matrix(0,0.95835365,0.60396245,0,636.58677,1.0107)"
       y2="-1026.1804"
       x2="1.2499999"
       y1="-1026.1804"
       x1="48.5"
       gradientUnits="userSpaceOnUse"
       id="linearGradient1043-1"
       xlink:href="#linearGradient2476-4"
       inkscape:collect="always" />
    <linearGradient
       y2="-1045.8168"
       x2="29"
       y1="-1059.3043"
       x1="29"
       gradientTransform="matrix(0,0.95835365,0.60396245,0,636.58677,1.0107)"
       gradientUnits="userSpaceOnUse"
       id="linearGradient2800-1"
       xlink:href="#linearGradient1045-3"
       inkscape:collect="always" />
    <linearGradient
       inkscape:collect="always"
       xlink:href="#linearGradient1035-4"
       id="linearGradient915-7"
       gradientUnits="userSpaceOnUse"
       x1="23.875"
       y1="-1052.4872"
       x2="23.875"
       y2="-1004.4247"
       gradientTransform="matrix(0.95835365,0,0,-0.95835365,0.9995135,-961.52344)" />
    <linearGradient
       id="linearGradient2476-4"
       inkscape:collect="always">
      <stop
         id="stop2478-8"
         offset="0"
         style="stop-color:#121212;stop-opacity:1" />
      <stop
         id="stop2480-4"
         offset="1"
         style="stop-color:#54555a;stop-opacity:1" />
    </linearGradient>
    <linearGradient
       id="linearGradient4421"
       inkscape:collect="always">
      <stop
         id="stop4423"
         offset="0"
         style="stop-color:#11b8fe;stop-opacity:1" />
      <stop
         id="stop4425"
         offset="1"
         style="stop-color:#0eb9fd;stop-opacity:1" />
    </linearGradient>
    <linearGradient
       gradientUnits="userSpaceOnUse"
       y2="1018.364"
       x2="25.632622"
       y1="1038.3719"
       x1="25.632622"
       id="linearGradient1036"
       xlink:href="#linearGradient4421"
       inkscape:collect="always"
       gradientTransform="translate(-47.030174,3.1785736)" />
  </defs>
  <sodipodi:namedview
     id="base"
     pagecolor="#ffffff"
     bordercolor="#666666"
     borderopacity="1.0"
     inkscape:pageopacity="0.0"
     inkscape:pageshadow="2"
     inkscape:zoom="5.6"
     inkscape:cx="3.2090161"
     inkscape:cy="46.47981"
     inkscape:document-units="px"
     inkscape:current-layer="layer1"
     showgrid="false"
     inkscape:window-width="1366"
     inkscape:window-height="714"
     inkscape:window-x="0"
     inkscape:window-y="30"
     inkscape:window-maximized="1">
    <inkscape:grid
       type="xygrid"
       id="grid2995" />
  </sodipodi:namedview>
  <metadata
     id="metadata7">
    <rdf:RDF>
      <cc:Work
         rdf:about="">
        <dc:format>image/svg+xml</dc:format>
        <dc:type
           rdf:resource="http://purl.org/dc/dcmitype/StillImage" />
        <dc:title />
      </cc:Work>
    </rdf:RDF>
  </metadata>
  <g
     inkscape:label="Capa 1"
     inkscape:groupmode="layer"
     id="layer1"
     transform="translate(0,-1004.3622)">
    <g
       id="layer1-5"
       inkscape:label="Capa 1"
       transform="translate(0,1.7382813e-5)">
      <rect
         ry="6.3565426"
         y="1005.6122"
         x="1.25"
         height="45.5"
         width="45.5"
         id="rect6294-9"
         style="color:#000000;fill:#333333;fill-opacity:1;fill-rule:nonzero;stroke:none;stroke-width:0.2;marker:none;visibility:visible;display:inline;overflow:visible;enable-background:accumulate" />
      <path
         id="rect1041-1"
         transform="translate(0,1004.3622)"
         d="M 7.59375,1.75 C 4.3492254,1.75 1.75,4.3492254 1.75,7.59375 l 0,32.8125 c 0,3.244525 2.5992254,5.84375 5.84375,5.84375 l 32.8125,0 c 3.244525,0 5.84375,-2.599225 5.84375,-5.84375 l 0,-32.8125 C 46.25,4.3492254 43.650775,1.75 40.40625,1.75 L 7.59375,1.75 Z"
         style="fill:url(#linearGradient915-7);fill-opacity:1;stroke:none"
         inkscape:connector-curvature="0" />
      <path
         id="rect2698-1"
         transform="translate(0,1004.3622)"
         d="m 5.53125,2.9375 c -0.9463781,0 -1.6875,0.7411219 -1.6875,1.6875 l 0,38.75 c 0,0.946378 0.7411219,1.71875 1.6875,1.71875 l 38.34375,0 C 44.862828,44.365633 45.628447,43.359404 46,42.15625 L 46,5.84375 C 45.635414,4.6631552 44.897901,3.6631375 43.9375,2.9375 L 5.53125,2.9375 Z"
         style="opacity:0.15;fill:url(#linearGradient2700-9);fill-opacity:1;stroke:none"
         inkscape:connector-curvature="0" />
      <g
         transform="matrix(0.90514036,0,0,0.90116667,5.7767307,101.62639)"
         id="g948">
        <rect
           transform="matrix(-2.3953356e-8,-1,1,0,0,0)"
           ry="0.906506"
           y="20.790474"
           x="-1049.4572"
           height="22.376604"
           width="42.167561"
           id="rect2714-0"
           style="fill:#000000;fill-opacity:0.29411765;stroke:none" />
        <rect
           style="fill:url(#linearGradient2875-0);fill-opacity:1;stroke:none"
           id="rect2716-4"
           width="41.554951"
           height="21.744093"
           x="-1049.1509"
           y="21.106728"
           ry="0.88088214"
           transform="matrix(-2.372795e-8,-1,1,0,0,0)" />
        <path
           style="fill:#000000;fill-opacity:0.04858303;stroke:none"
           d="m 42.178771,1049.1577 c 0.03088,-0.092 0.0599,-0.1972 0.0599,-0.2995 l 0,-39.7717 c 0,-0.4879 -0.380498,-0.8984 -0.868507,-0.8984 l -19.975684,0 c -0.08079,0 -0.164565,0.01 -0.239588,0.03 0.124383,-0.3487 0.452768,-0.599 0.838559,-0.599 l 19.975683,0 c 0.48801,0 0.868508,0.4104 0.868508,0.8985 l 0,39.7717 C 42.837639,1048.7001 42.555331,1049.0555 42.178771,1049.1577 Z"
           id="rect2837-4"
           inkscape:connector-curvature="0" />
      </g>
      <path
         sodipodi:nodetypes="ssssccccs"
         inkscape:connector-curvature="0"
         id="rect2991-1-7"
         transform="translate(0,1004.3622)"
         d="M 7.59375,1.75 C 4.3492254,1.75 1.75,4.3492254 1.75,7.59375 l 0,32.8125 c 0,3.244525 2.5992254,5.84375 5.84375,5.84375 l 31.523437,0 0,-24.03125 2.15625,-2.15625 L 41.273437,1.75 Z"
         style="fill:url(#linearGradient1043-1);fill-opacity:1;stroke:none" />
      <path
         sodipodi:nodetypes="ccccccccc"
         inkscape:connector-curvature="0"
         id="path1068-3"
         transform="translate(0,1004.3622)"
         d="m 41.273437,1.75 0,18.3125 -2.15625,2.15625 0,24.03125 0.40625,0 0,-23.84375 L 41.679687,20.25 41.679687,1.75 Z"
         style="fill:#000000;fill-opacity:0.23529412;stroke:none" />
      <path
         sodipodi:nodetypes="ccccccccc"
         inkscape:connector-curvature="0"
         id="path1080-0"
         transform="translate(0,1004.3622)"
         d="m 41.679687,1.75 0,18.5 -2.15625,2.15625 0,23.84375 0.4375,0 0,-23.6875 2.15625,-2.15625 L 42.117187,1.75 Z"
         style="fill:#000000;fill-opacity:0.07843137;stroke:none" />
      <path
         sodipodi:nodetypes="ccccccccc"
         inkscape:connector-curvature="0"
         id="path1082-4"
         transform="translate(0,1004.3622)"
         d="m 42.117187,1.75 0,18.65625 -2.15625,2.15625 0,23.6875 0.40625,0 0,-23.5 2.15625,-2.15625 L 42.523437,1.75 Z"
         style="fill:#000000;fill-opacity:0.01960784;stroke:none" />
      <path
         sodipodi:nodetypes="ccccccccc"
         inkscape:connector-curvature="0"
         id="path1113-3"
         transform="translate(0,1004.3622)"
         d="m 40.835937,1.75 0,18.125 -2.15625,2.15625 0,24.21875 0.4375,0 0,-24.03125 2.15625,-2.15625 L 41.273437,1.75 Z"
         style="fill:#ffffff;fill-opacity:0.23529412;stroke:none" />
      <path
         sodipodi:nodetypes="ccccccccc"
         inkscape:connector-curvature="0"
         id="path1115-0"
         transform="translate(0,1004.3622)"
         d="m 40.429687,1.75 0,17.9375 -2.15625,2.15625 0,24.40625 0.40625,0 0,-24.21875 L 40.835937,19.875 40.835937,1.75 Z"
         style="fill:#ffffff;fill-opacity:0.1187944;stroke:none" />
      <path
         sodipodi:nodetypes="ccccccccc"
         inkscape:connector-curvature="0"
         id="path1117-4"
         transform="translate(0,1004.3622)"
         d="m 40.023437,1.75 0,17.75 -2.15625,2.15625 0,24.59375 0.40625,0 0,-24.40625 2.15625,-2.15625 L 40.429687,1.75 Z"
         style="fill:#ffffff;fill-opacity:0.02745098;stroke:none" />
      <path
         id="path2796-6"
         transform="translate(0,1004.3622)"
         d="M 7.59375,1.75 C 4.3492254,1.75 1.75,4.3492254 1.75,7.59375 l 0,32.8125 c 0,3.244525 2.5992254,5.84375 5.84375,5.84375 l 0.125,0 0,-44.5 L 7.59375,1.75 Z"
         style="opacity:0.30899999;fill:url(#linearGradient2800-1);fill-opacity:1;stroke:none"
         inkscape:connector-curvature="0" />
      <path
         inkscape:connector-curvature="0"
         style="color:#000000;fill:#ffffff;fill-opacity:1;fill-rule:nonzero;stroke:none;stroke-width:0.2;marker:none;visibility:visible;display:inline;overflow:visible;enable-background:accumulate"
         d="m 1.749988,1012.5498 0,-0.5625 c 0,-3.2445 2.59922,-5.875 5.84375,-5.875 l 32.8125,0 c 3.24452,0 5.84375,2.6305 5.84375,5.875 l 0,0.5625 c 0,-3.2445 -2.59923,-5.875 -5.84375,-5.875 l -32.8125,0 C 4.349208,1006.6748 1.749988,1009.3053 1.749988,1012.5498 Z"
         id="path6361-9" />
      <path
         id="path6388-8"
         d="m 1.749988,1044.1748 0,0.5625 c 0,3.2445 2.59922,5.875 5.84375,5.875 l 32.8125,0 c 3.24452,0 5.84375,-2.6305 5.84375,-5.875 l 0,-0.5625 c 0,3.2445 -2.59923,5.875 -5.84375,5.875 l -32.8125,0 C 4.349208,1050.0498 1.749988,1047.4193 1.749988,1044.1748 Z"
         style="color:#000000;fill:#000000;fill-opacity:1;fill-rule:nonzero;stroke:none;stroke-width:0.2;marker:none;visibility:visible;display:inline;overflow:visible;enable-background:accumulate"
         inkscape:connector-curvature="0" />
      <path
         id="rect4338"
         transform="translate(0,1004.3622)"
         d="M 7.59375,1.75 C 7.019994,1.75 6.4600914,1.8169906 5.9375,1.96875 L 1.75,9.25 1.75,18.8125 11.625,1.75 7.59375,1.75 z m 12.5,0 L 1.75,33.5 l 0,6.90625 c 0,0.70254 0.1198537,1.377807 0.34375,2 L 25.625,1.75 20.09375,1.75 z m 14,0 -25.71875,44.5 5.53125,0 L 39.625,1.75 34.09375,1.75 Z M 41.28125,13.53125 22.375,46.25 l 5.53125,0 11.125,-19.25 0,-4.875 2.25,-2.25 L 41.28125,13.53125 Z"
         style="opacity:0.1;fill:#000000;fill-opacity:0.53679654;stroke:none"
         inkscape:connector-curvature="0" />
      <path
         id="path4355"
         transform="translate(0,1004.3622)"
         d="M 20.09375,1.75 1.75,33.5 1.75,34.25 20.53125,1.75 20.09375,1.75 z m 14,0 -25.71875,44.5 0.4375,0 L 34.53125,1.75 34.09375,1.75 Z M 6.40625,1.875 C 6.248005,1.9071022 6.0906921,1.9242634 5.9375,1.96875 L 1.75,9.25 1.75,10 6.4375,1.875 C 6.4276843,1.876939 6.4160474,1.8730125 6.40625,1.875 Z M 41.28125,13.53125 22.375,46.25 l 0.4375,0 L 41.28125,14.28125 41.28125,13.53125 Z"
         style="opacity:0.1;fill:#000000;fill-opacity:0.53679654;stroke:none"
         inkscape:connector-curvature="0" />
      <path
         id="path4360"
         transform="translate(0,1004.3622)"
         d="m 11.625,1.75 -9.875,17.09375 0,0.75 L 12.0625,1.75 11.625,1.75 z m 14,0 -23.5,40.6875 c 0.059285,0.161197 0.1148306,0.314725 0.1875,0.46875 L 26.0625,1.75 25.625,1.75 z m 14,0 -25.71875,44.5 0.4375,0 L 40.0625,1.75 39.625,1.75 z m -0.59375,25.28125 -11.125,19.21875 0.4375,0 10.6875,-18.5 L 39.03125,27.03125 Z"
         style="opacity:0.1;fill:#ffffff;fill-opacity:0.19480519;stroke:none"
         inkscape:connector-curvature="0" />
    </g>
    <g
       id="g1069"
       transform="translate(47.030174,-3.1786)">
      <path
         inkscape:connector-curvature="0"
         id="path2830-8"
         d="m -23.030174,1021.5408 c -4.04227,0 -8.072124,2.0337 -11.156274,6.0937 l 1.281253,1.6876 c 5.456253,-7.1829 14.293788,-7.1829 19.750042,0 l 1.281253,-1.6876 C -14.958049,1023.5745 -18.987903,1021.5407 -23.030174,1021.5408 z m 0,5.1251 c -3.045362,0 -6.082734,1.5349 -8.406267,4.5936 l 1.437503,1.9063 c 3.850254,-5.0686 10.087274,-5.0686 13.937529,0 l 1.437503,-1.9063 C -16.947439,1028.2008 -19.984812,1026.6659 -23.030174,1026.6659 z m 0,5.1562 c -2.044607,0 -4.096279,1.0088 -5.656262,3.0625 l 1.375003,1.7812 c 2.375761,-3.1194 6.220358,-3.1245 8.593769,0 l 1.343752,-1.7812 C -18.933895,1032.8309 -20.985566,1031.8221 -23.030174,1031.8221 z m 0,5.1562 c -1.32696,0 -2.406255,1.0241 -2.406255,2.2813 0,1.2572 1.079295,2.2812 2.406255,2.2812 1.32696,0 2.406255,-1.024 2.406255,-2.2812 C -20.623919,1038.0024 -21.703214,1036.9783 -23.030174,1036.9783 Z"
         style="fill:url(#linearGradient1036);fill-opacity:1;stroke:none" />
      <path
         inkscape:connector-curvature="0"
         id="path999-1"
         d="m -23.030174,1021.5408 c -4.04227,0 -8.072124,2.0337 -11.156274,6.0937 l 0.1875,0.2501 c 3.060069,-3.905 7.004567,-5.8751 10.968774,-5.8751 3.964208,-10e-5 7.908705,1.9701 10.968774,5.8751 l 0.1875,-0.2501 C -14.958049,1023.5745 -18.987903,1021.5407 -23.030174,1021.5408 z m 0,5.1251 c -3.045362,0 -6.082734,1.5349 -8.406267,4.5936 l 0.1875,0.2501 c 2.299023,-2.9033 5.251941,-4.375 8.218767,-4.375 2.966827,0 5.919745,1.4717 8.218768,4.375 l 0.1875,-0.2501 C -16.947439,1028.2008 -19.984812,1026.6659 -23.030174,1026.6659 z m 0,5.1562 c -2.044607,0 -4.096279,1.0088 -5.656262,3.0625 l 0.1875,0.25 c 1.535531,-1.8967 3.503125,-2.8438 5.468762,-2.8438 1.965637,0 3.933232,0.9471 5.468762,2.8438 l 0.1875,-0.25 C -18.933895,1032.8309 -20.985566,1031.8221 -23.030174,1031.8221 z m 0,5.1562 c -1.32696,0 -2.406255,1.0241 -2.406255,2.2813 0,0.074 0.02405,0.147 0.03125,0.2187 0.130733,-1.1412 1.136412,-2.0312 2.375005,-2.0312 1.238593,0 2.244272,0.89 2.375005,2.0312 0.0072,-0.072 0.03125,-0.1453 0.03125,-0.2187 C -20.623919,1038.0024 -21.703214,1036.9783 -23.030174,1036.9783 Z"
         style="fill:#000000;fill-opacity:0.39215686;stroke:none" />
      <path
         inkscape:connector-curvature="0"
         id="path1004-9"
         d="m -23.030174,1023.4158 c -3.573448,0 -7.146895,1.8149 -9.875021,5.4063 l -1.093753,-1.4375 c -0.06536,0.083 -0.122958,0.1649 -0.1875,0.2499 l 1.281253,1.6876 c 5.456253,-7.1829 14.293788,-7.1829 19.750042,0 l 1.281253,-1.6876 c -0.06454,-0.085 -0.122138,-0.1668 -0.1875,-0.2499 l -1.093753,1.4375 C -15.883279,1025.2307 -19.456726,1023.4158 -23.030174,1023.4158 z m 0,5.4374 c -2.521819,0 -5.043638,1.2782 -6.968764,3.8126 l -1.250003,-1.6562 c -0.06596,0.083 -0.122634,0.1646 -0.1875,0.25 l 1.437503,1.9062 c 3.850254,-5.0686 10.087274,-5.0686 13.937529,0 l 1.437503,-1.9062 c -0.06487,-0.085 -0.121537,-0.167 -0.1875,-0.25 l -1.250003,1.6562 C -17.986536,1030.1314 -20.508354,1028.8532 -23.030174,1028.8532 z m 0.03125,4.9688 c -1.554795,7e-4 -3.124628,0.7841 -4.312509,2.3438 l -1.187503,-1.5312 c -0.06698,0.082 -0.122208,0.164 -0.1875,0.25 l 1.375003,1.7812 c 2.375761,-3.1195 6.220358,-3.1245 8.593769,0 l 1.343752,-1.7812 c -0.06529,-0.086 -0.120523,-0.1677 -0.1875,-0.25 l -1.156252,1.5312 C -19.90437,1034.6036 -21.444129,1033.8214 -22.998924,1033.822 z m -2.406255,5.1876 c -0.0093,0.081 -0.03125,0.1662 -0.03125,0.25 0,1.2571 1.079295,2.2812 2.406255,2.2812 1.32696,0 2.406255,-1.0241 2.406255,-2.2812 0,-0.084 -0.02192,-0.1687 -0.03125,-0.25 -0.130733,1.1412 -1.136412,2.0312 -2.375005,2.0312 C -24.268767,1041.0408 -25.274446,1040.1508 -25.405179,1039.0096 Z"
         style="fill:#ffffff;fill-opacity:0.35294118;stroke:none" />
    </g>
  </g>
</svg>
