<?xml version="1.0" encoding="UTF-8" standalone="no"?>
<!-- Created with Inkscape (http://www.inkscape.org/) -->

<svg
   xmlns:dc="http://purl.org/dc/elements/1.1/"
   xmlns:cc="http://creativecommons.org/ns#"
   xmlns:rdf="http://www.w3.org/1999/02/22-rdf-syntax-ns#"
   xmlns:svg="http://www.w3.org/2000/svg"
   xmlns="http://www.w3.org/2000/svg"
   xmlns:xlink="http://www.w3.org/1999/xlink"
   xmlns:sodipodi="http://sodipodi.sourceforge.net/DTD/sodipodi-0.dtd"
   xmlns:inkscape="http://www.inkscape.org/namespaces/inkscape"
   width="48"
   height="48"
   id="svg2"
   version="1.1"
   inkscape:version="0.48+devel r12310"
   sodipodi:docname="application-x-gnome-saved-search.svg">
  <defs
     id="defs4">
    <linearGradient
       inkscape:collect="always"
       id="linearGradient1035-4">
      <stop
         style="stop-color:#ffffff;stop-opacity:1"
         offset="0"
         id="stop1037-3" />
      <stop
         style="stop-color:#ececec;stop-opacity:1"
         offset="1"
         id="stop1039-5" />
    </linearGradient>
    <linearGradient
       gradientTransform="matrix(0.87849084,0,0,-0.87849084,3.832436,-879.39555)"
       y2="-1052.8083"
       x2="27.709515"
       y1="-1004.9823"
       x1="27.709515"
       gradientUnits="userSpaceOnUse"
       id="linearGradient2700-5"
       xlink:href="#linearGradient1045-7"
       inkscape:collect="always" />
    <linearGradient
       id="linearGradient1045-7"
       inkscape:collect="always">
      <stop
         id="stop1047-7"
         offset="0"
         style="stop-color:#000000;stop-opacity:1;" />
      <stop
         id="stop1049-3"
         offset="1"
         style="stop-color:#000000;stop-opacity:0;" />
    </linearGradient>
    <linearGradient
       gradientUnits="userSpaceOnUse"
       y2="33.41077"
       x2="-1006.7538"
       y1="33.41077"
       x1="-1050.2408"
       id="linearGradient2875-7"
       xlink:href="#linearGradient2869-3"
       inkscape:collect="always"
       gradientTransform="matrix(0.95835365,0,0,0.95835365,-42.83876,0.99951249)" />
    <linearGradient
       id="linearGradient2869-3"
       inkscape:collect="always">
      <stop
         id="stop2871-9"
         offset="0"
         style="stop-color:#f9f9f9;stop-opacity:1" />
      <stop
         id="stop2873-3"
         offset="1"
         style="stop-color:#ffffff;stop-opacity:1" />
    </linearGradient>
    <linearGradient
       gradientTransform="matrix(0,0.95835365,0.60396245,0,636.58677,1.0107)"
       y2="-1026.1804"
       x2="1.2499999"
       y1="-1026.1804"
       x1="48.5"
       gradientUnits="userSpaceOnUse"
       id="linearGradient1043-9"
       xlink:href="#linearGradient2476-4"
       inkscape:collect="always" />
    <linearGradient
       y2="-1045.8168"
       x2="29"
       y1="-1059.3043"
       x1="29"
       gradientTransform="matrix(0,0.95835365,0.60396245,0,636.58677,1.0107)"
       gradientUnits="userSpaceOnUse"
       id="linearGradient2800-1"
       xlink:href="#linearGradient1045-7"
       inkscape:collect="always" />
    <linearGradient
       inkscape:collect="always"
       xlink:href="#linearGradient1035-4"
       id="linearGradient915-0"
       gradientUnits="userSpaceOnUse"
       x1="23.875"
       y1="-1052.4872"
       x2="23.875"
       y2="-1004.4247"
       gradientTransform="matrix(0.95835365,0,0,-0.95835365,0.9995135,-961.52344)" />
    <linearGradient
       id="linearGradient2476-4"
       inkscape:collect="always">
      <stop
         id="stop2478-8"
         offset="0"
         style="stop-color:#121212;stop-opacity:1" />
      <stop
         id="stop2480-4"
         offset="1"
         style="stop-color:#54555a;stop-opacity:1" />
    </linearGradient>
    <linearGradient
       inkscape:collect="always"
       id="linearGradient4421">
      <stop
         style="stop-color:#11b8fe;stop-opacity:1"
         offset="0"
         id="stop4423" />
      <stop
         style="stop-color:#0eb9fd;stop-opacity:1"
         offset="1"
         id="stop4425" />
    </linearGradient>
    <linearGradient
       gradientUnits="userSpaceOnUse"
       y2="1018.3622"
       x2="27.687502"
       y1="1038.3622"
       x1="27.687502"
       id="linearGradient1034"
       xlink:href="#linearGradient4421"
       inkscape:collect="always"
       gradientTransform="translate(-56.829958,-9.5875725)" />
  </defs>
  <sodipodi:namedview
     id="base"
     pagecolor="#ffffff"
     bordercolor="#666666"
     borderopacity="1.0"
     inkscape:pageopacity="0.0"
     inkscape:pageshadow="2"
     inkscape:zoom="7.9195959"
     inkscape:cx="7.2303216"
     inkscape:cy="39.421908"
     inkscape:document-units="px"
     inkscape:current-layer="layer1"
     showgrid="false"
     inkscape:window-width="1366"
     inkscape:window-height="714"
     inkscape:window-x="0"
     inkscape:window-y="30"
     inkscape:window-maximized="1" />
  <metadata
     id="metadata7">
    <rdf:RDF>
      <cc:Work
         rdf:about="">
        <dc:format>image/svg+xml</dc:format>
        <dc:type
           rdf:resource="http://purl.org/dc/dcmitype/StillImage" />
        <dc:title />
      </cc:Work>
    </rdf:RDF>
  </metadata>
  <g
     inkscape:label="Capa 1"
     inkscape:groupmode="layer"
     id="layer1"
     transform="translate(0,-1004.3622)">
    <g
       id="layer1-6"
       inkscape:label="Capa 1"
       transform="translate(0,1.7382813e-5)">
      <rect
         ry="6.3565426"
         y="1005.6122"
         x="1.25"
         height="45.5"
         width="45.5"
         id="rect6294-6"
         style="color:#000000;fill:#333333;fill-opacity:1;fill-rule:nonzero;stroke:none;stroke-width:0.2;marker:none;visibility:visible;display:inline;overflow:visible;enable-background:accumulate" />
      <path
         id="rect1041-7"
         transform="translate(0,1004.3622)"
         d="M 7.59375,1.75 C 4.3492254,1.75 1.75,4.3492254 1.75,7.59375 l 0,32.8125 c 0,3.244525 2.5992254,5.84375 5.84375,5.84375 l 32.8125,0 c 3.244525,0 5.84375,-2.599225 5.84375,-5.84375 l 0,-32.8125 C 46.25,4.3492254 43.650775,1.75 40.40625,1.75 L 7.59375,1.75 Z"
         style="fill:url(#linearGradient915-0);fill-opacity:1;stroke:none"
         inkscape:connector-curvature="0" />
      <path
         id="rect2698-9"
         transform="translate(0,1004.3622)"
         d="m 5.53125,2.9375 c -0.9463781,0 -1.6875,0.7411219 -1.6875,1.6875 l 0,38.75 c 0,0.946378 0.7411219,1.71875 1.6875,1.71875 l 38.34375,0 C 44.862828,44.365633 45.628447,43.359404 46,42.15625 L 46,5.84375 C 45.635414,4.6631552 44.897901,3.6631375 43.9375,2.9375 L 5.53125,2.9375 Z"
         style="opacity:0.15;fill:url(#linearGradient2700-5);fill-opacity:1;stroke:none"
         inkscape:connector-curvature="0" />
      <g
         transform="matrix(0.90514036,0,0,0.90116667,5.7767307,101.62639)"
         id="g948">
        <rect
           transform="matrix(-2.3953356e-8,-1,1,0,0,0)"
           ry="0.906506"
           y="20.790474"
           x="-1049.4572"
           height="22.376604"
           width="42.167561"
           id="rect2714-0"
           style="fill:#000000;fill-opacity:0.29411765;stroke:none" />
        <rect
           style="fill:url(#linearGradient2875-7);fill-opacity:1;stroke:none"
           id="rect2716-1"
           width="41.554951"
           height="21.744093"
           x="-1049.1509"
           y="21.106728"
           ry="0.88088214"
           transform="matrix(-2.372795e-8,-1,1,0,0,0)" />
        <path
           style="fill:#000000;fill-opacity:0.04858303;stroke:none"
           d="m 42.178771,1049.1577 c 0.03088,-0.092 0.0599,-0.1972 0.0599,-0.2995 l 0,-39.7717 c 0,-0.4879 -0.380498,-0.8984 -0.868507,-0.8984 l -19.975684,0 c -0.08079,0 -0.164565,0.01 -0.239588,0.03 0.124383,-0.3487 0.452768,-0.599 0.838559,-0.599 l 19.975683,0 c 0.48801,0 0.868508,0.4104 0.868508,0.8985 l 0,39.7717 C 42.837639,1048.7001 42.555331,1049.0555 42.178771,1049.1577 Z"
           id="rect2837-8"
           inkscape:connector-curvature="0" />
      </g>
      <path
         sodipodi:nodetypes="ssssccccs"
         inkscape:connector-curvature="0"
         id="rect2991-1-9"
         transform="translate(0,1004.3622)"
         d="M 7.59375,1.75 C 4.3492254,1.75 1.75,4.3492254 1.75,7.59375 l 0,32.8125 c 0,3.244525 2.5992254,5.84375 5.84375,5.84375 l 31.523437,0 0,-24.03125 2.15625,-2.15625 L 41.273437,1.75 Z"
         style="fill:url(#linearGradient1043-9);fill-opacity:1;stroke:none" />
      <path
         sodipodi:nodetypes="ccccccccc"
         inkscape:connector-curvature="0"
         id="path1068-5"
         transform="translate(0,1004.3622)"
         d="m 41.273437,1.75 0,18.3125 -2.15625,2.15625 0,24.03125 0.40625,0 0,-23.84375 L 41.679687,20.25 41.679687,1.75 Z"
         style="fill:#000000;fill-opacity:0.23529412;stroke:none" />
      <path
         sodipodi:nodetypes="ccccccccc"
         inkscape:connector-curvature="0"
         id="path1080-2"
         transform="translate(0,1004.3622)"
         d="m 41.679687,1.75 0,18.5 -2.15625,2.15625 0,23.84375 0.4375,0 0,-23.6875 2.15625,-2.15625 L 42.117187,1.75 Z"
         style="fill:#000000;fill-opacity:0.07843137;stroke:none" />
      <path
         sodipodi:nodetypes="ccccccccc"
         inkscape:connector-curvature="0"
         id="path1082-0"
         transform="translate(0,1004.3622)"
         d="m 42.117187,1.75 0,18.65625 -2.15625,2.15625 0,23.6875 0.40625,0 0,-23.5 2.15625,-2.15625 L 42.523437,1.75 Z"
         style="fill:#000000;fill-opacity:0.01960784;stroke:none" />
      <path
         sodipodi:nodetypes="ccccccccc"
         inkscape:connector-curvature="0"
         id="path1113-2"
         transform="translate(0,1004.3622)"
         d="m 40.835937,1.75 0,18.125 -2.15625,2.15625 0,24.21875 0.4375,0 0,-24.03125 2.15625,-2.15625 L 41.273437,1.75 Z"
         style="fill:#ffffff;fill-opacity:0.23529412;stroke:none" />
      <path
         sodipodi:nodetypes="ccccccccc"
         inkscape:connector-curvature="0"
         id="path1115-6"
         transform="translate(0,1004.3622)"
         d="m 40.429687,1.75 0,17.9375 -2.15625,2.15625 0,24.40625 0.40625,0 0,-24.21875 L 40.835937,19.875 40.835937,1.75 Z"
         style="fill:#ffffff;fill-opacity:0.1187944;stroke:none" />
      <path
         sodipodi:nodetypes="ccccccccc"
         inkscape:connector-curvature="0"
         id="path1117-8"
         transform="translate(0,1004.3622)"
         d="m 40.023437,1.75 0,17.75 -2.15625,2.15625 0,24.59375 0.40625,0 0,-24.40625 2.15625,-2.15625 L 40.429687,1.75 Z"
         style="fill:#ffffff;fill-opacity:0.02745098;stroke:none" />
      <path
         id="path2796-7"
         transform="translate(0,1004.3622)"
         d="M 7.59375,1.75 C 4.3492254,1.75 1.75,4.3492254 1.75,7.59375 l 0,32.8125 c 0,3.244525 2.5992254,5.84375 5.84375,5.84375 l 0.125,0 0,-44.5 L 7.59375,1.75 Z"
         style="opacity:0.30899999;fill:url(#linearGradient2800-1);fill-opacity:1;stroke:none"
         inkscape:connector-curvature="0" />
      <path
         inkscape:connector-curvature="0"
         style="color:#000000;fill:#ffffff;fill-opacity:1;fill-rule:nonzero;stroke:none;stroke-width:0.2;marker:none;visibility:visible;display:inline;overflow:visible;enable-background:accumulate"
         d="m 1.749988,1012.5498 0,-0.5625 c 0,-3.2445 2.59922,-5.875 5.84375,-5.875 l 32.8125,0 c 3.24452,0 5.84375,2.6305 5.84375,5.875 l 0,0.5625 c 0,-3.2445 -2.59923,-5.875 -5.84375,-5.875 l -32.8125,0 C 4.349208,1006.6748 1.749988,1009.3053 1.749988,1012.5498 Z"
         id="path6361-1" />
      <path
         id="path6388-3"
         d="m 1.749988,1044.1748 0,0.5625 c 0,3.2445 2.59922,5.875 5.84375,5.875 l 32.8125,0 c 3.24452,0 5.84375,-2.6305 5.84375,-5.875 l 0,-0.5625 c 0,3.2445 -2.59923,5.875 -5.84375,5.875 l -32.8125,0 C 4.349208,1050.0498 1.749988,1047.4193 1.749988,1044.1748 Z"
         style="color:#000000;fill:#000000;fill-opacity:1;fill-rule:nonzero;stroke:none;stroke-width:0.2;marker:none;visibility:visible;display:inline;overflow:visible;enable-background:accumulate"
         inkscape:connector-curvature="0" />
      <path
         id="rect4338"
         transform="translate(0,1004.3622)"
         d="M 7.59375,1.75 C 7.019994,1.75 6.4600914,1.8169906 5.9375,1.96875 L 1.75,9.25 1.75,18.8125 11.625,1.75 7.59375,1.75 z m 12.5,0 L 1.75,33.5 l 0,6.90625 c 0,0.70254 0.1198537,1.377807 0.34375,2 L 25.625,1.75 20.09375,1.75 z m 14,0 -25.71875,44.5 5.53125,0 L 39.625,1.75 34.09375,1.75 Z M 41.28125,13.53125 22.375,46.25 l 5.53125,0 11.125,-19.25 0,-4.875 2.25,-2.25 L 41.28125,13.53125 Z"
         style="opacity:0.1;fill:#000000;fill-opacity:0.53679654;stroke:none"
         inkscape:connector-curvature="0" />
      <path
         id="path4355"
         transform="translate(0,1004.3622)"
         d="M 20.09375,1.75 1.75,33.5 1.75,34.25 20.53125,1.75 20.09375,1.75 z m 14,0 -25.71875,44.5 0.4375,0 L 34.53125,1.75 34.09375,1.75 Z M 6.40625,1.875 C 6.248005,1.9071022 6.0906921,1.9242634 5.9375,1.96875 L 1.75,9.25 1.75,10 6.4375,1.875 C 6.4276843,1.876939 6.4160474,1.8730125 6.40625,1.875 Z M 41.28125,13.53125 22.375,46.25 l 0.4375,0 L 41.28125,14.28125 41.28125,13.53125 Z"
         style="opacity:0.1;fill:#000000;fill-opacity:0.53679654;stroke:none"
         inkscape:connector-curvature="0" />
      <path
         id="path4360"
         transform="translate(0,1004.3622)"
         d="m 11.625,1.75 -9.875,17.09375 0,0.75 L 12.0625,1.75 11.625,1.75 z m 14,0 -23.5,40.6875 c 0.059285,0.161197 0.1148306,0.314725 0.1875,0.46875 L 26.0625,1.75 25.625,1.75 z m 14,0 -25.71875,44.5 0.4375,0 L 40.0625,1.75 39.625,1.75 z m -0.59375,25.28125 -11.125,19.21875 0.4375,0 10.6875,-18.5 L 39.03125,27.03125 Z"
         style="opacity:0.1;fill:#ffffff;fill-opacity:0.19480519;stroke:none"
         inkscape:connector-curvature="0" />
    </g>
    <g
       id="g1067"
       transform="translate(56.829958,9.5874665)">
      <path
         inkscape:connector-curvature="0"
         id="rect3910"
         d="m -37.248621,1009.4964 c 0.836627,-0.4546 1.803958,-0.7218 2.823028,-0.7218 3.261026,0 5.897692,2.6605 5.897692,5.9213 0,1.7709 -0.778829,3.3427 -2.010341,4.4252 l 1.158428,2.0063 c 0.404502,-0.1581 0.884913,0 1.10902,0.3905 l 2.826983,4.8965 c 0.247281,0.4282 0.101574,0.9722 -0.326778,1.2195 l -1.767124,1.0204 c -0.428322,0.2471 -0.972192,0.1013 -1.219495,-0.3268 l -2.826961,-4.8966 c -0.226672,-0.3924 -0.132438,-0.8863 0.216317,-1.1555 l -1.158417,-2.0068 c -0.59629,0.2036 -1.228299,0.333 -1.89412,0.333 -3.261027,0 -5.9161,-2.6499 -5.9161,-5.9109 C -40.336489,1012.4486 -39.08923,1010.4962 -37.248621,1009.4964 z m 0.983434,1.7881 c -1.204634,0.6548 -2.033339,1.9402 -2.033339,3.4078 0,2.1341 1.73471,3.8529 3.868991,3.8529 2.134257,0 3.863672,-1.7165 3.863672,-3.8507 0,-2.1342 -1.716316,-3.8637 -3.850561,-3.8637 C -35.083398,1010.8308 -35.717623,1010.9873 -36.265187,1011.2845 Z"
         style="fill:url(#linearGradient1034);fill-opacity:1;stroke:none" />
      <path
         inkscape:connector-curvature="0"
         id="path943"
         d="m -34.423707,1008.7746 c -1.019071,0 -1.975873,0.2641 -2.8125,0.7187 -1.840608,0.9999 -3.093748,2.9455 -3.093748,5.1875 0,0.1124 0.02503,0.233 0.03125,0.3437 0.07794,-2.15 1.281844,-4.0013 3.062499,-4.9686 0.836627,-0.4547 1.793429,-0.7501 2.8125,-0.7501 3.164748,0 5.756859,2.528 5.906248,5.6563 0.0044,-0.093 0,-0.1866 0,-0.2813 C -28.517459,1011.4201 -31.162682,1008.7746 -34.423707,1008.7746 z m -3.843749,6.0937 c -0.01263,0.1266 -0.03125,0.2454 -0.03125,0.375 0,2.1341 1.740718,3.8438 3.874999,3.8438 2.134257,0 3.843748,-1.7096 3.843748,-3.8438 0,-0.096 -0.02438,-0.1867 -0.03125,-0.2812 -0.146419,1.9994 -1.77452,3.5937 -3.812498,3.5937 C -36.493606,1018.5558 -38.167134,1016.9125 -38.267456,1014.8683 z m 7.937497,4.5938 c -0.07335,0.072 -0.14178,0.1511 -0.21875,0.2187 l 1.156249,2 c 0.404502,-0.1581 0.900894,-0.015 1.125001,0.375 l 2.812498,4.9062 c 0.03339,0.057 0.04317,0.1265 0.0625,0.1876 0.08339,-0.237 0.07351,-0.5145 -0.0625,-0.75 l -2.812498,-4.8751 c -0.224107,-0.3903 -0.720499,-0.5643 -1.125001,-0.4062 L -30.329959,1019.4621 z m -1.218749,3.0312 c -0.14775,0.2206 -0.205813,0.4887 -0.125,0.75 0.05175,-0.1682 0.165987,-0.3244 0.3125,-0.4375 L -31.548708,1022.4933 Z"
         style="fill:#000000;fill-opacity:0.39215686;stroke:none" />
      <path
         inkscape:connector-curvature="0"
         id="path948"
         d="m -34.423707,1010.3701 c -0.666974,0 -1.296186,0.1714 -1.84375,0.4686 -1.204634,0.6548 -2.031249,1.9388 -2.031249,3.4064 0,0.054 0.02906,0.1029 0.03125,0.1562 0.100857,-1.3457 0.875327,-2.5137 1.999999,-3.1251 0.547564,-0.2972 1.176776,-0.4375 1.84375,-0.4375 2.05605,0 3.693021,1.5994 3.812498,3.625 0.0042,-0.074 0.03125,-0.1436 0.03125,-0.2186 C -30.579959,1012.1109 -32.289462,1010.3701 -34.423707,1010.3701 z m 5.906248,4.0936 c -0.06152,1.681 -0.850935,3.1499 -2.03125,4.1876 l 0.156251,0.3125 c 1.137298,-1.0754 1.874999,-2.5894 1.874999,-4.2812 C -28.517459,1014.6077 -28.514704,1014.538 -28.517459,1014.4637 z m -11.812496,0.031 c -0.002,0.064 0,0.1232 0,0.1876 0,3.2609 2.645222,5.9061 5.906248,5.9061 0.66582,0 1.309959,-0.109 1.906248,-0.3125 l 1,1.7189 c 0.04647,-0.063 0.09221,-0.1381 0.156251,-0.1876 l -1.156251,-1.9999 c -0.596289,0.2034 -1.240428,0.3437 -1.906248,0.3437 C -37.599154,1020.1513 -40.195632,1017.6379 -40.329955,1014.495 z m 8.656247,8.25 c -0.06127,0.225 -0.03245,0.469 0.09375,0.6876 l 2.812498,4.9061 c 0.247303,0.4279 0.790428,0.5597 1.21875,0.3125 l 1.78125,-1.0312 c 0.350183,-0.2021 0.494156,-0.5954 0.406249,-0.9687 -0.06316,0.2097 -0.200642,0.4125 -0.406249,0.5312 l -1.78125,1 c -0.428322,0.2472 -0.971447,0.1154 -1.21875,-0.3125 l -2.812498,-4.9059 C -31.620016,1022.8945 -31.653329,1022.8189 -31.673708,1022.745 Z"
         style="fill:#ffffff;fill-opacity:0.35294118;stroke:none" />
    </g>
    <g
       inkscape:label="Capa 2"
       id="layer2-8"
       transform="translate(-103.07996,994.77463)" />
  </g>
</svg>
