<?xml version="1.0" encoding="UTF-8" standalone="no"?>
<!-- Created with Inkscape (http://www.inkscape.org/) -->

<svg
   xmlns:dc="http://purl.org/dc/elements/1.1/"
   xmlns:cc="http://creativecommons.org/ns#"
   xmlns:rdf="http://www.w3.org/1999/02/22-rdf-syntax-ns#"
   xmlns:svg="http://www.w3.org/2000/svg"
   xmlns="http://www.w3.org/2000/svg"
   xmlns:xlink="http://www.w3.org/1999/xlink"
   xmlns:sodipodi="http://sodipodi.sourceforge.net/DTD/sodipodi-0.dtd"
   xmlns:inkscape="http://www.inkscape.org/namespaces/inkscape"
   width="48"
   height="48"
   id="svg1184"
   version="1.1"
   inkscape:version="0.48+devel r12310"
   sodipodi:docname="folder-publicshare.svg">
  <defs
     id="defs1186">
    <linearGradient
       id="linearGradient3762-7">
      <stop
         id="stop3765-8"
         offset="0"
         style="stop-color:#d2d2d2;stop-opacity:1;" />
      <stop
         id="stop3767-5"
         offset="1"
         style="stop-color:#ffffff;stop-opacity:1;" />
    </linearGradient>
    <linearGradient
       inkscape:collect="always"
       id="linearGradient1035">
      <stop
         style="stop-color:#ffffff;stop-opacity:1"
         offset="0"
         id="stop1037" />
      <stop
         style="stop-color:#ececec;stop-opacity:1"
         offset="1"
         id="stop1039" />
    </linearGradient>
    <linearGradient
       gradientTransform="matrix(0.87849084,0,0,-0.87849084,3.832436,-879.39555)"
       y2="-1052.8083"
       x2="27.709515"
       y1="-1004.9823"
       x1="27.709515"
       gradientUnits="userSpaceOnUse"
       id="linearGradient2700"
       xlink:href="#linearGradient1045"
       inkscape:collect="always" />
    <linearGradient
       id="linearGradient1045"
       inkscape:collect="always">
      <stop
         id="stop1047"
         offset="0"
         style="stop-color:#000000;stop-opacity:1;" />
      <stop
         id="stop1049"
         offset="1"
         style="stop-color:#000000;stop-opacity:0;" />
    </linearGradient>
    <linearGradient
       gradientUnits="userSpaceOnUse"
       y2="33.41077"
       x2="-1006.7538"
       y1="33.41077"
       x1="-1050.2408"
       id="linearGradient2875"
       xlink:href="#linearGradient2869"
       inkscape:collect="always"
       gradientTransform="matrix(0.95835365,0,0,0.95835365,-42.83876,0.99951249)" />
    <linearGradient
       id="linearGradient2869"
       inkscape:collect="always">
      <stop
         id="stop2871"
         offset="0"
         style="stop-color:#f9f9f9;stop-opacity:1" />
      <stop
         id="stop2873"
         offset="1"
         style="stop-color:#ffffff;stop-opacity:1" />
    </linearGradient>
    <linearGradient
       gradientTransform="matrix(0,0.95835365,0.60396245,0,636.58677,1.0107)"
       y2="-1026.1804"
       x2="1.2499999"
       y1="-1026.1804"
       x1="48.5"
       gradientUnits="userSpaceOnUse"
       id="linearGradient1043"
       xlink:href="#linearGradient2476-4"
       inkscape:collect="always" />
    <linearGradient
       y2="-1045.8168"
       x2="29"
       y1="-1059.3043"
       x1="29"
       gradientTransform="matrix(0,0.95835365,0.60396245,0,636.58677,1.0107)"
       gradientUnits="userSpaceOnUse"
       id="linearGradient2800"
       xlink:href="#linearGradient1045"
       inkscape:collect="always" />
    <linearGradient
       inkscape:collect="always"
       xlink:href="#linearGradient1035"
       id="linearGradient915"
       gradientUnits="userSpaceOnUse"
       x1="23.875"
       y1="-1052.4872"
       x2="23.875"
       y2="-1004.4247"
       gradientTransform="matrix(0.95835365,0,0,-0.95835365,0.9995135,-961.52344)" />
    <linearGradient
       id="linearGradient2476-4"
       inkscape:collect="always">
      <stop
         id="stop2478-8"
         offset="0"
         style="stop-color:#121212;stop-opacity:1" />
      <stop
         id="stop2480-4"
         offset="1"
         style="stop-color:#54555a;stop-opacity:1" />
    </linearGradient>
    <linearGradient
       id="linearGradient4421"
       inkscape:collect="always">
      <stop
         id="stop4423"
         offset="0"
         style="stop-color:#11b8fe;stop-opacity:1" />
      <stop
         id="stop4425"
         offset="1"
         style="stop-color:#0eb9fd;stop-opacity:1" />
    </linearGradient>
    <linearGradient
       gradientUnits="userSpaceOnUse"
       y2="1018.3598"
       x2="24.748737"
       y1="1038.3527"
       x1="24.748737"
       id="linearGradient1124"
       xlink:href="#linearGradient4421"
       inkscape:collect="always"
       gradientTransform="translate(503.60407,-515.61344)" />
  </defs>
  <sodipodi:namedview
     id="base"
     pagecolor="#ffffff"
     bordercolor="#666666"
     borderopacity="1.0"
     inkscape:pageopacity="0.0"
     inkscape:pageshadow="2"
     inkscape:zoom="5.375"
     inkscape:cx="8.1755019"
     inkscape:cy="20.822725"
     inkscape:document-units="px"
     inkscape:current-layer="layer1"
     showgrid="false"
     fit-margin-top="0"
     fit-margin-left="0"
     fit-margin-right="0"
     fit-margin-bottom="0"
     inkscape:window-width="1366"
     inkscape:window-height="714"
     inkscape:window-x="0"
     inkscape:window-y="30"
     inkscape:window-maximized="1" />
  <metadata
     id="metadata1189">
    <rdf:RDF>
      <cc:Work
         rdf:about="">
        <dc:format>image/svg+xml</dc:format>
        <dc:type
           rdf:resource="http://purl.org/dc/dcmitype/StillImage" />
        <dc:title />
      </cc:Work>
    </rdf:RDF>
  </metadata>
  <g
     inkscape:label="Capa 1"
     inkscape:groupmode="layer"
     id="layer1"
     transform="translate(-567.42857,-488.36218)">
    <g
       transform="translate(567.42857,-516)"
       id="layer1-6"
       inkscape:label="Capa 1">
      <rect
         ry="6.3565426"
         y="1005.6122"
         x="1.25"
         height="45.5"
         width="45.5"
         id="rect6294"
         style="color:#000000;fill:#333333;fill-opacity:1;fill-rule:nonzero;stroke:none;stroke-width:0.2;marker:none;visibility:visible;display:inline;overflow:visible;enable-background:accumulate" />
      <path
         id="rect1041"
         transform="translate(0,1004.3622)"
         d="M 7.59375,1.75 C 4.3492254,1.75 1.75,4.3492254 1.75,7.59375 l 0,32.8125 c 0,3.244525 2.5992254,5.84375 5.84375,5.84375 l 32.8125,0 c 3.244525,0 5.84375,-2.599225 5.84375,-5.84375 l 0,-32.8125 C 46.25,4.3492254 43.650775,1.75 40.40625,1.75 L 7.59375,1.75 Z"
         style="fill:url(#linearGradient915);fill-opacity:1;stroke:none"
         inkscape:connector-curvature="0" />
      <path
         id="rect2698"
         transform="translate(0,1004.3622)"
         d="m 5.53125,2.9375 c -0.9463781,0 -1.6875,0.7411219 -1.6875,1.6875 l 0,38.75 c 0,0.946378 0.7411219,1.71875 1.6875,1.71875 l 38.34375,0 C 44.862828,44.365633 45.628447,43.359404 46,42.15625 L 46,5.84375 C 45.635414,4.6631552 44.897901,3.6631375 43.9375,2.9375 L 5.53125,2.9375 Z"
         style="opacity:0.15;fill:url(#linearGradient2700);fill-opacity:1;stroke:none"
         inkscape:connector-curvature="0" />
      <g
         transform="matrix(0.90514036,0,0,0.90116667,5.7767307,101.62639)"
         id="g948">
        <rect
           transform="matrix(-2.3953356e-8,-1,1,0,0,0)"
           ry="0.906506"
           y="20.790474"
           x="-1049.4572"
           height="22.376604"
           width="42.167561"
           id="rect2714"
           style="fill:#000000;fill-opacity:0.29411765;stroke:none" />
        <rect
           style="fill:url(#linearGradient2875);fill-opacity:1;stroke:none"
           id="rect2716"
           width="41.554951"
           height="21.744093"
           x="-1049.1509"
           y="21.106728"
           ry="0.88088214"
           transform="matrix(-2.372795e-8,-1,1,0,0,0)" />
        <path
           style="fill:#000000;fill-opacity:0.04858303;stroke:none"
           d="m 42.178771,1049.1577 c 0.03088,-0.092 0.0599,-0.1972 0.0599,-0.2995 l 0,-39.7717 c 0,-0.4879 -0.380498,-0.8984 -0.868507,-0.8984 l -19.975684,0 c -0.08079,0 -0.164565,0.01 -0.239588,0.03 0.124383,-0.3487 0.452768,-0.599 0.838559,-0.599 l 19.975683,0 c 0.48801,0 0.868508,0.4104 0.868508,0.8985 l 0,39.7717 C 42.837639,1048.7001 42.555331,1049.0555 42.178771,1049.1577 Z"
           id="rect2837"
           inkscape:connector-curvature="0" />
      </g>
      <path
         sodipodi:nodetypes="ssssccccs"
         inkscape:connector-curvature="0"
         id="rect2991-1"
         transform="translate(0,1004.3622)"
         d="M 7.59375,1.75 C 4.3492254,1.75 1.75,4.3492254 1.75,7.59375 l 0,32.8125 c 0,3.244525 2.5992254,5.84375 5.84375,5.84375 l 31.523437,0 0,-24.03125 2.15625,-2.15625 L 41.273437,1.75 Z"
         style="fill:url(#linearGradient1043);fill-opacity:1;stroke:none" />
      <path
         sodipodi:nodetypes="ccccccccc"
         inkscape:connector-curvature="0"
         id="path1068"
         transform="translate(0,1004.3622)"
         d="m 41.273437,1.75 0,18.3125 -2.15625,2.15625 0,24.03125 0.40625,0 0,-23.84375 L 41.679687,20.25 41.679687,1.75 Z"
         style="fill:#000000;fill-opacity:0.23529412;stroke:none" />
      <path
         sodipodi:nodetypes="ccccccccc"
         inkscape:connector-curvature="0"
         id="path1080"
         transform="translate(0,1004.3622)"
         d="m 41.679687,1.75 0,18.5 -2.15625,2.15625 0,23.84375 0.4375,0 0,-23.6875 2.15625,-2.15625 L 42.117187,1.75 Z"
         style="fill:#000000;fill-opacity:0.07843137;stroke:none" />
      <path
         sodipodi:nodetypes="ccccccccc"
         inkscape:connector-curvature="0"
         id="path1082"
         transform="translate(0,1004.3622)"
         d="m 42.117187,1.75 0,18.65625 -2.15625,2.15625 0,23.6875 0.40625,0 0,-23.5 2.15625,-2.15625 L 42.523437,1.75 Z"
         style="fill:#000000;fill-opacity:0.01960784;stroke:none" />
      <path
         sodipodi:nodetypes="ccccccccc"
         inkscape:connector-curvature="0"
         id="path1113"
         transform="translate(0,1004.3622)"
         d="m 40.835937,1.75 0,18.125 -2.15625,2.15625 0,24.21875 0.4375,0 0,-24.03125 2.15625,-2.15625 L 41.273437,1.75 Z"
         style="fill:#ffffff;fill-opacity:0.23529412;stroke:none" />
      <path
         sodipodi:nodetypes="ccccccccc"
         inkscape:connector-curvature="0"
         id="path1115"
         transform="translate(0,1004.3622)"
         d="m 40.429687,1.75 0,17.9375 -2.15625,2.15625 0,24.40625 0.40625,0 0,-24.21875 L 40.835937,19.875 40.835937,1.75 Z"
         style="fill:#ffffff;fill-opacity:0.1187944;stroke:none" />
      <path
         sodipodi:nodetypes="ccccccccc"
         inkscape:connector-curvature="0"
         id="path1117"
         transform="translate(0,1004.3622)"
         d="m 40.023437,1.75 0,17.75 -2.15625,2.15625 0,24.59375 0.40625,0 0,-24.40625 2.15625,-2.15625 L 40.429687,1.75 Z"
         style="fill:#ffffff;fill-opacity:0.02745098;stroke:none" />
      <path
         id="path2796"
         transform="translate(0,1004.3622)"
         d="M 7.59375,1.75 C 4.3492254,1.75 1.75,4.3492254 1.75,7.59375 l 0,32.8125 c 0,3.244525 2.5992254,5.84375 5.84375,5.84375 l 0.125,0 0,-44.5 L 7.59375,1.75 Z"
         style="opacity:0.30899999;fill:url(#linearGradient2800);fill-opacity:1;stroke:none"
         inkscape:connector-curvature="0" />
      <path
         inkscape:connector-curvature="0"
         style="color:#000000;fill:#ffffff;fill-opacity:1;fill-rule:nonzero;stroke:none;stroke-width:0.2;marker:none;visibility:visible;display:inline;overflow:visible;enable-background:accumulate"
         d="m 1.749988,1012.5498 0,-0.5625 c 0,-3.2445 2.59922,-5.875 5.84375,-5.875 l 32.8125,0 c 3.24452,0 5.84375,2.6305 5.84375,5.875 l 0,0.5625 c 0,-3.2445 -2.59923,-5.875 -5.84375,-5.875 l -32.8125,0 C 4.349208,1006.6748 1.749988,1009.3053 1.749988,1012.5498 Z"
         id="path6361" />
      <path
         id="path6388"
         d="m 1.749988,1044.1748 0,0.5625 c 0,3.2445 2.59922,5.875 5.84375,5.875 l 32.8125,0 c 3.24452,0 5.84375,-2.6305 5.84375,-5.875 l 0,-0.5625 c 0,3.2445 -2.59923,5.875 -5.84375,5.875 l -32.8125,0 C 4.349208,1050.0498 1.749988,1047.4193 1.749988,1044.1748 Z"
         style="color:#000000;fill:#000000;fill-opacity:1;fill-rule:nonzero;stroke:none;stroke-width:0.2;marker:none;visibility:visible;display:inline;overflow:visible;enable-background:accumulate"
         inkscape:connector-curvature="0" />
      <path
         id="rect4338"
         transform="translate(0,1004.3622)"
         d="M 7.59375,1.75 C 7.019994,1.75 6.4600914,1.8169906 5.9375,1.96875 L 1.75,9.25 1.75,18.8125 11.625,1.75 7.59375,1.75 z m 12.5,0 L 1.75,33.5 l 0,6.90625 c 0,0.70254 0.1198537,1.377807 0.34375,2 L 25.625,1.75 20.09375,1.75 z m 14,0 -25.71875,44.5 5.53125,0 L 39.625,1.75 34.09375,1.75 Z M 41.28125,13.53125 22.375,46.25 l 5.53125,0 11.125,-19.25 0,-4.875 2.25,-2.25 L 41.28125,13.53125 Z"
         style="opacity:0.1;fill:#000000;fill-opacity:0.53679654;stroke:none"
         inkscape:connector-curvature="0" />
      <path
         id="path4355"
         transform="translate(0,1004.3622)"
         d="M 20.09375,1.75 1.75,33.5 1.75,34.25 20.53125,1.75 20.09375,1.75 z m 14,0 -25.71875,44.5 0.4375,0 L 34.53125,1.75 34.09375,1.75 Z M 6.40625,1.875 C 6.248005,1.9071022 6.0906921,1.9242634 5.9375,1.96875 L 1.75,9.25 1.75,10 6.4375,1.875 C 6.4276843,1.876939 6.4160474,1.8730125 6.40625,1.875 Z M 41.28125,13.53125 22.375,46.25 l 0.4375,0 L 41.28125,14.28125 41.28125,13.53125 Z"
         style="opacity:0.1;fill:#000000;fill-opacity:0.53679654;stroke:none"
         inkscape:connector-curvature="0" />
      <path
         id="path4360"
         transform="translate(0,1004.3622)"
         d="m 11.625,1.75 -9.875,17.09375 0,0.75 L 12.0625,1.75 11.625,1.75 z m 14,0 -23.5,40.6875 c 0.059285,0.161197 0.1148306,0.314725 0.1875,0.46875 L 26.0625,1.75 25.625,1.75 z m 14,0 -25.71875,44.5 0.4375,0 L 40.0625,1.75 39.625,1.75 z m -0.59375,25.28125 -11.125,19.21875 0.4375,0 10.6875,-18.5 L 39.03125,27.03125 Z"
         style="opacity:0.1;fill:#ffffff;fill-opacity:0.19480519;stroke:none"
         inkscape:connector-curvature="0" />
    </g>
    <g
       id="g1070"
       transform="translate(63.824525,-0.38658)">
      <path
         style="fill:url(#linearGradient1124);fill-opacity:1;stroke:none"
         d="m 522.23769,502.74876 c -1.62445,0 -2.93103,1.3066 -2.93103,2.931 0,1.6244 1.30658,2.9311 2.93103,2.9311 l 2.41379,9.0087 c -0.60858,0.536 -0.99137,1.3191 -0.99137,2.1982 0,1.6244 1.30657,2.931 2.93103,2.931 1.62445,0 2.93103,-1.3066 2.93103,-2.931 0,-0.8123 -0.32979,-1.5367 -0.86207,-2.069 l 3.6638,-6.3361 c 0.20389,0.044 0.42922,0.086 0.64655,0.086 1.62445,0 2.93103,-1.3498 2.93103,-2.9742 0,-1.6244 -1.30658,-2.9311 -2.93103,-2.9311 -1.62446,0 -2.93104,1.3067 -2.93104,2.9311 0,0.7585 0.26136,1.4611 0.73276,1.9827 l -3.70689,6.4225 c -0.15286,-0.025 -0.31438,-0.043 -0.47414,-0.043 -0.0866,0 -0.174,-0.014 -0.25862,0 l -2.37069,-8.7931 c 0.75485,-0.5325 1.25,-1.4199 1.25,-2.4138 C 525.21183,504.05536 523.86215,502.74876 522.23769,502.74876 Z"
         id="path815"
         inkscape:connector-curvature="0" />
      <path
         inkscape:connector-curvature="0"
         id="path935"
         d="m 522.22907,502.74876 c -1.62445,0 -2.9375,1.3131 -2.9375,2.9375 0,0.054 0.0284,0.103 0.0312,0.1562 0.0829,-1.5489 1.33576,-2.7499 2.90625,-2.7499 1.57161,0 2.88489,1.1994 2.96875,2.7499 0.003,-0.053 0,-0.1026 0,-0.1562 C 525.19782,504.06186 523.85353,502.74876 522.22907,502.74876 z m 10.75,2.8438 c -1.62446,0 -2.9375,1.313 -2.9375,2.9374 0,0.073 -0.005,0.1464 0,0.2188 0.0496,-1.5802 1.34475,-2.8125 2.9375,-2.8125 1.57049,0 2.82338,1.201 2.90625,2.75 0.003,-0.054 0.0312,-0.1023 0.0312,-0.1563 C 535.91657,506.90556 534.60352,505.59256 532.97907,505.59256 z m -8.96875,2.7812 c -0.023,0.017 -0.039,0.046 -0.0625,0.063 l 2.375,8.7812 c 0.0846,-0.014 0.19467,0 0.28125,0 0.15976,0 0.31589,0.01 0.46875,0.031 l 3.6875,-6.4063 c -0.0398,-0.044 -0.057,-0.1097 -0.0937,-0.1562 l -3.59375,6.25 c -0.15286,-0.025 -0.30899,-0.063 -0.46875,-0.063 -0.0866,0 -0.19662,-0.014 -0.28125,0 L 524.01032,508.37376 z m 0.59375,9.3125 c -0.5711,0.5337 -0.9375,1.2773 -0.9375,2.125 0,0.054 0.0284,0.1031 0.0312,0.1563 0.0503,-0.8023 0.40393,-1.5338 0.96875,-2.0313 L 524.60407,517.68626 z m 4.1875,0.2187 -0.125,0.1876 c 0.49691,0.4969 0.77211,1.1592 0.8125,1.9062 0.004,-0.063 0.0312,-0.123 0.0312,-0.1875 C 529.51032,519.07196 529.24192,518.42006 528.79157,517.90496 Z"
         style="fill:#000000;fill-opacity:0.39215686;stroke:none" />
      <path
         inkscape:connector-curvature="0"
         id="path940"
         d="m 519.32282,505.53056 c -0.003,0.053 -0.0312,0.1022 -0.0312,0.1562 0,1.6244 1.31305,2.9375 2.9375,2.9375 l 2.375,8.75 c 0.0204,-0.019 0.0415,-0.044 0.0625,-0.062 l -2.4375,-9 C 520.65858,508.31176 519.40569,507.07946 519.32282,505.53056 z m 5.875,0 c -0.0499,0.9287 -0.53586,1.7463 -1.25,2.25 l 0.0625,0.25 c 0.71547,-0.5371 1.1875,-1.3808 1.1875,-2.3438 C 525.19782,505.63396 525.20064,505.58266 525.19782,505.53056 z m 10.6875,2.8437 c -0.0829,1.5517 -1.33576,2.8125 -2.90625,2.8125 -0.21733,0 -0.45235,-0.019 -0.65625,-0.062 l -3.65625,6.3125 c 0.0374,0.037 0.0584,0.086 0.0937,0.125 l 3.5625,-6.1562 c 0.2039,0.044 0.43892,0.094 0.65625,0.094 1.62445,0 2.9375,-1.3443 2.9375,-2.9687 C 535.91657,508.47656 535.88816,508.42746 535.88532,508.37426 z m -5.84375,0.062 c -10e-4,0.033 0,0.062 0,0.094 0,0.7006 0.21937,1.337 0.625,1.8437 l 0.0937,-0.1562 C 530.3346,509.74696 530.08689,509.11086 530.04157,508.43676 z m -6.375,11.2188 c -0.003,0.054 0,0.1018 0,0.1562 0,1.6244 1.31305,2.9375 2.9375,2.9375 1.62445,0 2.90625,-1.3131 2.90625,-2.9375 0,-0.042 0.002,-0.083 0,-0.125 -0.0812,1.5505 -1.33465,2.75 -2.90625,2.75 C 525.0219,522.43676 523.73216,521.22086 523.66657,519.65556 Z"
         style="fill:#ffffff;fill-opacity:0.35294118;stroke:none" />
    </g>
  </g>
</svg>
