<?xml version="1.0" encoding="UTF-8" standalone="no"?>
<!-- Created with Inkscape (http://www.inkscape.org/) -->

<svg
   xmlns:dc="http://purl.org/dc/elements/1.1/"
   xmlns:cc="http://creativecommons.org/ns#"
   xmlns:rdf="http://www.w3.org/1999/02/22-rdf-syntax-ns#"
   xmlns:svg="http://www.w3.org/2000/svg"
   xmlns="http://www.w3.org/2000/svg"
   xmlns:xlink="http://www.w3.org/1999/xlink"
   xmlns:sodipodi="http://sodipodi.sourceforge.net/DTD/sodipodi-0.dtd"
   xmlns:inkscape="http://www.inkscape.org/namespaces/inkscape"
   width="48"
   height="48"
   id="svg880"
   version="1.1"
   inkscape:version="0.48+devel r12310"
   sodipodi:docname="folder-violet.svg">
  <defs
     id="defs882">
    <linearGradient
       inkscape:collect="always"
       id="linearGradient2476-2">
      <stop
         style="stop-color:#960cfc;stop-opacity:1"
         offset="0"
         id="stop2478-0" />
      <stop
         style="stop-color:#ff39ef;stop-opacity:1"
         offset="1"
         id="stop2480-2" />
    </linearGradient>
    <linearGradient
       inkscape:collect="always"
       id="linearGradient1035-8">
      <stop
         style="stop-color:#ffffff;stop-opacity:1"
         offset="0"
         id="stop1037-1" />
      <stop
         style="stop-color:#ececec;stop-opacity:1"
         offset="1"
         id="stop1039-9" />
    </linearGradient>
    <linearGradient
       gradientTransform="matrix(0.87849084,0,0,-0.87849084,3.832436,-879.39555)"
       y2="-1052.8083"
       x2="27.709515"
       y1="-1004.9823"
       x1="27.709515"
       gradientUnits="userSpaceOnUse"
       id="linearGradient2700-1"
       xlink:href="#linearGradient1045-3"
       inkscape:collect="always" />
    <linearGradient
       id="linearGradient1045-3"
       inkscape:collect="always">
      <stop
         id="stop1047-3"
         offset="0"
         style="stop-color:#000000;stop-opacity:1;" />
      <stop
         id="stop1049-5"
         offset="1"
         style="stop-color:#000000;stop-opacity:0;" />
    </linearGradient>
    <linearGradient
       gradientUnits="userSpaceOnUse"
       y2="33.41077"
       x2="-1006.7538"
       y1="33.41077"
       x1="-1050.2408"
       id="linearGradient2875-4"
       xlink:href="#linearGradient2869-9"
       inkscape:collect="always"
       gradientTransform="matrix(0.95835365,0,0,0.95835365,-42.83876,0.99951249)" />
    <linearGradient
       id="linearGradient2869-9"
       inkscape:collect="always">
      <stop
         id="stop2871-6"
         offset="0"
         style="stop-color:#f9f9f9;stop-opacity:1" />
      <stop
         id="stop2873-6"
         offset="1"
         style="stop-color:#ffffff;stop-opacity:1" />
    </linearGradient>
    <linearGradient
       gradientTransform="matrix(0,0.95835365,0.60396245,0,636.58677,1.0107)"
       y2="-1026.1804"
       x2="1.2499999"
       y1="-1026.1804"
       x1="48.5"
       gradientUnits="userSpaceOnUse"
       id="linearGradient1043-9"
       xlink:href="#linearGradient2476-2"
       inkscape:collect="always" />
    <linearGradient
       y2="-1045.8168"
       x2="29"
       y1="-1059.3043"
       x1="29"
       gradientTransform="matrix(0,0.95835365,0.60396245,0,636.58677,1.0107)"
       gradientUnits="userSpaceOnUse"
       id="linearGradient2800-8"
       xlink:href="#linearGradient1045-3"
       inkscape:collect="always" />
    <linearGradient
       inkscape:collect="always"
       xlink:href="#linearGradient1035-8"
       id="linearGradient915-5"
       gradientUnits="userSpaceOnUse"
       x1="23.875"
       y1="-1052.4872"
       x2="23.875"
       y2="-1004.4247"
       gradientTransform="matrix(0.95835365,0,0,-0.95835365,0.9995135,-961.52344)" />
  </defs>
  <sodipodi:namedview
     id="base"
     pagecolor="#ffffff"
     bordercolor="#666666"
     borderopacity="1.0"
     inkscape:pageopacity="0"
     inkscape:pageshadow="2"
     inkscape:zoom="5.6"
     inkscape:cx="16.483319"
     inkscape:cy="29.344016"
     inkscape:document-units="px"
     inkscape:current-layer="layer1"
     showgrid="false"
     inkscape:window-width="1366"
     inkscape:window-height="714"
     inkscape:window-x="0"
     inkscape:window-y="30"
     inkscape:window-maximized="1" />
  <metadata
     id="metadata885">
    <rdf:RDF>
      <cc:Work
         rdf:about="">
        <dc:format>image/svg+xml</dc:format>
        <dc:type
           rdf:resource="http://purl.org/dc/dcmitype/StillImage" />
        <dc:title />
      </cc:Work>
    </rdf:RDF>
  </metadata>
  <g
     inkscape:label="Capa 1"
     inkscape:groupmode="layer"
     id="layer1"
     transform="translate(0,-1004.3622)">
    <g
       id="layer1-3"
       inkscape:label="Capa 1"
       transform="translate(0,1.7382813e-5)">
      <rect
         ry="6.3565426"
         y="1005.6122"
         x="1.25"
         height="45.5"
         width="45.5"
         id="rect6294-2"
         style="color:#000000;fill:#333333;fill-opacity:1;fill-rule:nonzero;stroke:none;stroke-width:0.2;marker:none;visibility:visible;display:inline;overflow:visible;enable-background:accumulate" />
      <path
         id="rect1041-3"
         transform="translate(0,1004.3622)"
         d="M 7.59375,1.75 C 4.3492254,1.75 1.75,4.3492254 1.75,7.59375 l 0,32.8125 c 0,3.244525 2.5992254,5.84375 5.84375,5.84375 l 32.8125,0 c 3.244525,0 5.84375,-2.599225 5.84375,-5.84375 l 0,-32.8125 C 46.25,4.3492254 43.650775,1.75 40.40625,1.75 L 7.59375,1.75 Z"
         style="fill:url(#linearGradient915-5);fill-opacity:1;stroke:none"
         inkscape:connector-curvature="0" />
      <path
         id="rect2698-1"
         transform="translate(0,1004.3622)"
         d="m 5.53125,2.9375 c -0.9463781,0 -1.6875,0.7411219 -1.6875,1.6875 l 0,38.75 c 0,0.946378 0.7411219,1.71875 1.6875,1.71875 l 38.34375,0 C 44.862828,44.365633 45.628447,43.359404 46,42.15625 L 46,5.84375 C 45.635414,4.6631552 44.897901,3.6631375 43.9375,2.9375 L 5.53125,2.9375 Z"
         style="opacity:0.15;fill:url(#linearGradient2700-1);fill-opacity:1;stroke:none"
         inkscape:connector-curvature="0" />
      <g
         transform="matrix(0.90514036,0,0,0.90116667,5.7767307,101.62639)"
         id="g948">
        <rect
           transform="matrix(-2.3953356e-8,-1,1,0,0,0)"
           ry="0.906506"
           y="20.790474"
           x="-1049.4572"
           height="22.376604"
           width="42.167561"
           id="rect2714-4"
           style="fill:#000000;fill-opacity:0.29411765;stroke:none" />
        <rect
           style="fill:url(#linearGradient2875-4);fill-opacity:1;stroke:none"
           id="rect2716-4"
           width="41.554951"
           height="21.744093"
           x="-1049.1509"
           y="21.106728"
           ry="0.88088214"
           transform="matrix(-2.372795e-8,-1,1,0,0,0)" />
        <path
           style="fill:#000000;fill-opacity:0.04858303;stroke:none"
           d="m 42.178771,1049.1577 c 0.03088,-0.092 0.0599,-0.1972 0.0599,-0.2995 l 0,-39.7717 c 0,-0.4879 -0.380498,-0.8984 -0.868507,-0.8984 l -19.975684,0 c -0.08079,0 -0.164565,0.01 -0.239588,0.03 0.124383,-0.3487 0.452768,-0.599 0.838559,-0.599 l 19.975683,0 c 0.48801,0 0.868508,0.4104 0.868508,0.8985 l 0,39.7717 C 42.837639,1048.7001 42.555331,1049.0555 42.178771,1049.1577 Z"
           id="rect2837-4"
           inkscape:connector-curvature="0" />
      </g>
      <path
         sodipodi:nodetypes="ssssccccs"
         inkscape:connector-curvature="0"
         id="rect2991-1-2"
         transform="translate(0,1004.3622)"
         d="M 7.59375,1.75 C 4.3492254,1.75 1.75,4.3492254 1.75,7.59375 l 0,32.8125 c 0,3.244525 2.5992254,5.84375 5.84375,5.84375 l 31.523437,0 0,-24.03125 2.15625,-2.15625 L 41.273437,1.75 Z"
         style="fill:url(#linearGradient1043-9);fill-opacity:1;stroke:none" />
      <path
         sodipodi:nodetypes="ccccccccc"
         inkscape:connector-curvature="0"
         id="path1068-2"
         transform="translate(0,1004.3622)"
         d="m 41.273437,1.75 0,18.3125 -2.15625,2.15625 0,24.03125 0.40625,0 0,-23.84375 L 41.679687,20.25 41.679687,1.75 Z"
         style="fill:#000000;fill-opacity:0.23529412;stroke:none" />
      <path
         sodipodi:nodetypes="ccccccccc"
         inkscape:connector-curvature="0"
         id="path1080-8"
         transform="translate(0,1004.3622)"
         d="m 41.679687,1.75 0,18.5 -2.15625,2.15625 0,23.84375 0.4375,0 0,-23.6875 2.15625,-2.15625 L 42.117187,1.75 Z"
         style="fill:#000000;fill-opacity:0.07843137;stroke:none" />
      <path
         sodipodi:nodetypes="ccccccccc"
         inkscape:connector-curvature="0"
         id="path1082-6"
         transform="translate(0,1004.3622)"
         d="m 42.117187,1.75 0,18.65625 -2.15625,2.15625 0,23.6875 0.40625,0 0,-23.5 2.15625,-2.15625 L 42.523437,1.75 Z"
         style="fill:#000000;fill-opacity:0.01960784;stroke:none" />
      <path
         sodipodi:nodetypes="ccccccccc"
         inkscape:connector-curvature="0"
         id="path1113-3"
         transform="translate(0,1004.3622)"
         d="m 40.835937,1.75 0,18.125 -2.15625,2.15625 0,24.21875 0.4375,0 0,-24.03125 2.15625,-2.15625 L 41.273437,1.75 Z"
         style="fill:#ffffff;fill-opacity:0.23529412;stroke:none" />
      <path
         sodipodi:nodetypes="ccccccccc"
         inkscape:connector-curvature="0"
         id="path1115-3"
         transform="translate(0,1004.3622)"
         d="m 40.429687,1.75 0,17.9375 -2.15625,2.15625 0,24.40625 0.40625,0 0,-24.21875 L 40.835937,19.875 40.835937,1.75 Z"
         style="fill:#ffffff;fill-opacity:0.1187944;stroke:none" />
      <path
         sodipodi:nodetypes="ccccccccc"
         inkscape:connector-curvature="0"
         id="path1117-2"
         transform="translate(0,1004.3622)"
         d="m 40.023437,1.75 0,17.75 -2.15625,2.15625 0,24.59375 0.40625,0 0,-24.40625 2.15625,-2.15625 L 40.429687,1.75 Z"
         style="fill:#ffffff;fill-opacity:0.02745098;stroke:none" />
      <path
         id="path2796-6"
         transform="translate(0,1004.3622)"
         d="M 7.59375,1.75 C 4.3492254,1.75 1.75,4.3492254 1.75,7.59375 l 0,32.8125 c 0,3.244525 2.5992254,5.84375 5.84375,5.84375 l 0.125,0 0,-44.5 L 7.59375,1.75 Z"
         style="opacity:0.30899999;fill:url(#linearGradient2800-8);fill-opacity:1;stroke:none"
         inkscape:connector-curvature="0" />
      <path
         inkscape:connector-curvature="0"
         style="color:#000000;fill:#ffffff;fill-opacity:1;fill-rule:nonzero;stroke:none;stroke-width:0.2;marker:none;visibility:visible;display:inline;overflow:visible;enable-background:accumulate"
         d="m 1.749988,1012.5498 0,-0.5625 c 0,-3.2445 2.59922,-5.875 5.84375,-5.875 l 32.8125,0 c 3.24452,0 5.84375,2.6305 5.84375,5.875 l 0,0.5625 c 0,-3.2445 -2.59923,-5.875 -5.84375,-5.875 l -32.8125,0 C 4.349208,1006.6748 1.749988,1009.3053 1.749988,1012.5498 Z"
         id="path6361-1" />
      <path
         id="path6388-5"
         d="m 1.749988,1044.1748 0,0.5625 c 0,3.2445 2.59922,5.875 5.84375,5.875 l 32.8125,0 c 3.24452,0 5.84375,-2.6305 5.84375,-5.875 l 0,-0.5625 c 0,3.2445 -2.59923,5.875 -5.84375,5.875 l -32.8125,0 C 4.349208,1050.0498 1.749988,1047.4193 1.749988,1044.1748 Z"
         style="color:#000000;fill:#000000;fill-opacity:1;fill-rule:nonzero;stroke:none;stroke-width:0.2;marker:none;visibility:visible;display:inline;overflow:visible;enable-background:accumulate"
         inkscape:connector-curvature="0" />
      <path
         id="rect4338"
         transform="translate(0,1004.3622)"
         d="M 7.59375,1.75 C 7.019994,1.75 6.4600914,1.8169906 5.9375,1.96875 L 1.75,9.25 1.75,18.8125 11.625,1.75 7.59375,1.75 z m 12.5,0 L 1.75,33.5 l 0,6.90625 c 0,0.70254 0.1198537,1.377807 0.34375,2 L 25.625,1.75 20.09375,1.75 z m 14,0 -25.71875,44.5 5.53125,0 L 39.625,1.75 34.09375,1.75 Z M 41.28125,13.53125 22.375,46.25 l 5.53125,0 11.125,-19.25 0,-4.875 2.25,-2.25 L 41.28125,13.53125 Z"
         style="opacity:0.1;fill:#000000;fill-opacity:0.53679654;stroke:none"
         inkscape:connector-curvature="0" />
      <path
         id="path4355"
         transform="translate(0,1004.3622)"
         d="M 20.09375,1.75 1.75,33.5 1.75,34.25 20.53125,1.75 20.09375,1.75 z m 14,0 -25.71875,44.5 0.4375,0 L 34.53125,1.75 34.09375,1.75 Z M 6.40625,1.875 C 6.248005,1.9071022 6.0906921,1.9242634 5.9375,1.96875 L 1.75,9.25 1.75,10 6.4375,1.875 C 6.4276843,1.876939 6.4160474,1.8730125 6.40625,1.875 Z M 41.28125,13.53125 22.375,46.25 l 0.4375,0 L 41.28125,14.28125 41.28125,13.53125 Z"
         style="opacity:0.1;fill:#000000;fill-opacity:0.53679654;stroke:none"
         inkscape:connector-curvature="0" />
      <path
         id="path4360"
         transform="translate(0,1004.3622)"
         d="m 11.625,1.75 -9.875,17.09375 0,0.75 L 12.0625,1.75 11.625,1.75 z m 14,0 -23.5,40.6875 c 0.059285,0.161197 0.1148306,0.314725 0.1875,0.46875 L 26.0625,1.75 25.625,1.75 z m 14,0 -25.71875,44.5 0.4375,0 L 40.0625,1.75 39.625,1.75 z m -0.59375,25.28125 -11.125,19.21875 0.4375,0 10.6875,-18.5 L 39.03125,27.03125 Z"
         style="opacity:0.1;fill:#ffffff;fill-opacity:0.19480519;stroke:none"
         inkscape:connector-curvature="0" />
    </g>
  </g>
</svg>
