<?xml version="1.0" encoding="UTF-8" standalone="no"?>
<!-- Created with Inkscape (http://www.inkscape.org/) -->

<svg
   xmlns:dc="http://purl.org/dc/elements/1.1/"
   xmlns:cc="http://creativecommons.org/ns#"
   xmlns:rdf="http://www.w3.org/1999/02/22-rdf-syntax-ns#"
   xmlns:svg="http://www.w3.org/2000/svg"
   xmlns="http://www.w3.org/2000/svg"
   xmlns:xlink="http://www.w3.org/1999/xlink"
   xmlns:sodipodi="http://sodipodi.sourceforge.net/DTD/sodipodi-0.dtd"
   xmlns:inkscape="http://www.inkscape.org/namespaces/inkscape"
   width="48"
   height="48"
   id="svg880"
   version="1.1"
   inkscape:version="0.48+devel r12310"
   sodipodi:docname="gnome-fs-directory-accept.svg">
  <defs
     id="defs882">
    <linearGradient
       inkscape:collect="always"
       id="linearGradient1035-5">
      <stop
         style="stop-color:#ffffff;stop-opacity:1"
         offset="0"
         id="stop1037-0" />
      <stop
         style="stop-color:#ececec;stop-opacity:1"
         offset="1"
         id="stop1039-4" />
    </linearGradient>
    <linearGradient
       gradientTransform="matrix(0.87849084,0,0,-0.87849084,3.832436,124.96665)"
       y2="-1052.8083"
       x2="27.709515"
       y1="-1004.9823"
       x1="27.709515"
       gradientUnits="userSpaceOnUse"
       id="linearGradient2700-7"
       xlink:href="#linearGradient1045-79"
       inkscape:collect="always" />
    <linearGradient
       id="linearGradient1045-79"
       inkscape:collect="always">
      <stop
         id="stop1047-3"
         offset="0"
         style="stop-color:#000000;stop-opacity:1;" />
      <stop
         id="stop1049-6"
         offset="1"
         style="stop-color:#000000;stop-opacity:0;" />
    </linearGradient>
    <linearGradient
       gradientUnits="userSpaceOnUse"
       y2="33.41077"
       x2="-1006.7538"
       y1="33.41077"
       x1="-1050.2408"
       id="linearGradient2875-9"
       xlink:href="#linearGradient2869-2"
       inkscape:collect="always"
       gradientTransform="matrix(0.95835365,0,0,0.95835365,-42.83876,0.99951249)" />
    <linearGradient
       id="linearGradient2869-2"
       inkscape:collect="always">
      <stop
         id="stop2871-0"
         offset="0"
         style="stop-color:#f9f9f9;stop-opacity:1" />
      <stop
         id="stop2873-0"
         offset="1"
         style="stop-color:#ffffff;stop-opacity:1" />
    </linearGradient>
    <linearGradient
       gradientTransform="matrix(0,0.95835365,0.60396245,0,636.58677,1005.3729)"
       y2="-1026.1804"
       x2="1.2499999"
       y1="-1026.1804"
       x1="48.5"
       gradientUnits="userSpaceOnUse"
       id="linearGradient1043-0"
       xlink:href="#linearGradient2476-4"
       inkscape:collect="always" />
    <linearGradient
       y2="-1045.8168"
       x2="29"
       y1="-1059.3043"
       x1="29"
       gradientTransform="matrix(0,0.95835365,0.60396245,0,636.58677,1005.3729)"
       gradientUnits="userSpaceOnUse"
       id="linearGradient2800-7"
       xlink:href="#linearGradient1045-79"
       inkscape:collect="always" />
    <linearGradient
       inkscape:collect="always"
       xlink:href="#linearGradient1035-5"
       id="linearGradient915-2"
       gradientUnits="userSpaceOnUse"
       x1="23.875"
       y1="-1052.4872"
       x2="23.875"
       y2="-1004.4247"
       gradientTransform="matrix(0.95835365,0,0,-0.95835365,0.9995135,42.83876)" />
    <linearGradient
       id="linearGradient2476-4"
       inkscape:collect="always">
      <stop
         id="stop2478-8"
         offset="0"
         style="stop-color:#121212;stop-opacity:1" />
      <stop
         id="stop2480-4"
         offset="1"
         style="stop-color:#54555a;stop-opacity:1" />
    </linearGradient>
  </defs>
  <sodipodi:namedview
     id="base"
     pagecolor="#ffffff"
     bordercolor="#666666"
     borderopacity="1.0"
     inkscape:pageopacity="0.0"
     inkscape:pageshadow="2"
     inkscape:zoom="8"
     inkscape:cx="27.208506"
     inkscape:cy="43.5015"
     inkscape:document-units="px"
     inkscape:current-layer="layer1"
     showgrid="false"
     inkscape:window-width="1366"
     inkscape:window-height="714"
     inkscape:window-x="0"
     inkscape:window-y="30"
     inkscape:window-maximized="1"
     showguides="true"
     inkscape:guide-bbox="true" />
  <metadata
     id="metadata885">
    <rdf:RDF>
      <cc:Work
         rdf:about="">
        <dc:format>image/svg+xml</dc:format>
        <dc:type
           rdf:resource="http://purl.org/dc/dcmitype/StillImage" />
        <dc:title />
      </cc:Work>
    </rdf:RDF>
  </metadata>
  <g
     inkscape:label="Capa 1"
     inkscape:groupmode="layer"
     id="layer1"
     transform="translate(0,-1004.3622)">
    <rect
       style="color:#000000;fill:#333333;fill-opacity:1;fill-rule:nonzero;stroke:none;stroke-width:0.2;marker:none;visibility:visible;display:inline;overflow:visible;enable-background:accumulate"
       id="rect6294-9"
       width="45.5"
       height="45.5"
       x="1.25"
       y="1005.6122"
       ry="6.3565426" />
    <path
       inkscape:connector-curvature="0"
       style="fill:url(#linearGradient915-2);fill-opacity:1;stroke:none"
       d="m 7.59375,1006.1122 c -3.2445246,0 -5.84375,2.5992 -5.84375,5.8438 l 0,32.8125 c 0,3.2445 2.5992254,5.8437 5.84375,5.8437 l 32.8125,0 c 3.244525,0 5.84375,-2.5992 5.84375,-5.8437 l 0,-32.8125 c 0,-3.2446 -2.599225,-5.8438 -5.84375,-5.8438 L 7.59375,1006.1122 Z"
       id="rect1041-8" />
    <path
       inkscape:connector-curvature="0"
       style="opacity:0.15;fill:url(#linearGradient2700-7);fill-opacity:1;stroke:none"
       d="m 5.53125,1007.2997 c -0.9463781,0 -1.6875,0.7411 -1.6875,1.6875 l 0,38.75 c 0,0.9464 0.7411219,1.7188 1.6875,1.7188 l 38.34375,0 c 0.987828,-0.7282 1.753447,-1.7344 2.125,-2.9375 l 0,-36.3125 c -0.364586,-1.1806 -1.102099,-2.1807 -2.0625,-2.9063 L 5.53125,1007.2997 Z"
       id="rect2698-3" />
    <g
       id="g948"
       transform="matrix(0.90514036,0,0,0.90116667,5.7767307,101.62641)">
      <rect
         style="fill:#000000;fill-opacity:0.29411765;stroke:none"
         id="rect2714-4"
         width="42.167561"
         height="22.376604"
         x="-1049.4572"
         y="20.790474"
         ry="0.906506"
         transform="matrix(-2.3953356e-8,-1,1,0,0,0)" />
      <rect
         transform="matrix(-2.372795e-8,-1,1,0,0,0)"
         ry="0.88088214"
         y="21.106728"
         x="-1049.1509"
         height="21.744093"
         width="41.554951"
         id="rect2716-9"
         style="fill:url(#linearGradient2875-9);fill-opacity:1;stroke:none" />
      <path
         inkscape:connector-curvature="0"
         id="rect2837-0"
         d="m 42.178771,1049.1577 c 0.03088,-0.092 0.0599,-0.1972 0.0599,-0.2995 l 0,-39.7717 c 0,-0.4879 -0.380498,-0.8984 -0.868507,-0.8984 l -19.975684,0 c -0.08079,0 -0.164565,0.01 -0.239588,0.03 0.124383,-0.3487 0.452768,-0.599 0.838559,-0.599 l 19.975683,0 c 0.48801,0 0.868508,0.4104 0.868508,0.8985 l 0,39.7717 C 42.837639,1048.7001 42.555331,1049.0555 42.178771,1049.1577 Z"
         style="fill:#000000;fill-opacity:0.04858303;stroke:none" />
    </g>
    <path
       style="fill:url(#linearGradient1043-0);fill-opacity:1;stroke:none"
       d="m 7.59375,1006.1122 c -3.2445246,0 -5.84375,2.5992 -5.84375,5.8438 l 0,32.8125 c 0,3.2445 2.5992254,5.8437 5.84375,5.8437 l 18.6875,0 0,-24.0312 2.15625,-2.1563 L 28.4375,1006.1122 Z"
       id="rect2991-1-0"
       inkscape:connector-curvature="0"
       sodipodi:nodetypes="ssssccccs" />
    <path
       style="fill:#000000;fill-opacity:0.23529412;stroke:none"
       d="m 28.4375,1006.1122 0,18.3125 -2.15625,2.1563 0,24.0312 0.40625,0 0,-23.8437 2.15625,-2.1563 L 28.84375,1006.1122 Z"
       id="path1068-51"
       inkscape:connector-curvature="0"
       sodipodi:nodetypes="ccccccccc" />
    <path
       style="fill:#000000;fill-opacity:0.07843137;stroke:none"
       d="m 28.84375,1006.1122 0,18.5 -2.15625,2.1563 0,23.8437 0.4375,0 0,-23.6875 2.15625,-2.1562 L 29.28125,1006.1122 Z"
       id="path1080-2"
       inkscape:connector-curvature="0"
       sodipodi:nodetypes="ccccccccc" />
    <path
       style="fill:#000000;fill-opacity:0.01960784;stroke:none"
       d="m 29.28125,1006.1122 0,18.6563 -2.15625,2.1562 0,23.6875 0.40625,0 0,-23.5 2.15625,-2.1562 L 29.6875,1006.1122 Z"
       id="path1082-3"
       inkscape:connector-curvature="0"
       sodipodi:nodetypes="ccccccccc" />
    <path
       style="fill:#ffffff;fill-opacity:0.23529412;stroke:none"
       d="m 28,1006.1122 0,18.125 -2.15625,2.1563 0,24.2187 0.4375,0 0,-24.0312 2.15625,-2.1563 L 28.4375,1006.1122 Z"
       id="path1113-76"
       inkscape:connector-curvature="0"
       sodipodi:nodetypes="ccccccccc" />
    <path
       style="fill:#ffffff;fill-opacity:0.1187944;stroke:none"
       d="m 27.59375,1006.1122 0,17.9375 -2.15625,2.1563 0,24.4062 0.40625,0 0,-24.2187 L 28,1024.2372 28,1006.1122 Z"
       id="path1115-0"
       inkscape:connector-curvature="0"
       sodipodi:nodetypes="ccccccccc" />
    <path
       style="fill:#ffffff;fill-opacity:0.02745098;stroke:none"
       d="m 27.1875,1006.1122 0,17.75 -2.15625,2.1563 0,24.5937 0.40625,0 0,-24.4062 2.15625,-2.1563 L 27.59375,1006.1122 Z"
       id="path1117-9"
       inkscape:connector-curvature="0"
       sodipodi:nodetypes="ccccccccc" />
    <path
       inkscape:connector-curvature="0"
       style="opacity:0.30899999;fill:url(#linearGradient2800-7);fill-opacity:1;stroke:none"
       d="m 7.59375,1006.1122 c -3.2445246,0 -5.84375,2.5992 -5.84375,5.8438 l 0,32.8125 c 0,3.2445 2.5992254,5.8437 5.84375,5.8437 l 0.125,0 0,-44.5 L 7.59375,1006.1122 Z"
       id="path2796-2" />
    <path
       id="path6361-0"
       d="m 1.749988,1012.5498 0,-0.5625 c 0,-3.2445 2.59922,-5.875 5.84375,-5.875 l 32.8125,0 c 3.24452,0 5.84375,2.6305 5.84375,5.875 l 0,0.5625 c 0,-3.2445 -2.59923,-5.875 -5.84375,-5.875 l -32.8125,0 C 4.349208,1006.6748 1.749988,1009.3053 1.749988,1012.5498 Z"
       style="color:#000000;fill:#ffffff;fill-opacity:1;fill-rule:nonzero;stroke:none;stroke-width:0.2;marker:none;visibility:visible;display:inline;overflow:visible;enable-background:accumulate"
       inkscape:connector-curvature="0" />
    <path
       inkscape:connector-curvature="0"
       style="color:#000000;fill:#000000;fill-opacity:1;fill-rule:nonzero;stroke:none;stroke-width:0.2;marker:none;visibility:visible;display:inline;overflow:visible;enable-background:accumulate"
       d="m 1.749988,1044.1748 0,0.5625 c 0,3.2445 2.59922,5.875 5.84375,5.875 l 32.8125,0 c 3.24452,0 5.84375,-2.6305 5.84375,-5.875 l 0,-0.5625 c 0,3.2445 -2.59923,5.875 -5.84375,5.875 l -32.8125,0 C 4.349208,1050.0498 1.749988,1047.4193 1.749988,1044.1748 Z"
       id="path6388-6" />
    <path
       style="opacity:0.1;fill:#000000;fill-opacity:0.53679654;stroke:none"
       d="M 7.59375 1.75 C 7.3060177 1.75 7.0262196 1.7729795 6.75 1.8125 C 6.6658273 1.8233551 6.5829095 1.8293287 6.5 1.84375 C 6.4259834 1.8575224 6.3542285 1.889745 6.28125 1.90625 C 6.1678114 1.9309067 6.0478331 1.9367009 5.9375 1.96875 L 1.75 9.25 L 1.75 18.8125 L 11.625 1.75 L 7.59375 1.75 z M 20.09375 1.75 L 1.75 33.5 L 1.75 40.40625 C 1.75 40.72583 1.795631 41.037867 1.84375 41.34375 C 1.8521304 41.397023 1.8652131 41.44723 1.875 41.5 C 1.8805242 41.529555 1.8690374 41.564358 1.875 41.59375 C 1.9271379 41.852199 2.0088374 42.099696 2.09375 42.34375 C 2.1000783 42.361899 2.0872492 42.388185 2.09375 42.40625 L 25.625 1.75 L 20.09375 1.75 z M 28.4375 11.53125 L 8.375 46.25 L 13.90625 46.25 L 26.28125 24.84375 L 26.28125 22.21875 L 28.4375 20.0625 L 28.4375 11.53125 z M 26.28125 39.5 L 22.375 46.25 L 26.28125 46.25 L 26.28125 39.5 z "
       transform="translate(0,1004.3622)"
       id="rect4338-1" />
    <path
       style="opacity:0.1;fill:#000000;fill-opacity:0.53679654;stroke:none"
       d="M 20.09375 1.75 L 1.75 33.5 L 1.75 34.25 L 20.53125 1.75 L 20.09375 1.75 z M 6.40625 1.875 C 6.248005 1.907 6.0906921 1.92375 5.9375 1.96875 L 1.75 9.25 L 1.75 10 L 6.4375 1.875 C 6.4276843 1.8769389 6.4160474 1.8730125 6.40625 1.875 z M 28.4375 11.53125 L 8.375 46.25 L 8.8125 46.25 L 28.4375 12.28125 L 28.4375 11.53125 z M 26.28125 39.5 L 22.375 46.25 L 22.8125 46.25 L 26.28125 40.25 L 26.28125 39.5 z "
       transform="translate(0,1004.3622)"
       id="path4355-3" />
    <path
       style="opacity:0.1;fill:#ffffff;fill-opacity:0.19480519;stroke:none"
       d="M 11.625 1.75 L 1.75 18.84375 L 1.75 19.59375 L 12.0625 1.75 L 11.625 1.75 z M 25.625 1.75 L 2.125 42.4375 C 2.1842847 42.598696 2.2398306 42.752227 2.3125 42.90625 L 26.0625 1.75 L 25.625 1.75 z M 26.28125 24.84375 L 13.90625 46.25 L 14.34375 46.25 L 26.28125 25.59375 L 26.28125 24.84375 z "
       transform="translate(0,1004.3622)"
       id="path4360-5" />
  </g>
</svg>
