<?xml version="1.0" encoding="UTF-8" standalone="no"?>
<!-- Created with Inkscape (http://www.inkscape.org/) -->

<svg
   xmlns:dc="http://purl.org/dc/elements/1.1/"
   xmlns:cc="http://creativecommons.org/ns#"
   xmlns:rdf="http://www.w3.org/1999/02/22-rdf-syntax-ns#"
   xmlns:svg="http://www.w3.org/2000/svg"
   xmlns="http://www.w3.org/2000/svg"
   xmlns:xlink="http://www.w3.org/1999/xlink"
   xmlns:sodipodi="http://sodipodi.sourceforge.net/DTD/sodipodi-0.dtd"
   xmlns:inkscape="http://www.inkscape.org/namespaces/inkscape"
   width="48"
   height="48"
   id="svg880"
   version="1.1"
   inkscape:version="0.48+devel r12310"
   sodipodi:docname="folder-visiting.svg">
  <defs
     id="defs882">
    <linearGradient
       id="linearGradient837">
      <stop
         style="stop-color:#666666;stop-opacity:1"
         offset="0"
         id="stop839" />
      <stop
         style="stop-color:#b3b3b3;stop-opacity:1"
         offset="1"
         id="stop841" />
    </linearGradient>
    <linearGradient
       id="linearGradient1035-5"
       inkscape:collect="always">
      <stop
         id="stop1037-0"
         offset="0"
         style="stop-color:#ffffff;stop-opacity:1" />
      <stop
         id="stop1039-4"
         offset="1"
         style="stop-color:#ececec;stop-opacity:1" />
    </linearGradient>
    <linearGradient
       inkscape:collect="always"
       xlink:href="#linearGradient1045-79"
       id="linearGradient2700-7"
       gradientUnits="userSpaceOnUse"
       x1="27.709515"
       y1="-1004.9823"
       x2="27.709515"
       y2="-1052.8083"
       gradientTransform="matrix(0.87849084,0,0,-0.87849084,3.832436,124.96665)" />
    <linearGradient
       inkscape:collect="always"
       id="linearGradient1045-79">
      <stop
         style="stop-color:#000000;stop-opacity:1;"
         offset="0"
         id="stop1047-3" />
      <stop
         style="stop-color:#000000;stop-opacity:0;"
         offset="1"
         id="stop1049-6" />
    </linearGradient>
    <linearGradient
       gradientTransform="matrix(0.95835365,0,0,0.95835365,-42.83876,0.99951249)"
       inkscape:collect="always"
       xlink:href="#linearGradient2869-2"
       id="linearGradient2875-9"
       x1="-1050.2408"
       y1="33.41077"
       x2="-1006.7538"
       y2="33.41077"
       gradientUnits="userSpaceOnUse" />
    <linearGradient
       inkscape:collect="always"
       id="linearGradient2869-2">
      <stop
         style="stop-color:#f9f9f9;stop-opacity:1"
         offset="0"
         id="stop2871-0" />
      <stop
         style="stop-color:#ffffff;stop-opacity:1"
         offset="1"
         id="stop2873-0" />
    </linearGradient>
    <linearGradient
       inkscape:collect="always"
       xlink:href="#linearGradient837"
       id="linearGradient1043-0"
       gradientUnits="userSpaceOnUse"
       x1="48.5"
       y1="-1026.1804"
       x2="1.2499999"
       y2="-1026.1804"
       gradientTransform="matrix(0,0.95835365,0.60396245,0,636.58677,1005.3729)" />
    <linearGradient
       inkscape:collect="always"
       xlink:href="#linearGradient1045-79"
       id="linearGradient2800-7"
       gradientUnits="userSpaceOnUse"
       gradientTransform="matrix(0,0.95835365,0.60396245,0,636.58677,1005.3729)"
       x1="29"
       y1="-1059.3043"
       x2="29"
       y2="-1045.8168" />
    <linearGradient
       gradientTransform="matrix(0.95835365,0,0,-0.95835365,0.9995135,42.83876)"
       y2="-1004.4247"
       x2="23.875"
       y1="-1052.4872"
       x1="23.875"
       gradientUnits="userSpaceOnUse"
       id="linearGradient915-2"
       xlink:href="#linearGradient1035-5"
       inkscape:collect="always" />
  </defs>
  <sodipodi:namedview
     id="base"
     pagecolor="#ffffff"
     bordercolor="#666666"
     borderopacity="1.0"
     inkscape:pageopacity="0.0"
     inkscape:pageshadow="2"
     inkscape:zoom="5.6"
     inkscape:cx="7.9504276"
     inkscape:cy="11.713506"
     inkscape:document-units="px"
     inkscape:current-layer="layer1"
     showgrid="false"
     inkscape:window-width="1366"
     inkscape:window-height="714"
     inkscape:window-x="0"
     inkscape:window-y="30"
     inkscape:window-maximized="1" />
  <metadata
     id="metadata885">
    <rdf:RDF>
      <cc:Work
         rdf:about="">
        <dc:format>image/svg+xml</dc:format>
        <dc:type
           rdf:resource="http://purl.org/dc/dcmitype/StillImage" />
        <dc:title />
      </cc:Work>
    </rdf:RDF>
  </metadata>
  <g
     inkscape:label="Capa 1"
     inkscape:groupmode="layer"
     id="layer1"
     transform="translate(0,-1004.3622)">
    <g
       id="layer1-3"
       inkscape:label="Capa 1"
       transform="translate(0,1.7382813e-5)">
      <rect
         ry="6.3565426"
         y="1005.6122"
         x="1.25"
         height="45.5"
         width="45.5"
         id="rect6294-9"
         style="color:#000000;fill:#333333;fill-opacity:1;fill-rule:nonzero;stroke:none;stroke-width:0.2;marker:none;visibility:visible;display:inline;overflow:visible;enable-background:accumulate" />
      <path
         id="rect1041-8"
         d="m 7.59375,1006.1122 c -3.2445246,0 -5.84375,2.5992 -5.84375,5.8438 l 0,32.8125 c 0,3.2445 2.5992254,5.8437 5.84375,5.8437 l 32.8125,0 c 3.244525,0 5.84375,-2.5992 5.84375,-5.8437 l 0,-32.8125 c 0,-3.2446 -2.599225,-5.8438 -5.84375,-5.8438 L 7.59375,1006.1122 Z"
         style="fill:url(#linearGradient915-2);fill-opacity:1;stroke:none"
         inkscape:connector-curvature="0" />
      <path
         id="rect2698-3"
         d="m 5.53125,1007.2997 c -0.9463781,0 -1.6875,0.7411 -1.6875,1.6875 l 0,38.75 c 0,0.9464 0.7411219,1.7188 1.6875,1.7188 l 38.34375,0 c 0.987828,-0.7282 1.753447,-1.7344 2.125,-2.9375 l 0,-36.3125 c -0.364586,-1.1806 -1.102099,-2.1807 -2.0625,-2.9063 L 5.53125,1007.2997 Z"
         style="opacity:0.15;fill:url(#linearGradient2700-7);fill-opacity:1;stroke:none"
         inkscape:connector-curvature="0" />
      <g
         transform="matrix(0.90514036,0,0,0.90116667,5.7767307,101.62641)"
         id="g948">
        <rect
           transform="matrix(-2.3953356e-8,-1,1,0,0,0)"
           ry="0.906506"
           y="20.790474"
           x="-1049.4572"
           height="22.376604"
           width="42.167561"
           id="rect2714-4"
           style="fill:#000000;fill-opacity:0.29411765;stroke:none" />
        <rect
           style="fill:url(#linearGradient2875-9);fill-opacity:1;stroke:none"
           id="rect2716-9"
           width="41.554951"
           height="21.744093"
           x="-1049.1509"
           y="21.106728"
           ry="0.88088214"
           transform="matrix(-2.372795e-8,-1,1,0,0,0)" />
        <path
           style="fill:#000000;fill-opacity:0.04858303;stroke:none"
           d="m 42.178771,1049.1577 c 0.03088,-0.092 0.0599,-0.1972 0.0599,-0.2995 l 0,-39.7717 c 0,-0.4879 -0.380498,-0.8984 -0.868507,-0.8984 l -19.975684,0 c -0.08079,0 -0.164565,0.01 -0.239588,0.03 0.124383,-0.3487 0.452768,-0.599 0.838559,-0.599 l 19.975683,0 c 0.48801,0 0.868508,0.4104 0.868508,0.8985 l 0,39.7717 C 42.837639,1048.7001 42.555331,1049.0555 42.178771,1049.1577 Z"
           id="rect2837-0"
           inkscape:connector-curvature="0" />
      </g>
      <path
         sodipodi:nodetypes="ssssccccs"
         inkscape:connector-curvature="0"
         id="rect2991-1-0"
         d="m 7.59375,1006.1122 c -3.2445246,0 -5.84375,2.5992 -5.84375,5.8438 l 0,32.8125 c 0,3.2445 2.5992254,5.8437 5.84375,5.8437 l 18.6875,0 0,-24.0312 2.15625,-2.1563 L 28.4375,1006.1122 Z"
         style="fill:url(#linearGradient1043-0);fill-opacity:1;stroke:none" />
      <path
         sodipodi:nodetypes="ccccccccc"
         inkscape:connector-curvature="0"
         id="path1068-51"
         d="m 28.4375,1006.1122 0,18.3125 -2.15625,2.1563 0,24.0312 0.40625,0 0,-23.8437 2.15625,-2.1563 L 28.84375,1006.1122 Z"
         style="fill:#000000;fill-opacity:0.23529412;stroke:none" />
      <path
         sodipodi:nodetypes="ccccccccc"
         inkscape:connector-curvature="0"
         id="path1080-2"
         d="m 28.84375,1006.1122 0,18.5 -2.15625,2.1563 0,23.8437 0.4375,0 0,-23.6875 2.15625,-2.1562 L 29.28125,1006.1122 Z"
         style="fill:#000000;fill-opacity:0.07843137;stroke:none" />
      <path
         sodipodi:nodetypes="ccccccccc"
         inkscape:connector-curvature="0"
         id="path1082-3"
         d="m 29.28125,1006.1122 0,18.6563 -2.15625,2.1562 0,23.6875 0.40625,0 0,-23.5 2.15625,-2.1562 L 29.6875,1006.1122 Z"
         style="fill:#000000;fill-opacity:0.01960784;stroke:none" />
      <path
         sodipodi:nodetypes="ccccccccc"
         inkscape:connector-curvature="0"
         id="path1113-76"
         d="m 28,1006.1122 0,18.125 -2.15625,2.1563 0,24.2187 0.4375,0 0,-24.0312 2.15625,-2.1563 L 28.4375,1006.1122 Z"
         style="fill:#ffffff;fill-opacity:0.23529412;stroke:none" />
      <path
         sodipodi:nodetypes="ccccccccc"
         inkscape:connector-curvature="0"
         id="path1115-0"
         d="m 27.59375,1006.1122 0,17.9375 -2.15625,2.1563 0,24.4062 0.40625,0 0,-24.2187 L 28,1024.2372 28,1006.1122 Z"
         style="fill:#ffffff;fill-opacity:0.1187944;stroke:none" />
      <path
         sodipodi:nodetypes="ccccccccc"
         inkscape:connector-curvature="0"
         id="path1117-9"
         d="m 27.1875,1006.1122 0,17.75 -2.15625,2.1563 0,24.5937 0.40625,0 0,-24.4062 2.15625,-2.1563 L 27.59375,1006.1122 Z"
         style="fill:#ffffff;fill-opacity:0.02745098;stroke:none" />
      <path
         id="path2796-2"
         d="m 7.59375,1006.1122 c -3.2445246,0 -5.84375,2.5992 -5.84375,5.8438 l 0,32.8125 c 0,3.2445 2.5992254,5.8437 5.84375,5.8437 l 0.125,0 0,-44.5 L 7.59375,1006.1122 Z"
         style="opacity:0.30899999;fill:url(#linearGradient2800-7);fill-opacity:1;stroke:none"
         inkscape:connector-curvature="0" />
      <path
         inkscape:connector-curvature="0"
         style="color:#000000;fill:#ffffff;fill-opacity:1;fill-rule:nonzero;stroke:none;stroke-width:0.2;marker:none;visibility:visible;display:inline;overflow:visible;enable-background:accumulate"
         d="m 1.749988,1012.5498 0,-0.5625 c 0,-3.2445 2.59922,-5.875 5.84375,-5.875 l 32.8125,0 c 3.24452,0 5.84375,2.6305 5.84375,5.875 l 0,0.5625 c 0,-3.2445 -2.59923,-5.875 -5.84375,-5.875 l -32.8125,0 C 4.349208,1006.6748 1.749988,1009.3053 1.749988,1012.5498 Z"
         id="path6361-0" />
      <path
         id="path6388-6"
         d="m 1.749988,1044.1748 0,0.5625 c 0,3.2445 2.59922,5.875 5.84375,5.875 l 32.8125,0 c 3.24452,0 5.84375,-2.6305 5.84375,-5.875 l 0,-0.5625 c 0,3.2445 -2.59923,5.875 -5.84375,5.875 l -32.8125,0 C 4.349208,1050.0498 1.749988,1047.4193 1.749988,1044.1748 Z"
         style="color:#000000;fill:#000000;fill-opacity:1;fill-rule:nonzero;stroke:none;stroke-width:0.2;marker:none;visibility:visible;display:inline;overflow:visible;enable-background:accumulate"
         inkscape:connector-curvature="0" />
      <path
         id="rect4338-1"
         transform="translate(0,1004.3622)"
         d="M 7.59375,1.75 C 7.3060177,1.75 7.0262196,1.7729795 6.75,1.8125 6.6658273,1.8233551 6.5829095,1.8293287 6.5,1.84375 6.4259834,1.8575224 6.3542285,1.889745 6.28125,1.90625 6.1678114,1.9309067 6.0478331,1.9367009 5.9375,1.96875 L 1.75,9.25 1.75,18.8125 11.625,1.75 7.59375,1.75 z m 12.5,0 L 1.75,33.5 l 0,6.90625 c 0,0.31958 0.045631,0.631617 0.09375,0.9375 0.00838,0.05327 0.021463,0.10348 0.03125,0.15625 0.00552,0.02956 -0.00596,0.06436 0,0.09375 0.052138,0.258449 0.1338374,0.505946 0.21875,0.75 0.00633,0.01815 -0.0065,0.04443 0,0.0625 L 25.625,1.75 20.09375,1.75 Z M 28.4375,11.53125 8.375,46.25 l 5.53125,0 12.375,-21.40625 0,-2.625 L 28.4375,20.0625 28.4375,11.53125 Z M 26.28125,39.5 22.375,46.25 l 3.90625,0 L 26.28125,39.5 Z"
         style="opacity:0.1;fill:#000000;fill-opacity:0.53679654;stroke:none"
         inkscape:connector-curvature="0" />
      <path
         id="path4355-3"
         transform="translate(0,1004.3622)"
         d="M 20.09375,1.75 1.75,33.5 1.75,34.25 20.53125,1.75 20.09375,1.75 Z M 6.40625,1.875 C 6.248005,1.907 6.0906921,1.92375 5.9375,1.96875 L 1.75,9.25 1.75,10 6.4375,1.875 C 6.4276843,1.8769389 6.4160474,1.8730125 6.40625,1.875 Z M 28.4375,11.53125 8.375,46.25 8.8125,46.25 28.4375,12.28125 28.4375,11.53125 Z M 26.28125,39.5 22.375,46.25 l 0.4375,0 3.46875,-6 L 26.28125,39.5 Z"
         style="opacity:0.1;fill:#000000;fill-opacity:0.53679654;stroke:none"
         inkscape:connector-curvature="0" />
      <path
         id="path4360-5"
         transform="translate(0,1004.3622)"
         d="m 11.625,1.75 -9.875,17.09375 0,0.75 L 12.0625,1.75 11.625,1.75 z m 14,0 -23.5,40.6875 c 0.059285,0.161196 0.1148306,0.314727 0.1875,0.46875 L 26.0625,1.75 25.625,1.75 z m 0.65625,23.09375 -12.375,21.40625 0.4375,0 L 26.28125,25.59375 26.28125,24.84375 Z"
         style="opacity:0.1;fill:#ffffff;fill-opacity:0.19480519;stroke:none"
         inkscape:connector-curvature="0" />
    </g>
  </g>
</svg>
