<?xml version="1.0" encoding="UTF-8" standalone="no"?>
<!-- Created with Inkscape (http://www.inkscape.org/) -->

<svg
   xmlns:dc="http://purl.org/dc/elements/1.1/"
   xmlns:cc="http://creativecommons.org/ns#"
   xmlns:rdf="http://www.w3.org/1999/02/22-rdf-syntax-ns#"
   xmlns:svg="http://www.w3.org/2000/svg"
   xmlns="http://www.w3.org/2000/svg"
   xmlns:xlink="http://www.w3.org/1999/xlink"
   xmlns:sodipodi="http://sodipodi.sourceforge.net/DTD/sodipodi-0.dtd"
   xmlns:inkscape="http://www.inkscape.org/namespaces/inkscape"
   width="48"
   height="48"
   id="svg2"
   version="1.1"
   inkscape:version="0.48+devel r12310"
   sodipodi:docname="folder-publicshare.svg">
  <defs
     id="defs4">
    <linearGradient
       inkscape:collect="always"
       xlink:href="#linearGradient1045-4-7"
       id="linearGradient2800-7-9"
       gradientUnits="userSpaceOnUse"
       gradientTransform="matrix(0,1,0.63020833,0,663.20749,1004.3622)"
       x1="29"
       y1="-1059.3043"
       x2="29"
       y2="-1045.8168" />
    <linearGradient
       inkscape:collect="always"
       id="linearGradient1045-4-7">
      <stop
         style="stop-color:#000000;stop-opacity:1;"
         offset="0"
         id="stop1047-7-1" />
      <stop
         style="stop-color:#000000;stop-opacity:0;"
         offset="1"
         id="stop1049-8-1" />
    </linearGradient>
    <linearGradient
       inkscape:collect="always"
       xlink:href="#linearGradient2476-1"
       id="linearGradient1043-3"
       gradientUnits="userSpaceOnUse"
       x1="48.5"
       y1="-1026.1804"
       x2="1.2499999"
       y2="-1026.1804"
       gradientTransform="matrix(0,1,0.63020833,0,663.20749,1004.3622)" />
    <linearGradient
       id="linearGradient2476-1"
       inkscape:collect="always">
      <stop
         id="stop2478-1"
         offset="0"
         style="stop-color:#121212;stop-opacity:1" />
      <stop
         id="stop2480-1"
         offset="1"
         style="stop-color:#54555a;stop-opacity:1" />
    </linearGradient>
    <linearGradient
       inkscape:collect="always"
       xlink:href="#linearGradient2869-9"
       id="linearGradient2875-2"
       x1="-1050.2408"
       y1="33.41077"
       x2="-1006.7538"
       y2="33.41077"
       gradientUnits="userSpaceOnUse"
       gradientTransform="translate(584.57143,644.57143)" />
    <linearGradient
       inkscape:collect="always"
       id="linearGradient2869-9">
      <stop
         style="stop-color:#f9f9f9;stop-opacity:1"
         offset="0"
         id="stop2871-8" />
      <stop
         style="stop-color:#ffffff;stop-opacity:1"
         offset="1"
         id="stop2873-3" />
    </linearGradient>
    <linearGradient
       inkscape:collect="always"
       xlink:href="#linearGradient1045-5"
       id="linearGradient2700-3"
       gradientUnits="userSpaceOnUse"
       x1="27.709515"
       y1="-1004.9823"
       x2="27.709515"
       y2="-1052.8083"
       gradientTransform="matrix(0.91666666,0,0,0.91666666,2.0000044,-85.696876)" />
    <linearGradient
       inkscape:collect="always"
       id="linearGradient1045-5">
      <stop
         style="stop-color:#000000;stop-opacity:1;"
         offset="0"
         id="stop1047-2" />
      <stop
         style="stop-color:#000000;stop-opacity:0;"
         offset="1"
         id="stop1049-4" />
    </linearGradient>
    <linearGradient
       id="linearGradient1035-5"
       inkscape:collect="always">
      <stop
         id="stop1037-0"
         offset="0"
         style="stop-color:#ffffff;stop-opacity:1" />
      <stop
         id="stop1039-8"
         offset="1"
         style="stop-color:#ececec;stop-opacity:1" />
    </linearGradient>
    <linearGradient
       y2="-1004.4247"
       x2="23.875"
       y1="-1052.4872"
       x1="23.875"
       gradientTransform="translate(4.3457672e-6,-6.495703e-6)"
       gradientUnits="userSpaceOnUse"
       id="linearGradient4565"
       xlink:href="#linearGradient1035-5"
       inkscape:collect="always" />
    <linearGradient
       inkscape:collect="always"
       id="linearGradient4421">
      <stop
         style="stop-color:#11b8fe;stop-opacity:1"
         offset="0"
         id="stop4423" />
      <stop
         style="stop-color:#0eb9fd;stop-opacity:1"
         offset="1"
         id="stop4425" />
    </linearGradient>
    <linearGradient
       inkscape:collect="always"
       xlink:href="#linearGradient4421"
       id="linearGradient1124"
       x1="24.748737"
       y1="1038.3527"
       x2="24.748737"
       y2="1018.3598"
       gradientUnits="userSpaceOnUse" />
  </defs>
  <sodipodi:namedview
     id="base"
     pagecolor="#ffffff"
     bordercolor="#666666"
     borderopacity="1.0"
     inkscape:pageopacity="0.0"
     inkscape:pageshadow="2"
     inkscape:zoom="5.6568543"
     inkscape:cx="12.160978"
     inkscape:cy="24.325804"
     inkscape:document-units="px"
     inkscape:current-layer="layer1"
     showgrid="false"
     inkscape:window-width="1366"
     inkscape:window-height="714"
     inkscape:window-x="0"
     inkscape:window-y="30"
     inkscape:window-maximized="1" />
  <metadata
     id="metadata7">
    <rdf:RDF>
      <cc:Work
         rdf:about="">
        <dc:format>image/svg+xml</dc:format>
        <dc:type
           rdf:resource="http://purl.org/dc/dcmitype/StillImage" />
        <dc:title />
      </cc:Work>
    </rdf:RDF>
  </metadata>
  <g
     inkscape:label="Capa 1"
     inkscape:groupmode="layer"
     id="layer1"
     transform="translate(0,-1004.3622)">
    <g
       transform="translate(0,1004.3622)"
       id="g918">
      <g
         inkscape:label="Capa 1"
         id="layer1-1"
         transform="translate(0,-1004.3622)">
        <rect
           transform="scale(1,-1)"
           ry="1.9445436"
           y="-1052.3622"
           x="-4.3457671e-06"
           height="48"
           width="48"
           id="rect1041-1"
           style="fill:url(#linearGradient4565);fill-opacity:1;stroke:none" />
        <rect
           style="opacity:0.15;fill:url(#linearGradient2700-3);fill-opacity:1;stroke:none"
           id="rect2698-3"
           width="44"
           height="44"
           x="1.9999955"
           y="-1050.3622"
           ry="1.7824984"
           transform="scale(1,-1)" />
        <g
           id="g4427"
           transform="translate(-643.72241,584.57146)">
          <rect
             style="fill:#000000;fill-opacity:0.29411765;stroke:none"
             id="rect2714-1"
             width="44"
             height="23.349005"
             x="-465.79074"
             y="665.22241"
             ry="0.94589925"
             transform="matrix(-2.3953356e-8,-1,1,0,0,0)" />
          <rect
             transform="matrix(-2.372795e-8,-1,1,0,0,0)"
             ry="0.91916192"
             y="665.55243"
             x="-465.47116"
             height="22.689007"
             width="43.360767"
             id="rect2716-8"
             style="fill:url(#linearGradient2875-2);fill-opacity:1;stroke:none" />
          <path
             inkscape:connector-curvature="0"
             id="rect2837-2"
             d="m 687.54017,465.47826 c 0.0322,-0.096 0.0625,-0.2058 0.0625,-0.3125 l 0,-41.5 c 0,-0.5092 -0.39703,-0.9375 -0.90625,-0.9375 l -20.84375,0 c -0.0843,0 -0.17172,0.01 -0.25,0.031 0.12979,-0.3638 0.47244,-0.625 0.875,-0.625 l 20.84375,0 c 0.50922,0 0.90625,0.4282 0.90625,0.9375 l 0,41.5 C 688.22767,465.00076 687.93309,465.37156 687.54017,465.47826 Z"
             style="fill:#000000;fill-opacity:0.04858303;stroke:none" />
        </g>
        <path
           style="fill:url(#linearGradient1043-3);fill-opacity:1;stroke:none"
           d="m 41.279305,1004.3622 -2.25,0 -1.625,0 -35.4668006,0 c -1.07730005,0 -1.9375000542328,0.8602 -1.9375000542328,1.9375 l 0,44.125 c 0,1.0773 0.8602000042328,1.9375 1.9375000542328,1.9375 l 37.0918006,0 0,-25.875 L 41.279305,1024.2372 Z"
           id="rect2991-1-7"
           inkscape:connector-curvature="0"
           sodipodi:nodetypes="cccsssscccc" />
        <path
           inkscape:connector-curvature="0"
           style="opacity:0.1;fill:#000000;fill-opacity:0.53679654;stroke:none"
           d="m 7.0937544,1004.3622 -7.0937500542328,12.2813 0,9.5625 L 12.625005,1004.3622 7.0937544,1004.3622 z m 14.0000006,0 -21.0937506542328,36.5313 0,9.5312 L 26.625005,1004.3622 21.093755,1004.3622 z m 14,0 -27.7187506,48 5.5312506,0 27.71875,-48 -1.59375,0 -1.625,0 L 35.093755,1004.3622 z m 6.1875,13.5313 -19.90625,34.4687 5.53125,0 12.125,-21 0,-4.875 2.25,-2.25 L 41.281255,1017.8935 Z"
           id="rect4338" />
        <path
           inkscape:connector-curvature="0"
           style="opacity:0.1;fill:#000000;fill-opacity:0.53679654;stroke:none"
           d="m 7.0937544,1004.3622 -7.0937500542328,12.2813 0,0.75 L 7.5312544,1004.3622 7.0937544,1004.3622 z m 14.0000006,0 -21.0937506542328,36.5313 0,0.75 L 21.531255,1004.3622 21.093755,1004.3622 z m 14,0 -27.7187506,48 0.4375,0 27.7187506,-48 L 35.093755,1004.3622 z m 6.1875,13.5313 -19.90625,34.4687 0.4375,0 19.46875,-33.7187 L 41.281255,1017.8935 Z"
           id="path4355" />
        <path
           inkscape:connector-curvature="0"
           style="opacity:0.1;fill:#ffffff;fill-opacity:0.19480519;stroke:none"
           d="m 12.625005,1004.3622 -12.6250006542328,21.875 0,0.75 L 13.062505,1004.3622 12.625005,1004.3622 z m 14,0 L 4.3457672e-6,1050.4872 C 0.00600435,1050.6872 0.06380435,1050.87 0.12500435,1051.0497 L 27.062505,1004.3622 26.625005,1004.3622 z m 14,0 -27.71875,48 0.4375,0 27.71875,-48 L 40.625005,1004.3622 z m -1.59375,27.0313 -12.125,20.9687 0.4375,0 11.6875,-20.25 L 39.031255,1031.3935 Z"
           id="path4360" />
        <path
           style="fill:#000000;fill-opacity:0.23529412;stroke:none"
           d="m 41.716805,1004.3622 -0.4375,0 0,19.875 -2.25,2.25 0,25.875 0.4375,0 0,-25.6875 L 41.716805,1024.4247 Z"
           id="path1068-9"
           inkscape:connector-curvature="0"
           sodipodi:nodetypes="ccccccccc" />
        <path
           id="path1080-7"
           d="m 42.154305,1004.3622 -0.4375,0 0,20.0625 -2.25,2.25 0,25.6875 0.4375,0 0,-25.5 L 42.154305,1024.6122 Z"
           style="fill:#000000;fill-opacity:0.07843137;stroke:none"
           inkscape:connector-curvature="0"
           sodipodi:nodetypes="ccccccccc" />
        <path
           sodipodi:nodetypes="ccccccccc"
           inkscape:connector-curvature="0"
           style="fill:#000000;fill-opacity:0.01960784;stroke:none"
           d="m 42.595705,1004.3622 -0.4375,0 0,20.2461 -2.25,2.25 0,25.5039 0.4375,0 0,-25.3164 L 42.595705,1024.7958 Z"
           id="path1082-7" />
        <path
           inkscape:connector-curvature="0"
           id="path1113-2"
           d="m 41.279405,1004.3622 -0.4375,0 0,19.6836 -2.2501,2.25 0,26.0664 0.4375,0 0,-25.8789 L 41.279305,1024.2333 Z"
           style="fill:#ffffff;fill-opacity:0.23529412;stroke:none"
           sodipodi:nodetypes="ccccccccc" />
        <path
           inkscape:connector-curvature="0"
           style="fill:#ffffff;fill-opacity:0.1187944;stroke:none"
           d="m 40.404355,1004.3622 0,19.5 -2.25,2.25 0,26.2188 0.4375,0 0,-26.0313 2.25,-2.25 L 40.841855,1004.3622 Z"
           id="path1115-0"
           sodipodi:nodetypes="ccccccccc" />
        <path
           inkscape:connector-curvature="0"
           id="path1117-8"
           d="m 40.409205,1004.3622 -0.4375,0 0,19.3008 -2.2501,2.25 0,26.4258 0.4375,0 0,-26.2383 L 40.409105,1023.8505 Z"
           style="fill:#ffffff;fill-opacity:0.02745098;stroke:none"
           sodipodi:nodetypes="ccccccccc" />
        <path
           style="opacity:0.30899999;fill:url(#linearGradient2800-7-9);fill-opacity:1;stroke:none"
           d="m 1.9375044,1004.3622 c -1.07730005,0 -1.9375000542328,0.8602 -1.9375000542328,1.9375 l 0,44.125 c 0,1.0773 0.8602000042328,1.9375 1.9375000542328,1.9375 l 5.0625,0 0,-48 L 1.9375044,1004.3622 Z"
           id="path2796-9"
           inkscape:connector-curvature="0" />
        <g
           id="g1588"
           transform="translate(4.3457672e-6,6.495703e-6)">
          <g
             transform="translate(0.023437,8.6914063e-6)"
             id="g2708">
            <path
               inkscape:connector-curvature="0"
               style="fill:#ffffff;fill-opacity:0.5372549;stroke:none"
               d="m 2.5312499,1005.0185 c -0.9170885,0 -1.67114682,0.6395 -1.84375002,1.5 0.33561202,-0.2799 0.77451212,-0.4375 1.24999992,-0.4375 l 44.1250002,0 c 0.475488,0 0.914388,0.1576 1.25,0.4375 -0.172603,-0.8605 -0.926662,-1.5 -1.84375,-1.5 L 2.5312499,1005.0185 Z"
               id="path7515-5" />
            <path
               inkscape:connector-curvature="0"
               style="fill:#000000;fill-opacity:1;stroke:none"
               d="m 47.976563,1049.3622 0,1.0625 c 0,1.0773 -0.860223,1.9375 -1.9375,1.9375 l -44.1250005,0 c -1.077277,0 -1.9375,-0.8602 -1.9375,-1.9375 l 0,-1.0625 c 0,1.0773 0.860223,1.9375 1.9375,1.9375 l 44.1250005,0 C 47.11634,1051.2997 47.976563,1050.4395 47.976563,1049.3622 Z"
               id="rect846-1" />
          </g>
          <path
             id="rect4280-1"
             d="m 1.9375,1004.3622 c -1.077277,0 -1.9375,0.8602 -1.9375,1.9375 l 0,43.0625 c 0,0.7934 0.480024,1.449 1.15625,1.75 -0.309342,-0.3333 -0.5,-0.7824 -0.5,-1.2812 l 0,-42.9375 c 0,-1.0482 0.826899,-1.875 1.875,-1.875 l 42.9375,0 c 1.048101,0 1.875,0.8268 1.875,1.875 l 0,42.9375 c 0,0.4988 -0.190658,0.9479 -0.5,1.2812 0.676226,-0.301 1.15625,-0.9566 1.15625,-1.75 l 0,-43.0625 c 0,-1.0773 -0.860223,-1.9375 -1.9375,-1.9375 L 1.9375,1004.3622 Z"
             style="fill:#000000;fill-opacity:0.39215686;stroke:none"
             inkscape:connector-curvature="0" />
        </g>
      </g>
      <g
         id="layer2-8"
         inkscape:label="Capa 2" />
    </g>
    <path
       inkscape:connector-curvature="0"
       id="path815"
       d="m 18.633621,1018.3622 c -1.624453,0 -2.931032,1.3066 -2.931032,2.931 0,1.6244 1.306579,2.9311 2.931032,2.9311 l 2.413794,9.0087 c -0.608581,0.536 -0.991379,1.3191 -0.991379,2.1982 0,1.6244 1.306579,2.931 2.931033,2.931 1.624455,0 2.931033,-1.3066 2.931033,-2.931 0,-0.8123 -0.329791,-1.5367 -0.862068,-2.069 l 3.663792,-6.3361 c 0.203899,0.044 0.429225,0.086 0.64655,0.086 1.624456,0 2.931034,-1.3498 2.931034,-2.9742 0,-1.6244 -1.306578,-2.9311 -2.931034,-2.9311 -1.624454,0 -2.931032,1.3067 -2.931032,2.9311 0,0.7585 0.261354,1.4611 0.732758,1.9827 l -3.706895,6.4225 c -0.152855,-0.025 -0.314373,-0.043 -0.474138,-0.043 -0.08658,0 -0.173994,-0.014 -0.258621,0 l -2.370689,-8.7931 c 0.754853,-0.5325 1.25,-1.4199 1.25,-2.4138 C 21.607759,1019.6688 20.258077,1018.3622 18.633621,1018.3622 Z"
       style="fill:url(#linearGradient1124);fill-opacity:1.0;stroke:none" />
    <path
       style="fill:#000000;fill-opacity:0.39215686;stroke:none"
       d="m 18.625002,1018.3622 c -1.624455,0 -2.937499,1.3131 -2.937499,2.9375 0,0.054 0.02841,0.103 0.03125,0.1562 0.08287,-1.5489 1.335757,-2.7499 2.906249,-2.7499 1.571605,0 2.884885,1.1994 2.968749,2.7499 0.0028,-0.053 0,-0.1026 0,-0.1562 C 21.593751,1019.6753 20.249458,1018.3622 18.625002,1018.3622 z m 10.749996,2.8438 c -1.624455,0 -2.937499,1.313 -2.937499,2.9374 0,0.073 -0.0049,0.1464 0,0.2188 0.04964,-1.5802 1.344754,-2.8125 2.937499,-2.8125 1.570492,0 2.82338,1.201 2.906249,2.75 0.0028,-0.054 0.03125,-0.1023 0.03125,-0.1563 C 32.312497,1022.519 30.999454,1021.206 29.374998,1021.206 z m -8.968747,2.7812 c -0.02298,0.017 -0.039,0.046 -0.0625,0.063 l 2.374999,8.7812 c 0.08463,-0.014 0.19467,0 0.28125,0 0.159765,0 0.315895,0.01 0.46875,0.031 l 3.687499,-6.4063 c -0.03981,-0.044 -0.05697,-0.1097 -0.09375,-0.1562 l -3.593749,6.25 c -0.152855,-0.025 -0.308985,-0.063 -0.46875,-0.063 -0.08658,0 -0.196623,-0.014 -0.28125,0 L 20.406251,1023.9872 z m 0.59375,9.3125 c -0.571102,0.5337 -0.9375,1.2773 -0.9375,2.125 0,0.054 0.02841,0.1031 0.03125,0.1563 0.05034,-0.8023 0.403932,-1.5338 0.96875,-2.0313 L 21.000001,1033.2997 z m 4.187498,0.2187 -0.125,0.1876 c 0.496915,0.4969 0.772114,1.1592 0.8125,1.9062 0.0041,-0.063 0.03125,-0.123 0.03125,-0.1875 C 25.906249,1034.6854 25.63785,1034.0335 25.187499,1033.5184 Z"
       id="path935"
       inkscape:connector-curvature="0" />
    <path
       style="fill:#ffffff;fill-opacity:0.35294118;stroke:none"
       d="m 15.718753,1021.144 c -0.0028,0.053 -0.03125,0.1022 -0.03125,0.1562 0,1.6244 1.313044,2.9375 2.937499,2.9375 l 2.374999,8.75 c 0.02042,-0.019 0.04154,-0.044 0.0625,-0.062 l -2.437499,-9 C 17.05451,1023.9252 15.801622,1022.6929 15.718753,1021.144 z m 5.874998,0 c -0.04989,0.9287 -0.535864,1.7463 -1.25,2.25 l 0.0625,0.25 c 0.715469,-0.5371 1.1875,-1.3808 1.1875,-2.3438 C 21.593751,1021.2474 21.596571,1021.1961 21.593751,1021.144 z m 10.687496,2.8437 c -0.08287,1.5517 -1.335757,2.8125 -2.906249,2.8125 -0.217325,0 -0.452351,-0.019 -0.65625,-0.062 l -3.656249,6.3125 c 0.03736,0.037 0.05843,0.086 0.09375,0.125 l 3.562499,-6.1562 c 0.203899,0.044 0.438925,0.094 0.65625,0.094 1.624456,0 2.937499,-1.3443 2.937499,-2.9687 C 32.312497,1024.09 32.284094,1024.0409 32.281247,1023.9877 z m -5.843748,0.062 c -10e-4,0.033 0,0.062 0,0.094 0,0.7006 0.21937,1.337 0.625,1.8437 l 0.09375,-0.1562 C 26.730535,1025.3604 26.482816,1024.7243 26.437499,1024.0502 z m -6.374998,11.2188 c -0.0029,0.054 0,0.1018 0,0.1562 0,1.6244 1.313045,2.9375 2.937499,2.9375 1.624455,0 2.906249,-1.3131 2.906249,-2.9375 0,-0.042 0.0018,-0.083 0,-0.125 -0.08124,1.5505 -1.334644,2.75 -2.906249,2.75 C 21.417826,1038.0502 20.128092,1036.8343 20.062501,1035.269 Z"
       id="path940"
       inkscape:connector-curvature="0" />
  </g>
</svg>
