<?xml version="1.0" encoding="UTF-8" standalone="no"?>
<!-- Created with Inkscape (http://www.inkscape.org/) -->

<svg
   xmlns:dc="http://purl.org/dc/elements/1.1/"
   xmlns:cc="http://creativecommons.org/ns#"
   xmlns:rdf="http://www.w3.org/1999/02/22-rdf-syntax-ns#"
   xmlns:svg="http://www.w3.org/2000/svg"
   xmlns="http://www.w3.org/2000/svg"
   xmlns:xlink="http://www.w3.org/1999/xlink"
   xmlns:sodipodi="http://sodipodi.sourceforge.net/DTD/sodipodi-0.dtd"
   xmlns:inkscape="http://www.inkscape.org/namespaces/inkscape"
   width="48"
   height="48"
   id="svg865"
   version="1.1"
   inkscape:version="0.48+devel r12310"
   sodipodi:docname="folder-ubuntuone.svg">
  <defs
     id="defs867">
    <linearGradient
       y2="-1004.4247"
       x2="23.875"
       y1="-1052.4872"
       x1="23.875"
       gradientTransform="translate(-53.386557,3.2050781e-5)"
       gradientUnits="userSpaceOnUse"
       id="linearGradient917"
       xlink:href="#linearGradient1035-5"
       inkscape:collect="always" />
    <linearGradient
       id="linearGradient1035-5"
       inkscape:collect="always">
      <stop
         id="stop1037-0"
         offset="0"
         style="stop-color:#ffffff;stop-opacity:1" />
      <stop
         id="stop1039-8"
         offset="1"
         style="stop-color:#ececec;stop-opacity:1" />
    </linearGradient>
    <linearGradient
       inkscape:collect="always"
       xlink:href="#linearGradient1045-7"
       id="linearGradient2700-8"
       gradientUnits="userSpaceOnUse"
       x1="27.709515"
       y1="-1004.9823"
       x2="27.709515"
       y2="-1052.8083"
       gradientTransform="matrix(0.91666666,0,0,0.91666666,-51.386557,-85.696833)" />
    <linearGradient
       inkscape:collect="always"
       id="linearGradient1045-7">
      <stop
         style="stop-color:#000000;stop-opacity:1;"
         offset="0"
         id="stop1047-4" />
      <stop
         style="stop-color:#000000;stop-opacity:0;"
         offset="1"
         id="stop1049-3" />
    </linearGradient>
    <linearGradient
       inkscape:collect="always"
       xlink:href="#linearGradient2869-9"
       id="linearGradient2875-3"
       x1="-1050.2408"
       y1="33.41077"
       x2="-1006.7538"
       y2="33.41077"
       gradientUnits="userSpaceOnUse"
       gradientTransform="translate(584.57143,644.57143)" />
    <linearGradient
       inkscape:collect="always"
       id="linearGradient2869-9">
      <stop
         style="stop-color:#f9f9f9;stop-opacity:1"
         offset="0"
         id="stop2871-7" />
      <stop
         style="stop-color:#ffffff;stop-opacity:1"
         offset="1"
         id="stop2873-0" />
    </linearGradient>
    <linearGradient
       inkscape:collect="always"
       xlink:href="#linearGradient2476-9"
       id="linearGradient1043-1"
       gradientUnits="userSpaceOnUse"
       x1="48.5"
       y1="-1026.1804"
       x2="1.2499999"
       y2="-1026.1804"
       gradientTransform="matrix(0,1,0.63020833,0,609.82093,1004.3622)" />
    <linearGradient
       id="linearGradient2476-9"
       inkscape:collect="always">
      <stop
         id="stop2478-4"
         offset="0"
         style="stop-color:#121212;stop-opacity:1" />
      <stop
         id="stop2480-4"
         offset="1"
         style="stop-color:#54555a;stop-opacity:1" />
    </linearGradient>
    <linearGradient
       inkscape:collect="always"
       xlink:href="#linearGradient1045-4"
       id="linearGradient2800-7"
       gradientUnits="userSpaceOnUse"
       gradientTransform="matrix(0,1,0.63020833,0,609.82093,1004.3622)"
       x1="29"
       y1="-1059.3043"
       x2="29"
       y2="-1045.8168" />
    <linearGradient
       inkscape:collect="always"
       id="linearGradient1045-4">
      <stop
         style="stop-color:#000000;stop-opacity:1;"
         offset="0"
         id="stop1047-7" />
      <stop
         style="stop-color:#000000;stop-opacity:0;"
         offset="1"
         id="stop1049-8" />
    </linearGradient>
    <linearGradient
       inkscape:collect="always"
       id="linearGradient4421">
      <stop
         style="stop-color:#11b8fe;stop-opacity:1"
         offset="0"
         id="stop4423" />
      <stop
         style="stop-color:#0eb9fd;stop-opacity:1"
         offset="1"
         id="stop4425" />
    </linearGradient>
    <linearGradient
       inkscape:collect="always"
       xlink:href="#linearGradient4421"
       id="linearGradient882"
       x1="1.625"
       y1="1042.3142"
       x2="1.625"
       y2="1022.2958"
       gradientUnits="userSpaceOnUse"
       gradientTransform="matrix(0.9997895,0,0,0.9997895,17.751315,-3.7223048)" />
  </defs>
  <sodipodi:namedview
     id="base"
     pagecolor="#ffffff"
     bordercolor="#666666"
     borderopacity="1.0"
     inkscape:pageopacity="0.0"
     inkscape:pageshadow="2"
     inkscape:zoom="8"
     inkscape:cx="19.731502"
     inkscape:cy="36.816743"
     inkscape:document-units="px"
     inkscape:current-layer="layer1"
     showgrid="false"
     inkscape:window-width="1366"
     inkscape:window-height="714"
     inkscape:window-x="0"
     inkscape:window-y="30"
     inkscape:window-maximized="1" />
  <metadata
     id="metadata870">
    <rdf:RDF>
      <cc:Work
         rdf:about="">
        <dc:format>image/svg+xml</dc:format>
        <dc:type
           rdf:resource="http://purl.org/dc/dcmitype/StillImage" />
        <dc:title></dc:title>
      </cc:Work>
    </rdf:RDF>
  </metadata>
  <g
     inkscape:label="Capa 1"
     inkscape:groupmode="layer"
     id="layer1"
     transform="translate(0,-1004.3622)">
    <g
       id="g972"
       transform="translate(53.386563,-3.397461e-5)">
      <rect
         style="fill:url(#linearGradient917);fill-opacity:1;stroke:none"
         id="rect1041-3"
         width="48"
         height="48"
         x="-53.38657"
         y="-1052.3622"
         ry="1.9445436"
         transform="scale(1,-1)" />
      <rect
         transform="scale(1,-1)"
         ry="1.7824984"
         y="-1050.3622"
         x="-51.38657"
         height="44"
         width="44"
         id="rect2698-2"
         style="opacity:0.15;fill:url(#linearGradient2700-8);fill-opacity:1;stroke:none" />
      <g
         transform="translate(-697.10897,584.57142)"
         id="g4427">
        <rect
           transform="matrix(-2.3953356e-8,-1,1,0,0,0)"
           ry="0.94589925"
           y="665.22241"
           x="-465.79074"
           height="23.349005"
           width="44"
           id="rect2714-4"
           style="fill:#000000;fill-opacity:0.29411765;stroke:none" />
        <rect
           style="fill:url(#linearGradient2875-3);fill-opacity:1;stroke:none"
           id="rect2716-4"
           width="43.360767"
           height="22.689007"
           x="-465.47116"
           y="665.55243"
           ry="0.91916192"
           transform="matrix(-2.372795e-8,-1,1,0,0,0)" />
        <path
           style="fill:#000000;fill-opacity:0.04858303;stroke:none"
           d="m 687.54017,465.47826 c 0.0322,-0.096 0.0625,-0.2058 0.0625,-0.3125 l 0,-41.5 c 0,-0.5092 -0.39703,-0.9375 -0.90625,-0.9375 l -20.84375,0 c -0.0843,0 -0.17172,0.01 -0.25,0.031 0.12979,-0.3638 0.47244,-0.625 0.875,-0.625 l 20.84375,0 c 0.50922,0 0.90625,0.4282 0.90625,0.9375 l 0,41.5 C 688.22767,465.00076 687.93309,465.37156 687.54017,465.47826 Z"
           id="rect2837-5"
           inkscape:connector-curvature="0" />
      </g>
      <path
         sodipodi:nodetypes="cccsssscccc"
         inkscape:connector-curvature="0"
         id="rect2991-1-9"
         d="m -12.107257,1004.3622 -2.25,0 -1.625,0 -35.4668,0 c -1.0773,0 -1.9375,0.8603 -1.9375,1.9376 l 0,44.125 c 0,1.0773 0.8602,1.9375 1.9375,1.9375 l 37.0918,0 0,-25.875 L -12.107257,1024.2373 Z"
         style="fill:url(#linearGradient1043-1);fill-opacity:1;stroke:none" />
      <path
         id="rect4338"
         d="m -46.292807,1004.3622 -7.09375,12.2814 0,9.5625 12.625001,-21.8439 L -46.292807,1004.3622 z m 14.000001,0 -21.093751,36.5314 0,9.5312 26.625001,-46.0626 L -32.292806,1004.3622 z m 13.999999,0 -27.71875,48.0001 5.531251,0 27.718749,-48.0001 -1.59375,0 -1.625,0 L -18.292807,1004.3622 z m 6.1875,13.5314 -19.906249,34.4687 5.53125,0 12.124999,-21 0,-4.875 2.25,-2.25 L -12.105307,1017.8936 Z"
         style="opacity:0.1;fill:#000000;fill-opacity:0.53679654;stroke:none"
         inkscape:connector-curvature="0" />
      <path
         id="path4355"
         d="m -46.292807,1004.3622 -7.09375,12.2814 0,0.75 7.53125,-13.0314 L -46.292807,1004.3622 z m 14.000001,0 -21.093751,36.5314 0,0.75 21.531251,-37.2814 L -32.292806,1004.3622 z m 13.999999,0 -27.71875,48.0001 0.4375,0 27.71875,-48.0001 L -18.292807,1004.3622 z m 6.1875,13.5314 -19.906249,34.4687 0.4375,0 19.468749,-33.7187 L -12.105307,1017.8936 Z"
         style="opacity:0.1;fill:#000000;fill-opacity:0.53679654;stroke:none"
         inkscape:connector-curvature="0" />
      <path
         id="path4360"
         d="m -40.761556,1004.3622 -12.625001,21.8751 0,0.75 13.062501,-22.6251 L -40.761556,1004.3622 z m 14,0 -26.625001,46.1251 c 0.006,0.2 0.0638,0.3828 0.125,0.5625 L -26.324056,1004.3622 -26.761556,1004.3622 z m 13.999999,0 -27.718749,48.0001 0.4375,0 27.718749,-48.0001 L -12.761557,1004.3622 z m -1.59375,27.0314 -12.124999,20.9687 0.4375,0 11.687499,-20.25 L -14.355307,1031.3936 Z"
         style="opacity:0.1;fill:#ffffff;fill-opacity:0.19480519;stroke:none"
         inkscape:connector-curvature="0" />
      <path
         sodipodi:nodetypes="ccccccccc"
         inkscape:connector-curvature="0"
         id="path1068-0"
         d="m -11.669757,1004.3622 -0.4375,0 0,19.8751 -2.25,2.25 0,25.875 0.4375,0 0,-25.6875 L -11.669757,1024.4248 Z"
         style="fill:#000000;fill-opacity:0.23529412;stroke:none" />
      <path
         sodipodi:nodetypes="ccccccccc"
         inkscape:connector-curvature="0"
         style="fill:#000000;fill-opacity:0.07843137;stroke:none"
         d="m -11.232257,1004.3622 -0.4375,0 0,20.0626 -2.25,2.25 0,25.6875 0.4375,0 0,-25.5 L -11.232257,1024.6123 Z"
         id="path1080-6" />
      <path
         id="path1082-0"
         d="m -10.790857,1004.3622 -0.4375,0 0,20.2462 -2.25,2.25 0,25.5039 0.4375,0 0,-25.3164 L -10.790857,1024.7959 Z"
         style="fill:#000000;fill-opacity:0.01960784;stroke:none"
         inkscape:connector-curvature="0"
         sodipodi:nodetypes="ccccccccc" />
      <path
         sodipodi:nodetypes="ccccccccc"
         style="fill:#ffffff;fill-opacity:0.23529412;stroke:none"
         d="m -12.107157,1004.3622 -0.4375,0 0,19.6837 -2.2501,2.25 0,26.0664 0.4375,0 0,-25.8789 L -12.107257,1024.2334 Z"
         id="path1113-1"
         inkscape:connector-curvature="0" />
      <path
         sodipodi:nodetypes="ccccccccc"
         id="path1115-7"
         d="m -12.982207,1004.3622 0,19.5001 -2.25,2.25 0,26.2188 0.4375,0 0,-26.0313 2.25,-2.25 L -12.544707,1004.3622 Z"
         style="fill:#ffffff;fill-opacity:0.1187944;stroke:none"
         inkscape:connector-curvature="0" />
      <path
         sodipodi:nodetypes="ccccccccc"
         style="fill:#ffffff;fill-opacity:0.02745098;stroke:none"
         d="m -12.977357,1004.3622 -0.4375,0 0,19.3009 -2.2501,2.25 0,26.4258 0.4375,0 0,-26.2383 L -12.977457,1023.8506 Z"
         id="path1117-7"
         inkscape:connector-curvature="0" />
      <path
         inkscape:connector-curvature="0"
         id="path2796-9"
         d="m -51.449057,1004.3622 c -1.0773,0 -1.9375,0.8603 -1.9375,1.9376 l 0,44.125 c 0,1.0773 0.8602,1.9375 1.9375,1.9375 l 5.0625,0 0,-48.0001 L -51.449057,1004.3622 Z"
         style="opacity:0.30899999;fill:url(#linearGradient2800-7);fill-opacity:1;stroke:none" />
      <g
         transform="translate(-53.386557,-3.2050781e-5)"
         id="g1588">
        <g
           id="g2708"
           transform="translate(0.023437,8.6914063e-6)">
          <path
             id="path7515-6"
             d="m 2.5312499,1005.0185 c -0.9170885,0 -1.67114682,0.6395 -1.84375002,1.5 0.33561202,-0.2799 0.77451212,-0.4375 1.24999992,-0.4375 l 44.1250002,0 c 0.475488,0 0.914388,0.1576 1.25,0.4375 -0.172603,-0.8605 -0.926662,-1.5 -1.84375,-1.5 L 2.5312499,1005.0185 Z"
             style="fill:#ffffff;fill-opacity:0.5372549;stroke:none"
             inkscape:connector-curvature="0" />
          <path
             id="rect846-4"
             d="m 47.976563,1049.3622 0,1.0625 c 0,1.0773 -0.860223,1.9375 -1.9375,1.9375 l -44.1250005,0 c -1.077277,0 -1.9375,-0.8602 -1.9375,-1.9375 l 0,-1.0625 c 0,1.0773 0.860223,1.9375 1.9375,1.9375 l 44.1250005,0 C 47.11634,1051.2997 47.976563,1050.4395 47.976563,1049.3622 Z"
             style="fill:#000000;fill-opacity:1;stroke:none"
             inkscape:connector-curvature="0" />
        </g>
        <path
           inkscape:connector-curvature="0"
           style="fill:#000000;fill-opacity:0.39215686;stroke:none"
           d="m 1.9375,1004.3622 c -1.077277,0 -1.9375,0.8602 -1.9375,1.9375 l 0,43.0625 c 0,0.7934 0.480024,1.449 1.15625,1.75 -0.309342,-0.3333 -0.5,-0.7824 -0.5,-1.2812 l 0,-42.9375 c 0,-1.0482 0.826899,-1.875 1.875,-1.875 l 42.9375,0 c 1.048101,0 1.875,0.8268 1.875,1.875 l 0,42.9375 c 0,0.4988 -0.190658,0.9479 -0.5,1.2812 0.676226,-0.301 1.15625,-0.9566 1.15625,-1.75 l 0,-43.0625 c 0,-1.0773 -0.860223,-1.9375 -1.9375,-1.9375 L 1.9375,1004.3622 Z"
           id="rect4280-7" />
      </g>
    </g>
    <path
       style="fill:url(#linearGradient882);fill-opacity:1"
       id="path3865"
       inkscape:connector-curvature="0"
       d="m 15.731869,1018.385 0,6.5349 c 0,5.4341 0.190883,6.7349 0.403407,7.6249 0.798967,3.3462 2.948389,5.2646 6.412212,5.7275 1.875043,0.2508 5.662032,-0.04 8.640309,-0.6617 l 1.088246,-0.2233 0,-19.0023 -5.514718,-0.019 0,15.1654 -5.514728,0 0,-10.6846 -2.068025,0 L 21.935942,1018.3713 Z" />
    <path
       style="fill:#ffffff;fill-opacity:0.23529412"
       d="m 21.656743,1018.3622 -2.46823,4.0304 0.281191,0 2.46823,-4.0304 L 21.656743,1018.3622 z m -5.905007,9.4668 c 0.05868,2.9849 0.208577,4.0211 0.374921,4.7177 0.798968,3.3462 2.972322,5.2547 6.436145,5.7176 1.875043,0.2507 5.644907,-0.034 8.623185,-0.6561 l 1.09352,-0.2187 0,-0.4375 -1.09352,0.2188 c -2.978278,0.6217 -6.748142,0.9068 -8.623185,0.6561 -3.463823,-0.4629 -5.637177,-2.3714 -6.436145,-5.7176 C 15.967265,1031.4418 15.815384,1030.529 15.751736,1027.829 Z"
       id="path884"
       inkscape:connector-curvature="0" />
    <path
       style="fill:#000000;fill-opacity:0.39215686"
       d="m 21.937934,1018.3622 -6.217441,0.031 0,0.3749 5.998737,-0.031 L 21.937934,1018.3622 z m 4.811487,0 0,0.3749 5.530086,0.031 0,-0.3749 L 26.749421,1018.3622 z m -7.342204,4.4991 -0.218704,0.3436 2.062066,0 0,-0.3436 L 19.407217,1022.8613 z m 1.843362,10.6852 0,0.3437 5.498842,0 0,-0.3437 L 21.250579,1033.5465 Z"
       id="path891"
       inkscape:connector-curvature="0" />
  </g>
  <g
     inkscape:groupmode="layer"
     id="layer2"
     inkscape:label="Capa 2" />
</svg>
