<?xml version="1.0" encoding="UTF-8" standalone="no"?>
<!-- Created with Inkscape (http://www.inkscape.org/) -->

<svg
   xmlns:dc="http://purl.org/dc/elements/1.1/"
   xmlns:cc="http://creativecommons.org/ns#"
   xmlns:rdf="http://www.w3.org/1999/02/22-rdf-syntax-ns#"
   xmlns:svg="http://www.w3.org/2000/svg"
   xmlns="http://www.w3.org/2000/svg"
   xmlns:sodipodi="http://sodipodi.sourceforge.net/DTD/sodipodi-0.dtd"
   xmlns:inkscape="http://www.inkscape.org/namespaces/inkscape"
   width="48"
   height="48"
   id="svg4649"
   version="1.1"
   inkscape:version="0.48+devel r12240"
   sodipodi:docname="archive-insert.svg">
  <defs
     id="defs4651" />
  <sodipodi:namedview
     id="base"
     pagecolor="#ffffff"
     bordercolor="#666666"
     borderopacity="1.0"
     inkscape:pageopacity="0.0"
     inkscape:pageshadow="2"
     inkscape:zoom="8"
     inkscape:cx="6.664527"
     inkscape:cy="25.455945"
     inkscape:document-units="px"
     inkscape:current-layer="layer1"
     showgrid="false"
     inkscape:window-width="1366"
     inkscape:window-height="716"
     inkscape:window-x="0"
     inkscape:window-y="28"
     inkscape:window-maximized="1" />
  <metadata
     id="metadata4654">
    <rdf:RDF>
      <cc:Work
         rdf:about="">
        <dc:format>image/svg+xml</dc:format>
        <dc:type
           rdf:resource="http://purl.org/dc/dcmitype/StillImage" />
        <dc:title />
      </cc:Work>
    </rdf:RDF>
  </metadata>
  <g
     inkscape:label="Capa 1"
     inkscape:groupmode="layer"
     id="layer1"
     transform="translate(0,-1004.3622)">
    <g
       transform="matrix(0.67303809,0,0,0.77431344,-743.27139,931.3175)"
       id="Menu"
       style="fill:#1a1a1a">
      <path
         style="fill:#1a1a1a"
         inkscape:connector-curvature="0"
         id="path197"
         d="m 1164.326,130.013 -2.848,-1.162 -3.561,1.453 5.393,2.2 -23.31,9.509 -23.311,-9.509 5.393,-2.2 -3.561,-1.453 -2.848,1.162 c -1.012,0.413 -1.674,1.397 -1.674,2.491 0,1.093 0.662,2.078 1.674,2.49 l 23.311,9.509 c 0.326,0.133 0.671,0.199 1.016,0.199 0.345,0 0.689,-0.066 1.016,-0.199 l 23.311,-9.509 c 1.012,-0.413 1.674,-1.397 1.674,-2.49 C 1166,131.41 1165.338,130.426 1164.326,130.013 Z" />
      <path
         style="fill:#1a1a1a"
         inkscape:connector-curvature="0"
         id="path199"
         d="m 1164.326,122.84 -4.019,-1.639 -3.561,1.452 6.563,2.678 -23.309,9.509 -23.311,-9.509 6.563,-2.678 -3.561,-1.452 -4.019,1.639 c -1.012,0.413 -1.674,1.397 -1.674,2.491 0,1.093 0.662,2.078 1.674,2.49 l 23.311,9.509 c 0.326,0.133 0.671,0.199 1.016,0.199 0.345,0 0.689,-0.066 1.016,-0.199 l 23.311,-9.509 c 1.012,-0.413 1.674,-1.397 1.674,-2.49 C 1166,124.238 1165.338,123.253 1164.326,122.84 Z" />
      <path
         style="fill:#1a1a1a"
         inkscape:connector-curvature="0"
         id="path201"
         d="m 1140,108.648 23.311,9.509 -23.311,9.51 -23.311,-9.509 23.311,-9.51 m 0,-2.69 c -0.345,0 -0.689,0.066 -1.016,0.199 l -23.311,9.509 c -1.012,0.413 -1.674,1.397 -1.674,2.49 0,1.093 0.662,2.078 1.674,2.491 l 23.311,9.509 c 0.326,0.132 0.671,0.199 1.016,0.199 0.345,0 0.689,-0.067 1.016,-0.199 l 23.311,-9.509 c 1.012,-0.413 1.674,-1.397 1.674,-2.491 0,-1.093 -0.662,-2.078 -1.674,-2.49 l -23.311,-9.509 c -0.327,-0.132 -0.671,-0.199 -1.016,-0.199 L 1140,105.958 Z" />
    </g>
  </g>
</svg>
