<?xml version="1.0" encoding="UTF-8" standalone="no"?>
<!-- Created with Inkscape (http://www.inkscape.org/) -->

<svg
   xmlns:dc="http://purl.org/dc/elements/1.1/"
   xmlns:cc="http://creativecommons.org/ns#"
   xmlns:rdf="http://www.w3.org/1999/02/22-rdf-syntax-ns#"
   xmlns:svg="http://www.w3.org/2000/svg"
   xmlns="http://www.w3.org/2000/svg"
   xmlns:sodipodi="http://sodipodi.sourceforge.net/DTD/sodipodi-0.dtd"
   xmlns:inkscape="http://www.inkscape.org/namespaces/inkscape"
   width="48"
   height="48"
   id="svg3225"
   version="1.1"
   inkscape:version="0.48+devel r12240"
   sodipodi:docname="document-preview.svg">
  <defs
     id="defs3227" />
  <sodipodi:namedview
     id="base"
     pagecolor="#ffffff"
     bordercolor="#666666"
     borderopacity="1.0"
     inkscape:pageopacity="0.0"
     inkscape:pageshadow="2"
     inkscape:zoom="5.1036027"
     inkscape:cx="15.968561"
     inkscape:cy="29.023698"
     inkscape:document-units="px"
     inkscape:current-layer="layer1"
     showgrid="false"
     fit-margin-top="0"
     fit-margin-left="0"
     fit-margin-right="0"
     fit-margin-bottom="0"
     inkscape:window-width="1366"
     inkscape:window-height="716"
     inkscape:window-x="0"
     inkscape:window-y="28"
     inkscape:window-maximized="1" />
  <metadata
     id="metadata3230">
    <rdf:RDF>
      <cc:Work
         rdf:about="">
        <dc:format>image/svg+xml</dc:format>
        <dc:type
           rdf:resource="http://purl.org/dc/dcmitype/StillImage" />
        <dc:title />
      </cc:Work>
    </rdf:RDF>
  </metadata>
  <g
     inkscape:label="Capa 1"
     inkscape:groupmode="layer"
     id="layer1"
     transform="translate(-441.71429,-456.93361)">
    <g
       id="g912"
       transform="matrix(1.0975603,0,0,1.0975603,-45.435231,-50.944424)"
       style="fill:#1a1a1a">
      <path
         inkscape:connector-curvature="0"
         id="rect3910"
         d="m 468.03331,484.77217 c 0.58563,-0.31822 1.26275,-0.50523 1.97611,-0.50523 2.28272,0 4.1284,1.86239 4.1284,4.1449 0,1.23968 -0.54517,2.3399 -1.40724,3.09769 l 0.81091,1.40441 c 0.28315,-0.11067 0.61943,0 0.7763,0.27331 l 1.9789,3.42759 c 0.1731,0.29974 0.0711,0.6805 -0.22876,0.85362 l -1.23697,0.71431 c -0.29983,0.17297 -0.68054,0.071 -0.85365,-0.22876 l -1.97888,-3.42767 c -0.15868,-0.27468 -0.0927,-0.62041 0.15142,-0.80886 l -0.8109,-1.4047 c -0.4174,0.14247 -0.85982,0.23308 -1.32589,0.23308 -2.2827,0 -4.14127,-1.85492 -4.14127,-4.13768 C 465.87179,486.83876 466.74488,485.4721 468.03331,484.77217 z m 0.68839,1.25172 c -0.84324,0.45831 -1.42333,1.35814 -1.42333,2.38545 0,1.49387 1.2143,2.69701 2.70829,2.69701 1.49398,0 2.70458,-1.2015 2.70458,-2.69544 0,-1.49394 -1.20143,-2.7046 -2.69539,-2.7046 C 469.54896,485.70631 469.105,485.81581 468.7217,486.02389 Z"
         style="fill:#1a1a1a;fill-opacity:1;stroke:none" />
      <path
         inkscape:connector-curvature="0"
         id="path578"
         style="fill:#1a1a1a;fill-opacity:1;fill-rule:nonzero;stroke:none"
         d="m 465.71429,482.93361 -10.66666,0 0,-12 10.66666,0 L 465.71429,482.93361 Z" />
      <path
         inkscape:connector-curvature="0"
         id="path580"
         style="fill:#1a1a1a;fill-opacity:1;fill-rule:nonzero;stroke:none"
         d="m 476.38096,472.26694 -9.33333,0 0,-1.33333 9.33333,0 L 476.38096,472.26694 Z" />
      <path
         inkscape:connector-curvature="0"
         id="path582"
         style="fill:#1a1a1a;fill-opacity:1;fill-rule:nonzero;stroke:none"
         d="m 476.38096,474.93361 -9.33333,0 0,-1.33334 9.33333,0 L 476.38096,474.93361 Z" />
      <path
         inkscape:connector-curvature="0"
         id="path584"
         style="fill:#1a1a1a;fill-opacity:1;fill-rule:nonzero;stroke:none"
         d="m 475.04763,477.60027 -8,0 0,-1.33333 8,0 L 475.04763,477.60027 Z" />
      <path
         inkscape:connector-curvature="0"
         id="path586"
         style="fill:#1a1a1a;fill-opacity:1;fill-rule:nonzero;stroke:none"
         d="m 476.38096,480.26694 -9.33333,0 0,-1.33333 9.33333,0 L 476.38096,480.26694 Z" />
      <path
         sodipodi:nodetypes="ccccc"
         inkscape:connector-curvature="0"
         id="path588"
         style="fill:#1a1a1a;fill-opacity:1;fill-rule:nonzero;stroke:none"
         d="m 464.38096,485.60027 -9.33333,0 0,-1.33333 L 464.38096,484.26694 Z" />
      <path
         inkscape:connector-curvature="0"
         id="path590"
         style="fill:#1a1a1a;fill-opacity:1;fill-rule:nonzero;stroke:none"
         d="m 472.38096,482.93361 -5.33333,0 0,-1.33334 5.33333,0 L 472.38096,482.93361 Z" />
      <path
         sodipodi:nodetypes="ccccc"
         inkscape:connector-curvature="0"
         id="path592"
         style="fill:#1a1a1a;fill-opacity:1;fill-rule:nonzero;stroke:none"
         d="m 461.71429,488.26694 -6.66666,0 0,-1.33333 L 461.71429,486.93361 Z" />
      <path
         sodipodi:nodetypes="ccccc"
         inkscape:connector-curvature="0"
         id="path594"
         style="fill:#1a1a1a;fill-opacity:1;fill-rule:nonzero;stroke:none"
         d="m 464.38096,490.93361 -9.33333,0 0,-1.33334 L 464.38096,489.60027 Z" />
    </g>
  </g>
</svg>
