<?xml version="1.0" encoding="UTF-8" standalone="no"?>
<!-- Created with Inkscape (http://www.inkscape.org/) -->

<svg
   xmlns:dc="http://purl.org/dc/elements/1.1/"
   xmlns:cc="http://creativecommons.org/ns#"
   xmlns:rdf="http://www.w3.org/1999/02/22-rdf-syntax-ns#"
   xmlns:svg="http://www.w3.org/2000/svg"
   xmlns="http://www.w3.org/2000/svg"
   xmlns:xlink="http://www.w3.org/1999/xlink"
   xmlns:sodipodi="http://sodipodi.sourceforge.net/DTD/sodipodi-0.dtd"
   xmlns:inkscape="http://www.inkscape.org/namespaces/inkscape"
   width="48"
   height="48"
   id="svg1239"
   version="1.1"
   inkscape:version="0.48+devel r12312"
   sodipodi:docname="folder-templates.svg">
  <defs
     id="defs1241">
    <linearGradient
       inkscape:collect="always"
       id="linearGradient4421">
      <stop
         style="stop-color:#11b8fe;stop-opacity:1"
         offset="0"
         id="stop4423" />
      <stop
         style="stop-color:#0eb9fd;stop-opacity:1"
         offset="1"
         id="stop4425" />
    </linearGradient>
    <linearGradient
       gradientTransform="matrix(1.15,0,0,1.15,640.97142,-738.82577)"
       y2="1018.3622"
       x2="25.5"
       y1="1038.3639"
       x1="25.5"
       gradientUnits="userSpaceOnUse"
       id="linearGradient960"
       xlink:href="#linearGradient4421"
       inkscape:collect="always" />
    <linearGradient
       inkscape:collect="always"
       id="linearGradient2476">
      <stop
         style="stop-color:#121212;stop-opacity:1"
         offset="0"
         id="stop2478" />
      <stop
         style="stop-color:#54555a;stop-opacity:1"
         offset="1"
         id="stop2480" />
    </linearGradient>
    <linearGradient
       gradientTransform="translate(644.57142,419.79076)"
       y2="2.2098041"
       x2="32.350136"
       y1="47.487148"
       x1="32.350136"
       gradientUnits="userSpaceOnUse"
       id="linearGradient886"
       xlink:href="#linearGradient2476"
       inkscape:collect="always" />
  </defs>
  <sodipodi:namedview
     id="base"
     pagecolor="#ffffff"
     bordercolor="#666666"
     borderopacity="1.0"
     inkscape:pageopacity="0.0"
     inkscape:pageshadow="2"
     inkscape:zoom="5.656854"
     inkscape:cx="14.82656"
     inkscape:cy="30.704797"
     inkscape:document-units="px"
     inkscape:current-layer="layer1"
     showgrid="false"
     fit-margin-top="0"
     fit-margin-left="0"
     fit-margin-right="0"
     fit-margin-bottom="0"
     inkscape:window-width="1366"
     inkscape:window-height="714"
     inkscape:window-x="0"
     inkscape:window-y="30"
     inkscape:window-maximized="1"
     showguides="false" />
  <metadata
     id="metadata1244">
    <rdf:RDF>
      <cc:Work
         rdf:about="">
        <dc:format>image/svg+xml</dc:format>
        <dc:type
           rdf:resource="http://purl.org/dc/dcmitype/StillImage" />
        <dc:title />
      </cc:Work>
    </rdf:RDF>
  </metadata>
  <g
     inkscape:label="Capa 1"
     inkscape:groupmode="layer"
     id="layer1"
     transform="translate(-644.57142,-419.79076)">
    <rect
       style="color:#000000;fill:#333333;fill-opacity:1;fill-rule:nonzero;stroke:none;stroke-width:0.2;marker:none;visibility:visible;display:inline;overflow:visible;enable-background:accumulate"
       id="rect6294"
       width="45.5"
       height="45.5"
       x="645.82141"
       y="421.04077"
       ry="6.3565426" />
    <rect
       ry="5.8565426"
       y="421.54077"
       x="646.32141"
       height="44.5"
       width="44.5"
       id="rect6296"
       style="color:#000000;fill:#f9f9f9;fill-opacity:1;fill-rule:nonzero;stroke:none;stroke-width:0.2;marker:none;visibility:visible;display:inline;overflow:visible;enable-background:accumulate" />
    <path
       inkscape:connector-curvature="0"
       style="fill:url(#linearGradient886);fill-opacity:1;stroke:none"
       d="m 652.16517,421.54076 c -3.24452,0 -5.84375,2.63048 -5.84375,5.875 l 0,32.78125 c 0,3.24452 2.59923,5.84375 5.84375,5.84375 l 32.8125,0 c 0.3946,0 0.75267,-0.0513 1.125,-0.125 l 0,-23.90625 3.84375,-1.1875 0,22.4375 c 0.54792,-0.89173 0.875,-1.93486 0.875,-3.0625 l 0,-19.65625 0,-1.40625 0,-11.71875 c 0,-3.24452 -2.59923,-5.875 -5.84375,-5.875 L 652.16517,421.54076 Z"
       id="rect833" />
    <path
       id="path6361"
       d="m 646.32141,427.9783 0,-0.5625 c 0,-3.2445 2.59922,-5.875 5.84375,-5.875 l 32.8125,0 c 3.24452,0 5.84375,2.6305 5.84375,5.875 l 0,0.5625 c 0,-3.2445 -2.59923,-5.875 -5.84375,-5.875 l -32.8125,0 C 648.92063,422.1033 646.32141,424.7338 646.32141,427.9783 Z"
       style="color:#000000;fill:#ffffff;fill-opacity:1;fill-rule:nonzero;stroke:none;stroke-width:0.2;marker:none;visibility:visible;display:inline;overflow:visible;enable-background:accumulate"
       inkscape:connector-curvature="0" />
    <path
       inkscape:connector-curvature="0"
       style="color:#000000;fill:#000000;fill-opacity:1;fill-rule:nonzero;stroke:none;stroke-width:0.2;marker:none;visibility:visible;display:inline;overflow:visible;enable-background:accumulate"
       d="m 646.32141,459.6033 0,0.5625 c 0,3.2445 2.59922,5.875 5.84375,5.875 l 32.8125,0 c 3.24452,0 5.84375,-2.6305 5.84375,-5.875 l 0,-0.5625 c 0,3.2445 -2.59923,5.875 -5.84375,5.875 l -32.8125,0 C 648.92063,465.4783 646.32141,462.8478 646.32141,459.6033 Z"
       id="path6388" />
    <path
       id="path847"
       d="m 658.80891,429.79076 -2.1,2.7 -2.13749,2.73756 1.91249,0 1.16251,5.28744 1.16249,5.28756 1.16251,-5.28756 1.16249,-5.28744 1.91251,0 -2.1,-2.73756 L 658.80891,429.79076 z m 14.325,15.525 0,1.91256 -5.28749,1.16244 -5.28751,1.16256 5.28751,1.16244 5.28749,1.16256 0,1.91244 2.73751,-2.1 2.7,-2.13744 -2.7,-2.1 L 673.13391,445.31576 z m -14.84998,1.05 c -2.04803,0 -3.71251,1.66452 -3.71251,3.71256 0,2.04792 1.66448,3.71244 3.71251,3.71244 2.04801,0 3.71249,-1.66452 3.71249,-3.71244 0,-0.29664 -0.0466,-0.58596 -0.11244,-0.86256 -0.3234,-1.35648 -1.38074,-2.41404 -2.73751,-2.73744 C 658.86978,446.41232 658.58054,446.36576 658.28393,446.36576 z m 0,0.71256 c 1.64549,0 3,1.35432 3,3 0,1.64556 -1.35451,3 -3,3 -1.64551,0 -3,-1.35444 -3,-3 C 655.28393,448.43264 656.63842,447.07832 658.28393,447.07832 Z"
       style="color:#000000;fill:#000000;fill-opacity:0.23529412;fill-rule:nonzero;stroke:none;stroke-width:0.2;marker:none;visibility:visible;display:inline;overflow:visible;enable-background:accumulate"
       inkscape:connector-curvature="0" />
    <path
       inkscape:connector-curvature="0"
       style="color:#000000;fill:#ffffff;fill-opacity:0.23529412;fill-rule:nonzero;stroke:none;stroke-width:0.2;marker:none;visibility:visible;display:inline;overflow:visible;enable-background:accumulate"
       d="m 662.80891,433.79076 -2.1,2.7 -2.13749,2.73756 1.91249,0 1.16251,5.28744 1.16249,5.28756 1.16251,-5.28756 1.16249,-5.28744 1.91251,0 -2.1,-2.73756 L 662.80891,433.79076 z m 14.325,15.525 0,1.91256 -5.28749,1.16244 -5.28751,1.16256 5.28751,1.16244 5.28749,1.16256 0,1.91244 2.73751,-2.1 2.7,-2.13744 -2.7,-2.1 L 677.13391,449.31576 z m -14.84998,1.05 c -2.04803,0 -3.71251,1.66452 -3.71251,3.71256 0,2.04792 1.66448,3.71244 3.71251,3.71244 2.04801,0 3.71249,-1.66452 3.71249,-3.71244 0,-0.29664 -0.0466,-0.58596 -0.11244,-0.86256 -0.3234,-1.35648 -1.38074,-2.41404 -2.73751,-2.73744 C 662.86978,450.41232 662.58054,450.36576 662.28393,450.36576 z m 0,0.71256 c 1.64549,0 3,1.35432 3,3 0,1.64556 -1.35451,3 -3,3 -1.64551,0 -3,-1.35444 -3,-3 C 659.28393,452.43264 660.63842,451.07832 662.28393,451.07832 Z"
       id="path851" />
    <path
       inkscape:connector-curvature="0"
       style="color:#000000;fill:url(#linearGradient960);fill-opacity:1;fill-rule:nonzero;stroke:none;stroke-width:0.2;marker:none;visibility:visible;display:inline;overflow:visible;enable-background:accumulate"
       d="m 661.13235,432.29076 -2.0125,2.5875 -2.04843,2.62349 1.8328,0 1.11408,5.06713 1.11405,5.06725 1.11407,-5.06725 1.11405,-5.06713 1.83283,0 -2.0125,-2.62349 L 661.13235,432.29076 z m 13.72812,14.87812 0,1.83287 -5.06718,1.11401 -5.06719,1.11412 5.06719,1.114 5.06718,1.11412 0,1.83276 2.62345,-2.0125 2.5875,-2.04838 -2.5875,-2.0125 L 674.86047,447.16888 z m -14.23123,1.00625 c -1.96269,0 -3.55782,1.59517 -3.55782,3.55787 0,1.96259 1.59513,3.55776 3.55782,3.55776 1.96268,0 3.5578,-1.59517 3.5578,-3.55776 0,-0.28428 -0.0447,-0.56154 -0.10775,-0.82662 -0.30992,-1.29996 -1.32321,-2.31345 -2.62345,-2.62338 C 661.19068,448.21976 660.91349,448.17513 660.62924,448.17513 z m 0,0.68287 c 1.57693,0 2.875,1.29789 2.875,2.875 0,1.577 -1.29807,2.875 -2.875,2.875 -1.57694,0 -2.875,-1.298 -2.875,-2.875 C 657.75424,450.15589 659.05229,448.858 660.62924,448.858 Z"
       id="path912" />
  </g>
</svg>
