<?xml version="1.0" encoding="UTF-8" standalone="no"?>
<!-- Created with Inkscape (http://www.inkscape.org/) -->

<svg
   xmlns:dc="http://purl.org/dc/elements/1.1/"
   xmlns:cc="http://creativecommons.org/ns#"
   xmlns:rdf="http://www.w3.org/1999/02/22-rdf-syntax-ns#"
   xmlns:svg="http://www.w3.org/2000/svg"
   xmlns="http://www.w3.org/2000/svg"
   xmlns:xlink="http://www.w3.org/1999/xlink"
   xmlns:sodipodi="http://sodipodi.sourceforge.net/DTD/sodipodi-0.dtd"
   xmlns:inkscape="http://www.inkscape.org/namespaces/inkscape"
   width="48"
   height="48"
   id="svg1239"
   version="1.1"
   inkscape:version="0.48+devel r12312"
   sodipodi:docname="folder-publicshare.svg">
  <defs
     id="defs1241">
    <linearGradient
       id="linearGradient4421"
       inkscape:collect="always">
      <stop
         id="stop4423"
         offset="0"
         style="stop-color:#11b8fe;stop-opacity:1" />
      <stop
         id="stop4425"
         offset="1"
         style="stop-color:#0eb9fd;stop-opacity:1" />
    </linearGradient>
    <linearGradient
       gradientUnits="userSpaceOnUse"
       y2="1018.3598"
       x2="24.748737"
       y1="1038.3527"
       x1="24.748737"
       id="linearGradient1124"
       xlink:href="#linearGradient4421"
       inkscape:collect="always"
       gradientTransform="matrix(1.15,0,0,1.15,640.97142,-738.82577)" />
    <linearGradient
       inkscape:collect="always"
       id="linearGradient2476">
      <stop
         style="stop-color:#121212;stop-opacity:1"
         offset="0"
         id="stop2478" />
      <stop
         style="stop-color:#54555a;stop-opacity:1"
         offset="1"
         id="stop2480" />
    </linearGradient>
    <linearGradient
       gradientTransform="translate(644.57142,419.79076)"
       y2="2.2098041"
       x2="32.350136"
       y1="47.487148"
       x1="32.350136"
       gradientUnits="userSpaceOnUse"
       id="linearGradient886"
       xlink:href="#linearGradient2476"
       inkscape:collect="always" />
  </defs>
  <sodipodi:namedview
     id="base"
     pagecolor="#ffffff"
     bordercolor="#666666"
     borderopacity="1.0"
     inkscape:pageopacity="0.0"
     inkscape:pageshadow="2"
     inkscape:zoom="7.9999996"
     inkscape:cx="29.202455"
     inkscape:cy="27.400879"
     inkscape:document-units="px"
     inkscape:current-layer="layer1"
     showgrid="false"
     fit-margin-top="0"
     fit-margin-left="0"
     fit-margin-right="0"
     fit-margin-bottom="0"
     inkscape:window-width="1366"
     inkscape:window-height="714"
     inkscape:window-x="0"
     inkscape:window-y="30"
     inkscape:window-maximized="1"
     showguides="false" />
  <metadata
     id="metadata1244">
    <rdf:RDF>
      <cc:Work
         rdf:about="">
        <dc:format>image/svg+xml</dc:format>
        <dc:type
           rdf:resource="http://purl.org/dc/dcmitype/StillImage" />
        <dc:title />
      </cc:Work>
    </rdf:RDF>
  </metadata>
  <g
     inkscape:label="Capa 1"
     inkscape:groupmode="layer"
     id="layer1"
     transform="translate(-644.57142,-419.79076)">
    <rect
       style="color:#000000;fill:#333333;fill-opacity:1;fill-rule:nonzero;stroke:none;stroke-width:0.2;marker:none;visibility:visible;display:inline;overflow:visible;enable-background:accumulate"
       id="rect6294"
       width="45.5"
       height="45.5"
       x="645.82141"
       y="421.04077"
       ry="6.3565426" />
    <rect
       ry="5.8565426"
       y="421.54077"
       x="646.32141"
       height="44.5"
       width="44.5"
       id="rect6296"
       style="color:#000000;fill:#f9f9f9;fill-opacity:1;fill-rule:nonzero;stroke:none;stroke-width:0.2;marker:none;visibility:visible;display:inline;overflow:visible;enable-background:accumulate" />
    <path
       inkscape:connector-curvature="0"
       style="fill:url(#linearGradient886);fill-opacity:1;stroke:none"
       d="m 652.16517,421.54076 c -3.24452,0 -5.84375,2.63048 -5.84375,5.875 l 0,32.78125 c 0,3.24452 2.59923,5.84375 5.84375,5.84375 l 32.8125,0 c 0.3946,0 0.75267,-0.0513 1.125,-0.125 l 0,-23.90625 3.84375,-1.1875 0,22.4375 c 0.54792,-0.89173 0.875,-1.93486 0.875,-3.0625 l 0,-19.65625 0,-1.40625 0,-11.71875 c 0,-3.24452 -2.59923,-5.875 -5.84375,-5.875 L 652.16517,421.54076 Z"
       id="rect833" />
    <path
       id="path6361"
       d="m 646.32141,427.9783 0,-0.5625 c 0,-3.2445 2.59922,-5.875 5.84375,-5.875 l 32.8125,0 c 3.24452,0 5.84375,2.6305 5.84375,5.875 l 0,0.5625 c 0,-3.2445 -2.59923,-5.875 -5.84375,-5.875 l -32.8125,0 C 648.92063,422.1033 646.32141,424.7338 646.32141,427.9783 Z"
       style="color:#000000;fill:#ffffff;fill-opacity:1;fill-rule:nonzero;stroke:none;stroke-width:0.2;marker:none;visibility:visible;display:inline;overflow:visible;enable-background:accumulate"
       inkscape:connector-curvature="0" />
    <path
       inkscape:connector-curvature="0"
       style="color:#000000;fill:#000000;fill-opacity:1;fill-rule:nonzero;stroke:none;stroke-width:0.2;marker:none;visibility:visible;display:inline;overflow:visible;enable-background:accumulate"
       d="m 646.32141,459.6033 0,0.5625 c 0,3.2445 2.59922,5.875 5.84375,5.875 l 32.8125,0 c 3.24452,0 5.84375,-2.6305 5.84375,-5.875 l 0,-0.5625 c 0,3.2445 -2.59923,5.875 -5.84375,5.875 l -32.8125,0 C 648.92063,465.4783 646.32141,462.8478 646.32141,459.6033 Z"
       id="path6388" />
    <path
       style="fill:#000000;fill-opacity:0.23529412;stroke:none"
       d="m 660.13176,429.79076 c -1.94933,0 -3.51723,1.56792 -3.51723,3.5172 0,1.94928 1.5679,3.51732 3.51723,3.51732 l 2.89656,10.81044 c -0.73031,0.6432 -1.18966,1.58292 -1.18966,2.63784 0,1.94928 1.5679,3.5172 3.51725,3.5172 1.94933,0 3.51723,-1.56792 3.51723,-3.5172 0,-0.97476 -0.39575,-1.84404 -1.03449,-2.4828 l 4.39656,-7.60332 c 0.24468,0.0528 0.51506,0.1032 0.77587,0.1032 1.94933,0 3.51723,-1.61976 3.51723,-3.56904 0,-1.94928 -1.5679,-3.51732 -3.51723,-3.51732 -1.94936,0 -3.51726,1.56804 -3.51726,3.51732 0,0.9102 0.31364,1.75332 0.87932,2.37924 l -4.44827,7.707 c -0.18344,-0.03 -0.37726,-0.0516 -0.56896,-0.0516 -0.10397,0 -0.20879,-0.0168 -0.31036,0 l -2.84481,-10.55172 c 0.90581,-0.639 1.5,-1.70388 1.5,-2.89656 C 663.70074,431.35868 662.08112,429.79076 660.13176,429.79076 Z"
       id="path968"
       inkscape:connector-curvature="0" />
    <path
       inkscape:connector-curvature="0"
       id="path972"
       d="m 664.13176,433.79076 c -1.94933,0 -3.51723,1.56792 -3.51723,3.5172 0,1.94928 1.5679,3.51732 3.51723,3.51732 l 2.89656,10.81044 c -0.73031,0.6432 -1.18966,1.58292 -1.18966,2.63784 0,1.94928 1.5679,3.5172 3.51725,3.5172 1.94933,0 3.51723,-1.56792 3.51723,-3.5172 0,-0.97476 -0.39575,-1.84404 -1.03449,-2.4828 l 4.39656,-7.60332 c 0.24468,0.0528 0.51506,0.1032 0.77587,0.1032 1.94933,0 3.51723,-1.61976 3.51723,-3.56904 0,-1.94928 -1.5679,-3.51732 -3.51723,-3.51732 -1.94936,0 -3.51726,1.56804 -3.51726,3.51732 0,0.9102 0.31364,1.75332 0.87932,2.37924 l -4.44827,7.707 c -0.18344,-0.03 -0.37726,-0.0516 -0.56896,-0.0516 -0.10397,0 -0.20879,-0.0168 -0.31036,0 l -2.84481,-10.55172 c 0.90581,-0.639 1.5,-1.70388 1.5,-2.89656 C 667.70074,435.35868 666.08112,433.79076 664.13176,433.79076 Z"
       style="fill:#ffffff;fill-opacity:0.23529412;stroke:none" />
    <path
       inkscape:connector-curvature="0"
       id="path815"
       d="m 662.40008,432.29076 c -1.86811,0 -3.37068,1.50259 -3.37068,3.37065 0,1.86806 1.50257,3.37076 3.37068,3.37076 l 2.77587,10.36001 c -0.69988,0.6164 -1.14009,1.51696 -1.14009,2.52793 0,1.86806 1.50257,3.37065 3.3707,3.37065 1.8681,0 3.37067,-1.50259 3.37067,-3.37065 0,-0.93415 -0.37926,-1.76721 -0.99138,-2.37935 l 4.21337,-7.28652 c 0.23448,0.0506 0.4936,0.0989 0.74354,0.0989 1.86811,0 3.37068,-1.55227 3.37068,-3.42033 0,-1.86806 -1.50257,-3.37076 -3.37068,-3.37076 -1.86814,0 -3.37071,1.5027 -3.37071,3.37076 0,0.87228 0.30057,1.68027 0.84268,2.28011 l -4.26292,7.38587 c -0.1758,-0.0288 -0.36154,-0.0495 -0.54525,-0.0495 -0.0996,0 -0.20009,-0.0161 -0.29743,0 l -2.72628,-10.11206 c 0.86807,-0.61238 1.4375,-1.63289 1.4375,-2.77587 C 665.82035,433.79335 664.26822,432.29076 662.40008,432.29076 Z"
       style="fill:url(#linearGradient1124);fill-opacity:1;stroke:none" />
  </g>
</svg>
