<?xml version="1.0" encoding="UTF-8" standalone="no"?>
<!-- Created with Inkscape (http://www.inkscape.org/) -->

<svg
   xmlns:dc="http://purl.org/dc/elements/1.1/"
   xmlns:cc="http://creativecommons.org/ns#"
   xmlns:rdf="http://www.w3.org/1999/02/22-rdf-syntax-ns#"
   xmlns:svg="http://www.w3.org/2000/svg"
   xmlns="http://www.w3.org/2000/svg"
   xmlns:xlink="http://www.w3.org/1999/xlink"
   xmlns:sodipodi="http://sodipodi.sourceforge.net/DTD/sodipodi-0.dtd"
   xmlns:inkscape="http://www.inkscape.org/namespaces/inkscape"
   width="48"
   height="48"
   id="svg2"
   version="1.1"
   inkscape:version="0.48+devel r12272"
   sodipodi:docname="chromium.svg">
  <defs
     id="defs4">
    <linearGradient
       gradientTransform="translate(-39.411054,1.1023297)"
       gradientUnits="userSpaceOnUse"
       y2="1004.6325"
       x2="60.457634"
       y1="1049.1802"
       x1="60.457634"
       id="linearGradient856"
       xlink:href="#linearGradient860"
       inkscape:collect="always" />
    <linearGradient
       inkscape:collect="always"
       id="linearGradient860">
      <stop
         style="stop-color:#f9f9f9;stop-opacity:1"
         offset="0"
         id="stop862" />
      <stop
         style="stop-color:#ffffff;stop-opacity:1"
         offset="1"
         id="stop864" />
    </linearGradient>
    <linearGradient
       y2="1014.34"
       x2="80.891861"
       y1="1029.6227"
       x1="80.891861"
       gradientTransform="matrix(1.5308393,0,0,1.5308393,-107.10351,-547.4551)"
       gradientUnits="userSpaceOnUse"
       id="linearGradient1037"
       xlink:href="#linearGradient4164"
       inkscape:collect="always" />
    <linearGradient
       y2="1014.34"
       x2="80.245941"
       y1="1044.4238"
       x1="80.245941"
       gradientTransform="matrix(1.5308393,0,0,1.5308393,-107.10351,-547.4551)"
       gradientUnits="userSpaceOnUse"
       id="linearGradient1039"
       xlink:href="#linearGradient999"
       inkscape:collect="always" />
    <linearGradient
       y2="1024.7751"
       x2="95.11834"
       y1="1044.4238"
       x1="95.11834"
       gradientTransform="matrix(1.5308393,0,0,1.5308393,-107.10351,-547.4551)"
       gradientUnits="userSpaceOnUse"
       id="linearGradient1041"
       xlink:href="#linearGradient1005"
       inkscape:collect="always" />
    <linearGradient
       gradientUnits="userSpaceOnUse"
       y2="53.568306"
       x2="85.108788"
       y1="115.0866"
       x1="85.108788"
       id="linearGradient966"
       xlink:href="#linearGradient4178-1"
       inkscape:collect="always" />
    <linearGradient
       inkscape:collect="always"
       id="linearGradient4178-1">
      <stop
         style="stop-color:#81ddfc;stop-opacity:1"
         offset="0"
         id="stop4180-7" />
      <stop
         style="stop-color:#3ab7e3;stop-opacity:1"
         offset="1"
         id="stop4182-7" />
    </linearGradient>
    <linearGradient
       y2="117.20849"
       x2="96.07547"
       y1="53.705807"
       x1="96.07547"
       gradientUnits="userSpaceOnUse"
       id="linearGradient1133"
       xlink:href="#linearGradient1175"
       inkscape:collect="always" />
    <linearGradient
       id="linearGradient1175"
       inkscape:collect="always">
      <stop
         id="stop1177"
         offset="0"
         style="stop-color:#05335d;stop-opacity:1" />
      <stop
         id="stop1179"
         offset="1"
         style="stop-color:#035680;stop-opacity:1" />
    </linearGradient>
    <linearGradient
       y2="117.20849"
       x2="96.07547"
       y1="53.705807"
       x1="96.07547"
       gradientUnits="userSpaceOnUse"
       id="linearGradient1183"
       xlink:href="#linearGradient1185"
       inkscape:collect="always" />
    <linearGradient
       inkscape:collect="always"
       id="linearGradient1185">
      <stop
         style="stop-color:#0e4e8e;stop-opacity:1"
         offset="0"
         id="stop1187" />
      <stop
         style="stop-color:#099ef7;stop-opacity:1"
         offset="1"
         id="stop1189" />
    </linearGradient>
    <radialGradient
       gradientUnits="userSpaceOnUse"
       r="31.236"
       fy="95.128075"
       fx="84.716156"
       cy="95.128075"
       cx="84.716156"
       id="radialGradient1195"
       xlink:href="#linearGradient1197"
       inkscape:collect="always" />
    <linearGradient
       id="linearGradient1197"
       inkscape:collect="always">
      <stop
         id="stop1199"
         offset="0"
         style="stop-color:#81ddfc;stop-opacity:1" />
      <stop
         id="stop1201"
         offset="1"
         style="stop-color:#3ab7e3;stop-opacity:0" />
    </linearGradient>
    <linearGradient
       gradientUnits="userSpaceOnUse"
       y2="28"
       x2="24"
       y1="36.5"
       x1="24"
       id="linearGradient1214"
       xlink:href="#linearGradient1208"
       inkscape:collect="always"
       gradientTransform="matrix(0.95833275,0,0,0.95833275,0.8750201,1005.3622)" />
    <linearGradient
       id="linearGradient1208"
       inkscape:collect="always">
      <stop
         id="stop1210"
         offset="0"
         style="stop-color:#ffffff;stop-opacity:1;" />
      <stop
         id="stop1212"
         offset="1"
         style="stop-color:#ffffff;stop-opacity:0;" />
    </linearGradient>
    <linearGradient
       gradientUnits="userSpaceOnUse"
       y2="70.275642"
       x2="84.550667"
       y1="116.29674"
       x1="84.550667"
       id="linearGradient1240"
       xlink:href="#linearGradient1234"
       inkscape:collect="always" />
    <linearGradient
       id="linearGradient1234"
       inkscape:collect="always">
      <stop
         id="stop1236"
         offset="0"
         style="stop-color:#ffffff;stop-opacity:1;" />
      <stop
         id="stop1238"
         offset="1"
         style="stop-color:#ffffff;stop-opacity:0;" />
    </linearGradient>
    <linearGradient
       inkscape:collect="always"
       xlink:href="#linearGradient860"
       id="linearGradient961"
       gradientUnits="userSpaceOnUse"
       gradientTransform="matrix(0.95833275,0,0,-0.95833275,43.865492,41.19484)"
       x1="-20.506096"
       y1="-1053.7349"
       x2="-20.506096"
       y2="-1005.87" />
    <radialGradient
       inkscape:collect="always"
       xlink:href="#linearGradient1197"
       id="radialGradient963"
       gradientUnits="userSpaceOnUse"
       cx="84.716156"
       cy="95.128075"
       fx="84.716156"
       fy="95.128075"
       r="31.236" />
    <linearGradient
       id="linearGradient4164"
       inkscape:collect="always">
      <stop
         id="stop4166"
         offset="0"
         style="stop-color:#004b77;stop-opacity:1" />
      <stop
         id="stop4168"
         offset="1"
         style="stop-color:#00addc;stop-opacity:1" />
    </linearGradient>
    <linearGradient
       inkscape:collect="always"
       id="linearGradient999">
      <stop
         style="stop-color:#0078bf;stop-opacity:1"
         offset="0"
         id="stop1001" />
      <stop
         style="stop-color:#00cded;stop-opacity:1"
         offset="1"
         id="stop1003" />
    </linearGradient>
    <linearGradient
       id="linearGradient1005"
       inkscape:collect="always">
      <stop
         id="stop1007"
         offset="0"
         style="stop-color:#008add;stop-opacity:1" />
      <stop
         id="stop1009"
         offset="1"
         style="stop-color:#59e8ff;stop-opacity:1" />
    </linearGradient>
  </defs>
  <sodipodi:namedview
     id="base"
     pagecolor="#ffffff"
     bordercolor="#666666"
     borderopacity="1.0"
     inkscape:pageopacity="0.0"
     inkscape:pageshadow="2"
     inkscape:zoom="5.6568543"
     inkscape:cx="-18.780868"
     inkscape:cy="20.789941"
     inkscape:document-units="px"
     inkscape:current-layer="layer1"
     showgrid="false"
     inkscape:window-width="1366"
     inkscape:window-height="716"
     inkscape:window-x="0"
     inkscape:window-y="28"
     inkscape:window-maximized="1"
     showguides="false" />
  <metadata
     id="metadata7">
    <rdf:RDF>
      <cc:Work
         rdf:about="">
        <dc:format>image/svg+xml</dc:format>
        <dc:type
           rdf:resource="http://purl.org/dc/dcmitype/StillImage" />
        <dc:title />
      </cc:Work>
    </rdf:RDF>
  </metadata>
  <g
     inkscape:label="Capa 1"
     inkscape:groupmode="layer"
     id="layer1"
     transform="translate(0,-1004.3622)">
    <rect
       style="color:#000000;fill:#333333;fill-opacity:1;fill-rule:nonzero;stroke:none;stroke-width:0.2;marker:none;visibility:visible;display:inline;overflow:visible;enable-background:accumulate"
       id="rect6294-8"
       width="45.5"
       height="45.5"
       x="1.125006"
       y="1005.6122"
       ry="6.3565426" />
    <rect
       ry="5.8565426"
       y="1006.1122"
       x="1.625006"
       height="44.5"
       width="44.5"
       id="rect6296-4"
       style="color:#000000;fill:url(#linearGradient856);fill-opacity:1;fill-rule:nonzero;stroke:none;stroke-width:0.2;marker:none;visibility:visible;display:inline;overflow:visible;enable-background:accumulate" />
    <path
       inkscape:connector-curvature="0"
       style="fill:url(#linearGradient961);fill-opacity:1;stroke:none"
       d="m 7.468756,1006.1122 c -3.2445246,0 -5.84375,2.5992 -5.84375,5.8438 l 0,32.8125 c 0,3.2445 2.5992254,5.8437 5.84375,5.8437 l 32.8125,0 c 3.244525,0 5.84375,-2.5992 5.84375,-5.8437 l 0,-32.8125 c 0,-3.2446 -2.599225,-5.8438 -5.84375,-5.8438 L 7.468756,1006.1122 Z"
       id="rect2991-1" />
    <path
       inkscape:connector-curvature="0"
       style="fill:url(#linearGradient1037);fill-opacity:1.0"
       d="m 7.468756,1006.1122 c -3.2445246,0 -5.84375,2.5992 -5.84375,5.8438 l 0,6.5 8.3125,14.4062 c -1.6996469,-5.4024 -0.063269,-7.2547 3.71875,-8.7187 l 1.125,1.9062 c 1.049761,-4.0801 4.717248,-7.0937 9.125,-7.0937 2.515397,0 4.805603,0.9923 6.5,2.5937 l 7.21875,0 8.5,0 0,-9.5937 c 0,-3.2446 -2.599225,-5.8438 -5.84375,-5.8438 L 7.468756,1006.1122 Z"
       id="path1023" />
    <path
       inkscape:connector-curvature="0"
       style="fill:url(#linearGradient1039);fill-opacity:1.0"
       d="m 4.062506,1007.206 c -1.4839567,1.0604 -2.4375,2.7791 -2.4375,4.75 l 0,32.8125 c 0,3.2445 2.5992254,5.8437 5.84375,5.8437 l 19.875,0 6.03125,-10.25 -0.40625,-1.4375 c -1.606988,0.4209 -3.447256,-0.3565 -5.375,-1.7812 -1.131647,0.4786 -2.381499,0.75 -3.6875,0.75 -5.224003,0 -9.46875,-4.2445 -9.46875,-9.4688 0,-0.8495 0.165014,-1.6857 0.375,-2.4687 L 4.062506,1007.206 Z"
       id="path1025" />
    <path
       inkscape:connector-curvature="0"
       style="fill:url(#linearGradient1041);fill-opacity:1.0"
       d="m 30.406256,1021.5497 c 1.824543,1.7243 2.96875,4.1664 2.96875,6.875 0,4.4296 -3.045374,8.1278 -7.15625,9.1563 l -7.6875,13.0312 21.75,0 c 3.244525,0 5.84375,-2.5992 5.84375,-5.8437 l 0,-23.2188 -8.5,0 L 30.406256,1021.5497 Z"
       id="path1027" />
    <path
       inkscape:connector-curvature="0"
       style="fill:#ffffff;fill-opacity:0.34099618"
       d="m 2.218756,1009.4247 c -0.3691906,0.7684 -0.59375,1.6187 -0.59375,2.5313 l 0,32.8125 c 0,0.9125 0.2245594,1.7628 0.59375,2.5312 L 2.218756,1009.4247 z m 43.3125,0 0,37.875 c 0.369191,-0.7684 0.59375,-1.6187 0.59375,-2.5312 l 0,-32.8125 C 46.125006,1011.0434 45.900447,1010.1931 45.531256,1009.4247 Z"
       id="path1347" />
    <path
       inkscape:connector-curvature="0"
       style="fill:#000000;fill-opacity:0.15686275"
       d="m 4.625006,1006.8622 c -0.1910157,0.1064 -0.3855266,0.2173 -0.5625,0.3438 l 10.75,18.75 c 0.07589,-0.2832 0.149434,-0.5717 0.25,-0.8438 L 4.625006,1006.8622 z m 20.03125,12.0938 c -0.162174,0 -0.308665,0.023 -0.46875,0.031 2.407481,0.07 4.586028,1.0194 6.21875,2.5625 l 0.75,0 C 29.46186,1019.9483 27.171654,1018.956 24.656256,1018.956 Z"
       id="path1326" />
    <path
       inkscape:connector-curvature="0"
       style="fill:#000000;fill-opacity:0.15686275"
       d="m 4.062506,1007.206 c -0.1464009,0.1046 -0.2703999,0.2263 -0.40625,0.3437 l 10.53125,18.4063 c -0.209986,0.7831 -0.34375,1.6192 -0.34375,2.4687 0,5.2239 4.244748,9.4688 9.46875,9.4688 0.0919,0 0.158673,-0.028 0.25,-0.031 -5.06863,-0.1771 -9.125,-4.3259 -9.125,-9.4375 0,-0.8495 0.165014,-1.6856 0.375,-2.4687 L 4.062506,1007.206 z m 22.15625,30.375 c -0.21347,0.054 -0.437116,0.084 -0.65625,0.125 l -7.625,12.9062 0.59375,0 L 26.218756,1037.581 Z"
       id="path1311" />
    <path
       inkscape:connector-curvature="0"
       style="fill:#000000;fill-opacity:0.15686275"
       d="m 30.406256,1021.5497 c 0.228068,0.2156 0.450455,0.4509 0.65625,0.6875 0.01847,0.021 0.04435,0.041 0.0625,0.062 1.406934,1.6475 2.25,3.786 2.25,6.125 0,0.1642 -0.02298,0.3067 -0.03125,0.4688 8.72e-4,0.03 -0.0044,0.065 0,0.094 -0.01224,0.2023 -0.0378,0.3952 -0.0625,0.5938 -0.0036,0.03 0.0039,0.064 0,0.094 -0.01597,0.1189 -0.04214,0.2575 -0.0625,0.375 -0.02308,0.1328 -0.06522,0.2442 -0.09375,0.375 -0.05454,0.2501 -0.113679,0.5077 -0.1875,0.75 -0.07382,0.2422 -0.157742,0.4853 -0.25,0.7188 -0.09226,0.2336 -0.202654,0.4635 -0.3125,0.6875 -0.181516,0.3702 -0.367274,0.7528 -0.59375,1.0937 -0.04763,0.072 -0.106732,0.1172 -0.15625,0.1875 -0.142482,0.2023 -0.279971,0.4037 -0.4375,0.5938 -0.118477,0.1427 -0.24845,0.2707 -0.375,0.4062 -0.04649,0.05 -0.07745,0.1073 -0.125,0.1563 -0.1294,0.1324 -0.269301,0.2504 -0.40625,0.375 -0.04683,0.043 -0.108545,0.083 -0.15625,0.125 -0.185081,0.1633 -0.364914,0.2889 -0.5625,0.4375 -0.07903,0.059 -0.169059,0.1306 -0.25,0.1875 -0.09027,0.063 -0.157458,0.1274 -0.25,0.1875 -0.149245,0.097 -0.313843,0.2238 -0.46875,0.3125 -0.06921,0.04 -0.117203,0.056 -0.1875,0.094 -0.02717,0.015 -0.06642,0.016 -0.09375,0.031 -0.20082,0.1057 -0.384721,0.2211 -0.59375,0.3125 -0.02083,0.01 -0.04159,0.022 -0.0625,0.031 -0.07589,0.033 -0.173104,0.063 -0.25,0.094 -0.388587,0.1553 -0.775158,0.2719 -1.1875,0.375 l -7.6875,13.0312 0.6875,0 7.28125,-12.375 c 1.926139,-0.5517 3.63233,-1.6596 4.84375,-3.1875 1.679919,-1.7037 2.71875,-4.0411 2.71875,-6.625 0,-2.339 -0.843066,-4.4775 -2.25,-6.125 l 5.8125,0 8.5,0 0,-0.75 -8.5,0 -6.53125,0 L 30.406256,1021.5497 Z"
       id="path1321" />
    <circle
       d="m 116.55,85.711998 c 0,17.251162 -13.98483,31.236002 -31.235997,31.236002 -17.251166,0 -31.236,-13.98484 -31.236,-31.236002 0,-17.251166 13.984834,-31.236 31.236,-31.236 C 102.56517,54.475998 116.55,68.460832 116.55,85.711998 Z"
       id="circle53_1_"
       cx="85.314003"
       cy="85.711998"
       r="31.236"
       sodipodi:cx="85.314003"
       sodipodi:cy="85.711998"
       sodipodi:rx="31.236"
       sodipodi:ry="31.236"
       style="fill:url(#linearGradient966);fill-opacity:1"
       transform="matrix(0.18009869,0,0,-0.18009869,8.5470236,1043.8571)" />
    <circle
       d="m 116.55,85.711998 c 0,17.251162 -13.98483,31.236002 -31.235997,31.236002 -17.251166,0 -31.236,-13.98484 -31.236,-31.236002 0,-17.251166 13.984834,-31.236 31.236,-31.236 C 102.56517,54.475998 116.55,68.460832 116.55,85.711998 Z"
       transform="matrix(0.27213985,0,0,-0.27213985,0.69462264,1051.7461)"
       style="fill:url(#linearGradient1133);fill-opacity:1"
       sodipodi:ry="31.236"
       sodipodi:rx="31.236"
       sodipodi:cy="85.711998"
       sodipodi:cx="85.314003"
       r="31.236"
       cy="85.711998"
       cx="85.314003"
       id="circle1107" />
    <circle
       d="m 116.55,85.711998 c 0,17.251162 -13.98483,31.236002 -31.235997,31.236002 -17.251166,0 -31.236,-13.98484 -31.236,-31.236002 0,-17.251166 13.984834,-31.236 31.236,-31.236 C 102.56517,54.475998 116.55,68.460832 116.55,85.711998 Z"
       id="circle1181"
       cx="85.314003"
       cy="85.711998"
       r="31.236"
       sodipodi:cx="85.314003"
       sodipodi:cy="85.711998"
       sodipodi:rx="31.236"
       sodipodi:ry="31.236"
       style="fill:url(#linearGradient1183);fill-opacity:1"
       transform="matrix(0.24145948,0,0,-0.24145948,3.3120901,1049.1163)" />
    <circle
       d="m 116.55,85.711998 c 0,17.251162 -13.98483,31.236002 -31.235997,31.236002 -17.251166,0 -31.236,-13.98484 -31.236,-31.236002 0,-17.251166 13.984834,-31.236 31.236,-31.236 C 102.56517,54.475998 116.55,68.460832 116.55,85.711998 Z"
       transform="matrix(0.27213985,0,0,-0.27213985,0.69462264,1051.7461)"
       style="fill:url(#radialGradient963);fill-opacity:1"
       sodipodi:ry="31.236"
       sodipodi:rx="31.236"
       sodipodi:cy="85.711998"
       sodipodi:cx="85.314003"
       r="31.236"
       cy="85.711998"
       cx="85.314003"
       id="circle1191" />
    <path
       inkscape:connector-curvature="0"
       style="opacity:0.35;fill:url(#linearGradient1214);fill-opacity:1"
       d="m 32.380208,1029.1108 c -1.543333,3.1272 -4.752135,5.3009 -8.475254,5.3009 -3.711512,0 -6.89637,-2.1595 -8.445308,-5.271 0.366275,4.3571 3.993648,7.7866 8.445308,7.7866 C 28.366898,1036.9273 32.02832,1033.4823 32.380208,1029.1108 Z"
       id="circle1203" />
    <circle
       d="m 116.55,85.711998 c 0,17.251162 -13.98483,31.236002 -31.235997,31.236002 -17.251166,0 -31.236,-13.98484 -31.236,-31.236002 0,-17.251166 13.984834,-31.236 31.236,-31.236 C 102.56517,54.475998 116.55,68.460832 116.55,85.711998 Z"
       id="circle1218"
       cx="85.314003"
       cy="85.711998"
       r="31.236"
       sodipodi:cx="85.314003"
       sodipodi:cy="85.711998"
       sodipodi:rx="31.236"
       sodipodi:ry="31.236"
       style="fill:url(#radialGradient1195);fill-opacity:1"
       transform="matrix(0.27213985,0,0,-0.27213985,0.69462264,1051.7461)" />
    <circle
       d="m 116.55,85.711998 c 0,17.251162 -13.98483,31.236002 -31.235997,31.236002 -17.251166,0 -31.236,-13.98484 -31.236,-31.236002 0,-17.251166 13.984834,-31.236 31.236,-31.236 C 102.56517,54.475998 116.55,68.460832 116.55,85.711998 Z"
       transform="matrix(0.20239453,0,0,-0.16394879,6.6448772,1039.8697)"
       style="opacity:0.62999998;fill:url(#linearGradient1240);fill-opacity:1"
       sodipodi:ry="31.236"
       sodipodi:rx="31.236"
       sodipodi:cy="85.711998"
       sodipodi:cx="85.314003"
       r="31.236"
       cy="85.711998"
       cx="85.314003"
       id="circle1224" />
    <path
       style="fill:#000000;fill-opacity:0.12643678"
       d="m 26.210942,1037.5862 c -0.737755,0.186 -1.511584,0.2993 -2.305988,0.2993 -0.783058,0 -1.548185,-0.09 -2.276041,-0.2693 L 18.38855,1050.9128 18.394541,1050.9128 Z"
       id="path63_1_"
       inkscape:connector-curvature="0"
       sodipodi:nodetypes="cscccc" />
    <path
       style="fill:#000000;fill-opacity:0.12643678"
       d="m 30.403648,1021.5641 c 0.902498,0.8529 1.613826,1.8794 2.126301,3.0247 0.0056,0.013 0.02445,0.017 0.02995,0.03 0.116754,0.1312 0.249718,0.2505 0.359375,0.3891 l 13.95572,-3.4017 0,-0.042 L 37.62109,1021.5641 Z"
       id="path65_1_"
       inkscape:connector-curvature="0"
       sodipodi:nodetypes="cccccccc" />
    <path
       inkscape:connector-curvature="0"
       style="fill:#000000;fill-opacity:0.12643678"
       d="m 4.375006,1007.0185 c -0.1030552,0.064 -0.2139066,0.117 -0.3125,0.1875 l 7.25,12.7812 3.5,6 c 0.351532,-1.3277 0.969602,-2.5312 1.8125,-3.5625 0.0127,-0.039 0.01604,-0.086 0.03125,-0.125 L 4.375006,1007.0185 Z"
       id="path1297" />
    <path
       id="path6361-8"
       d="m 1.6250087,1012.5497 0,-0.5625 c 0,-3.2445 2.5992,-5.875 5.8438,-5.875 l 32.8125013,0 c 3.2445,0 5.8437,2.6305 5.8437,5.875 l 0,0.5625 c 0,-3.2445 -2.5992,-5.875 -5.8437,-5.875 l -32.8125013,0 C 4.2242087,1006.6747 1.6250087,1009.3052 1.6250087,1012.5497 Z"
       style="color:#000000;fill:#ffffff;fill-opacity:1;fill-rule:nonzero;stroke:none;stroke-width:0.2;marker:none;visibility:visible;display:inline;overflow:visible;enable-background:accumulate"
       inkscape:connector-curvature="0" />
    <path
       inkscape:connector-curvature="0"
       style="color:#000000;fill:#000000;fill-opacity:1;fill-rule:nonzero;stroke:none;stroke-width:0.2;marker:none;visibility:visible;display:inline;overflow:visible;enable-background:accumulate"
       d="m 1.6250087,1044.1747 0,0.5625 c 0,3.2445 2.5992,5.875 5.8438,5.875 l 32.8125013,0 c 3.2445,0 5.8437,-2.6305 5.8437,-5.875 l 0,-0.5625 c 0,3.2445 -2.5992,5.875 -5.8437,5.875 l -32.8125013,0 C 4.2242087,1050.0497 1.6250087,1047.4192 1.6250087,1044.1747 Z"
       id="path6388-7" />
    <path
       style="fill:#000000"
       d=""
       id="path906"
       inkscape:connector-curvature="0" />
    <path
       style="fill:#000000"
       d=""
       id="path906-5"
       inkscape:connector-curvature="0" />
  </g>
</svg>
