<?xml version="1.0" encoding="UTF-8" standalone="no"?>
<!-- Created with Inkscape (http://www.inkscape.org/) -->

<svg
   xmlns:dc="http://purl.org/dc/elements/1.1/"
   xmlns:cc="http://creativecommons.org/ns#"
   xmlns:rdf="http://www.w3.org/1999/02/22-rdf-syntax-ns#"
   xmlns:svg="http://www.w3.org/2000/svg"
   xmlns="http://www.w3.org/2000/svg"
   xmlns:xlink="http://www.w3.org/1999/xlink"
   xmlns:sodipodi="http://sodipodi.sourceforge.net/DTD/sodipodi-0.dtd"
   xmlns:inkscape="http://www.inkscape.org/namespaces/inkscape"
   width="48"
   height="48"
   id="svg2"
   version="1.1"
   inkscape:version="0.48+devel r12314"
   sodipodi:docname="facebook.svg">
  <defs
     id="defs4">
    <linearGradient
       id="linearGradient3700-8">
      <stop
         id="stop3702-1"
         style="stop-color:#2e4f84;stop-opacity:1"
         offset="0" />
      <stop
         id="stop3704-8"
         style="stop-color:#4c77c5;stop-opacity:1"
         offset="1" />
    </linearGradient>
    <linearGradient
       inkscape:collect="always"
       xlink:href="#linearGradient3700-8"
       id="linearGradient833"
       x1="81.871468"
       y1="1049.8873"
       x2="81.871468"
       y2="1004.986"
       gradientUnits="userSpaceOnUse" />
  </defs>
  <sodipodi:namedview
     id="base"
     pagecolor="#ffffff"
     bordercolor="#666666"
     borderopacity="1.0"
     inkscape:pageopacity="0.0"
     inkscape:pageshadow="2"
     inkscape:zoom="2.8284273"
     inkscape:cx="-48.125158"
     inkscape:cy="36.224253"
     inkscape:document-units="px"
     inkscape:current-layer="layer1"
     showgrid="false"
     inkscape:window-width="1366"
     inkscape:window-height="714"
     inkscape:window-x="0"
     inkscape:window-y="30"
     inkscape:window-maximized="1">
    <inkscape:grid
       type="xygrid"
       id="grid3850" />
  </sodipodi:namedview>
  <metadata
     id="metadata7">
    <rdf:RDF>
      <cc:Work
         rdf:about="">
        <dc:format>image/svg+xml</dc:format>
        <dc:type
           rdf:resource="http://purl.org/dc/dcmitype/StillImage" />
        <dc:title />
      </cc:Work>
    </rdf:RDF>
  </metadata>
  <g
     inkscape:label="Capa 1"
     inkscape:groupmode="layer"
     id="layer1"
     transform="translate(0,-1004.3622)">
    <g
       id="g835"
       transform="translate(-56.786945,0.92549346)">
      <rect
         ry="6.3565426"
         y="1004.6867"
         x="58.036945"
         height="45.5"
         width="45.5"
         id="rect6294"
         style="color:#000000;fill:#333333;fill-opacity:1;fill-rule:nonzero;stroke:none;stroke-width:0.2;marker:none;visibility:visible;display:inline;overflow:visible;enable-background:accumulate" />
      <rect
         style="color:#000000;fill:url(#linearGradient833);fill-opacity:1;fill-rule:nonzero;stroke:none;stroke-width:0.2;marker:none;visibility:visible;display:inline;overflow:visible;enable-background:accumulate"
         id="rect6296"
         width="44.5"
         height="44.5"
         x="58.536945"
         y="1005.1867"
         ry="5.8565426" />
      <path
         inkscape:connector-curvature="0"
         style="color:#000000;fill:#ffffff;fill-opacity:1;fill-rule:nonzero;stroke:none;stroke-width:0.2;marker:none;visibility:visible;display:inline;overflow:visible;enable-background:accumulate"
         d="m 58.536945,1011.6242 0,-0.5625 c 0,-3.2445 2.599225,-5.875 5.84375,-5.875 l 32.8125,0 c 3.244525,0 5.843745,2.6305 5.843745,5.875 l 0,0.5625 c 0,-3.2445 -2.59922,-5.875 -5.843745,-5.875 l -32.8125,0 C 61.13617,1005.7492 58.536945,1008.3797 58.536945,1011.6242 Z"
         id="path6361" />
      <path
         id="path6388"
         d="m 58.536945,1043.2492 0,0.5625 c 0,3.2445 2.599225,5.875 5.84375,5.875 l 32.8125,0 c 3.244525,0 5.843745,-2.6305 5.843745,-5.875 l 0,-0.5625 c 0,3.2445 -2.59922,5.875 -5.843745,5.875 l -32.8125,0 C 61.13617,1049.1242 58.536945,1046.4937 58.536945,1043.2492 Z"
         style="color:#000000;fill:#000000;fill-opacity:1;fill-rule:nonzero;stroke:none;stroke-width:0.2;marker:none;visibility:visible;display:inline;overflow:visible;enable-background:accumulate"
         inkscape:connector-curvature="0" />
    </g>
    <g
       id="g838"
       transform="matrix(0.9375,0,0,0.9375,3.0478718,63.863419)">
      <path
         d="m 34.618741,1044.3748 -6.79733,0 0,-14.6254 -3.655935,0 0,-5.9392 3.655935,0 0,-3.1348 c 0,-4.6255 1.917216,-7.376 7.365703,-7.376 l 4.536359,0 0,5.6708 -2.835412,0 c -2.121342,0 -2.26097,0.7923 -2.26097,2.2715 l -0.0084,2.5685 5.136602,0 -0.601003,5.9392 L 34.618741,1029.7494 Z"
         inkscape:connector-curvature="0"
         id="path3835-8"
         style="fill:#ffffff" />
      <path
         inkscape:connector-curvature="0"
         id="path821"
         d="m 36.902023,1018.9734 c -2.121341,0 -2.276031,0.7968 -2.276031,2.276 l 0,0.4248 c 0,-1.4792 0.15469,-2.276 2.276031,-2.276 l 2.822279,0 0,-0.4248 L 36.902023,1018.9734 z m 2.822279,5.25 -0.576595,5.5231 -4.521715,0 0,0.4249 4.521715,0 0.606942,-5.948 L 39.724302,1024.2234 z m -15.568052,5.5231 0,0.4249 3.671997,0 0,-0.4249 L 24.15625,1029.7465 z m 3.671997,14.6273 0,0.4249 6.797745,0 0,-0.4249 L 27.828247,1044.3738 Z"
         style="fill:#ffffff;fill-opacity:0.5372549" />
      <path
         style="fill:#ffffff"
         id="path826"
         inkscape:connector-curvature="0"
         d="m 34.618741,1044.3748 -6.79733,0 0,-14.6254 -3.655935,0 0,-5.9392 3.655935,0 0,-3.1348 c 0,-4.6255 1.917216,-7.376 7.365703,-7.376 l 4.536359,0 0,5.6708 -2.835412,0 c -2.121342,0 -2.26097,0.7923 -2.26097,2.2715 l -0.0084,2.5685 5.136602,0 -0.601003,5.9392 L 34.618741,1029.7494 Z" />
      <path
         inkscape:connector-curvature="0"
         id="path832"
         d="m 35.17224,1012.7987 c -5.448488,0 -7.343993,2.7487 -7.343993,7.3743 l 0,0.4855 c 0,-4.6255 1.895505,-7.3742 7.343993,-7.3742 l 4.552062,0 0,-0.4856 L 35.17224,1012.7987 z m -11.01599,10.5001 0,0.4855 3.671997,0 0,-0.4855 L 24.15625,1023.2988 z m 10.469742,0 0,0.4855 5.067963,0 0.06069,-0.4855 L 34.625992,1023.2988 Z"
         style="fill:#000000;fill-opacity:0.5372549" />
    </g>
  </g>
</svg>
