<?xml version="1.0" encoding="UTF-8" standalone="no"?>
<!-- Created with Inkscape (http://www.inkscape.org/) -->

<svg
   xmlns:dc="http://purl.org/dc/elements/1.1/"
   xmlns:cc="http://creativecommons.org/ns#"
   xmlns:rdf="http://www.w3.org/1999/02/22-rdf-syntax-ns#"
   xmlns:svg="http://www.w3.org/2000/svg"
   xmlns="http://www.w3.org/2000/svg"
   xmlns:xlink="http://www.w3.org/1999/xlink"
   xmlns:sodipodi="http://sodipodi.sourceforge.net/DTD/sodipodi-0.dtd"
   xmlns:inkscape="http://www.inkscape.org/namespaces/inkscape"
   width="48"
   height="48"
   id="svg2"
   version="1.1"
   inkscape:version="0.48+devel r12272"
   sodipodi:docname="gwibber.svg">
  <defs
     id="defs4">
    <linearGradient
       gradientUnits="userSpaceOnUse"
       y2="1006.0744"
       x2="24"
       y1="1050.6122"
       x1="24"
       id="linearGradient1742-3"
       xlink:href="#linearGradient1163-3"
       inkscape:collect="always"
       gradientTransform="translate(0,1.7382813e-5)" />
    <linearGradient
       id="linearGradient838"
       inkscape:collect="always">
      <stop
         id="stop840"
         offset="0"
         style="stop-color:#c1c8d5;stop-opacity:1" />
      <stop
         id="stop842"
         offset="1"
         style="stop-color:#f4f5f7;stop-opacity:1" />
    </linearGradient>
    <linearGradient
       id="linearGradient1163-3"
       inkscape:collect="always">
      <stop
         id="stop1165-9"
         offset="0"
         style="stop-color:#132f45;stop-opacity:1" />
      <stop
         id="stop1167-0"
         offset="1"
         style="stop-color:#366182;stop-opacity:1" />
    </linearGradient>
    <linearGradient
       gradientTransform="matrix(0.99828628,0,0,0.99828628,0.04113,-2.6620283)"
       gradientUnits="userSpaceOnUse"
       y2="1017.7372"
       x2="27.25"
       y1="1039.2372"
       x1="27.25"
       id="linearGradient844"
       xlink:href="#linearGradient838"
       inkscape:collect="always" />
  </defs>
  <sodipodi:namedview
     id="base"
     pagecolor="#ffffff"
     bordercolor="#666666"
     borderopacity="1.0"
     inkscape:pageopacity="0.0"
     inkscape:pageshadow="2"
     inkscape:zoom="6.6307697"
     inkscape:cx="-2.6767738"
     inkscape:cy="22.739536"
     inkscape:document-units="px"
     inkscape:current-layer="layer1"
     showgrid="false"
     inkscape:window-width="1366"
     inkscape:window-height="716"
     inkscape:window-x="0"
     inkscape:window-y="28"
     inkscape:window-maximized="1">
    <inkscape:grid
       type="xygrid"
       id="grid3850"
       empspacing="5"
       visible="true"
       enabled="true"
       snapvisiblegridlinesonly="true" />
  </sodipodi:namedview>
  <metadata
     id="metadata7">
    <rdf:RDF>
      <cc:Work
         rdf:about="">
        <dc:format>image/svg+xml</dc:format>
        <dc:type
           rdf:resource="http://purl.org/dc/dcmitype/StillImage" />
        <dc:title />
      </cc:Work>
    </rdf:RDF>
  </metadata>
  <g
     inkscape:label="Capa 1"
     inkscape:groupmode="layer"
     id="layer1"
     transform="translate(0,-1004.3622)">
    <rect
       style="color:#000000;fill:#333333;fill-opacity:1;fill-rule:nonzero;stroke:none;stroke-width:0.2;marker:none;visibility:visible;display:inline;overflow:visible;enable-background:accumulate"
       id="rect6294-7"
       width="45.5"
       height="45.5"
       x="1.25"
       y="1005.6122"
       ry="6.3565426" />
    <rect
       ry="5.8565426"
       y="1006.1122"
       x="1.75"
       height="44.5"
       width="44.5"
       id="rect6296-7"
       style="color:#000000;fill:url(#linearGradient1742-3);fill-opacity:1.0;fill-rule:nonzero;stroke:none;stroke-width:0.2;marker:none;visibility:visible;display:inline;overflow:visible;enable-background:accumulate" />
    <path
       id="path6361-2"
       d="m 1.7500003,1012.5497 0,-0.5625 c 0,-3.2445 2.599225,-5.875 5.84375,-5.875 l 32.8124997,0 c 3.244525,0 5.84375,2.6305 5.84375,5.875 l 0,0.5625 c 0,-3.2445 -2.599225,-5.875 -5.84375,-5.875 l -32.8124997,0 C 4.3492253,1006.6747 1.7500003,1009.3052 1.7500003,1012.5497 Z"
       style="color:#000000;fill:#ffffff;fill-opacity:1;fill-rule:nonzero;stroke:none;stroke-width:0.2;marker:none;visibility:visible;display:inline;overflow:visible;enable-background:accumulate"
       inkscape:connector-curvature="0" />
    <path
       inkscape:connector-curvature="0"
       style="color:#000000;fill:#000000;fill-opacity:1;fill-rule:nonzero;stroke:none;stroke-width:0.2;marker:none;visibility:visible;display:inline;overflow:visible;enable-background:accumulate"
       d="m 1.7500003,1044.1747 0,0.5625 c 0,3.2445 2.599225,5.875 5.84375,5.875 l 32.8124997,0 c 3.244525,0 5.84375,-2.6305 5.84375,-5.875 l 0,-0.5625 c 0,3.2445 -2.599225,5.875 -5.84375,5.875 l -32.8124997,0 C 4.3492253,1050.0497 1.7500003,1047.4192 1.7500003,1044.1747 Z"
       id="path6388-7" />
    <path
       style="fill:url(#linearGradient844);fill-opacity:1;stroke:none"
       d="m 9.930403,1013.3622 c -0.666571,0 -1.185465,0.5189 -1.185465,1.1855 l 0,18.7802 c 0,0.6666 0.518894,1.1855 1.185465,1.1855 l 6.707236,0 0,6.8008 7.081593,-6.8008 14.350365,0 c 0.666571,0 1.185465,-0.5189 1.185465,-1.1855 l 0,-18.7802 C 39.255062,1013.8811 38.736168,1013.3622 38.069597,1013.3622 Z"
       id="rect836"
       inkscape:connector-curvature="0"
       sodipodi:nodetypes="sssscccsssss" />
    <path
       style="fill:#ffffff;fill-opacity:1;stroke:none"
       d="m 9.930403,1013.6253 c -0.666571,0 -1.185465,0.519 -1.185465,1.1855 l 0,1.1543 c 0,-0.6665 0.518894,-1.2167 1.185465,-1.2167 l 28.139194,0 c 0.666571,0 1.185465,0.5502 1.185465,1.2167 l 0,-1.1543 c 0,-0.6665 -0.518894,-1.1855 -1.185465,-1.1855 L 9.930403,1013.6253 Z"
       id="rect847"
       inkscape:connector-curvature="0" />
    <g
       id="g906"
       transform="matrix(0.99828628,0,0,0.99828628,2.419257,-2.3997785)">
      <path
         id="path4102"
         d="m 12.375501,1025.8831 c -1.220107,0 -2.200545,1.0119 -2.200545,2.232 0,1.2201 0.980438,2.2006 2.200545,2.2006 1.220107,0 2.200545,-0.9805 2.200545,-2.2006 C 14.576046,1026.895 13.595608,1025.8831 12.375501,1025.8831 z m 9.24229,0 c -1.220107,0 -2.231982,1.0119 -2.231982,2.232 0,1.2201 1.011875,2.2006 2.231982,2.2006 1.220107,0 2.200545,-0.9805 2.200545,-2.2006 C 23.818336,1026.895 22.837898,1025.8831 21.617791,1025.8831 z m 9.242289,0 c -1.220107,0 -2.231981,1.0119 -2.231981,2.232 0,1.2201 1.011874,2.2006 2.231981,2.2006 1.220107,0 2.200545,-0.9805 2.200545,-2.2006 C 33.060625,1026.895 32.080187,1025.8831 30.86008,1025.8831 Z"
         style="color:#000000;fill:#99a2aa;fill-opacity:1;fill-rule:nonzero;stroke:none;stroke-width:0.27500001;marker:none;visibility:visible;display:inline;overflow:visible;enable-background:accumulate"
         inkscape:connector-curvature="0" />
      <path
         id="path4126"
         d="m 10.232701,1027.7177 c -0.103698,0.2588 -0.157182,0.523 -0.157182,0.8173 0,1.2201 0.980438,2.2006 2.200545,2.2006 1.042861,0 1.907558,-0.7276 2.137672,-1.6976 -0.341833,0.7697 -1.111861,1.3203 -2.011927,1.3203 -1.220107,0 -2.200545,-0.9805 -2.200545,-2.2005 C 10.201264,1028.0053 10.203509,1027.8621 10.232701,1027.7177 z m 9.210853,0.063 c -0.09068,0.2413 -0.157182,0.4841 -0.157182,0.7545 0,1.2201 1.011875,2.2006 2.231982,2.2006 1.042861,0 1.907558,-0.7276 2.137672,-1.6976 -0.341833,0.7697 -1.111861,1.3203 -2.011927,1.3203 -1.220107,0 -2.231981,-0.9805 -2.231981,-2.2005 C 19.412118,1028.0269 19.421274,1027.9056 19.443554,1027.7805 z m 9.242289,0 c -0.09068,0.2413 -0.157181,0.4841 -0.157181,0.7545 0,1.2201 1.011874,2.2006 2.231981,2.2006 1.042861,0 1.907558,-0.7276 2.137673,-1.6976 -0.341834,0.7697 -1.111862,1.3203 -2.011927,1.3203 -1.220107,0 -2.231982,-0.9805 -2.231982,-2.2005 C 28.654407,1028.0269 28.663563,1027.9056 28.685843,1027.7805 Z"
         style="color:#000000;fill:#ffffff;fill-opacity:0.81355932;fill-rule:nonzero;stroke:none;stroke-width:0.27500001;marker:none;visibility:visible;display:inline;overflow:visible;enable-background:accumulate"
         inkscape:connector-curvature="0" />
    </g>
    <path
       style="fill:#000000;fill-opacity:0.23383185;stroke:none"
       d="m 8.744938,1033.3208 0,0.6864 c 0,0.6665 0.518894,1.1854 1.185465,1.1854 l 6.707236,0 0,-0.6863 -6.707236,0 C 9.263832,1034.5063 8.744938,1033.9874 8.744938,1033.3208 z m 30.510124,0 c 0,0.6666 -0.518894,1.1855 -1.185465,1.1855 l -14.350365,0 -7.081593,6.8008 0,0.6863 7.081593,-6.8008 14.350365,0 c 0.666571,0 1.185465,-0.5189 1.185465,-1.1854 L 39.255062,1033.3208 Z"
       id="path923"
       inkscape:connector-curvature="0" />
    <path
       inkscape:connector-curvature="0"
       id="path928"
       d="m 8.744938,1034.0072 0,0.6863 c 0,0.6665 0.518894,1.1854 1.185465,1.1854 l 6.707236,0 0,-0.6863 -6.707236,0 C 9.263832,1035.1926 8.744938,1034.6737 8.744938,1034.0072 z m 30.510124,0 c 0,0.6665 -0.518894,1.1854 -1.185465,1.1854 l -14.350365,0 -7.081593,6.8008 0,0.6864 7.081593,-6.8009 14.350365,0 c 0.666571,0 1.185465,-0.5189 1.185465,-1.1854 L 39.255062,1034.0072 Z"
       style="fill:#000000;fill-opacity:0.11817878;stroke:none" />
    <path
       style="fill:#000000;fill-opacity:0.05882353;stroke:none"
       d="m 8.744938,1034.6896 0,0.6863 c 0,0.6666 0.518894,1.1855 1.185465,1.1855 l 6.707236,0 0,-0.6863 -6.707236,0 C 9.263832,1035.8751 8.744938,1035.3561 8.744938,1034.6896 z m 30.510124,0 c 0,0.6665 -0.518894,1.1855 -1.185465,1.1855 l -14.350365,0 -7.081593,6.8008 0,0.6863 7.081593,-6.8008 14.350365,0 c 0.666571,0 1.185465,-0.5189 1.185465,-1.1855 L 39.255062,1034.6896 Z"
       id="path930"
       inkscape:connector-curvature="0" />
  </g>
</svg>
