<?xml version="1.0" encoding="UTF-8" standalone="no"?>
<!-- Created with Inkscape (http://www.inkscape.org/) -->

<svg
   xmlns:dc="http://purl.org/dc/elements/1.1/"
   xmlns:cc="http://creativecommons.org/ns#"
   xmlns:rdf="http://www.w3.org/1999/02/22-rdf-syntax-ns#"
   xmlns:svg="http://www.w3.org/2000/svg"
   xmlns="http://www.w3.org/2000/svg"
   xmlns:xlink="http://www.w3.org/1999/xlink"
   xmlns:sodipodi="http://sodipodi.sourceforge.net/DTD/sodipodi-0.dtd"
   xmlns:inkscape="http://www.inkscape.org/namespaces/inkscape"
   width="48.000011"
   height="48.014492"
   id="svg5453"
   version="1.1"
   inkscape:version="0.48+devel r12314"
   sodipodi:docname="psensor.svg">
  <defs
     id="defs5455">
    <linearGradient
       inkscape:collect="always"
       id="linearGradient4536">
      <stop
         style="stop-color:#f2f2f2;stop-opacity:1"
         offset="0"
         id="stop4538" />
      <stop
         style="stop-color:#ffffff;stop-opacity:1"
         offset="1"
         id="stop4540" />
    </linearGradient>
    <linearGradient
       inkscape:collect="always"
       xlink:href="#linearGradient4693"
       id="linearGradient4699"
       x1="17.5625"
       y1="29.9375"
       x2="23.1875"
       y2="29.9375"
       gradientUnits="userSpaceOnUse"
       gradientTransform="matrix(0.91107761,0,0,0.91107761,386.71377,501.50216)" />
    <linearGradient
       inkscape:collect="always"
       id="linearGradient4693">
      <stop
         style="stop-color:#000000;stop-opacity:1;"
         offset="0"
         id="stop4695" />
      <stop
         style="stop-color:#000000;stop-opacity:0;"
         offset="1"
         id="stop4697" />
    </linearGradient>
    <linearGradient
       inkscape:collect="always"
       xlink:href="#linearGradient4693"
       id="linearGradient4703"
       gradientUnits="userSpaceOnUse"
       x1="17.5625"
       y1="29.9375"
       x2="23.1875"
       y2="29.9375"
       gradientTransform="matrix(-0.91107761,0,0,0.91107761,430.4291,501.50216)" />
    <linearGradient
       inkscape:collect="always"
       xlink:href="#linearGradient4730"
       id="linearGradient4736"
       x1="39.818951"
       y1="16.312777"
       x2="39.818951"
       y2="10.258176"
       gradientUnits="userSpaceOnUse" />
    <linearGradient
       inkscape:collect="always"
       id="linearGradient4730">
      <stop
         style="stop-color:#53b12e;stop-opacity:1"
         offset="0"
         id="stop4732" />
      <stop
         style="stop-color:#7ccc21;stop-opacity:1"
         offset="1"
         id="stop4734" />
    </linearGradient>
    <linearGradient
       inkscape:collect="always"
       xlink:href="#linearGradient4536"
       id="linearGradient5739"
       x1="411.07755"
       y1="546.03632"
       x2="411.07755"
       y2="501.5332"
       gradientUnits="userSpaceOnUse" />
  </defs>
  <sodipodi:namedview
     id="base"
     pagecolor="#ffffff"
     bordercolor="#666666"
     borderopacity="1.0"
     inkscape:pageopacity="0"
     inkscape:pageshadow="2"
     inkscape:zoom="5.6568543"
     inkscape:cx="-7.2613209"
     inkscape:cy="39.099661"
     inkscape:document-units="px"
     inkscape:current-layer="layer1"
     showgrid="false"
     fit-margin-top="0"
     fit-margin-left="0"
     fit-margin-right="0"
     fit-margin-bottom="0"
     inkscape:window-width="1366"
     inkscape:window-height="714"
     inkscape:window-x="0"
     inkscape:window-y="30"
     inkscape:window-maximized="1" />
  <metadata
     id="metadata5458">
    <rdf:RDF>
      <cc:Work
         rdf:about="">
        <dc:format>image/svg+xml</dc:format>
        <dc:type
           rdf:resource="http://purl.org/dc/dcmitype/StillImage" />
        <dc:title></dc:title>
      </cc:Work>
    </rdf:RDF>
  </metadata>
  <g
     inkscape:label="Capa 1"
     inkscape:groupmode="layer"
     id="layer1"
     transform="translate(-384.57143,-499.78351)">
    <rect
       style="color:#000000;fill:#333333;fill-opacity:1;fill-rule:nonzero;stroke:none;stroke-width:0.2;marker:none;visibility:visible;display:inline;overflow:visible;enable-background:accumulate"
       id="rect6294"
       width="45.5"
       height="45.5"
       x="385.82144"
       y="501.04074"
       ry="6.3565426" />
    <rect
       ry="5.8565426"
       y="501.54074"
       x="386.32144"
       height="44.5"
       width="44.5"
       id="rect6296"
       style="color:#000000;fill:url(#linearGradient5739);fill-opacity:1.0;fill-rule:nonzero;stroke:none;stroke-width:0.2;marker:none;visibility:visible;display:inline;overflow:visible;enable-background:accumulate" />
    <path
       id="path6361"
       d="m 386.32143,507.97828 0,-0.5625 c 0,-3.2445 2.59922,-5.875 5.84375,-5.875 l 32.8125,0 c 3.24452,0 5.84375,2.6305 5.84375,5.875 l 0,0.5625 c 0,-3.2445 -2.59923,-5.875 -5.84375,-5.875 l -32.8125,0 C 388.92065,502.10328 386.32143,504.73378 386.32143,507.97828 Z"
       style="color:#000000;fill:#ffffff;fill-opacity:1;fill-rule:nonzero;stroke:none;stroke-width:0.2;marker:none;visibility:visible;display:inline;overflow:visible;enable-background:accumulate"
       inkscape:connector-curvature="0" />
    <path
       inkscape:connector-curvature="0"
       style="color:#000000;fill:#000000;fill-opacity:1;fill-rule:nonzero;stroke:none;stroke-width:0.2;marker:none;visibility:visible;display:inline;overflow:visible;enable-background:accumulate"
       d="m 386.32143,539.60328 0,0.5625 c 0,3.2445 2.59922,5.875 5.84375,5.875 l 32.8125,0 c 3.24452,0 5.84375,-2.6305 5.84375,-5.875 l 0,-0.5625 c 0,3.2445 -2.59923,5.875 -5.84375,5.875 l -32.8125,0 C 388.92065,545.47828 386.32143,542.84778 386.32143,539.60328 Z"
       id="path6388" />
    <rect
       style="fill:#546670;fill-opacity:1;stroke:none"
       id="rect4552"
       width="3.44625"
       height="22.895775"
       x="406.8515"
       y="508.79074"
       ry="2.1989014" />
    <path
       inkscape:connector-curvature="0"
       style="fill:#92a7b0;fill-opacity:1;stroke:none"
       d="m 405.14499,510.41488 0,17.11241 c -1.42539,1.0452 -2.37672,2.69823 -2.37672,4.595 0,3.20156 2.6214,5.82298 5.82297,5.82298 3.20146,0 5.78336,-2.62142 5.78336,-5.82298 0,-1.93307 -0.92851,-3.62814 -2.37672,-4.67422 l 0,-17.03319 -0.87147,0 0,17.90466 0.0397,0 0,0.0792 c 1.18207,0.82023 1.9806,2.16736 1.9806,3.72353 0,2.52539 -2.03012,4.59501 -4.55538,4.59501 -2.52538,0 -4.595,-2.06962 -4.595,-4.59501 0,-1.55617 0.82698,-2.9033 2.02021,-3.72353 l 0,-0.0792 0,-1.34682 0,-16.55784 L 405.14499,510.41488 Z"
       id="path4607" />
    <path
       style="fill:#56b32c;fill-opacity:1;stroke:none"
       d="m 406.85149,517.62427 0,10.89332 c -1.32384,0.63577 -2.21828,1.99832 -2.21828,3.56509 0,2.17731 1.74429,3.9216 3.9216,3.9216 2.17731,0 3.9612,-1.74429 3.9612,-3.9216 0,-1.5506 -0.91651,-2.88167 -2.21826,-3.52548 l 0,-10.93293 L 406.85149,517.62427 Z"
       id="path4550"
       inkscape:connector-curvature="0" />
    <path
       inkscape:connector-curvature="0"
       style="fill:#ffffff;fill-opacity:0.2745098;stroke:none"
       d="m 406.84831,517.62427 0,0.2773 3.44625,0 0,-0.2773 L 406.84831,517.62427 Z"
       id="rect4560" />
    <path
       inkscape:connector-curvature="0"
       style="fill:#000000;fill-opacity:0.07843137;stroke:none"
       d="m 407.32365,522.49656 -0.47534,0.47534 0,0.79225 1.26758,-1.26759 L 407.32365,522.49656 z m 2.17867,0 -2.65401,2.65401 0,0.79224 3.44625,-3.44625 L 409.50232,522.49656 z m 0.79224,1.42603 -3.44625,3.44626 0,0.79224 3.44625,-3.44625 L 410.29456,523.92259 z m 0,2.21828 -5.62491,5.66453 c -0.007,0.0904 -0.0397,0.18543 -0.0397,0.27728 0,0.16303 0.0206,0.31772 0.0397,0.47535 l 5.62491,-5.62492 L 410.29456,526.14087 z m 0,2.17867 -5.34763,5.30802 c 0.005,0.0111 -0.005,0.0285 0,0.0396 0.0789,0.1831 0.21209,0.30822 0.31689,0.47534 l 5.38725,-5.38723 c -0.11354,-0.0711 -0.23595,-0.13844 -0.35651,-0.19806 L 410.29456,528.31954 z m 1.14875,1.06952 -5.5457,5.54569 c 0.13564,0.12623 0.28305,0.25047 0.43575,0.3565 l 5.42684,-5.42684 C 411.64961,529.70795 411.57488,529.52781 411.44331,529.38906 z m 0.83184,1.38642 -4.99111,4.99112 c 0.20253,0.0685 0.41755,0.12342 0.6338,0.15845 l 4.51577,-4.55539 C 412.39497,531.16807 412.34377,530.96475 412.27515,530.77548 z m 0.15846,2.02022 -3.08974,3.12935 c 0.45453,-0.0918 0.88342,-0.28297 1.26758,-0.51495 l 1.34682,-1.34681 C 412.18985,533.67593 412.34805,533.25513 412.43361,532.7957 Z"
       id="rect4565" />
    <path
       style="fill:#000000;fill-opacity:0.23529412;stroke:none"
       d="m 408.55481,508.79078 c -0.9546,0 -1.70332,1.00009 -1.70332,2.21828 l 0,0.39612 c 0,-1.21819 0.74872,-2.21827 1.70332,-2.21827 0.95461,0 1.74294,1.00008 1.74294,2.21827 l 0,-0.39612 C 410.29775,509.79087 409.50942,508.79078 408.55481,508.79078 Z"
       id="rect4598"
       inkscape:connector-curvature="0" />
    <path
       style="fill:#000000;fill-opacity:0.23367836;stroke:none"
       d="m 411.13384,528.31411 0,0.28471 0.0284,0 0,0.0854 c 1.15282,0.79993 1.95468,2.07999 1.99299,3.58736 0.002,-0.055 0,-0.1153 0,-0.17082 0,-1.55618 -0.81092,-2.9095 -1.99299,-3.72973 l 0,-0.0569 L 411.13384,528.31411 z m -5.12481,0.0569 c -1.19323,0.82022 -2.02145,2.17354 -2.02145,3.72971 0,0.0555 -0.002,0.11577 0,0.17083 0.0396,-1.50737 0.85776,-2.78743 2.02145,-3.58736 l 0,-0.0854 L 406.00903,528.37105 z m -3.21724,4.32761 c 0.16422,3.0576 2.71157,5.52341 5.80811,5.52341 3.09643,0 5.58938,-2.46581 5.75118,-5.52341 -0.29538,2.926 -2.74981,5.2387 -5.75118,5.2387 C 405.59843,537.93737 403.09151,535.62467 402.79179,532.69867 Z"
       id="path4656"
       inkscape:connector-curvature="0" />
    <path
       inkscape:connector-curvature="0"
       id="path4661"
       d="m 411.13384,528.59847 0,0.28471 0.0284,0 0,0.0854 c 1.15282,0.79994 1.95468,2.08 1.99299,3.58736 0.002,-0.055 0,-0.1153 0,-0.17082 0,-1.55617 -0.81092,-2.90948 -1.99299,-3.72972 l 0,-0.0569 L 411.13384,528.59847 z m -5.12481,0.0569 c -1.19323,0.82023 -2.02145,2.17355 -2.02145,3.72972 0,0.0555 -0.002,0.11578 0,0.17083 0.0396,-1.50737 0.85776,-2.78744 2.02145,-3.58737 l 0,-0.0854 L 406.00903,528.65542 z m -3.21724,4.32762 c 0.16422,3.05759 2.71157,5.5234 5.80811,5.5234 3.09643,0 5.58938,-2.46581 5.75118,-5.5234 -0.29538,2.92599 -2.74981,5.23869 -5.75118,5.23869 C 405.59843,538.22173 403.09151,535.90903 402.79179,532.98303 Z"
       style="fill:#000000;fill-opacity:0.11625013;stroke:none" />
    <path
       style="fill:#000000;fill-opacity:0.06008582;stroke:none"
       d="m 411.13384,528.88284 0,0.28471 0.0284,0 0,0.0853 c 1.15282,0.79994 1.95468,2.08 1.99299,3.58737 0.002,-0.055 0,-0.11531 0,-0.17083 0,-1.55618 -0.81092,-2.90949 -1.99299,-3.72972 l 0,-0.0569 L 411.13384,528.88284 z m -5.12481,0.0569 c -1.19323,0.82024 -2.02145,2.17355 -2.02145,3.72973 0,0.0555 -0.002,0.11577 0,0.17083 0.0396,-1.50737 0.85776,-2.78744 2.02145,-3.58738 l 0,-0.0854 L 406.00903,528.93978 z m -3.21724,4.32762 c 0.16422,3.0576 2.71157,5.52341 5.80811,5.52341 3.09643,0 5.58938,-2.46581 5.75118,-5.52341 -0.29538,2.926 -2.74981,5.2387 -5.75118,5.2387 C 405.59843,538.50609 403.09151,536.1934 402.79179,533.2674 Z"
       id="path4663"
       inkscape:connector-curvature="0" />
    <path
       inkscape:connector-curvature="0"
       style="opacity:0.5;fill:url(#linearGradient4699);fill-opacity:1;stroke:none"
       d="m 407.75397,509.0755 c -0.52906,0.37095 -0.88261,1.07363 -0.88261,1.90756 l 0,6.63378 0,10.90447 c -1.32384,0.63576 -2.22075,1.99213 -2.22075,3.55889 0,1.95423 1.38696,3.5624 3.24572,3.87209 l 0,-0.91109 c -1.33076,-0.31458 -2.33464,-1.50564 -2.33464,-2.93253 0,-1.42732 1.00325,-2.6184 2.33464,-2.93253 l 0,-19.41734 C 407.89633,509.51343 407.84278,509.28699 407.75397,509.0755 Z"
       id="rect4682" />
    <path
       id="path4701"
       d="m 409.3889,509.0755 c 0.52907,0.37095 0.88261,1.07363 0.88261,1.90756 l 0,6.63378 0,10.90447 c 1.32383,0.63576 2.22075,1.99213 2.22075,3.55889 0,1.95423 -1.38697,3.5624 -3.24571,3.87209 l 0,-0.91109 c 1.33075,-0.31458 2.33463,-1.50564 2.33463,-2.93253 0,-1.42732 -1.00325,-2.6184 -2.33463,-2.93253 l 0,-19.41734 C 409.24655,509.51343 409.30009,509.28699 409.3889,509.0755 Z"
       style="opacity:0.5;fill:url(#linearGradient4703);fill-opacity:1;stroke:none"
       inkscape:connector-curvature="0" />
    <g
       id="g4772"
       transform="matrix(0.91107761,0,0,0.91107761,34.932503,49.882405)">
      <g
         id="g4756">
        <path
           style="fill:url(#linearGradient4736);fill-opacity:1;stroke:none"
           d="m 36.78125,10.28125 -1.53125,1.5 -1.53125,1.5 1.53125,1.5 1.53125,1.5 4.96875,0 c 0.350003,0 0.625,-0.274997 0.625,-0.625 l 0,-4.71875 c 0,-0.350003 -0.274997,-0.65625 -0.625,-0.65625 L 36.78125,10.28125 Z"
           transform="translate(384.57143,499.798)"
           id="rect4711"
           inkscape:connector-curvature="0" />
        <path
           style="fill:#000000;fill-opacity:0.23420015;stroke:none"
           d="m 418.41518,513.20423 -0.125,0.0937 1.53125,1.5 1.53125,1.5 4.96875,0 c 0.35,0 0.625,-0.275 0.625,-0.625 l 0,-0.21875 c 0,0.35 -0.275,0.625 -0.625,0.625 l -4.96875,0 -1.53125,-1.5 L 418.41518,513.20423 Z"
           id="path4738"
           inkscape:connector-curvature="0" />
        <path
           inkscape:connector-curvature="0"
           id="path4745"
           d="m 418.41518,513.42298 -0.125,0.0937 1.53125,1.5 1.53125,1.5 4.96875,0 c 0.35,0 0.625,-0.275 0.625,-0.625 l 0,-0.21875 c 0,0.35 -0.275,0.625 -0.625,0.625 l -4.96875,0 -1.53125,-1.5 L 418.41518,513.42298 Z"
           style="fill:#000000;fill-opacity:0.11795002;stroke:none" />
        <path
           style="fill:#000000;fill-opacity:0.05882353;stroke:none"
           d="m 418.41518,513.64173 -0.125,0.0937 1.53125,1.5 1.53125,1.5 4.96875,0 c 0.35,0 0.625,-0.275 0.625,-0.625 l 0,-0.21875 c 0,0.35 -0.275,0.625 -0.625,0.625 l -4.96875,0 -1.53125,-1.5 L 418.41518,513.64173 Z"
           id="path4747"
           inkscape:connector-curvature="0" />
        <path
           style="fill:#ffffff;fill-opacity:0.15686275;stroke:none"
           d="m 36.78125,10.28125 -1.53125,1.5 -1.53125,1.5 1.53125,1.5 1.34375,1.3125 c 1.107849,-2.690662 3.59667,-4.453061 5.6875,-5.5 -0.108813,-0.188476 -0.302402,-0.3125 -0.53125,-0.3125 L 36.78125,10.28125 Z"
           transform="translate(384.57143,499.798)"
           id="path4749"
           inkscape:connector-curvature="0" />
      </g>
      <g
         id="text4763"
         style="font-size:3.20035148px;font-style:normal;font-weight:normal;line-height:125%;letter-spacing:0px;word-spacing:0px;fill:#ffffff;fill-opacity:0.90196078;stroke:none;font-family:sans-serif">
        <path
           id="path4768"
           style="fill:#ffffff;fill-opacity:0.90196078"
           d="m 422.79525,512.98625 q 0.22659,0.0484 0.35317,0.20159 0.12814,0.15314 0.12814,0.37816 0,0.34535 -0.23753,0.53444 -0.23753,0.18908 -0.67507,0.18908 -0.14689,0 -0.30316,-0.0297 -0.15471,-0.0281 -0.32035,-0.0859 l 0,-0.30472 q 0.13126,0.0766 0.28753,0.11564 0.15627,0.0391 0.3266,0.0391 0.29691,0 0.45161,-0.1172 0.15627,-0.1172 0.15627,-0.34066 0,-0.20627 -0.14533,-0.32191 -0.14376,-0.1172 -0.40161,-0.1172 l -0.2719,0 0,-0.2594 0.28441,0 q 0.23283,0 0.35628,-0.0922 0.12346,-0.0938 0.12346,-0.26878 0,-0.17971 -0.12814,-0.27503 -0.12658,-0.0969 -0.36411,-0.0969 -0.1297,0 -0.27815,0.0281 -0.14845,0.0281 -0.3266,0.0875 l 0,-0.28128 q 0.17971,-0.05 0.33597,-0.075 0.15783,-0.025 0.29691,-0.025 0.35942,0 0.56882,0.16408 0.20939,0.16252 0.20939,0.44067 0,0.19378 -0.11095,0.32817 Q 422.99996,512.93468 422.79525,512.98625 Z"
           inkscape:connector-curvature="0" />
        <path
           id="path4770"
           style="fill:#ffffff;fill-opacity:0.90196078"
           d="m 423.79693,511.91113 1.50016,0 0,0.13439 -0.84697,2.19868 -0.32972,0 0.79696,-2.06741 -1.12043,0 L 423.79693,511.91113 Z"
           inkscape:connector-curvature="0" />
      </g>
    </g>
    <rect
       style="fill:#92a7b0;fill-opacity:1;stroke:none"
       id="rect4783"
       width="0.98864305"
       height="0.32783759"
       x="398.96094"
       y="510.41489"
       ry="0" />
    <rect
       ry="0"
       y="512.21558"
       x="398.96094"
       height="0.32783759"
       width="0.98864305"
       id="rect4785"
       style="fill:#92a7b0;fill-opacity:1;stroke:none" />
    <rect
       style="fill:#92a7b0;fill-opacity:1;stroke:none"
       id="rect4787"
       width="0.98864305"
       height="0.32783759"
       x="398.96094"
       y="514.01624"
       ry="0" />
    <rect
       ry="0"
       y="515.81689"
       x="398.96094"
       height="0.32783759"
       width="0.98864305"
       id="rect4789"
       style="fill:#92a7b0;fill-opacity:1;stroke:none" />
    <rect
       style="fill:#92a7b0;fill-opacity:1;stroke:none"
       id="rect4791"
       width="0.98864305"
       height="0.32783759"
       x="398.96094"
       y="517.61768"
       ry="0" />
    <rect
       ry="0"
       y="519.41827"
       x="398.96094"
       height="0.32783759"
       width="0.98864305"
       id="rect4793"
       style="fill:#92a7b0;fill-opacity:1;stroke:none" />
    <rect
       style="fill:#92a7b0;fill-opacity:1;stroke:none"
       id="rect4795"
       width="0.98864305"
       height="0.32783759"
       x="398.96094"
       y="521.21893"
       ry="0" />
    <rect
       ry="0"
       y="523.01965"
       x="398.96094"
       height="0.32783759"
       width="0.98864305"
       id="rect4797"
       style="fill:#92a7b0;fill-opacity:1;stroke:none" />
    <rect
       style="fill:#92a7b0;fill-opacity:1;stroke:none"
       id="rect4799"
       width="0.98864305"
       height="0.32783759"
       x="398.96094"
       y="524.82031"
       ry="0" />
    <rect
       ry="0"
       y="526.62103"
       x="398.96094"
       height="0.32783759"
       width="0.98864305"
       id="rect4801"
       style="fill:#92a7b0;fill-opacity:1;stroke:none" />
    <rect
       style="fill:#92a7b0;fill-opacity:1;stroke:none"
       id="rect4803"
       width="0.98864305"
       height="0.32783759"
       x="398.96094"
       y="528.42175"
       ry="0" />
    <rect
       ry="0"
       y="530.22235"
       x="398.96094"
       height="0.32783759"
       width="0.98864305"
       id="rect4805"
       style="fill:#92a7b0;fill-opacity:1;stroke:none" />
    <rect
       style="fill:#92a7b0;fill-opacity:1;stroke:none"
       id="rect4807"
       width="0.98864305"
       height="0.32783759"
       x="398.96094"
       y="532.02301"
       ry="0" />
    <rect
       ry="0"
       y="533.82373"
       x="398.96094"
       height="0.32783759"
       width="0.98864305"
       id="rect4809"
       style="fill:#92a7b0;fill-opacity:1;stroke:none" />
    <rect
       style="fill:#92a7b0;fill-opacity:1;stroke:none"
       id="rect4811"
       width="0.98864305"
       height="0.32783759"
       x="398.96094"
       y="535.62445"
       ry="0" />
    <path
       inkscape:connector-curvature="0"
       id="path34"
       style="fill:#546670;fill-opacity:1;fill-rule:nonzero;stroke:none"
       d="m 395.20242,534.34685 c -0.20897,-0.19188 -0.54763,-0.19188 -0.7566,0 l -0.14198,0.12999 -0.14198,-0.12999 c -0.20897,-0.19188 -0.5477,-0.19188 -0.75659,0 -0.23498,0.21585 -0.23498,0.56557 0,0.78145 l 0.89857,0.82398 0.89858,-0.82398 c 0.2349,-0.21588 0.2349,-0.5656 0,-0.78145" />
  </g>
</svg>
