<?xml version="1.0" encoding="UTF-8" standalone="no"?>
<!-- Created with Inkscape (http://www.inkscape.org/) -->

<svg
   xmlns:dc="http://purl.org/dc/elements/1.1/"
   xmlns:cc="http://creativecommons.org/ns#"
   xmlns:rdf="http://www.w3.org/1999/02/22-rdf-syntax-ns#"
   xmlns:svg="http://www.w3.org/2000/svg"
   xmlns="http://www.w3.org/2000/svg"
   xmlns:xlink="http://www.w3.org/1999/xlink"
   xmlns:sodipodi="http://sodipodi.sourceforge.net/DTD/sodipodi-0.dtd"
   xmlns:inkscape="http://www.inkscape.org/namespaces/inkscape"
   width="48"
   height="48"
   id="svg965"
   version="1.1"
   inkscape:version="0.48+devel r12312"
   sodipodi:docname="system-log-out.svg">
  <defs
     id="defs967">
    <linearGradient
       gradientUnits="userSpaceOnUse"
       y2="1005.7004"
       x2="25.1199"
       y1="1051.0239"
       x1="25.1199"
       id="linearGradient885"
       xlink:href="#linearGradient3257-0-3"
       inkscape:collect="always"
       gradientTransform="translate(0,1.7382813e-5)" />
    <linearGradient
       id="linearGradient3257-0-3">
      <stop
         offset="0"
         style="stop-color:#1f2732;stop-opacity:1"
         id="stop3259-2-3" />
      <stop
         offset="1"
         style="stop-color:#333b46;stop-opacity:1"
         id="stop3261-6-7" />
    </linearGradient>
  </defs>
  <sodipodi:namedview
     id="base"
     pagecolor="#ffffff"
     bordercolor="#666666"
     borderopacity="1.0"
     inkscape:pageopacity="0.0"
     inkscape:pageshadow="2"
     inkscape:zoom="3.959798"
     inkscape:cx="2.6121822"
     inkscape:cy="49.604966"
     inkscape:document-units="px"
     inkscape:current-layer="layer1"
     showgrid="false"
     inkscape:window-width="1366"
     inkscape:window-height="714"
     inkscape:window-x="0"
     inkscape:window-y="30"
     inkscape:window-maximized="1" />
  <metadata
     id="metadata970">
    <rdf:RDF>
      <cc:Work
         rdf:about="">
        <dc:format>image/svg+xml</dc:format>
        <dc:type
           rdf:resource="http://purl.org/dc/dcmitype/StillImage" />
        <dc:title />
      </cc:Work>
    </rdf:RDF>
  </metadata>
  <g
     inkscape:label="Capa 1"
     inkscape:groupmode="layer"
     id="layer1"
     transform="translate(0,-1004.3622)">
    <rect
       style="color:#000000;fill:#333333;fill-opacity:1;fill-rule:nonzero;stroke:none;stroke-width:0.2;marker:none;visibility:visible;display:inline;overflow:visible;enable-background:accumulate"
       id="rect6294"
       width="45.5"
       height="45.5"
       x="1.25"
       y="1005.6122"
       ry="6.3565426" />
    <rect
       ry="5.8565426"
       y="1006.1122"
       x="1.75"
       height="44.5"
       width="44.5"
       id="rect6296"
       style="color:#000000;fill:url(#linearGradient885);fill-opacity:1.0;fill-rule:nonzero;stroke:none;stroke-width:0.2;marker:none;visibility:visible;display:inline;overflow:visible;enable-background:accumulate" />
    <path
       id="path6361"
       d="m 1.7499969,1012.5497 0,-0.5625 c 0,-3.2445 2.599225,-5.875 5.84375,-5.875 l 32.8125001,0 c 3.244525,0 5.84375,2.6305 5.84375,5.875 l 0,0.5625 c 0,-3.2445 -2.599225,-5.875 -5.84375,-5.875 l -32.8125001,0 C 4.3492219,1006.6747 1.7499969,1009.3052 1.7499969,1012.5497 Z"
       style="color:#000000;fill:#ffffff;fill-opacity:1;fill-rule:nonzero;stroke:none;stroke-width:0.2;marker:none;visibility:visible;display:inline;overflow:visible;enable-background:accumulate"
       inkscape:connector-curvature="0" />
    <path
       inkscape:connector-curvature="0"
       id="path532"
       style="fill:#ffffff;fill-opacity:1;fill-rule:nonzero;stroke:none"
       d="m 38.078583,1028.2328 -6.229847,-6.1048 0,3.7559 -14.086678,0 0,4.6969 14.086678,0 0,3.7559 L 38.078583,1028.2328 z m -12.490716,10.1738 -12.58469,0 0,-21.9135 12.58469,0 0,4.6959 3.098935,0 0,-4.6959 c 0,-1.7219 -1.40896,-3.1309 -3.130913,-3.1309 l -12.521709,0 c -1.721953,0 -3.129947,1.409 -3.129947,3.1309 l 0,21.9135 c 0,1.722 1.407994,3.1309 3.129947,3.1309 l 12.521709,0 c 1.721953,0 3.130913,-1.4089 3.130913,-3.1309 l 0,-3.1309 -3.098935,0 0,3.1309" />
    <path
       style="fill:#ffffff;fill-opacity:0.23529412;fill-rule:nonzero;stroke:none"
       d="m 13.012955,1016.4801 0,0.6328 12.574322,0 0,-0.6328 L 13.012955,1016.4801 z m 12.574322,4.7051 0,0.6053 3.10919,0 0,-0.6053 L 25.587277,1021.1852 z m 12.189112,7.3465 -5.9157,5.8056 0,0.6053 6.218372,-6.1083 L 37.776398,1028.5317 z m -20.003353,2.0361 0,0.6328 14.087653,0 0,-0.6328 L 17.773036,1030.5678 z m -7.869281,7.8417 0,0.6053 c 0,1.7219 1.414753,3.1367 3.136706,3.1367 l 12.519291,0 c 1.721962,0 3.136715,-1.4148 3.136715,-3.1367 l 0,-0.6053 c 0,1.722 -1.414753,3.1368 -3.136715,3.1368 l -12.519291,0 C 11.318517,1041.5463 9.903764,1040.1315 9.903764,1038.4095 Z"
       id="path826"
       inkscape:connector-curvature="0" />
    <path
       inkscape:connector-curvature="0"
       id="path831"
       d="m 13.030148,1017.0855 0,0.6328 12.574313,0 0,-0.6328 L 13.030148,1017.0855 z m 12.574313,4.705 0,0.6054 3.109191,0 0,-0.6054 L 25.604461,1021.7905 z m 12.189122,7.3465 -5.91571,5.8056 0,0.6054 6.218372,-6.1083 L 37.793592,1029.137 z m -20.003363,2.0361 0,0.6328 14.087653,0 0,-0.6328 L 17.79022,1031.1731 z m -7.869272,7.8417 0,0.6054 c 0,1.7219 1.414754,3.1367 3.136707,3.1367 l 12.5193,0 c 1.721943,0 3.136697,-1.4148 3.136697,-3.1367 l 0,-0.6054 c 0,1.7219 -1.414744,3.1367 -3.136697,3.1367 l -12.5193,0 C 11.335702,1042.1515 9.920958,1040.7367 9.920958,1039.0148 Z"
       style="fill:#ffffff;fill-opacity:0.11764706;fill-rule:nonzero;stroke:none" />
    <path
       style="fill:#ffffff;fill-opacity:0.05882353;fill-rule:nonzero;stroke:none"
       d="m 13.030148,1017.6907 0,0.6329 12.574313,0 0,-0.6329 L 13.030148,1017.6907 z m 12.574313,4.7052 0,0.6052 3.109191,0 0,-0.6052 L 25.604461,1022.3959 z m 12.189122,7.3464 -5.91571,5.8057 0,0.6053 6.218372,-6.1084 L 37.793592,1029.7423 z m -20.003363,2.0362 0,0.6328 14.087653,0 0,-0.6328 L 17.79022,1031.7784 z m -7.869272,7.8417 0,0.6053 c 0,1.7219 1.414754,3.1367 3.136707,3.1367 l 12.5193,0 c 1.721943,0 3.136697,-1.4148 3.136697,-3.1367 l 0,-0.6053 c 0,1.7219 -1.414744,3.1367 -3.136697,3.1367 l -12.5193,0 C 11.335702,1042.7569 9.920958,1041.3421 9.920958,1039.6202 Z"
       id="path833"
       inkscape:connector-curvature="0" />
    <path
       style="fill:#000000;fill-opacity:0.23453734;fill-rule:nonzero;stroke:none"
       d="m 13.04047,1013.3622 c -1.721953,0 -3.136706,1.4148 -3.136706,3.1367 l 0,0.4677 c 0,-1.7219 1.414753,-3.1091 3.136706,-3.1091 l 12.519291,0 c 1.721953,0 3.136706,1.3872 3.136706,3.1091 l 0,-0.4677 c 0,-1.7219 -1.414753,-3.1367 -3.136706,-3.1367 L 13.04047,1013.3622 z m 18.820219,8.7772 0,0.4679 5.970741,5.8607 0.247631,-0.2477 L 31.860689,1022.1394 z m -14.087653,3.7421 0,0.4953 14.087653,0 0,-0.4953 L 17.773036,1025.8815 z m 7.814241,9.3826 0,0.4953 3.10919,0 0,-0.4953 L 25.587277,1035.2641 z m -12.574322,3.1367 0,0.4952 12.574322,0 0,-0.4952 L 13.012955,1038.4008 Z"
       id="path835"
       inkscape:connector-curvature="0" />
    <path
       id="path840"
       d="m 13.04047,1013.8549 c -1.721953,0 -3.136706,1.4147 -3.136706,3.1366 l 0,0.4679 c 0,-1.722 1.414753,-3.1093 3.136706,-3.1093 l 12.519291,0 c 1.721953,0 3.136706,1.3873 3.136706,3.1093 l 0,-0.4679 c 0,-1.7219 -1.414753,-3.1366 -3.136706,-3.1366 L 13.04047,1013.8549 z m 18.820219,8.7772 0,0.4678 5.970741,5.8607 0.247631,-0.2477 L 31.860689,1022.6321 z m -14.087653,3.742 0,0.4953 14.087653,0 0,-0.4953 L 17.773036,1026.3741 z m 7.814241,9.3826 0,0.4953 3.10919,0 0,-0.4953 L 25.587277,1035.7567 z m -12.574322,3.1368 0,0.4953 12.574322,0 0,-0.4953 L 13.012955,1038.8935 Z"
       style="fill:#000000;fill-opacity:0.11764706;fill-rule:nonzero;stroke:none"
       inkscape:connector-curvature="0" />
    <path
       inkscape:connector-curvature="0"
       style="fill:#000000;fill-opacity:0.05882353;fill-rule:nonzero;stroke:none"
       d="m 13.04047,1014.3476 c -1.721953,0 -3.136706,1.4147 -3.136706,3.1367 l 0,0.4677 c 0,-1.7219 1.414753,-3.1092 3.136706,-3.1092 l 12.519291,0 c 1.721953,0 3.136706,1.3873 3.136706,3.1092 l 0,-0.4677 c 0,-1.722 -1.414753,-3.1367 -3.136706,-3.1367 L 13.04047,1014.3476 z m 18.820219,8.7773 0,0.4677 5.970741,5.8607 0.247631,-0.2476 L 31.860689,1023.1249 z m -14.087653,3.742 0,0.4953 14.087653,0 0,-0.4953 L 17.773036,1026.8669 z m 7.814241,9.3826 0,0.4953 3.10919,0 0,-0.4953 L 25.587277,1036.2495 z m -12.574322,3.1367 0,0.4953 12.574322,0 0,-0.4953 L 13.012955,1039.3862 Z"
       id="path842" />
  </g>
</svg>
