<?xml version="1.0" encoding="UTF-8" standalone="no"?>
<!-- Created with Inkscape (http://www.inkscape.org/) -->

<svg
   xmlns:dc="http://purl.org/dc/elements/1.1/"
   xmlns:cc="http://creativecommons.org/ns#"
   xmlns:rdf="http://www.w3.org/1999/02/22-rdf-syntax-ns#"
   xmlns:svg="http://www.w3.org/2000/svg"
   xmlns="http://www.w3.org/2000/svg"
   xmlns:xlink="http://www.w3.org/1999/xlink"
   xmlns:sodipodi="http://sodipodi.sourceforge.net/DTD/sodipodi-0.dtd"
   xmlns:inkscape="http://www.inkscape.org/namespaces/inkscape"
   width="48"
   height="48"
   id="svg2"
   version="1.1"
   inkscape:version="0.48+devel r12312"
   sodipodi:docname="system-shutdown.svg">
  <defs
     id="defs4">
    <linearGradient
       inkscape:collect="always"
       xlink:href="#linearGradient3257-0-4"
       id="linearGradient885"
       x1="25.1199"
       y1="1051.0239"
       x2="25.1199"
       y2="1005.7004"
       gradientUnits="userSpaceOnUse" />
    <linearGradient
       id="linearGradient3257-0-4">
      <stop
         offset="0"
         style="stop-color:#a12923;stop-opacity:1"
         id="stop3259-2-5" />
      <stop
         offset="1"
         style="stop-color:#bd433b;stop-opacity:1"
         id="stop3261-6-0" />
    </linearGradient>
  </defs>
  <sodipodi:namedview
     id="base"
     pagecolor="#ffffff"
     bordercolor="#666666"
     borderopacity="1.0"
     inkscape:pageopacity="0.0"
     inkscape:pageshadow="2"
     inkscape:zoom="5.6568543"
     inkscape:cx="20.885232"
     inkscape:cy="41.479614"
     inkscape:document-units="px"
     inkscape:current-layer="layer1"
     showgrid="false"
     inkscape:window-width="1366"
     inkscape:window-height="714"
     inkscape:window-x="0"
     inkscape:window-y="30"
     inkscape:window-maximized="1"
     showguides="false" />
  <metadata
     id="metadata7">
    <rdf:RDF>
      <cc:Work
         rdf:about="">
        <dc:format>image/svg+xml</dc:format>
        <dc:type
           rdf:resource="http://purl.org/dc/dcmitype/StillImage" />
        <dc:title />
      </cc:Work>
    </rdf:RDF>
  </metadata>
  <g
     inkscape:label="Capa 1"
     inkscape:groupmode="layer"
     id="layer1"
     transform="translate(0,-1004.3622)">
    <rect
       style="color:#000000;fill:#333333;fill-opacity:1;fill-rule:nonzero;stroke:none;stroke-width:0.2;marker:none;visibility:visible;display:inline;overflow:visible;enable-background:accumulate"
       id="rect6294"
       width="45.5"
       height="45.5"
       x="1.25"
       y="1005.6122"
       ry="6.3565426" />
    <rect
       ry="5.8565426"
       y="1006.1122"
       x="1.75"
       height="44.5"
       width="44.5"
       id="rect6296"
       style="color:#000000;fill:url(#linearGradient885);fill-opacity:1.0;fill-rule:nonzero;stroke:none;stroke-width:0.2;marker:none;visibility:visible;display:inline;overflow:visible;enable-background:accumulate" />
    <path
       id="path6361"
       d="m 1.7499969,1012.5497 0,-0.5625 c 0,-3.2445 2.599225,-5.875 5.84375,-5.875 l 32.8125001,0 c 3.244525,0 5.84375,2.6305 5.84375,5.875 l 0,0.5625 c 0,-3.2445 -2.599225,-5.875 -5.84375,-5.875 l -32.8125001,0 C 4.3492219,1006.6747 1.7499969,1009.3052 1.7499969,1012.5497 Z"
       style="color:#000000;fill:#ffffff;fill-opacity:1;fill-rule:nonzero;stroke:none;stroke-width:0.2;marker:none;visibility:visible;display:inline;overflow:visible;enable-background:accumulate"
       inkscape:connector-curvature="0" />
    <path
       inkscape:connector-curvature="0"
       style="color:#000000;fill:#000000;fill-opacity:1;fill-rule:nonzero;stroke:none;stroke-width:0.2;marker:none;visibility:visible;display:inline;overflow:visible;enable-background:accumulate"
       d="m 1.7499969,1044.1747 0,0.5625 c 0,3.2445 2.599225,5.875 5.84375,5.875 l 32.8125001,0 c 3.244525,0 5.84375,-2.6305 5.84375,-5.875 l 0,-0.5625 c 0,3.2445 -2.599225,5.875 -5.84375,5.875 l -32.8125001,0 C 4.3492219,1050.0497 1.7499969,1047.4192 1.7499969,1044.1747 Z"
       id="path6388" />
    <path
       style="fill:#ffffff"
       d="m 23.315396,1013.3622 c -0.759009,0 -1.396603,0.6102 -1.396603,1.3692 l 0,11.0359 c 0,0.7589 0.637594,1.3966 1.396603,1.3966 l 1.369215,0 c 0.759009,0 1.396602,-0.6377 1.396602,-1.3966 l 0,-11.0359 c 0,-0.759 -0.637593,-1.3692 -1.396602,-1.3692 L 23.315396,1013.3622 z m -3.450428,1.8073 c -5.399055,1.7462 -9.310674,6.808 -9.310674,12.7885 0,7.425 6.020761,13.4458 13.445709,13.4458 7.424948,0 13.445708,-6.0208 13.445708,-13.4458 0.0012,-5.9798 -3.910996,-11.0423 -9.310673,-12.7885 l 0,5.2305 c 2.66837,1.4663 4.491031,4.3045 4.491031,7.558 0,4.7522 -3.87385,8.6262 -8.626066,8.6262 -4.752216,0 -8.626066,-3.874 -8.626066,-8.6262 0,-3.2535 1.823285,-6.0917 4.491031,-7.558 L 19.864968,1015.1695 Z"
       id="path1435"
       inkscape:connector-curvature="0" />
    <path
       style="fill:#ffffff;fill-opacity:0.23529412"
       d="m 19.864968,1020.3868 c -2.667746,1.4662 -4.491031,4.3045 -4.491031,7.558 0,0.1209 0.02243,0.2365 0.02738,0.356 0.109631,-3.1255 1.879395,-5.8364 4.463646,-7.2567 L 19.864968,1020.3868 z m 8.27007,0 0,0.6573 c 2.584854,1.4203 4.354053,4.1312 4.463647,7.2567 0.0051,-0.1195 0.02738,-0.2351 0.02738,-0.356 C 32.626069,1024.6913 30.803408,1021.853 28.135038,1020.3868 z m -6.216245,5.3674 0,0.6572 c 0,0.759 0.637594,1.3966 1.396603,1.3966 l 1.369215,0 c 0.759009,0 1.396602,-0.6376 1.396602,-1.3966 l 0,-0.6572 c 0,0.7589 -0.637593,1.3965 -1.396602,1.3965 l -1.369215,0 C 22.556387,1027.1507 21.918793,1026.5131 21.918793,1025.7542 z m -11.337114,2.4918 c -0.0031,0.118 -0.02739,0.2373 -0.02739,0.3561 0,7.4248 6.020762,13.4456 13.445709,13.4456 7.424947,0 13.445709,-6.0208 13.445709,-13.4456 2.5e-5,-0.1188 -0.02435,-0.2381 -0.02738,-0.3561 C 37.255599,1035.5297 31.322666,1041.3904 24,1041.3904 16.677339,1041.3904 10.744406,1035.5297 10.581679,1028.246 Z"
       id="path892"
       inkscape:connector-curvature="0" />
    <path
       inkscape:connector-curvature="0"
       id="path917"
       d="m 19.864968,1021.0441 c -2.667746,1.4662 -4.491031,4.3044 -4.491031,7.558 0,0.1208 0.02243,0.2363 0.02738,0.356 0.109631,-3.1256 1.879395,-5.8364 4.463646,-7.2568 L 19.864968,1021.0441 z m 8.27007,0 0,0.6572 c 2.584854,1.4204 4.354053,4.1312 4.463647,7.2568 0.0051,-0.1197 0.02738,-0.2352 0.02738,-0.356 C 32.626069,1025.3485 30.803408,1022.5103 28.135038,1021.0441 z m -6.216245,5.3673 0,0.6571 c 0,0.7589 0.637594,1.3965 1.396603,1.3965 l 1.369215,0 c 0.759009,0 1.396602,-0.6376 1.396602,-1.3965 l 0,-0.6571 c 0,0.759 -0.637593,1.3966 -1.396602,1.3966 l -1.369215,0 C 22.556387,1027.808 21.918793,1027.1704 21.918793,1026.4114 z m -11.337114,2.4918 c -0.0031,0.1181 -0.02739,0.2374 -0.02739,0.3561 0,7.4249 6.020762,13.4456 13.445709,13.4456 7.424947,0 13.445709,-6.0207 13.445709,-13.4456 2.5e-5,-0.1187 -0.02435,-0.238 -0.02738,-0.3561 C 37.255599,1036.187 31.322666,1042.0477 24,1042.0477 16.677339,1042.0477 10.744406,1036.187 10.581679,1028.9032 Z"
       style="fill:#ffffff;fill-opacity:0.11888547" />
    <path
       style="fill:#ffffff;fill-opacity:0.05882353"
       d="m 19.864968,1021.7013 c -2.667746,1.4662 -4.491031,4.3045 -4.491031,7.558 0,0.1207 0.02243,0.2363 0.02738,0.356 0.109631,-3.1257 1.879395,-5.8364 4.463646,-7.2568 L 19.864968,1021.7013 z m 8.27007,0 0,0.6572 c 2.584854,1.4204 4.354053,4.1311 4.463647,7.2568 0.0051,-0.1197 0.02738,-0.2353 0.02738,-0.356 C 32.626069,1026.0058 30.803408,1023.1675 28.135038,1021.7013 z m -6.216245,5.3672 0,0.6572 c 0,0.759 0.637594,1.3966 1.396603,1.3966 l 1.369215,0 c 0.759009,0 1.396602,-0.6376 1.396602,-1.3966 l 0,-0.6572 c 0,0.7589 -0.637593,1.3965 -1.396602,1.3965 l -1.369215,0 C 22.556387,1028.465 21.918793,1027.8274 21.918793,1027.0685 z m -11.337114,2.492 c -0.0031,0.1179 -0.02739,0.2373 -0.02739,0.3561 0,7.4248 6.020762,13.4456 13.445709,13.4456 7.424947,0 13.445709,-6.0208 13.445709,-13.4456 2.5e-5,-0.1188 -0.02435,-0.2382 -0.02738,-0.3561 C 37.255599,1036.844 31.322666,1042.7049 24,1042.7049 16.677339,1042.7049 10.744406,1036.844 10.581679,1029.5605 Z"
       id="path919"
       inkscape:connector-curvature="0" />
    <path
       style="fill:#000000;fill-opacity:0.23529412"
       d="m 23.315396,1013.3622 c -0.759009,0 -1.396603,0.6102 -1.396603,1.3692 l 0,0.2739 c 0,-0.7589 0.637594,-1.3693 1.396603,-1.3693 l 1.369215,0 c 0.759009,0 1.396602,0.6104 1.396602,1.3693 l 0,-0.2739 c 0,-0.759 -0.637593,-1.3692 -1.396602,-1.3692 L 23.315396,1013.3622 z m -3.450428,1.8073 c -5.143721,1.6636 -8.908589,6.3299 -9.255905,11.9396 0.449515,-5.4901 4.194291,-10.0287 9.255905,-11.6657 L 19.864968,1015.1695 z m 8.27007,0 0,0.2739 c 5.062198,1.637 8.807332,6.1758 9.255906,11.6657 C 37.044651,1021.4999 33.279354,1016.8331 28.135038,1015.1695 z m -12.761101,12.9254 c -7.26e-4,0.046 0,0.091 0,0.137 0,4.7522 3.87385,8.626 8.626066,8.626 4.752216,0 8.626066,-3.8738 8.626066,-8.626 0,-0.046 7.26e-4,-0.091 0,-0.137 -0.07435,4.6887 -3.920079,8.4893 -8.626066,8.4893 C 19.294016,1036.5842 15.44829,1032.7836 15.373937,1028.0949 Z"
       id="path941"
       inkscape:connector-curvature="0" />
    <path
       id="path946"
       d="m 23.329087,1013.636 c -0.759009,0 -1.396601,0.6104 -1.396601,1.3693 l 0,0.2738 c 0,-0.759 0.637592,-1.3692 1.396601,-1.3692 l 1.369217,0 c 0.759007,0 1.396601,0.6102 1.396601,1.3692 l 0,-0.2738 c 0,-0.7589 -0.637594,-1.3693 -1.396601,-1.3693 L 23.329087,1013.636 z m -3.450427,1.8074 c -5.143721,1.6636 -8.908589,6.3299 -9.255905,11.9396 0.449515,-5.4903 4.194291,-10.0287 9.255905,-11.6657 L 19.87866,1015.4434 z m 8.27007,0 0,0.2739 c 5.062198,1.637 8.807333,6.1759 9.255906,11.6657 C 37.058342,1021.7736 33.293046,1017.107 28.14873,1015.4434 z m -12.761101,12.9255 c -7.25e-4,0.046 0,0.091 0,0.1368 0,4.7522 3.873852,8.6262 8.626066,8.6262 4.752216,0 8.626066,-3.874 8.626066,-8.6262 0,-0.047 7.26e-4,-0.091 0,-0.1368 -0.07435,4.6888 -3.920077,8.489 -8.626066,8.489 C 19.307708,1036.8579 15.461982,1033.0577 15.387629,1028.3689 Z"
       style="fill:#000000;fill-opacity:0.11647746"
       inkscape:connector-curvature="0" />
    <path
       inkscape:connector-curvature="0"
       style="fill:#000000;fill-opacity:0.05882353"
       d="m 23.329087,1013.9099 c -0.759009,0 -1.396601,0.6102 -1.396601,1.3692 l 0,0.2738 c 0,-0.7589 0.637592,-1.3692 1.396601,-1.3692 l 1.369217,0 c 0.759007,0 1.396601,0.6103 1.396601,1.3692 l 0,-0.2738 c 0,-0.759 -0.637594,-1.3692 -1.396601,-1.3692 L 23.329087,1013.9099 z m -3.450427,1.8074 c -5.143721,1.6635 -8.908589,6.3298 -9.255905,11.9395 0.449515,-5.4903 4.194291,-10.0287 9.255905,-11.6658 L 19.87866,1015.7173 z m 8.27007,0 0,0.2737 c 5.062198,1.6371 8.807333,6.176 9.255906,11.6658 C 37.058342,1022.0476 33.293046,1017.3808 28.14873,1015.7173 z m -12.761101,12.9254 c -7.25e-4,0.046 0,0.091 0,0.137 0,4.7522 3.873852,8.6259 8.626066,8.6259 4.752216,0 8.626066,-3.8737 8.626066,-8.6259 0,-0.047 7.26e-4,-0.091 0,-0.137 -0.07435,4.6887 -3.920077,8.4892 -8.626066,8.4892 C 19.307708,1037.1319 15.461982,1033.3314 15.387629,1028.6427 Z"
       id="path948" />
  </g>
</svg>
