<?xml version="1.0" encoding="UTF-8" standalone="no"?>
<!-- Created with Inkscape (http://www.inkscape.org/) -->

<svg
   xmlns:dc="http://purl.org/dc/elements/1.1/"
   xmlns:cc="http://creativecommons.org/ns#"
   xmlns:rdf="http://www.w3.org/1999/02/22-rdf-syntax-ns#"
   xmlns:svg="http://www.w3.org/2000/svg"
   xmlns="http://www.w3.org/2000/svg"
   xmlns:xlink="http://www.w3.org/1999/xlink"
   xmlns:sodipodi="http://sodipodi.sourceforge.net/DTD/sodipodi-0.dtd"
   xmlns:inkscape="http://www.inkscape.org/namespaces/inkscape"
   width="48"
   height="48"
   id="svg2"
   version="1.1"
   inkscape:version="0.48+devel r12338"
   sodipodi:docname="grsync.svg">
  <defs
     id="defs4">
    <linearGradient
       id="linearGradient857">
      <stop
         style="stop-color:#a02c89;stop-opacity:1"
         offset="0"
         id="stop859" />
      <stop
         style="stop-color:#d35fbc;stop-opacity:1"
         offset="1"
         id="stop861" />
    </linearGradient>
    <linearGradient
       inkscape:collect="always"
       xlink:href="#linearGradient857"
       id="linearGradient1430"
       x1="25.63262"
       y1="1050.5945"
       x2="25.63262"
       y2="1006.0688"
       gradientUnits="userSpaceOnUse" />
    <linearGradient
       id="linearGradient4602"
       inkscape:collect="always">
      <stop
         id="stop4604"
         offset="0"
         style="stop-color:#cccccc;stop-opacity:1" />
      <stop
         id="stop4606"
         offset="1"
         style="stop-color:#ffffff;stop-opacity:1" />
    </linearGradient>
    <linearGradient
       gradientTransform="matrix(0.87943202,0,0,0.87943202,-54.693939,1002.7654)"
       gradientUnits="userSpaceOnUse"
       y2="8.5787992"
       x2="25.986172"
       y1="40.045048"
       x1="25.986172"
       id="linearGradient4608"
       xlink:href="#linearGradient4602"
       inkscape:collect="always" />
  </defs>
  <sodipodi:namedview
     id="base"
     pagecolor="#ffffff"
     bordercolor="#666666"
     borderopacity="1.0"
     inkscape:pageopacity="0.0"
     inkscape:pageshadow="2"
     inkscape:zoom="5.6568545"
     inkscape:cx="10.598961"
     inkscape:cy="27.444185"
     inkscape:document-units="px"
     inkscape:current-layer="layer1"
     showgrid="false"
     inkscape:window-width="1366"
     inkscape:window-height="714"
     inkscape:window-x="0"
     inkscape:window-y="30"
     inkscape:window-maximized="1">
    <inkscape:grid
       type="xygrid"
       id="grid3850" />
  </sodipodi:namedview>
  <metadata
     id="metadata7">
    <rdf:RDF>
      <cc:Work
         rdf:about="">
        <dc:format>image/svg+xml</dc:format>
        <dc:type
           rdf:resource="http://purl.org/dc/dcmitype/StillImage" />
        <dc:title />
      </cc:Work>
    </rdf:RDF>
  </metadata>
  <g
     inkscape:label="Capa 1"
     inkscape:groupmode="layer"
     id="layer1"
     transform="translate(0,-1004.3622)">
    <rect
       style="color:#000000;fill:#333333;fill-opacity:1;fill-rule:nonzero;stroke:none;stroke-width:0.2;marker:none;visibility:visible;display:inline;overflow:visible;enable-background:accumulate"
       id="rect6294"
       width="45.5"
       height="45.5"
       x="1.25"
       y="1005.6122"
       ry="6.3565426" />
    <rect
       ry="5.8565426"
       y="1006.1122"
       x="1.75"
       height="44.5"
       width="44.5"
       id="rect6296"
       style="color:#000000;fill:url(#linearGradient1430);fill-opacity:1.0;fill-rule:nonzero;stroke:none;stroke-width:0.2;marker:none;visibility:visible;display:inline;overflow:visible;enable-background:accumulate" />
    <path
       id="path6361"
       d="m 1.7500036,1012.5497 0,-0.5625 c 0,-3.2445 2.599225,-5.875 5.84375,-5.875 l 32.8125004,0 c 3.244525,0 5.84375,2.6305 5.84375,5.875 l 0,0.5625 c 0,-3.2445 -2.599225,-5.875 -5.84375,-5.875 l -32.8125004,0 C 4.3492286,1006.6747 1.7500036,1009.3052 1.7500036,1012.5497 Z"
       style="color:#000000;fill:#ffffff;fill-opacity:1;fill-rule:nonzero;stroke:none;stroke-width:0.2;marker:none;visibility:visible;display:inline;overflow:visible;enable-background:accumulate"
       inkscape:connector-curvature="0" />
    <path
       inkscape:connector-curvature="0"
       style="color:#000000;fill:#000000;fill-opacity:1;fill-rule:nonzero;stroke:none;stroke-width:0.2;marker:none;visibility:visible;display:inline;overflow:visible;enable-background:accumulate"
       d="m 1.7500036,1044.1747 0,0.5625 c 0,3.2445 2.599225,5.875 5.84375,5.875 l 32.8125004,0 c 3.244525,0 5.84375,-2.6305 5.84375,-5.875 l 0,-0.5625 c 0,3.2445 -2.599225,5.875 -5.84375,5.875 l -32.8125004,0 C 4.3492286,1050.0497 1.7500036,1047.4192 1.7500036,1044.1747 Z"
       id="path6388" />
    <g
       id="g870"
       transform="matrix(0.99147333,0,0,0.99147333,57.30118,13.016274)">
      <path
         inkscape:connector-curvature="0"
         id="path1429-0"
         d="m -37.490051,1009.8009 -13.466302,4.4246 4.122337,2.3635 c -0.41238,1.1606 -0.632091,2.3808 -0.632091,3.6825 0,6.1224 4.952884,11.1029 11.075345,11.1029 1.197762,0 2.354737,-0.2258 3.435284,-0.5771 -4.442764,-1.4449 -7.66755,-5.6012 -7.66755,-10.5258 0,-0.032 -2.84e-4,-0.05 0,-0.082 l 6.018614,3.4628 L -37.490051,1009.8009 z m 6.705669,6.5682 c -1.197756,0 -2.354738,0.2257 -3.435282,0.5771 4.44276,1.4452 7.667549,5.6012 7.667549,10.5257 0,0.032 2.82e-4,0.05 0,0.082 l -6.018612,-3.4628 2.885635,13.8511 13.466304,-4.4247 -4.122338,-2.3634 c 0.412378,-1.1606 0.632092,-2.3808 0.632092,-3.6827 C -19.709036,1021.3496 -24.661922,1016.3691 -30.784382,1016.3691 Z"
         style="color:#000000;fill:url(#linearGradient4608);fill-opacity:1;fill-rule:nonzero;stroke:none;stroke-width:0.2;marker:none;visibility:visible;display:inline;overflow:visible;enable-background:accumulate" />
      <path
         inkscape:connector-curvature="0"
         id="path4610-7"
         d="m -49.582241,1015.0499 -1.374112,0.4398 3.820032,2.1711 c 0.08743,-0.3534 0.180638,-0.7019 0.302305,-1.0443 L -49.582241,1015.0499 z m 17.203889,2.7208 c -0.630901,0.1006 -1.250308,0.2475 -1.841312,0.4397 4.081157,1.3275 7.142582,4.947 7.612584,9.3439 l 0.05497,0.027 c 2.82e-4,-0.032 0,-0.05 0,-0.083 C -26.552115,1023.2902 -28.919556,1019.6441 -32.378352,1017.7707 z m -8.244676,2.4459 c -2.84e-4,0.032 0,0.05 0,0.082 0,0.4036 0.01274,0.7894 0.05497,1.1816 l 5.963648,3.4354 -0.302305,-1.4018 L -40.623028,1020.2166 z m -6.815598,0.5497 c -0.01737,0.254 -0.02748,0.5091 -0.02748,0.7695 0,6.1222 4.952884,11.1027 11.075346,11.1027 1.197761,0 2.354736,-0.2257 3.435282,-0.577 -0.643987,-0.2095 -1.254618,-0.4795 -1.841311,-0.7971 -0.522406,0.083 -1.051524,0.1375 -1.593971,0.1375 C -42.354484,1031.4019 -47.190931,1026.6696 -47.438626,1020.7663 z m 14.867898,4.5895 2.885636,13.8511 13.466303,-4.4247 -1.374113,-0.797 -12.09219,3.9849 -2.583331,-12.4494 L -32.570728,1025.3558 z m 12.834211,3.1054 c -0.08113,0.9468 -0.295326,1.8504 -0.60461,2.7209 l 0.302305,0.1923 c 0.208908,-0.8443 0.329788,-1.7205 0.329788,-2.6383 C -19.709034,1028.6426 -19.734218,1028.5543 -19.736517,1028.4612 Z"
         style="color:#000000;fill:#ffffff;fill-opacity:0.11764706;fill-rule:nonzero;stroke:none;stroke-width:0.2;marker:none;visibility:visible;display:inline;overflow:visible;enable-background:accumulate" />
      <path
         inkscape:connector-curvature="0"
         id="path4617-8"
         d="m -37.490051,1008.9489 -13.466302,4.4246 0.961878,0.5497 12.504424,-4.0948 2.665779,12.8617 0.219857,0.1099 L -37.490051,1008.9489 z m 6.705669,6.5683 c -1.197756,0 -2.354738,0.2257 -3.435282,0.5771 0.454824,0.1479 0.892009,0.3195 1.319149,0.5222 0.685902,-0.1428 1.392614,-0.2199 2.116133,-0.2199 6.010275,0 10.870929,4.805 11.047865,10.773 0.0089,-0.1828 0.02749,-0.3636 0.02749,-0.5497 C -19.709036,1020.4976 -24.661922,1015.5172 -30.784382,1015.5172 z m -16.269492,0.9619 c -0.260933,0.9373 -0.412233,1.912 -0.412233,2.9405 0,0.1122 0.02418,0.2184 0.02748,0.3298 0.05336,-1.0961 0.251176,-2.1382 0.604609,-3.1329 L -47.053874,1016.4791 z m 6.430846,3.7376 c -2.84e-4,0.032 0,0.05 0,0.082 0,4.4204 2.603189,8.2265 6.3484,10.0035 0.44958,-0.094 0.891321,-0.2182 1.31915,-0.3572 -4.19031,-1.3628 -7.300517,-5.1449 -7.640068,-9.7013 L -40.623028,1020.2167 z m 8.0523,3.0231 0.219858,0.9893 5.798755,3.3529 c 2.82e-4,-0.032 0,-0.05 0,-0.083 0,-0.2797 -0.007,-0.5499 -0.02748,-0.8244 L -32.570728,1023.2398 z m 12.44946,7.2003 c -0.06935,0.2491 -0.133273,0.4982 -0.219859,0.742 l 3.160459,1.8138 0.96188,-0.3299 L -20.121268,1030.4401 Z"
         style="color:#000000;fill:#000000;fill-opacity:0.25882353;fill-rule:nonzero;stroke:none;stroke-width:0.2;marker:none;visibility:visible;display:inline;overflow:visible;enable-background:accumulate" />
    </g>
  </g>
</svg>
