<?xml version="1.0" encoding="UTF-8" standalone="no"?>
<!-- Created with Inkscape (http://www.inkscape.org/) -->

<svg
   xmlns:dc="http://purl.org/dc/elements/1.1/"
   xmlns:cc="http://creativecommons.org/ns#"
   xmlns:rdf="http://www.w3.org/1999/02/22-rdf-syntax-ns#"
   xmlns:svg="http://www.w3.org/2000/svg"
   xmlns="http://www.w3.org/2000/svg"
   xmlns:xlink="http://www.w3.org/1999/xlink"
   xmlns:sodipodi="http://sodipodi.sourceforge.net/DTD/sodipodi-0.dtd"
   xmlns:inkscape="http://www.inkscape.org/namespaces/inkscape"
   width="48"
   height="48"
   id="svg2"
   version="1.1"
   inkscape:version="0.48+devel r12272"
   sodipodi:docname="winusbgui.svg">
  <defs
     id="defs4">
    <linearGradient
       gradientTransform="matrix(0.92708313,0,0,-0.92708313,1.749998,74.985015)"
       y2="-1004.3513"
       x2="25.455843"
       y1="-1052.3827"
       x1="25.455843"
       gradientUnits="userSpaceOnUse"
       id="linearGradient4245"
       xlink:href="#linearGradient3225"
       inkscape:collect="always" />
    <linearGradient
       inkscape:collect="always"
       id="linearGradient3225">
      <stop
         style="stop-color:#dbdedd;stop-opacity:1"
         offset="0"
         id="stop3227" />
      <stop
         style="stop-color:#e0e2e1;stop-opacity:1"
         offset="1"
         id="stop3229" />
    </linearGradient>
    <linearGradient
       inkscape:collect="always"
       xlink:href="#linearGradient3244"
       id="linearGradient3241"
       gradientUnits="userSpaceOnUse"
       x1="25.455843"
       y1="-1033.114"
       x2="25.455843"
       y2="-1004.3513"
       gradientTransform="matrix(0.92708313,0,0,-0.92708313,1.749998,74.985015)" />
    <linearGradient
       id="linearGradient3244"
       inkscape:collect="always">
      <stop
         id="stop3246"
         offset="0"
         style="stop-color:#7d7b85;stop-opacity:1" />
      <stop
         id="stop3248"
         offset="1"
         style="stop-color:#9fa1aa;stop-opacity:1" />
    </linearGradient>
    <linearGradient
       gradientTransform="matrix(0.92708313,0,0,0.92708313,1.749998,1006.1122)"
       inkscape:collect="always"
       xlink:href="#linearGradient3282"
       id="linearGradient3288"
       x1="24.125"
       y1="7.5"
       x2="24.125"
       y2="11.25"
       gradientUnits="userSpaceOnUse" />
    <linearGradient
       inkscape:collect="always"
       id="linearGradient3282">
      <stop
         style="stop-color:#000000;stop-opacity:1;"
         offset="0"
         id="stop3284" />
      <stop
         style="stop-color:#000000;stop-opacity:0;"
         offset="1"
         id="stop3286" />
    </linearGradient>
    <linearGradient
       inkscape:collect="always"
       xlink:href="#linearGradient3282"
       id="linearGradient3292"
       gradientUnits="userSpaceOnUse"
       x1="24.125"
       y1="7.5"
       x2="24.125"
       y2="11.25"
       gradientTransform="matrix(0.92708313,0,0,-0.92708313,1.749998,1032.7438)" />
  </defs>
  <sodipodi:namedview
     id="base"
     pagecolor="#ffffff"
     bordercolor="#666666"
     borderopacity="1.0"
     inkscape:pageopacity="0.0"
     inkscape:pageshadow="2"
     inkscape:zoom="16"
     inkscape:cx="23.628895"
     inkscape:cy="22.234739"
     inkscape:document-units="px"
     inkscape:current-layer="layer1"
     showgrid="false"
     inkscape:window-width="1366"
     inkscape:window-height="716"
     inkscape:window-x="0"
     inkscape:window-y="28"
     inkscape:window-maximized="1" />
  <metadata
     id="metadata7">
    <rdf:RDF>
      <cc:Work
         rdf:about="">
        <dc:format>image/svg+xml</dc:format>
        <dc:type
           rdf:resource="http://purl.org/dc/dcmitype/StillImage" />
        <dc:title></dc:title>
      </cc:Work>
    </rdf:RDF>
  </metadata>
  <g
     inkscape:label="Capa 1"
     inkscape:groupmode="layer"
     id="layer1"
     transform="translate(0,-1004.3622)">
    <rect
       style="color:#000000;fill:#333333;fill-opacity:1;fill-rule:nonzero;stroke:none;stroke-width:0.2;marker:none;visibility:visible;display:inline;overflow:visible;enable-background:accumulate"
       id="rect6294"
       width="45.5"
       height="45.5"
       x="1.25"
       y="1005.6122"
       ry="6.3565426" />
    <path
       inkscape:connector-curvature="0"
       style="fill:url(#linearGradient4245);fill-opacity:1;stroke:none"
       d="m 7.593737,1006.105 c -3.244524,0 -5.843749,2.6304 -5.843749,5.875 l 0,32.7812 c 0,3.2445 2.599225,5.8438 5.843749,5.8438 l 32.8125,0 c 3.244525,0 5.84375,-2.5993 5.84375,-5.8438 l 0,-32.7812 c 0,-3.2446 -2.599225,-5.875 -5.84375,-5.875 L 7.593737,1006.105 Z"
       id="rect2991-1-7" />
    <path
       inkscape:connector-curvature="0"
       style="fill:url(#linearGradient3241);fill-opacity:1;stroke:none"
       d="m 7.593737,1006.105 c -3.244524,0 -5.843749,2.6304 -5.843749,5.875 l 0,20.75 44.499999,0 0,-20.75 c 0,-3.2446 -2.599225,-5.875 -5.84375,-5.875 L 7.593737,1006.105 Z"
       id="rect3237" />
    <path
       inkscape:connector-curvature="0"
       style="fill:#ffffff;fill-opacity:1"
       d="m 1.749998,1032.7369 0,0.4056 44.499979,0 0,-0.4056 L 1.749998,1032.7369 Z"
       id="rect3257" />
    <rect
       style="fill:#464a4e;fill-opacity:1"
       id="rect3262"
       width="9.0957069"
       height="9.0957069"
       x="9.2912903"
       y="1014.8766"
       ry="1.1472065" />
    <rect
       ry="1.1472065"
       y="1014.8766"
       x="29.612946"
       height="9.0957069"
       width="9.0957069"
       id="rect3264"
       style="fill:#464a4e;fill-opacity:1" />
    <g
       id="g4139"
       transform="matrix(0.92708313,0,0,0.59942491,4.053947,407.52247)">
      <g
         id="g4135">
        <path
           style="fill:#e3d83f;fill-opacity:1"
           d="m 9.5546396,1013.2997 0,15.0313 1.0000004,0 0,-15.0313 L 9.5546396,1013.2997 Z"
           id="path4121"
           inkscape:connector-curvature="0" />
        <path
           style="fill:#e19805;fill-opacity:1"
           d="m 8.5546396,1013.2997 0,15.0313 1,0 0,-15.0313 L 8.5546396,1013.2997 Z"
           id="path4125"
           inkscape:connector-curvature="0" />
      </g>
      <g
         transform="translate(-0.09375,0)"
         id="g4131">
        <path
           inkscape:connector-curvature="0"
           id="path4127"
           d="m 11.64839,1013.2997 0,15.0313 1,0 0,-15.0313 L 11.64839,1013.2997 Z"
           style="fill:#e3d83f;fill-opacity:1" />
        <path
           inkscape:connector-curvature="0"
           id="path4129"
           d="m 10.64839,1013.2997 0,15.0313 1,0 0,-15.0313 L 10.64839,1013.2997 Z"
           style="fill:#e19805;fill-opacity:1" />
      </g>
    </g>
    <g
       transform="matrix(0.92708313,0,0,0.59942491,24.375997,407.52247)"
       id="g4147">
      <g
         id="g4149">
        <path
           inkscape:connector-curvature="0"
           id="path4151"
           d="m 9.5546396,1013.2997 0,15.0313 1.0000004,0 0,-15.0313 L 9.5546396,1013.2997 Z"
           style="fill:#e3d83f;fill-opacity:1" />
        <path
           inkscape:connector-curvature="0"
           id="path4153"
           d="m 8.5546396,1013.2997 0,15.0313 1,0 0,-15.0313 L 8.5546396,1013.2997 Z"
           style="fill:#e19805;fill-opacity:1" />
      </g>
      <g
         id="g4155"
         transform="translate(-0.09375,0)">
        <path
           style="fill:#e3d83f;fill-opacity:1"
           d="m 11.64839,1013.2997 0,15.0313 1,0 0,-15.0313 L 11.64839,1013.2997 Z"
           id="path4157"
           inkscape:connector-curvature="0" />
        <path
           style="fill:#e19805;fill-opacity:1"
           d="m 10.64839,1013.2997 0,15.0313 1,0 0,-15.0313 L 10.64839,1013.2997 Z"
           id="path4159"
           inkscape:connector-curvature="0" />
      </g>
    </g>
    <path
       inkscape:connector-curvature="0"
       style="fill:url(#linearGradient3288);fill-opacity:1"
       d="m 10.209637,1014.8905 c -0.52367,0.1066 -0.92713,0.5737 -0.92713,1.1299 l 0,1.3907 c 0,-0.5561 0.40346,-1.0232 0.92713,-1.1299 0.0743,-0.016 0.15236,0 0.23178,0 l 6.80826,0 c 0.63552,0 1.12986,0.4944 1.12986,1.1299 l 0,-1.3907 c 0,-0.6356 -0.49434,-1.1299 -1.12986,-1.1299 l -6.80826,0 C 10.361997,1014.8905 10.284417,1014.8753 10.209637,1014.8905 z m 20.30887,0 c -0.52365,0.1066 -0.89808,0.5737 -0.89808,1.1299 l 0,1.3907 c 0,-0.5561 0.37443,-1.0232 0.89808,-1.1299 0.0743,-0.016 0.15236,0 0.23177,0 l 6.80829,0 c 0.63551,0 1.1589,0.4944 1.1589,1.1299 l 0,-1.3907 c 0,-0.6356 -0.52339,-1.1299 -1.1589,-1.1299 l -6.80829,0 C 30.670867,1014.8905 30.593307,1014.8753 30.518507,1014.8905 Z"
       id="rect3272" />
    <path
       id="path3290"
       d="m 10.209637,1023.9656 c -0.52367,-0.1066 -0.92713,-0.5737 -0.92713,-1.1299 l 0,-1.3907 c 0,0.5561 0.40346,1.0232 0.92713,1.13 0.0743,0.015 0.15236,0 0.23178,0 l 6.80826,0 c 0.63552,0 1.12986,-0.4944 1.12986,-1.13 l 0,1.3907 c 0,0.6356 -0.49434,1.1299 -1.12986,1.1299 l -6.80826,0 C 10.361997,1023.9656 10.284417,1023.9809 10.209637,1023.9656 z m 20.30887,0 c -0.52365,-0.1066 -0.89808,-0.5737 -0.89808,-1.1299 l 0,-1.3907 c 0,0.5561 0.37443,1.0232 0.89808,1.13 0.0743,0.015 0.15236,0 0.23177,0 l 6.80829,0 c 0.63551,0 1.1589,-0.4944 1.1589,-1.13 l 0,1.3907 c 0,0.6356 -0.52339,1.1299 -1.1589,1.1299 l -6.80829,0 C 30.670867,1023.9656 30.593307,1023.9809 30.518507,1023.9656 Z"
       style="fill:url(#linearGradient3292);fill-opacity:1"
       inkscape:connector-curvature="0" />
    <path
       style="fill:#ffffff;fill-opacity:0.5372549"
       d="m 9.282507,1022.8361 0,0.2897 c 0,0.6355 0.52338,1.1298 1.15891,1.1298 l 6.80826,0 c 0.63552,0 1.12986,-0.4943 1.12986,-1.1298 l 0,-0.2897 c 0,0.6355 -0.49434,1.1298 -1.12986,1.1298 l -6.80826,0 C 9.805887,1023.9659 9.282507,1023.4716 9.282507,1022.8361 z m 20.33792,0 0,0.2897 c 0,0.6355 0.49434,1.1298 1.12985,1.1298 l 6.80829,0 c 0.63551,0 1.1589,-0.4943 1.1589,-1.1298 l 0,-0.2897 c 0,0.6355 -0.52339,1.1298 -1.1589,1.1298 l -6.80829,0 C 30.114767,1023.9659 29.620427,1023.4716 29.620427,1022.8361 Z"
       id="rect3296"
       inkscape:connector-curvature="0" />
    <path
       id="path4106"
       d="m 9.282507,1016.0113 0,-0.2896 c 0,-0.6357 0.52338,-1.13 1.15891,-1.13 l 6.80826,0 c 0.63552,0 1.12986,0.4943 1.12986,1.13 l 0,0.2896 c 0,-0.6355 -0.49434,-1.1299 -1.12986,-1.1299 l -6.80826,0 C 9.805887,1014.8814 9.282507,1015.3758 9.282507,1016.0113 z m 20.33792,0 0,-0.2896 c 0,-0.6357 0.49434,-1.13 1.12985,-1.13 l 6.80829,0 c 0.63551,0 1.1589,0.4943 1.1589,1.13 l 0,0.2896 c 0,-0.6355 -0.52339,-1.1299 -1.1589,-1.1299 l -6.80829,0 C 30.114767,1014.8814 29.620427,1015.3758 29.620427,1016.0113 Z"
       style="fill:#000000;fill-opacity:0.81176471"
       inkscape:connector-curvature="0" />
    <path
       id="path6361"
       d="m 1.749988,1012.5497 0,-0.5625 c 0,-3.2445 2.599219,-5.875 5.843749,-5.875 l 32.8125,0 c 3.24452,0 5.84375,2.6305 5.84375,5.875 l 0,0.5625 c 0,-3.2445 -2.59923,-5.875 -5.84375,-5.875 l -32.8125,0 C 4.349207,1006.6747 1.749988,1009.3052 1.749988,1012.5497 Z"
       style="color:#000000;fill:#ffffff;fill-opacity:1;fill-rule:nonzero;stroke:none;stroke-width:0.2;marker:none;visibility:visible;display:inline;overflow:visible;enable-background:accumulate"
       inkscape:connector-curvature="0" />
    <path
       inkscape:connector-curvature="0"
       style="color:#000000;fill:#000000;fill-opacity:1;fill-rule:nonzero;stroke:none;stroke-width:0.2;marker:none;visibility:visible;display:inline;overflow:visible;enable-background:accumulate"
       d="m 1.749988,1044.1747 0,0.5625 c 0,3.2445 2.599219,5.875 5.843749,5.875 l 32.8125,0 c 3.24452,0 5.84375,-2.6305 5.84375,-5.875 l 0,-0.5625 c 0,3.2445 -2.59923,5.875 -5.84375,5.875 l -32.8125,0 C 4.349207,1050.0497 1.749988,1047.4192 1.749988,1044.1747 Z"
       id="path6388" />
    <g
       id="g863"
       transform="translate(-8.051615,-2.1423)">
      <path
         sodipodi:nodetypes="ssccsccssscsscccccscssccccssccccsssscssccccs"
         inkscape:connector-curvature="0"
         id="path858"
         d="m 37.980968,1048.216 c 0.0044,-0.905 0.0066,-2.286 0.0066,-3.0692 l 0,-1.4238 -0.0346,0 c -0.01904,0 -1.516278,-0.018 -3.327247,-0.039 -1.810966,-0.022 -3.358493,-0.04 -3.438947,-0.04 l -0.146281,0 0,2.4201 c 0,1.3317 0.0013,2.4207 0.0031,2.4208 0.0018,0 1.553777,0.3088 3.449588,0.6853 1.89581,0.3767 3.454515,0.6856 3.463785,0.6862 C 37.972312,1049.861 37.974544,1049.708 37.980968,1048.216 z m -7.532543,-2.2079 c 0.0039,-1.3003 0.0061,-2.3647 0.0047,-2.3656 -0.0026,0 -4.124364,-0.052 -4.255091,-0.051 l -0.08247,0 0,1.9575 0,1.9571 0.02394,0.01 c 0.01873,0.01 4.271216,0.8511 4.296279,0.8553 C 30.438929,1048.3716 30.444747,1047.3079 30.448425,1046.0081 z m -2.077732,-2.9127 c 0.980087,-0.012 1.850193,-0.022 1.933576,-0.023 l 0.1516,0 0,-2.3684 0,-2.3683 -0.02925,0.01 c -0.01608,0.01 -0.992691,0.1962 -2.170212,0.4297 l -2.140959,0.424 -8.3e-5,1.9603 -1.74e-4,1.9598 0.236712,0 C 26.482194,1043.1159 27.390603,1043.1066 28.370693,1043.0954 z m 6.276066,-0.072 c 1.833959,-0.022 3.336016,-0.041 3.3379,-0.044 0.0022,0 0.0022,-1.3844 8.14e-4,-3.0727 l -0.0031,-3.0693 -3.154365,0.6262 c -1.734904,0.3442 -3.295597,0.6533 -3.468209,0.6877 l -0.313839,0.06 -0.0031,2.4225 -0.0031,2.4226 0.135663,0 C 31.251238,1043.063 32.8128,1043.0465 34.646759,1043.0257 Z"
         style="fill:#000000;fill-opacity:0.5372549" />
      <path
         inkscape:connector-curvature="0"
         id="path857"
         d="m 37.979305,1042.985 c -0.002,0 -1.478586,0.01 -3.312546,0.031 -1.833961,0.022 -3.41173,0.061 -3.486891,0.061 l -0.145287,0 0,0.2618 0.145287,0 c 0.07514,0 1.65293,-0.01 3.486891,-0.031 1.83396,-0.022 3.310662,-0.059 3.312546,-0.062 C 37.979481,1043.2468 37.979159,1043.005 37.979305,1042.985 z m -7.671162,0.084 c -0.08339,0 -0.937704,0.019 -1.917789,0.031 -0.980089,0.012 -1.903737,0.027 -2.034018,0.031 l -0.232463,0 0,0.262 0.232463,0 c 0.130281,0 1.053929,-0.019 2.034018,-0.031 0.980085,-0.012 1.834409,-0.03 1.917789,-0.031 l 0.14529,0 0,-0.2614 L 30.308143,1043.0725 z m -4.18427,4.446 0,0.2613 0.02905,0 c 0.01873,0.01 4.275437,0.8675 4.300499,0.8717 4.22e-4,-3e-4 -4.85e-4,-0.2602 0,-0.2905 -0.02505,0 -4.28178,-0.8335 -4.300499,-0.8425 L 26.123873,1047.5183 z m 4.939766,0.9585 c 1.86e-4,0.032 -2.04e-4,0.2905 0,0.2905 0.0018,0 1.532964,0.2919 3.428776,0.6688 1.895808,0.3762 3.448562,0.6965 3.457835,0.6971 0.0028,0 -0.0021,-0.2745 0,-0.2905 -0.009,-6e-4 -1.562027,-0.2917 -3.457835,-0.6684 C 32.596603,1048.7981 31.065311,1048.4771 31.063639,1048.4771 Z"
         style="fill:#ffffff;fill-opacity:0.23529412" />
      <path
         inkscape:connector-curvature="0"
         id="path862"
         d="m 37.964802,1036.8436 -3.1382,0.639 c -1.734902,0.3442 -3.314281,0.6343 -3.48689,0.6685 l -0.290575,0.062 0,0.3778 0.290575,-0.062 c 0.172609,-0.037 1.751988,-0.324 3.48689,-0.6682 l 3.1382,-0.6395 L 37.964802,1036.8436 z m -7.525874,1.4819 -0.02905,0.031 c -0.01608,0.01 -0.972724,0.2027 -2.150249,0.4359 l -2.150249,0.4072 0,0.3772 2.150249,-0.4066 c 1.177525,-0.2333 2.134182,-0.4266 2.150249,-0.4358 l 0.02905,-0.031 L 30.438928,1038.3255 z m -4.329554,5.2592 0,0.3778 0.08716,0 c 0.130727,-8e-4 4.239967,0.062 4.242384,0.062 -4.2e-5,-0.055 2.13e-4,-0.3776 0,-0.3778 -0.0026,0 -4.111657,-0.06 -4.242384,-0.06 L 26.109374,1043.5847 z m 4.910702,0.06 0,0.3778 0.14529,0 c 0.08044,0 1.646868,0.041 3.457832,0.061 1.810969,0.021 3.293542,0.031 3.312548,0.031 l 0.05811,0 0,-0.378 -0.05811,0 c -0.01904,0 -1.501579,-0.01 -3.312548,-0.031 -1.810964,-0.022 -3.377377,-0.06 -3.457832,-0.06 L 31.020076,1043.643 Z"
         style="fill:#000000;fill-opacity:0.5372549" />
    </g>
  </g>
</svg>
