<?xml version="1.0" encoding="UTF-8" standalone="no"?>
<!-- Created with Inkscape (http://www.inkscape.org/) -->

<svg
   xmlns:dc="http://purl.org/dc/elements/1.1/"
   xmlns:cc="http://creativecommons.org/ns#"
   xmlns:rdf="http://www.w3.org/1999/02/22-rdf-syntax-ns#"
   xmlns:svg="http://www.w3.org/2000/svg"
   xmlns="http://www.w3.org/2000/svg"
   xmlns:xlink="http://www.w3.org/1999/xlink"
   xmlns:sodipodi="http://sodipodi.sourceforge.net/DTD/sodipodi-0.dtd"
   xmlns:inkscape="http://www.inkscape.org/namespaces/inkscape"
   width="48.000011"
   height="48.014492"
   id="svg5453"
   version="1.1"
   inkscape:version="0.48+devel r12338"
   sodipodi:docname="wps-office-wppmain.svg">
  <defs
     id="defs5455">
    <style
       type="text/css"
       id="style1115"><![CDATA[ .fil0 {fill:#1F1A17} ]]></style>
    <style
       type="text/css"
       id="style1246"><![CDATA[ .fil0 {fill:#1F1A17} ]]></style>
    <radialGradient
       gradientTransform="translate(-1.5955298e-5,1.9561987e-5)"
       inkscape:collect="always"
       xlink:href="#linearGradient4691"
       id="radialGradient1651"
       cx="408.57144"
       cy="523.79071"
       fx="408.57144"
       fy="523.79071"
       r="19"
       gradientUnits="userSpaceOnUse" />
    <linearGradient
       inkscape:collect="always"
       id="linearGradient4691">
      <stop
         style="stop-color:#ffffff;stop-opacity:1;"
         offset="0"
         id="stop4693" />
      <stop
         style="stop-color:#ffffff;stop-opacity:0;"
         offset="1"
         id="stop4695" />
    </linearGradient>
    <linearGradient
       gradientTransform="translate(-1.5955298e-5,1.9561987e-5)"
       inkscape:collect="always"
       xlink:href="#linearGradient947"
       id="linearGradient1516"
       x1="414.31491"
       y1="546.04181"
       x2="414.31491"
       y2="501.53168"
       gradientUnits="userSpaceOnUse" />
    <linearGradient
       id="linearGradient947"
       inkscape:collect="always">
      <stop
         id="stop949"
         offset="0"
         style="stop-color:#e36203;stop-opacity:1" />
      <stop
         id="stop951"
         offset="1"
         style="stop-color:#f38b1e;stop-opacity:1" />
    </linearGradient>
    <linearGradient
       inkscape:collect="always"
       xlink:href="#linearGradient980"
       id="linearGradient986"
       x1="18.031223"
       y1="25.54936"
       x2="25.544233"
       y2="25.54936"
       gradientUnits="userSpaceOnUse" />
    <linearGradient
       inkscape:collect="always"
       id="linearGradient980">
      <stop
         style="stop-color:#ebd2c4;stop-opacity:1"
         offset="0"
         id="stop982" />
      <stop
         style="stop-color:#ffffff;stop-opacity:0"
         offset="1"
         id="stop984" />
    </linearGradient>
    <linearGradient
       inkscape:collect="always"
       xlink:href="#linearGradient992"
       id="linearGradient990"
       gradientUnits="userSpaceOnUse"
       x1="18.031223"
       y1="25.54936"
       x2="20.329319"
       y2="25.54936"
       gradientTransform="matrix(-1,0,0,1,434.07143,499.798)" />
    <linearGradient
       id="linearGradient992"
       inkscape:collect="always">
      <stop
         id="stop994"
         offset="0"
         style="stop-color:#efd8ca;stop-opacity:1" />
      <stop
         id="stop996"
         offset="1"
         style="stop-color:#ffffff;stop-opacity:0" />
    </linearGradient>
  </defs>
  <sodipodi:namedview
     id="base"
     pagecolor="#ffffff"
     bordercolor="#666666"
     borderopacity="1.0"
     inkscape:pageopacity="0"
     inkscape:pageshadow="2"
     inkscape:zoom="2.9418201"
     inkscape:cx="46.629379"
     inkscape:cy="19.646715"
     inkscape:document-units="px"
     inkscape:current-layer="layer1"
     showgrid="false"
     fit-margin-top="0"
     fit-margin-left="0"
     fit-margin-right="0"
     fit-margin-bottom="0"
     inkscape:window-width="1366"
     inkscape:window-height="714"
     inkscape:window-x="0"
     inkscape:window-y="30"
     inkscape:window-maximized="1" />
  <metadata
     id="metadata5458">
    <rdf:RDF>
      <cc:Work
         rdf:about="">
        <dc:format>image/svg+xml</dc:format>
        <dc:type
           rdf:resource="http://purl.org/dc/dcmitype/StillImage" />
        <dc:title />
      </cc:Work>
    </rdf:RDF>
  </metadata>
  <g
     inkscape:label="Capa 1"
     inkscape:groupmode="layer"
     id="layer1"
     transform="translate(-384.57143,-499.78351)">
    <rect
       style="color:#000000;fill:#333333;fill-opacity:1;fill-rule:nonzero;stroke:none;stroke-width:0.2;marker:none;visibility:visible;display:inline;overflow:visible;enable-background:accumulate"
       id="rect6294"
       width="45.5"
       height="45.5"
       x="385.82144"
       y="501.04074"
       ry="6.3565426" />
    <rect
       ry="5.8565426"
       y="501.54074"
       x="386.32144"
       height="44.5"
       width="44.5"
       id="rect6296"
       style="color:#000000;fill:url(#linearGradient1516);fill-opacity:1.0;fill-rule:nonzero;stroke:none;stroke-width:0.2;marker:none;visibility:visible;display:inline;overflow:visible;enable-background:accumulate" />
    <path
       id="path6361"
       d="m 386.32139,507.97832 0,-0.5625 c 0,-3.2445 2.59922,-5.875 5.84375,-5.875 l 32.8125,0 c 3.24452,0 5.84375,2.6305 5.84375,5.875 l 0,0.5625 c 0,-3.2445 -2.59923,-5.875 -5.84375,-5.875 l -32.8125,0 C 388.92061,502.10332 386.32139,504.73382 386.32139,507.97832 Z"
       style="color:#000000;fill:#ffffff;fill-opacity:1;fill-rule:nonzero;stroke:none;stroke-width:0.2;marker:none;visibility:visible;display:inline;overflow:visible;enable-background:accumulate"
       inkscape:connector-curvature="0" />
    <path
       inkscape:connector-curvature="0"
       style="color:#000000;fill:#000000;fill-opacity:1;fill-rule:nonzero;stroke:none;stroke-width:0.2;marker:none;visibility:visible;display:inline;overflow:visible;enable-background:accumulate"
       d="m 386.32139,539.60332 0,0.5625 c 0,3.2445 2.59922,5.875 5.84375,5.875 l 32.8125,0 c 3.24452,0 5.84375,-2.6305 5.84375,-5.875 l 0,-0.5625 c 0,3.2445 -2.59923,5.875 -5.84375,5.875 l -32.8125,0 C 388.92061,545.47832 386.32139,542.84782 386.32139,539.60332 Z"
       id="path6388" />
    <rect
       style="opacity:0.23999999;color:#000000;fill:url(#radialGradient1651);fill-opacity:1;fill-rule:nonzero;stroke:none;stroke-width:0.2;marker:none;visibility:visible;display:inline;overflow:visible;enable-background:accumulate"
       id="rect1647"
       width="38"
       height="38"
       x="389.57144"
       y="504.79074"
       ry="5.001092" />
    <g
       transform="matrix(0.9375,0,0,0.9375,24.832595,32.730103)"
       id="g1194">
      <path
         inkscape:connector-curvature="0"
         id="path945"
         d="m 395.60268,508.7965 0,27.0326 0,2.9064 7,0 0,-9.90675 0,-13.0319 13.4375,0 0,5.37527 0,7.00035 7,0 0,-7.00035 0,-12.37562 -20.03125,0 -0.40625,0 L 395.60268,508.7965 Z"
         style="fill:#ffffff;fill-opacity:1;stroke:none" />
      <path
         inkscape:connector-curvature="0"
         transform="translate(384.57143,499.798)"
         id="path969"
         d="m 11.03125,9 0,7 0.40625,0 6.59375,0 0,-7 L 11.03125,9 Z"
         style="fill:#ffffff;fill-opacity:1;stroke:none" />
      <path
         inkscape:connector-curvature="0"
         id="path973"
         transform="translate(384.57143,499.798)"
         d="m 18.03125,21.375 0,7 13.4375,0 0,-7 -13.03125,0 L 18.03125,21.375 Z"
         style="fill:#ffffff;fill-opacity:1;stroke:none" />
      <path
         inkscape:connector-curvature="0"
         style="fill:url(#linearGradient986);fill-opacity:1;stroke:none"
         d="m 18.03125,21.375 0,7 13.4375,0 0,-7 -13.03125,0 L 18.03125,21.375 Z"
         transform="translate(384.57143,499.798)"
         id="path978" />
      <path
         sodipodi:nodetypes="cccccc"
         inkscape:connector-curvature="0"
         id="path988"
         d="m 416.04018,521.173 0,7 -9.4375,0 0,-7 L 415.63393,521.173 Z"
         style="opacity:0.6;fill:url(#linearGradient990);fill-opacity:1;stroke:none" />
      <path
         inkscape:connector-curvature="0"
         id="path1006"
         d="m 395.60243,507.79803 0,0.498 27.438,0 0,-0.498 -1.18111,0 L 395.60243,507.79803 Z"
         style="fill:#000000;fill-opacity:0.11764706;stroke:none" />
      <path
         style="fill:#000000;fill-opacity:0.05882353;stroke:none"
         d="m 395.60243,508.2955 0,0.498 27.438,0 0,-0.498 -1.18111,0 L 395.60243,508.2955 Z"
         id="path1125"
         inkscape:connector-curvature="0" />
      <path
         inkscape:connector-curvature="0"
         id="path1192"
         d="m 402.60268,515.82188 0,0.5 13.4375,0 0,-0.5 L 402.60268,515.82188 Z"
         style="fill:#ffffff;fill-opacity:0.11764706;stroke:none" />
      <path
         inkscape:connector-curvature="0"
         id="path1190"
         d="m 402.60268,528.19688 0,0.5 4,0 9.4375,0 7,0 0,-0.5 -7,0 -9.4375,0 L 402.60268,528.19688 Z"
         style="fill:#ffffff;fill-opacity:0.11764706;stroke:none" />
      <path
         inkscape:connector-curvature="0"
         id="path1143"
         d="m 395.60268,538.75938 0,0.5 7,0 0,-0.5 L 395.60268,538.75938 Z"
         style="fill:#ffffff;fill-opacity:0.11764706;stroke:none" />
      <path
         inkscape:connector-curvature="0"
         id="path1186"
         d="m 402.60268,516.36053 0,0.5 13.4375,0 0,-0.5 L 402.60268,516.36053 Z"
         style="fill:#ffffff;fill-opacity:0.05882353;stroke:none" />
      <path
         inkscape:connector-curvature="0"
         id="path1184"
         d="m 402.60268,528.73553 0,0.5 4,0 9.4375,0 7,0 0,-0.5 -7,0 -9.4375,0 L 402.60268,528.73553 Z"
         style="fill:#ffffff;fill-opacity:0.05882353;stroke:none" />
      <path
         inkscape:connector-curvature="0"
         id="path1146"
         d="m 395.60268,539.29803 0,0.5 7,0 0,-0.5 L 395.60268,539.29803 Z"
         style="fill:#ffffff;fill-opacity:0.05882353;stroke:none" />
    </g>
  </g>
</svg>
