<?xml version="1.0" encoding="UTF-8" standalone="no"?>
<!-- Created with Inkscape (http://www.inkscape.org/) -->

<svg
   xmlns:dc="http://purl.org/dc/elements/1.1/"
   xmlns:cc="http://creativecommons.org/ns#"
   xmlns:rdf="http://www.w3.org/1999/02/22-rdf-syntax-ns#"
   xmlns:svg="http://www.w3.org/2000/svg"
   xmlns="http://www.w3.org/2000/svg"
   xmlns:xlink="http://www.w3.org/1999/xlink"
   xmlns:sodipodi="http://sodipodi.sourceforge.net/DTD/sodipodi-0.dtd"
   xmlns:inkscape="http://www.inkscape.org/namespaces/inkscape"
   width="48.000011"
   height="48.014492"
   id="svg5453"
   version="1.1"
   inkscape:version="0.48+devel r12338"
   sodipodi:docname="wps-office-wpsmain.svg">
  <defs
     id="defs5455">
    <style
       type="text/css"
       id="style1115"><![CDATA[ .fil0 {fill:#1F1A17} ]]></style>
    <style
       type="text/css"
       id="style1246"><![CDATA[ .fil0 {fill:#1F1A17} ]]></style>
    <style
       id="style1115-3"
       type="text/css"><![CDATA[ .fil0 {fill:#1F1A17} ]]></style>
    <style
       id="style1246-2"
       type="text/css"><![CDATA[ .fil0 {fill:#1F1A17} ]]></style>
    <linearGradient
       inkscape:collect="always"
       id="linearGradient4631">
      <stop
         style="stop-color:#3055c2;stop-opacity:1"
         offset="0"
         id="stop4633" />
      <stop
         style="stop-color:#4f79e3;stop-opacity:1"
         offset="1"
         id="stop4635" />
    </linearGradient>
    <linearGradient
       inkscape:collect="always"
       id="linearGradient4691">
      <stop
         style="stop-color:#ffffff;stop-opacity:1;"
         offset="0"
         id="stop4693" />
      <stop
         style="stop-color:#ffffff;stop-opacity:0;"
         offset="1"
         id="stop4695" />
    </linearGradient>
    <linearGradient
       inkscape:collect="always"
       xlink:href="#linearGradient4675"
       id="linearGradient4681"
       x1="16.705399"
       y1="33.239147"
       x2="24.130018"
       y2="33.239147"
       gradientUnits="userSpaceOnUse"
       gradientTransform="matrix(0.93023553,0,0,0.93023553,386.24578,501.34588)" />
    <linearGradient
       inkscape:collect="always"
       id="linearGradient4675">
      <stop
         style="stop-color:#c0cfe7;stop-opacity:1"
         offset="0"
         id="stop4677" />
      <stop
         style="stop-color:#ffffff;stop-opacity:0;"
         offset="1"
         id="stop4679" />
    </linearGradient>
    <linearGradient
       inkscape:collect="always"
       xlink:href="#linearGradient4675"
       id="linearGradient4685"
       gradientUnits="userSpaceOnUse"
       x1="16.705399"
       y1="33.239147"
       x2="24.130018"
       y2="33.239147"
       gradientTransform="matrix(-0.93023553,0,0,0.93023553,430.89469,501.34588)" />
    <linearGradient
       inkscape:collect="always"
       xlink:href="#linearGradient4631"
       id="linearGradient1516"
       x1="414.31491"
       y1="546.04181"
       x2="414.31491"
       y2="501.53168"
       gradientUnits="userSpaceOnUse" />
    <radialGradient
       inkscape:collect="always"
       xlink:href="#linearGradient4691"
       id="radialGradient1651"
       cx="408.57144"
       cy="523.79071"
       fx="408.57144"
       fy="523.79071"
       r="19"
       gradientUnits="userSpaceOnUse" />
  </defs>
  <sodipodi:namedview
     id="base"
     pagecolor="#ffffff"
     bordercolor="#666666"
     borderopacity="1.0"
     inkscape:pageopacity="0"
     inkscape:pageshadow="2"
     inkscape:zoom="5.6568543"
     inkscape:cx="16.391859"
     inkscape:cy="30.277679"
     inkscape:document-units="px"
     inkscape:current-layer="layer1"
     showgrid="false"
     fit-margin-top="0"
     fit-margin-left="0"
     fit-margin-right="0"
     fit-margin-bottom="0"
     inkscape:window-width="1366"
     inkscape:window-height="714"
     inkscape:window-x="0"
     inkscape:window-y="30"
     inkscape:window-maximized="1" />
  <metadata
     id="metadata5458">
    <rdf:RDF>
      <cc:Work
         rdf:about="">
        <dc:format>image/svg+xml</dc:format>
        <dc:type
           rdf:resource="http://purl.org/dc/dcmitype/StillImage" />
        <dc:title />
      </cc:Work>
    </rdf:RDF>
  </metadata>
  <g
     inkscape:label="Capa 1"
     inkscape:groupmode="layer"
     id="layer1"
     transform="translate(-384.57143,-499.78351)">
    <rect
       style="color:#000000;fill:#333333;fill-opacity:1;fill-rule:nonzero;stroke:none;stroke-width:0.2;marker:none;visibility:visible;display:inline;overflow:visible;enable-background:accumulate"
       id="rect6294"
       width="45.5"
       height="45.5"
       x="385.82144"
       y="501.04074"
       ry="6.3565426" />
    <rect
       ry="5.8565426"
       y="501.54074"
       x="386.32144"
       height="44.5"
       width="44.5"
       id="rect6296"
       style="color:#000000;fill:url(#linearGradient1516);fill-opacity:1;fill-rule:nonzero;stroke:none;stroke-width:0.2;marker:none;visibility:visible;display:inline;overflow:visible;enable-background:accumulate" />
    <path
       id="path6361"
       d="m 386.32141,507.9783 0,-0.5625 c 0,-3.2445 2.59922,-5.875 5.84375,-5.875 l 32.8125,0 c 3.24452,0 5.84375,2.6305 5.84375,5.875 l 0,0.5625 c 0,-3.2445 -2.59923,-5.875 -5.84375,-5.875 l -32.8125,0 C 388.92063,502.1033 386.32141,504.7338 386.32141,507.9783 Z"
       style="color:#000000;fill:#ffffff;fill-opacity:1;fill-rule:nonzero;stroke:none;stroke-width:0.2;marker:none;visibility:visible;display:inline;overflow:visible;enable-background:accumulate"
       inkscape:connector-curvature="0" />
    <path
       inkscape:connector-curvature="0"
       style="color:#000000;fill:#000000;fill-opacity:1;fill-rule:nonzero;stroke:none;stroke-width:0.2;marker:none;visibility:visible;display:inline;overflow:visible;enable-background:accumulate"
       d="m 386.32141,539.6033 0,0.5625 c 0,3.2445 2.59922,5.875 5.84375,5.875 l 32.8125,0 c 3.24452,0 5.84375,-2.6305 5.84375,-5.875 l 0,-0.5625 c 0,3.2445 -2.59923,5.875 -5.84375,5.875 l -32.8125,0 C 388.92063,545.4783 386.32141,542.8478 386.32141,539.6033 Z"
       id="path6388" />
    <rect
       style="color:#000000;fill:url(#radialGradient1651);fill-opacity:1;fill-rule:nonzero;stroke:none;stroke-width:0.2;marker:none;visibility:visible;display:inline;overflow:visible;enable-background:accumulate;opacity:0.24"
       id="rect1647"
       width="38"
       height="38"
       x="389.57144"
       y="504.79074"
       ry="5.001092" />
    <g
       id="g1675">
      <path
         inkscape:connector-curvature="0"
         id="path4707"
         d="m 395.31195,510.20511 0,25.36983 0,2.71084 7.36638,0 5.89311,-6.04045 5.95205,6.04045 7.30744,0 0,-2.74031 0,-25.34036 -0.38304,0 0,24.86892 0,2.71083 -6.57082,0 -6.30563,-6.30562 -6.30562,6.30562 -6.57082,0 0,-2.71083 0,-24.86892 L 395.31195,510.20511 Z"
         style="fill:#ffffff;fill-opacity:0.11764706;stroke:none" />
      <path
         inkscape:connector-curvature="0"
         id="path4660"
         d="m 408.57143,522.33256 -6.30427,6.30427 0,9.15491 6.30427,-6.30427 6.30429,6.30427 0,-9.18231 L 408.57143,522.33256 Z"
         style="fill:#ffffff;fill-opacity:1;stroke:none" />
      <path
         inkscape:connector-curvature="0"
         id="rect4639"
         d="m 395.69705,509.72402 0,25.35225 0,2.71546 6.57236,0 0,-9.2758 0,-18.79191 L 395.69705,509.72402 z m 19.17641,0 0,18.77989 0,9.2758 0,0.0121 0.012,0 6.56033,0 0,-2.72747 0,-25.34025 L 414.87346,509.72402 Z"
         style="fill:#ffffff;fill-opacity:1;stroke:none" />
      <g
         transform="matrix(0.94289747,0,0,0.94289747,23.330468,29.989293)"
         id="g834">
        <path
           style="fill:url(#linearGradient4681);fill-opacity:1;stroke:none"
           d="m 408.57143,522.1599 -6.68607,6.68606 0,9.70934 6.68607,-6.68607 L 408.57143,522.1599 Z"
           id="rect4670"
           inkscape:connector-curvature="0" />
        <path
           style="fill:url(#linearGradient4685);fill-opacity:1;stroke:none"
           d="m 408.57143,522.1599 0,9.70933 6.68607,6.68607 0,-9.7384 L 408.57143,522.1599 Z"
           id="path4683"
           inkscape:connector-curvature="0" />
      </g>
      <path
         sodipodi:nodetypes="cccccccccc"
         inkscape:connector-curvature="0"
         id="rect4830"
         d="m 395.68878,509.25739 0,0.46662 6.57838,0 L 402.26716,509.25739 z m 19.18694,0 0,0.46662 6.57837,0 L 421.45409,509.25739 Z"
         style="fill:#000000;fill-opacity:0.05875591;stroke:none" />
      <path
         style="fill:#000000;fill-opacity:0.11764706;stroke:none"
         d="m 395.68878,508.79076 0,0.46663 6.57838,0 L 402.26716,508.79076 z m 19.18694,0 0,0.46663 6.57837,0 L 421.45409,508.79076 Z"
         id="path832"
         inkscape:connector-curvature="0"
         sodipodi:nodetypes="cccccccccc" />
      <path
         sodipodi:nodetypes="ccccccccccccccccccc"
         inkscape:connector-curvature="0"
         style="fill:#ffffff;fill-opacity:0.05882353;stroke:none"
         d="m 395.31195,510.71009 0,25.36984 0,2.71083 7.7433,0 5.51619,-5.75787 5.57487,5.75787 7.68462,0 0,-2.74029 0,-25.34038 -0.38304,0 0,24.86893 0,2.71082 -6.94799,0 -5.92846,-6.02306 -5.92871,6.02306 -6.94773,0 0,-2.71082 L 395.695,510.71009 Z"
         id="path844" />
      <path
         inkscape:connector-curvature="0"
         id="path848"
         d="m 408.57144,521.73311 -6.29883,6.29882 0,0.58594 6.29883,-6.29883 6.29883,6.26954 0,-0.58594 L 408.57144,521.73311 Z"
         style="fill:#000000;fill-opacity:0.05882353;stroke:none" />
      <path
         style="fill:#000000;fill-opacity:0.11764706;stroke:none"
         d="m 408.57144,521.1435 -6.29883,6.29883 0,0.58594 6.29883,-6.29883 6.29883,6.26953 0,-0.58593 L 408.57144,521.1435 Z"
         id="path865"
         inkscape:connector-curvature="0" />
    </g>
  </g>
</svg>
