<?xml version="1.0" encoding="UTF-8" standalone="no"?>
<!-- Created with Inkscape (http://www.inkscape.org/) -->

<svg
   xmlns:dc="http://purl.org/dc/elements/1.1/"
   xmlns:cc="http://creativecommons.org/ns#"
   xmlns:rdf="http://www.w3.org/1999/02/22-rdf-syntax-ns#"
   xmlns:svg="http://www.w3.org/2000/svg"
   xmlns="http://www.w3.org/2000/svg"
   xmlns:xlink="http://www.w3.org/1999/xlink"
   xmlns:sodipodi="http://sodipodi.sourceforge.net/DTD/sodipodi-0.dtd"
   xmlns:inkscape="http://www.inkscape.org/namespaces/inkscape"
   width="48.000011"
   height="48.014492"
   id="svg5453"
   version="1.1"
   inkscape:version="0.48+devel r12338"
   sodipodi:docname="wps-office-etmain.svg">
  <defs
     id="defs5455">
    <style
       type="text/css"
       id="style1115"><![CDATA[ .fil0 {fill:#1F1A17} ]]></style>
    <style
       type="text/css"
       id="style1246"><![CDATA[ .fil0 {fill:#1F1A17} ]]></style>
    <radialGradient
       gradientTransform="translate(-3.0559268e-5,4.2950537e-5)"
       inkscape:collect="always"
       xlink:href="#linearGradient4691"
       id="radialGradient1651"
       cx="408.57144"
       cy="523.79071"
       fx="408.57144"
       fy="523.79071"
       r="19"
       gradientUnits="userSpaceOnUse" />
    <linearGradient
       inkscape:collect="always"
       id="linearGradient4691">
      <stop
         style="stop-color:#ffffff;stop-opacity:1;"
         offset="0"
         id="stop4693" />
      <stop
         style="stop-color:#ffffff;stop-opacity:0;"
         offset="1"
         id="stop4695" />
    </linearGradient>
    <linearGradient
       gradientTransform="translate(-3.0559268e-5,4.2950537e-5)"
       inkscape:collect="always"
       xlink:href="#linearGradient947"
       id="linearGradient1516"
       x1="414.31491"
       y1="546.04181"
       x2="414.31491"
       y2="501.53168"
       gradientUnits="userSpaceOnUse" />
    <linearGradient
       inkscape:collect="always"
       id="linearGradient947">
      <stop
         style="stop-color:#3a931d;stop-opacity:1"
         offset="0"
         id="stop949" />
      <stop
         style="stop-color:#57ae30;stop-opacity:1"
         offset="1"
         id="stop951" />
    </linearGradient>
    <linearGradient
       gradientTransform="translate(381.38819,500.82591)"
       y2="25.54936"
       x2="25.544233"
       y1="25.54936"
       x1="18.031223"
       gradientUnits="userSpaceOnUse"
       id="linearGradient1180"
       xlink:href="#linearGradient1006"
       inkscape:collect="always" />
    <linearGradient
       id="linearGradient1006"
       inkscape:collect="always">
      <stop
         id="stop1008"
         offset="0"
         style="stop-color:#afcca1;stop-opacity:1" />
      <stop
         id="stop1010"
         offset="1"
         style="stop-color:#ffffff;stop-opacity:0" />
    </linearGradient>
    <linearGradient
       inkscape:collect="always"
       xlink:href="#linearGradient1006"
       id="linearGradient990"
       gradientUnits="userSpaceOnUse"
       x1="18.031223"
       y1="25.54936"
       x2="20.329319"
       y2="25.54936"
       gradientTransform="matrix(-1,0,0,1,430.88819,500.82591)" />
  </defs>
  <sodipodi:namedview
     id="base"
     pagecolor="#ffffff"
     bordercolor="#666666"
     borderopacity="1.0"
     inkscape:pageopacity="0"
     inkscape:pageshadow="2"
     inkscape:zoom="4.1603621"
     inkscape:cx="7.1622801"
     inkscape:cy="27.525668"
     inkscape:document-units="px"
     inkscape:current-layer="layer1"
     showgrid="false"
     fit-margin-top="0"
     fit-margin-left="0"
     fit-margin-right="0"
     fit-margin-bottom="0"
     inkscape:window-width="1366"
     inkscape:window-height="714"
     inkscape:window-x="0"
     inkscape:window-y="30"
     inkscape:window-maximized="1" />
  <metadata
     id="metadata5458">
    <rdf:RDF>
      <cc:Work
         rdf:about="">
        <dc:format>image/svg+xml</dc:format>
        <dc:type
           rdf:resource="http://purl.org/dc/dcmitype/StillImage" />
        <dc:title />
      </cc:Work>
    </rdf:RDF>
  </metadata>
  <g
     inkscape:label="Capa 1"
     inkscape:groupmode="layer"
     id="layer1"
     transform="translate(-384.57143,-499.78351)">
    <g
       style="fill:#000000"
       id="g1249"
       transform="matrix(0.01610301,0,0,0.01610301,429.35146,508.60327)" />
    <rect
       style="color:#000000;fill:#333333;fill-opacity:1;fill-rule:nonzero;stroke:none;stroke-width:0.2;marker:none;visibility:visible;display:inline;overflow:visible;enable-background:accumulate"
       id="rect6294"
       width="45.5"
       height="45.5"
       x="385.82144"
       y="501.04074"
       ry="6.3565426" />
    <rect
       ry="5.8565426"
       y="501.54074"
       x="386.32144"
       height="44.5"
       width="44.5"
       id="rect6296"
       style="color:#000000;fill:url(#linearGradient1516);fill-opacity:1.0;fill-rule:nonzero;stroke:none;stroke-width:0.2;marker:none;visibility:visible;display:inline;overflow:visible;enable-background:accumulate" />
    <path
       id="path6361"
       d="m 386.32137,507.97835 0,-0.5625 c 0,-3.2445 2.59922,-5.875 5.84375,-5.875 l 32.8125,0 c 3.24452,0 5.84375,2.6305 5.84375,5.875 l 0,0.5625 c 0,-3.2445 -2.59923,-5.875 -5.84375,-5.875 l -32.8125,0 C 388.92059,502.10335 386.32137,504.73385 386.32137,507.97835 Z"
       style="color:#000000;fill:#ffffff;fill-opacity:1;fill-rule:nonzero;stroke:none;stroke-width:0.2;marker:none;visibility:visible;display:inline;overflow:visible;enable-background:accumulate"
       inkscape:connector-curvature="0" />
    <path
       inkscape:connector-curvature="0"
       style="color:#000000;fill:#000000;fill-opacity:1;fill-rule:nonzero;stroke:none;stroke-width:0.2;marker:none;visibility:visible;display:inline;overflow:visible;enable-background:accumulate"
       d="m 386.32137,539.60335 0,0.5625 c 0,3.2445 2.59922,5.875 5.84375,5.875 l 32.8125,0 c 3.24452,0 5.84375,-2.6305 5.84375,-5.875 l 0,-0.5625 c 0,3.2445 -2.59923,5.875 -5.84375,5.875 l -32.8125,0 C 388.92059,545.47835 386.32137,542.84785 386.32137,539.60335 Z"
       id="path6388" />
    <rect
       style="opacity:0.23999999;color:#000000;fill:url(#radialGradient1651);fill-opacity:1;fill-rule:nonzero;stroke:none;stroke-width:0.2;marker:none;visibility:visible;display:inline;overflow:visible;enable-background:accumulate"
       id="rect1647"
       width="38"
       height="38"
       x="389.57144"
       y="504.79074"
       ry="5.001092" />
    <g
       id="g1011"
       transform="matrix(0.9375,0,0,0.9375,79.585079,32.378362)">
      <path
         id="path973"
         d="m 344.20344,520.61011 0,7 13.4375,0 0,-7 -13.03125,0 L 344.20344,520.61011 Z"
         style="fill:#ffffff;fill-opacity:1;stroke:none"
         inkscape:connector-curvature="0" />
      <path
         inkscape:connector-curvature="0"
         id="path1006"
         d="m 337.19978,508.17322 0,0.498 27.438,0 0,-0.498 -1.18111,0 L 337.19978,508.17322 Z"
         style="fill:#000000;fill-opacity:0.11764706;stroke:none" />
      <path
         style="fill:#000000;fill-opacity:0.05882353;stroke:none"
         d="m 337.19978,508.67069 0,0.498 27.438,0 0,-0.498 -1.18111,0 L 337.19978,508.67069 Z"
         id="path1125"
         inkscape:connector-curvature="0" />
      <path
         inkscape:connector-curvature="0"
         id="path1051"
         d="m 337.20002,509.17169 0,7.00035 0,11.43807 7,0 0,-11.43807 13.4375,0 7,0 0,-7.00035 -7,0 -10.53125,0 -2.90625,0 L 337.20002,509.17169 Z"
         style="fill:#ffffff;fill-opacity:1;stroke:none" />
      <path
         inkscape:connector-curvature="0"
         id="rect4639"
         d="m 357.63752,520.67227 0,8.53167 0,2.9064 -10.53125,0 -9.90625,0 0,7.00035 2.90625,0 17.53125,0 0.0312,0 6.96875,0 0,-2.9064 0,-15.53202 L 357.63752,520.67227 Z"
         style="fill:#ffffff;fill-opacity:1;stroke:none" />
      <g
         transform="translate(-55.215995,-1.5907951)"
         id="g1012">
        <path
           inkscape:connector-curvature="0"
           id="path978"
           d="m 399.41944,522.20091 0,7 13.4375,0 0,-7 -13.03125,0 L 399.41944,522.20091 Z"
           style="fill:url(#linearGradient1180);fill-opacity:1;stroke:none" />
        <path
           style="opacity:0.6;fill:url(#linearGradient990);fill-opacity:1;stroke:none"
           d="m 412.85694,522.20091 0,7 -9.4375,0 0,-7 L 412.45069,522.20091 Z"
           id="path988"
           inkscape:connector-curvature="0"
           sodipodi:nodetypes="cccccc" />
      </g>
      <path
         style="fill:#ffffff;fill-opacity:0.11764706;stroke:none"
         d="m 337.19978,539.13657 0,0.498 27.438,0 0,-0.498 -1.18111,0 L 337.19978,539.13657 Z"
         id="path1067"
         inkscape:connector-curvature="0" />
      <path
         inkscape:connector-curvature="0"
         id="path1069"
         d="m 337.19978,539.67522 0,0.498 27.438,0 0,-0.498 -1.18111,0 L 337.19978,539.67522 Z"
         style="fill:#ffffff;fill-opacity:0.05882353;stroke:none" />
      <g
         transform="translate(-57.652915,0.37520485)"
         id="g1083">
        <path
           inkscape:connector-curvature="0"
           id="path1075"
           d="m 401.85244,516.79738 0,-0.498 20.438,0 0,0.498 L 421.10933,516.79738 Z"
           style="fill:#ffffff;fill-opacity:0.05882353;stroke:none"
           sodipodi:nodetypes="cccccc" />
        <path
           style="fill:#ffffff;fill-opacity:0.11764706;stroke:none"
           d="m 401.85244,516.29991 0,-0.498 20.438,0 0,0.498 L 421.10933,516.29991 Z"
           id="path1077"
           inkscape:connector-curvature="0"
           sodipodi:nodetypes="cccccc" />
      </g>
      <g
         id="g1087"
         transform="matrix(-1,0,0,1,759.49046,11.808205)">
        <path
           sodipodi:nodetypes="cccccc"
           style="fill:#ffffff;fill-opacity:0.05882353;stroke:none"
           d="m 401.85244,516.79738 0,-0.498 20.438,0 0,0.498 L 421.10933,516.79738 Z"
           id="path1089"
           inkscape:connector-curvature="0" />
        <path
           sodipodi:nodetypes="cccccc"
           inkscape:connector-curvature="0"
           id="path1091"
           d="m 401.85244,516.29991 0,-0.498 20.438,0 0,0.498 L 421.10933,516.29991 Z"
           style="fill:#ffffff;fill-opacity:0.11764706;stroke:none" />
      </g>
    </g>
  </g>
</svg>
