<?xml version="1.0" encoding="UTF-8" standalone="no"?>
<!-- Created with Inkscape (http://www.inkscape.org/) -->

<svg
   xmlns:dc="http://purl.org/dc/elements/1.1/"
   xmlns:cc="http://creativecommons.org/ns#"
   xmlns:rdf="http://www.w3.org/1999/02/22-rdf-syntax-ns#"
   xmlns:svg="http://www.w3.org/2000/svg"
   xmlns="http://www.w3.org/2000/svg"
   xmlns:sodipodi="http://sodipodi.sourceforge.net/DTD/sodipodi-0.dtd"
   xmlns:inkscape="http://www.inkscape.org/namespaces/inkscape"
   version="1.1"
   width="16"
   height="16"
   id="svg7384"
   inkscape:version="0.48+devel r12240"
   sodipodi:docname="media-eq-symbolic.svg">
  <sodipodi:namedview
     pagecolor="#ffffff"
     bordercolor="#666666"
     borderopacity="1"
     objecttolerance="10"
     gridtolerance="10"
     guidetolerance="10"
     inkscape:pageopacity="0"
     inkscape:pageshadow="2"
     inkscape:window-width="1366"
     inkscape:window-height="716"
     id="namedview7"
     showgrid="false"
     inkscape:zoom="20.85965"
     inkscape:cx="11.642559"
     inkscape:cy="11.929658"
     inkscape:window-x="0"
     inkscape:window-y="28"
     inkscape:window-maximized="1"
     inkscape:current-layer="svg7384" />
  <title
     id="title9167">Gnome Symbolic Icon Theme</title>
  <defs
     id="defs11" />
  <metadata
     id="metadata90">
    <rdf:RDF>
      <cc:Work
         rdf:about="">
        <dc:format>image/svg+xml</dc:format>
        <dc:type
           rdf:resource="http://purl.org/dc/dcmitype/StillImage" />
        <dc:title>Gnome Symbolic Icon Theme</dc:title>
      </cc:Work>
    </rdf:RDF>
  </metadata>
  <path
     style="color:#000000;color-interpolation:sRGB;color-interpolation-filters:linearRGB;fill:#bebebe;fill-opacity:1;fill-rule:nonzero;stroke:none;stroke-width:1;marker:none;visibility:visible;display:inline;overflow:visible;enable-background:accumulate;clip-rule:nonzero"
     d="M 3.65625 2 L 3.65625 4 L 4.34375 4 L 4.34375 2 L 3.65625 2 z M 7.65625 2 L 7.65625 7 L 8.34375 7 L 8.34375 2 L 7.65625 2 z M 11.65625 2 L 11.65625 4 L 12.34375 4 L 12.34375 2 L 11.65625 2 z M 1.8125 5.40625 L 1.8125 7.59375 L 6.1875 7.59375 L 6.1875 5.40625 L 1.8125 5.40625 z M 9.8125 5.40625 L 9.8125 7.59375 L 14.1875 7.59375 L 14.1875 5.40625 L 9.8125 5.40625 z M 5.8125 8.40625 L 5.8125 10.59375 L 10.1875 10.59375 L 10.1875 8.40625 L 5.8125 8.40625 z M 3.65625 9 L 3.65625 14 L 4.34375 14 L 4.34375 9 L 3.65625 9 z M 11.65625 9 L 11.65625 14 L 12.34375 14 L 12.34375 9 L 11.65625 9 z M 7.65625 12 L 7.65625 14 L 8.34375 14 L 8.34375 12 L 7.65625 12 z "
     id="rect854" />
</svg>
