<?xml version="1.0" encoding="UTF-8" standalone="no"?>
<!-- Created with Inkscape (http://www.inkscape.org/) -->

<svg
   xmlns:dc="http://purl.org/dc/elements/1.1/"
   xmlns:cc="http://creativecommons.org/ns#"
   xmlns:rdf="http://www.w3.org/1999/02/22-rdf-syntax-ns#"
   xmlns:svg="http://www.w3.org/2000/svg"
   xmlns="http://www.w3.org/2000/svg"
   xmlns:xlink="http://www.w3.org/1999/xlink"
   xmlns:sodipodi="http://sodipodi.sourceforge.net/DTD/sodipodi-0.dtd"
   xmlns:inkscape="http://www.inkscape.org/namespaces/inkscape"
   width="48"
   height="48"
   id="svg2"
   version="1.1"
   inkscape:version="0.48+devel r12312"
   sodipodi:docname="libreoffice-main.svg">
  <defs
     id="defs4">
    <linearGradient
       id="linearGradient826"
       inkscape:collect="always">
      <stop
         id="stop828"
         offset="0"
         style="stop-color:#f2f2f2;stop-opacity:1" />
      <stop
         id="stop830"
         offset="1"
         style="stop-color:#ffffff;stop-opacity:1" />
    </linearGradient>
    <linearGradient
       inkscape:collect="always"
       xlink:href="#linearGradient826"
       id="linearGradient881"
       x1="24.569908"
       y1="1050.6205"
       x2="24.569908"
       y2="1006.0574"
       gradientUnits="userSpaceOnUse" />
  </defs>
  <sodipodi:namedview
     id="base"
     pagecolor="#ffffff"
     bordercolor="#666666"
     borderopacity="1.0"
     inkscape:pageopacity="0.0"
     inkscape:pageshadow="2"
     inkscape:zoom="4.7619225"
     inkscape:cx="10.389901"
     inkscape:cy="31.339211"
     inkscape:document-units="px"
     inkscape:current-layer="layer1"
     showgrid="false"
     inkscape:window-width="1366"
     inkscape:window-height="714"
     inkscape:window-x="0"
     inkscape:window-y="30"
     inkscape:window-maximized="1">
    <inkscape:grid
       type="xygrid"
       id="grid3850" />
  </sodipodi:namedview>
  <metadata
     id="metadata7">
    <rdf:RDF>
      <cc:Work
         rdf:about="">
        <dc:format>image/svg+xml</dc:format>
        <dc:type
           rdf:resource="http://purl.org/dc/dcmitype/StillImage" />
        <dc:title />
      </cc:Work>
    </rdf:RDF>
  </metadata>
  <g
     inkscape:label="Capa 1"
     inkscape:groupmode="layer"
     id="layer1"
     transform="translate(0,-1004.3622)">
    <rect
       style="color:#000000;fill:#333333;fill-opacity:1;fill-rule:nonzero;stroke:none;stroke-width:0.2;marker:none;visibility:visible;display:inline;overflow:visible;enable-background:accumulate"
       id="rect6294"
       width="45.5"
       height="45.5"
       x="1.25"
       y="1005.6122"
       ry="6.3565426" />
    <rect
       ry="5.8565426"
       y="1006.1122"
       x="1.75"
       height="44.5"
       width="44.5"
       id="rect6296"
       style="color:#000000;fill:url(#linearGradient881);fill-opacity:1;fill-rule:nonzero;stroke:none;stroke-width:0.2;marker:none;visibility:visible;display:inline;overflow:visible;enable-background:accumulate" />
    <path
       id="path6361"
       d="m 1.7499995,1012.5497 0,-0.5625 c 0,-3.2445 2.599225,-5.875 5.84375,-5.875 l 32.8124995,0 c 3.244525,0 5.84375,2.6305 5.84375,5.875 l 0,0.5625 c 0,-3.2445 -2.599225,-5.875 -5.84375,-5.875 l -32.8124995,0 C 4.3492245,1006.6747 1.7499995,1009.3052 1.7499995,1012.5497 Z"
       style="color:#000000;fill:#ffffff;fill-opacity:1;fill-rule:nonzero;stroke:none;stroke-width:0.2;marker:none;visibility:visible;display:inline;overflow:visible;enable-background:accumulate"
       inkscape:connector-curvature="0" />
    <path
       inkscape:connector-curvature="0"
       style="color:#000000;fill:#000000;fill-opacity:1;fill-rule:nonzero;stroke:none;stroke-width:0.2;marker:none;visibility:visible;display:inline;overflow:visible;enable-background:accumulate"
       d="m 1.7499995,1044.1747 0,0.5625 c 0,3.2445 2.599225,5.875 5.84375,5.875 l 32.8124995,0 c 3.244525,0 5.84375,-2.6305 5.84375,-5.875 l 0,-0.5625 c 0,3.2445 -2.599225,5.875 -5.84375,5.875 l -32.8124995,0 C 4.3492245,1050.0497 1.7499995,1047.4192 1.7499995,1044.1747 Z"
       id="path6388" />
    <path
       sodipodi:nodetypes="ccccccccccc"
       inkscape:connector-curvature="0"
       id="path1324-9"
       d="m 13.4539,1013.3622 0,27.7398 21.0922,0 -1.1e-5,-20.7506 -6.982568,0 L 27.563514,1013.3622 z m 16.001451,0 5.090748,5.0974 L 34.546077,1013.3622 Z"
       style="color:#000000;fill:#000000;fill-opacity:1;fill-rule:nonzero;stroke:none;stroke-width:1.39999998;marker:none;visibility:visible;display:inline;overflow:visible;enable-background:accumulate" />
    <path
       style="color:#000000;fill:#000000;fill-opacity:0.54970757;fill-rule:nonzero;stroke:none;stroke-width:1.39999998;marker:none;visibility:visible;display:inline;overflow:visible;enable-background:accumulate"
       d="m 29.445008,1014.1093 5.092842,5.0929 0,-0.7587 -4.334334,-4.3342 L 29.445008,1014.1093 z m -15.982853,26.9812 0,0.7585 21.075695,0 0,-0.7585 L 13.462155,1041.0905 Z"
       id="path834"
       inkscape:connector-curvature="0" />
    <path
       style="color:#000000;fill:#000000;fill-opacity:1;fill-rule:nonzero;stroke:none;stroke-width:1.39999998;marker:none;visibility:visible;display:inline;overflow:visible;enable-background:accumulate"
       d="m 13.4539,1013.3622 0,27.7398 21.0922,0 -1.1e-5,-20.7506 -6.982568,0 L 27.563514,1013.3622 z m 16.001451,0 5.090748,5.0974 L 34.546077,1013.3622 Z"
       id="path839"
       inkscape:connector-curvature="0"
       sodipodi:nodetypes="ccccccccccc" />
    <path
       inkscape:connector-curvature="0"
       style="color:#000000;fill:#ffffff;fill-opacity:0.27485381;fill-rule:nonzero;stroke:none;stroke-width:1.39999998;marker:none;visibility:visible;display:inline;overflow:visible;enable-background:accumulate"
       d="m 13.462155,1013.3622 0,0.4876 14.113673,0 0,-0.4876 L 13.462155,1013.3622 z m 15.982853,0 0.487613,0.4876 4.605229,0 0,-0.4876 L 29.445008,1013.3622 z m -1.86918,6.9892 0,0.4875 6.962022,0 0,-0.4875 L 27.575827,1020.3514 Z"
       id="path841" />
    <path
       id="path846"
       d="m 13.462155,1013.8498 0,0.4877 14.113673,0 0,-0.4877 L 13.462155,1013.8498 z m 15.982853,0 0.487613,0.4877 4.605229,0 0,-0.4877 L 29.445008,1013.8498 z m -1.86918,6.9891 0,0.4875 6.962022,0 0,-0.4875 L 27.575827,1020.8389 Z"
       style="color:#000000;fill:#ffffff;fill-opacity:0.1384245;fill-rule:nonzero;stroke:none;stroke-width:1.39999998;marker:none;visibility:visible;display:inline;overflow:visible;enable-background:accumulate"
       inkscape:connector-curvature="0" />
    <path
       inkscape:connector-curvature="0"
       style="color:#000000;fill:#ffffff;fill-opacity:0.06666667;fill-rule:nonzero;stroke:none;stroke-width:1.39999998;marker:none;visibility:visible;display:inline;overflow:visible;enable-background:accumulate"
       d="m 13.462155,1014.341 0,0.4874 14.113673,0 0,-0.4874 L 13.462155,1014.341 z m 15.982853,0 0.487613,0.4874 4.605229,0 0,-0.4874 L 29.445008,1014.341 z m -1.86918,6.989 0,0.4876 6.962022,0 0,-0.4876 L 27.575827,1021.33 Z"
       id="path848" />
    <path
       inkscape:connector-curvature="0"
       id="path850"
       d="m 29.445008,1014.8659 5.092842,5.0927 0,-0.7584 -4.334334,-4.3343 L 29.445008,1014.8659 z m -15.982853,26.9812 0,0.7584 21.075695,0 0,-0.7584 L 13.462155,1041.8471 Z"
       style="color:#000000;fill:#000000;fill-opacity:0.27272105;fill-rule:nonzero;stroke:none;stroke-width:1.39999998;marker:none;visibility:visible;display:inline;overflow:visible;enable-background:accumulate" />
    <path
       style="color:#000000;fill:#000000;fill-opacity:0.1372549;fill-rule:nonzero;stroke:none;stroke-width:1.39999998;marker:none;visibility:visible;display:inline;overflow:visible;enable-background:accumulate"
       d="m 29.445008,1015.6224 5.092842,5.0929 0,-0.7584 -4.334334,-4.3345 L 29.445008,1015.6224 z m -15.982853,26.9814 0,0.7584 21.075695,0 0,-0.7584 L 13.462155,1042.6038 Z"
       id="path852"
       inkscape:connector-curvature="0" />
  </g>
</svg>
