<?xml version="1.0" encoding="UTF-8" standalone="no"?>
<!-- Created with Inkscape (http://www.inkscape.org/) -->

<svg
   xmlns:dc="http://purl.org/dc/elements/1.1/"
   xmlns:cc="http://creativecommons.org/ns#"
   xmlns:rdf="http://www.w3.org/1999/02/22-rdf-syntax-ns#"
   xmlns:svg="http://www.w3.org/2000/svg"
   xmlns="http://www.w3.org/2000/svg"
   xmlns:xlink="http://www.w3.org/1999/xlink"
   xmlns:sodipodi="http://sodipodi.sourceforge.net/DTD/sodipodi-0.dtd"
   xmlns:inkscape="http://www.inkscape.org/namespaces/inkscape"
   width="48"
   height="48"
   id="svg2"
   version="1.1"
   inkscape:version="0.48+devel r12310"
   sodipodi:docname="applications-multimedia.svg">
  <defs
     id="defs4">
    <linearGradient
       x1="45.447727"
       y1="92.539597"
       x2="45.447727"
       y2="7.0165396"
       id="ButtonShadow"
       gradientUnits="userSpaceOnUse"
       gradientTransform="scale(1.0058652,0.994169)">
      <stop
         id="stop3750"
         style="stop-color:#000000;stop-opacity:1"
         offset="0" />
      <stop
         id="stop3752-8"
         style="stop-color:#000000;stop-opacity:0.58823532"
         offset="1" />
    </linearGradient>
    <filter
       color-interpolation-filters="sRGB"
       id="filter3174">
      <feGaussianBlur
         id="feGaussianBlur3176"
         stdDeviation="1.71" />
    </filter>
    <linearGradient
       id="linearGradient3737-6">
      <stop
         id="stop3739-73"
         style="stop-color:#ffffff;stop-opacity:1"
         offset="0" />
      <stop
         id="stop3741-6"
         style="stop-color:#ffffff;stop-opacity:0"
         offset="1" />
    </linearGradient>
    <clipPath
       id="clipPath3613">
      <rect
         width="84"
         height="84"
         rx="6"
         ry="6"
         x="6"
         y="6"
         id="rect3615"
         style="fill:#ffffff;fill-opacity:1;fill-rule:nonzero;stroke:none" />
    </clipPath>
    <filter
       x="-0.192"
       y="-0.192"
       width="1.3839999"
       height="1.3839999"
       color-interpolation-filters="sRGB"
       id="filter3794">
      <feGaussianBlur
         id="feGaussianBlur3796"
         stdDeviation="5.28" />
    </filter>
    <linearGradient
       x1="48"
       y1="20.220806"
       x2="48"
       y2="138.66119"
       id="linearGradient2885"
       xlink:href="#linearGradient3737-6"
       gradientUnits="userSpaceOnUse" />
    <linearGradient
       id="linearGradient1422"
       inkscape:collect="always">
      <stop
         id="stop1424"
         offset="0"
         style="stop-color:#787878;stop-opacity:1" />
      <stop
         id="stop1426"
         offset="1"
         style="stop-color:#ffffff;stop-opacity:1" />
    </linearGradient>
    <linearGradient
       id="linearGradient1475"
       inkscape:collect="always">
      <stop
         id="stop1477"
         offset="0"
         style="stop-color:#000000;stop-opacity:1;" />
      <stop
         id="stop1479"
         offset="1"
         style="stop-color:#000000;stop-opacity:0;" />
    </linearGradient>
    <linearGradient
       gradientUnits="userSpaceOnUse"
       y2="1006.2516"
       x2="26.387518"
       y1="1050.9465"
       x1="26.387518"
       id="linearGradient1628"
       xlink:href="#linearGradient1422"
       inkscape:collect="always"
       gradientTransform="translate(0,1.7382813e-5)" />
    <linearGradient
       gradientTransform="matrix(0.91011236,0,0,0.91011236,2.1573034,-911.92515)"
       y2="1006.462"
       x2="26.387518"
       y1="1050.9465"
       x1="26.387518"
       gradientUnits="userSpaceOnUse"
       id="linearGradient1632"
       xlink:href="#linearGradient1375-6"
       inkscape:collect="always" />
    <linearGradient
       gradientUnits="userSpaceOnUse"
       y2="6.8585048"
       x2="25.979946"
       y1="3.778815"
       x1="25.979946"
       id="linearGradient1655"
       xlink:href="#linearGradient1475"
       inkscape:collect="always"
       gradientTransform="translate(0,1004.3622)" />
    <linearGradient
       gradientTransform="matrix(1,0,0,-1,0,1052.3622)"
       y2="6.8585048"
       x2="25.979946"
       y1="3.778815"
       x1="25.979946"
       gradientUnits="userSpaceOnUse"
       id="linearGradient1659"
       xlink:href="#linearGradient1475"
       inkscape:collect="always" />
    <linearGradient
       gradientUnits="userSpaceOnUse"
       y2="34.125"
       x2="4.625"
       y1="34.125"
       x1="3.75"
       id="linearGradient1674"
       xlink:href="#linearGradient1475"
       inkscape:collect="always"
       gradientTransform="translate(0,1004.3622)" />
    <linearGradient
       gradientTransform="matrix(-1,0,0,1,48,1004.3622)"
       y2="34.125"
       x2="4.625"
       y1="34.125"
       x1="3.75"
       gradientUnits="userSpaceOnUse"
       id="linearGradient1678"
       xlink:href="#linearGradient1475"
       inkscape:collect="always" />
    <linearGradient
       gradientTransform="matrix(1,0,0,-1,0,1052.3622)"
       y2="34.125"
       x2="4.625"
       y1="34.125"
       x1="3.75"
       gradientUnits="userSpaceOnUse"
       id="linearGradient1684"
       xlink:href="#linearGradient1475"
       inkscape:collect="always" />
    <linearGradient
       y2="34.125"
       x2="4.625"
       y1="34.125"
       x1="3.75"
       gradientTransform="matrix(-1,0,0,-1,48,1052.3622)"
       gradientUnits="userSpaceOnUse"
       id="linearGradient1686"
       xlink:href="#linearGradient1475"
       inkscape:collect="always" />
    <linearGradient
       id="linearGradient1375-6">
      <stop
         offset="0"
         style="stop-color:#1a1a1a;stop-opacity:1"
         id="stop1377-4" />
      <stop
         offset="1"
         style="stop-color:#666666;stop-opacity:1"
         id="stop1379-8" />
    </linearGradient>
    <radialGradient
       inkscape:collect="always"
       xlink:href="#linearGradient1323"
       id="radialGradient1333"
       gradientUnits="userSpaceOnUse"
       cx="17.103146"
       cy="23.914173"
       fx="17.103146"
       fy="23.914173"
       r="8.087534" />
    <linearGradient
       id="linearGradient1323"
       inkscape:collect="always">
      <stop
         id="stop1325"
         offset="0"
         style="stop-color:#147ce2;stop-opacity:1" />
      <stop
         id="stop1327"
         offset="1"
         style="stop-color:#1faff6;stop-opacity:0" />
    </linearGradient>
    <radialGradient
       inkscape:collect="always"
       xlink:href="#linearGradient1323"
       id="radialGradient1337"
       gradientUnits="userSpaceOnUse"
       cx="17.103146"
       cy="23.914173"
       fx="17.103146"
       fy="23.914173"
       r="8.087534" />
    <radialGradient
       inkscape:collect="always"
       xlink:href="#linearGradient1323"
       id="radialGradient1321"
       cx="17.103146"
       cy="23.914173"
       fx="17.103146"
       fy="23.914173"
       r="8.087534"
       gradientUnits="userSpaceOnUse" />
  </defs>
  <sodipodi:namedview
     id="base"
     pagecolor="#ffffff"
     bordercolor="#666666"
     borderopacity="1.0"
     inkscape:pageopacity="0.0"
     inkscape:pageshadow="2"
     inkscape:zoom="9.1815094"
     inkscape:cx="8.9904326"
     inkscape:cy="26.964305"
     inkscape:document-units="px"
     inkscape:current-layer="layer1"
     showgrid="false"
     inkscape:window-width="1366"
     inkscape:window-height="714"
     inkscape:window-x="0"
     inkscape:window-y="30"
     inkscape:window-maximized="1">
    <inkscape:grid
       type="xygrid"
       id="grid3850" />
  </sodipodi:namedview>
  <metadata
     id="metadata7">
    <rdf:RDF>
      <cc:Work
         rdf:about="">
        <dc:format>image/svg+xml</dc:format>
        <dc:type
           rdf:resource="http://purl.org/dc/dcmitype/StillImage" />
        <dc:title />
      </cc:Work>
    </rdf:RDF>
  </metadata>
  <g
     inkscape:label="Capa 1"
     inkscape:groupmode="layer"
     id="layer1"
     transform="translate(0,-1004.3622)">
    <g
       id="layer2"
       style="display:none"
       transform="translate(-212.24658,980.11509)">
      <rect
         width="86"
         height="85"
         rx="6"
         ry="6"
         x="5"
         y="7"
         id="rect3745"
         style="opacity:0.9;fill:url(#ButtonShadow);fill-opacity:1;fill-rule:nonzero;stroke:none;filter:url(#filter3174)" />
    </g>
    <g
       id="layer4"
       style="display:none"
       transform="translate(-212.24658,980.11509)">
      <rect
         width="66"
         height="66"
         rx="12"
         ry="12"
         x="15"
         y="15"
         clip-path="url(#clipPath3613)"
         id="rect3171"
         style="opacity:0.15;fill:url(#linearGradient2885);fill-opacity:1;fill-rule:nonzero;stroke:#ffffff;stroke-width:0.5;stroke-linecap:round;stroke-linejoin:miter;stroke-miterlimit:4;stroke-opacity:1;stroke-dasharray:none;stroke-dashoffset:0;filter:url(#filter3794)" />
    </g>
    <rect
       style="color:#000000;fill:#333333;fill-opacity:1;fill-rule:nonzero;stroke:none;stroke-width:0.2;marker:none;visibility:visible;display:inline;overflow:visible;enable-background:accumulate"
       id="rect6294"
       width="45.5"
       height="45.5"
       x="1.25"
       y="1005.6122"
       ry="6.3565426" />
    <rect
       ry="5.8565426"
       y="1006.1122"
       x="1.75"
       height="44.5"
       width="44.5"
       id="rect6296"
       style="color:#000000;fill:url(#linearGradient1628);fill-opacity:1;fill-rule:nonzero;stroke:none;stroke-width:0.2;marker:none;visibility:visible;display:inline;overflow:visible;enable-background:accumulate" />
    <path
       inkscape:connector-curvature="0"
       style="color:#000000;fill:#ffffff;fill-opacity:0.23529412;fill-rule:nonzero;stroke:none;stroke-width:0.2;marker:none;visibility:visible;display:inline;overflow:visible;enable-background:accumulate"
       d="m 9.09375,1049.2594 c -2.9528818,0 -5.34375,-2.3909 -5.34375,-5.3437 l 0,-0.9063 c 0,2.9529 2.3908682,5.3438 5.34375,5.3438 l 29.8125,0 c 2.952882,0 5.34375,-2.3909 5.34375,-5.3438 l 0,0.9063 c 0,2.9528 -2.390868,5.3437 -5.34375,5.3437 L 9.09375,1049.2594 Z"
       id="path1661" />
    <path
       id="path6361"
       d="m 1.750003,1012.5497 0,-0.5625 c 0,-3.2445 2.599225,-5.875 5.84375,-5.875 l 32.8125,0 c 3.244525,0 5.84375,2.6305 5.84375,5.875 l 0,0.5625 c 0,-3.2445 -2.599225,-5.875 -5.84375,-5.875 l -32.8125,0 C 4.349228,1006.6747 1.750003,1009.3052 1.750003,1012.5497 Z"
       style="color:#000000;fill:#ffffff;fill-opacity:1;fill-rule:nonzero;stroke:none;stroke-width:0.2;marker:none;visibility:visible;display:inline;overflow:visible;enable-background:accumulate"
       inkscape:connector-curvature="0" />
    <path
       inkscape:connector-curvature="0"
       style="color:#000000;fill:#000000;fill-opacity:1;fill-rule:nonzero;stroke:none;stroke-width:0.2;marker:none;visibility:visible;display:inline;overflow:visible;enable-background:accumulate"
       d="m 1.750003,1044.1747 0,0.5625 c 0,3.2445 2.599225,5.875 5.84375,5.875 l 32.8125,0 c 3.244525,0 5.84375,-2.6305 5.84375,-5.875 l 0,-0.5625 c 0,3.2445 -2.599225,5.875 -5.84375,5.875 l -32.8125,0 C 4.349228,1050.0497 1.750003,1047.4192 1.750003,1044.1747 Z"
       id="path6388" />
    <path
       style="color:#000000;fill:url(#linearGradient1632);fill-opacity:1.0;fill-rule:nonzero;stroke:none;stroke-width:0.2;marker:none;visibility:visible;display:inline;overflow:visible;enable-background:accumulate"
       d="M 9.09375 3.75 C 6.1408682 3.75 3.75 6.14085 3.75 9.09375 L 3.75 24 L 3.75 38.90625 C 3.75 41.85905 6.1408682 44.25 9.09375 44.25 L 38.90625 44.25 C 41.859132 44.25 44.25 41.85905 44.25 38.90625 L 44.25 24 L 44.25 9.09375 C 44.25 6.14085 41.859132 3.75 38.90625 3.75 L 9.09375 3.75 z "
       transform="translate(0,1004.3622)"
       id="path1637" />
    <g
       id="g1050"
       transform="matrix(0.91011236,0,0,0.91011236,-16.232575,92.462901)">
      <path
         id="path918"
         d="m 28.549912,1006.0838 c -1.083384,0.4876 -1.84375,1.5786 -1.84375,2.8438 0,1.7201 1.404863,3.125 3.125,3.125 1.720137,0 3.125,-1.4049 3.125,-3.125 0,-1.2652 -0.760366,-2.3562 -1.84375,-2.8438 L 28.549912,1006.0838 z m 9.59375,0 c -1.083383,0.4876 -1.84375,1.5786 -1.84375,2.8438 0,1.7201 1.404864,3.125 3.125,3.125 1.720137,0 3.09375,-1.4049 3.09375,-3.125 0,-1.2652 -0.760366,-2.3562 -1.84375,-2.8438 L 38.143662,1006.0838 z m 9.59375,0 c -1.083384,0.4876 -1.84375,1.5786 -1.84375,2.8438 0,1.7201 1.373613,3.125 3.09375,3.125 1.720136,0 3.125,-1.4049 3.125,-3.125 0,-1.2652 -0.760367,-2.3562 -1.84375,-2.8438 L 47.737412,1006.0838 z m 9.5625,0 c -1.083383,0.4876 -1.84375,1.5786 -1.84375,2.8438 0,1.7201 1.404864,3.125 3.125,3.125 1.720136,0 3.125,-1.4049 3.125,-3.125 0,-1.2652 -0.760367,-2.3562 -1.84375,-2.8438 L 57.299912,1006.0838 z m -34.03125,2.1563 c -0.736386,0.9069 -1.195484,2.0392 -1.28125,3.2812 0.831213,-0.5606 1.375,-1.5185 1.375,-2.5937 C 23.362412,1008.6907 23.319552,1008.4621 23.268662,1008.2401 z m 41.875,0 c -0.05089,0.222 -0.09375,0.4506 -0.09375,0.6875 0,1.0752 0.543787,2.0331 1.375,2.5937 C 66.339146,1010.2793 65.880048,1009.147 65.143662,1008.2401 z m -35.3125,7.1562 c -1.720137,0 -3.125,1.4049 -3.125,3.125 0,1.7201 1.404863,3.0938 3.125,3.0938 1.720137,0 3.125,-1.3737 3.125,-3.0938 C 32.956162,1016.8012 31.551299,1015.3963 29.831162,1015.3963 z m 9.59375,0 c -1.720136,0 -3.125,1.4049 -3.125,3.125 0,1.7201 1.404864,3.0938 3.125,3.0938 1.720137,0 3.09375,-1.3737 3.09375,-3.0938 C 42.518662,1016.8012 41.145049,1015.3963 39.424912,1015.3963 z m 9.5625,0 c -1.720137,0 -3.09375,1.4049 -3.09375,3.125 0,1.7201 1.373613,3.0938 3.09375,3.0938 1.720136,0 3.125,-1.3737 3.125,-3.0938 C 52.112412,1016.8012 50.707548,1015.3963 48.987412,1015.3963 z m 9.59375,0 c -1.720136,0 -3.125,1.4049 -3.125,3.125 0,1.7201 1.404864,3.0938 3.125,3.0938 1.720136,0 3.125,-1.3737 3.125,-3.0938 C 61.706162,1016.8012 60.301298,1015.3963 58.581162,1015.3963 z m -36.625,0.5313 0,5.1875 c 0.848386,-0.5579 1.40625,-1.5054 1.40625,-2.5938 C 23.362412,1017.4369 22.799444,1016.4863 21.956162,1015.9276 z m 44.5,0 c -0.843282,0.5587 -1.40625,1.5093 -1.40625,2.5937 0,1.0884 0.557864,2.0359 1.40625,2.5938 L 66.456162,1015.9276 z m -36.625,9.0625 c -1.720137,0 -3.125,1.3736 -3.125,3.0937 0,1.7201 1.404863,3.125 3.125,3.125 1.720137,0 3.125,-1.4049 3.125,-3.125 C 32.956162,1026.3637 31.551299,1024.9901 29.831162,1024.9901 z m 9.59375,0 c -1.720136,0 -3.125,1.3736 -3.125,3.0937 0,1.7201 1.404864,3.125 3.125,3.125 1.720137,0 3.09375,-1.4049 3.09375,-3.125 C 42.518662,1026.3637 41.145049,1024.9901 39.424912,1024.9901 z m 9.5625,0 c -1.720137,0 -3.09375,1.3736 -3.09375,3.0937 0,1.7201 1.373613,3.125 3.09375,3.125 1.720136,0 3.125,-1.4049 3.125,-3.125 C 52.112412,1026.3637 50.707548,1024.9901 48.987412,1024.9901 z m 9.59375,0 c -1.720136,0 -3.125,1.3736 -3.125,3.0937 0,1.7201 1.404864,3.125 3.125,3.125 1.720136,0 3.125,-1.4049 3.125,-3.125 C 61.706162,1026.3637 60.301298,1024.9901 58.581162,1024.9901 z m -36.625,0.5 0,5.1875 c 0.843282,-0.5588 1.40625,-1.5093 1.40625,-2.5938 C 23.362412,1026.9955 22.804548,1026.0479 21.956162,1025.4901 z m 44.5,0 c -0.848386,0.5578 -1.40625,1.5054 -1.40625,2.5937 0,1.0845 0.562968,2.035 1.40625,2.5938 L 66.456162,1025.4901 z m -36.625,9.0625 c -1.720137,0 -3.125,1.4049 -3.125,3.125 0,1.7202 1.404863,3.125 3.125,3.125 1.720137,0 3.125,-1.4048 3.125,-3.125 C 32.956162,1035.9575 31.551299,1034.5526 29.831162,1034.5526 z m 9.59375,0 c -1.720136,0 -3.125,1.4049 -3.125,3.125 0,1.7202 1.404864,3.125 3.125,3.125 1.720137,0 3.09375,-1.4048 3.09375,-3.125 C 42.518662,1035.9575 41.145049,1034.5526 39.424912,1034.5526 z m 9.5625,0 c -1.720137,0 -3.09375,1.4049 -3.09375,3.125 0,1.7202 1.373613,3.125 3.09375,3.125 1.720136,0 3.125,-1.4048 3.125,-3.125 C 52.112412,1035.9575 50.707548,1034.5526 48.987412,1034.5526 z m 9.59375,0 c -1.720136,0 -3.125,1.4049 -3.125,3.125 0,1.7202 1.404864,3.125 3.125,3.125 1.720136,0 3.125,-1.4048 3.125,-3.125 C 61.706162,1035.9575 60.301298,1034.5526 58.581162,1034.5526 z m -36.625,0.5312 0,5.1875 c 0.843282,-0.5587 1.40625,-1.5092 1.40625,-2.5937 C 23.362412,1036.5931 22.799444,1035.6425 21.956162,1035.0838 z m 44.5,0 c -0.843282,0.5587 -1.40625,1.5093 -1.40625,2.5938 0,1.0845 0.562968,2.035 1.40625,2.5937 L 66.456162,1035.0838 z m -36.625,9.0625 c -1.720137,0 -3.125,1.4049 -3.125,3.125 0,1.7201 1.404863,3.0938 3.125,3.0938 1.720137,0 3.125,-1.3737 3.125,-3.0938 C 32.956162,1045.5512 31.551299,1044.1463 29.831162,1044.1463 z m 9.59375,0 c -1.720136,0 -3.125,1.4049 -3.125,3.125 0,1.7201 1.404864,3.0938 3.125,3.0938 1.720137,0 3.09375,-1.3737 3.09375,-3.0938 C 42.518662,1045.5512 41.145049,1044.1463 39.424912,1044.1463 z m 9.5625,0 c -1.720137,0 -3.09375,1.4049 -3.09375,3.125 0,1.7201 1.373613,3.0938 3.09375,3.0938 1.720136,0 3.125,-1.3737 3.125,-3.0938 C 52.112412,1045.5512 50.707548,1044.1463 48.987412,1044.1463 z m 9.59375,0 c -1.720136,0 -3.125,1.4049 -3.125,3.125 0,1.7201 1.404864,3.0938 3.125,3.0938 1.720136,0 3.125,-1.3737 3.125,-3.0938 C 61.706162,1045.5512 60.301298,1044.1463 58.581162,1044.1463 z m -36.625,0.5313 0,0.062 c 0,1.3465 0.460444,2.5753 1.21875,3.5625 0.118265,-0.3276 0.1875,-0.6643 0.1875,-1.0313 C 23.362412,1046.1869 22.799444,1045.2363 21.956162,1044.6776 z m 44.5,0 c -0.843282,0.5587 -1.40625,1.5093 -1.40625,2.5937 0,0.367 0.06924,0.7037 0.1875,1.0313 0.758306,-0.9872 1.21875,-2.216 1.21875,-3.5625 L 66.456162,1044.6776 Z"
         style="color:#000000;fill:#000000;fill-opacity:0.15686275;fill-rule:nonzero;stroke:none;stroke-width:0.2;marker:none;visibility:visible;display:inline;overflow:visible;enable-background:accumulate"
         inkscape:connector-curvature="0" />
      <path
         id="path954"
         d="m 23.331162,1009.1776 c -0.07557,0.9749 -0.583936,1.8255 -1.34375,2.3437 -0.0094,0.1364 -0.03125,0.2673 -0.03125,0.4063 l 0,0.062 c 0.843282,-0.5588 1.40625,-1.5093 1.40625,-2.5938 C 23.362412,1009.3139 23.337406,1009.2581 23.331162,1009.1776 z m 3.40625,0 c -0.0062,0.08 -0.03125,0.1366 -0.03125,0.2187 0,1.7201 1.404863,3.125 3.125,3.125 1.720136,0 3.125,-1.4049 3.125,-3.125 0,-0.082 -0.025,-0.1382 -0.03125,-0.2187 -0.124497,1.606 -1.455754,2.875 -3.09375,2.875 C 28.193167,1012.0526 26.861909,1010.7836 26.737412,1009.1776 z m 9.59375,0 c -0.0062,0.08 -0.03125,0.1366 -0.03125,0.2187 0,1.7201 1.404864,3.125 3.125,3.125 1.720137,0 3.09375,-1.4049 3.09375,-3.125 0,-0.082 -0.025,-0.1382 -0.03125,-0.2187 -0.124497,1.606 -1.424504,2.875 -3.0625,2.875 C 37.786922,1012.0526 36.455659,1010.7836 36.331162,1009.1776 z m 9.59375,0 c -0.0062,0.08 -0.03125,0.1366 -0.03125,0.2187 0,1.7201 1.373613,3.125 3.09375,3.125 1.720136,0 3.125,-1.4049 3.125,-3.125 0,-0.082 -0.025,-0.1382 -0.03125,-0.2187 -0.124497,1.606 -1.455756,2.875 -3.09375,2.875 C 47.349421,1012.0526 46.049409,1010.7836 45.924912,1009.1776 z m 9.5625,0 c -0.0062,0.08 -0.03125,0.1366 -0.03125,0.2187 0,1.7201 1.404863,3.125 3.125,3.125 1.720136,0 3.125,-1.4049 3.125,-3.125 0,-0.082 -0.025,-0.1382 -0.03125,-0.2187 -0.124498,1.606 -1.455755,2.875 -3.09375,2.875 C 56.94317,1012.0526 55.611908,1010.7836 55.487412,1009.1776 z m 9.59375,0 c -0.0062,0.08 -0.03125,0.1366 -0.03125,0.2187 0,1.0845 0.562968,2.035 1.40625,2.5938 l 0,-0.062 c 0,-0.139 -0.02183,-0.2699 -0.03125,-0.4063 C 65.6651,1011.0031 65.156736,1010.1525 65.081162,1009.1776 z m -41.75,9.5625 c -0.07634,0.9848 -0.602406,1.8584 -1.375,2.375 l 0,0.4687 c 0.843282,-0.5587 1.40625,-1.5092 1.40625,-2.5937 C 23.362412,1018.9076 23.337406,1018.8206 23.331162,1018.7401 z m 3.40625,0 c -0.0062,0.081 -0.03125,0.1677 -0.03125,0.25 0,1.7201 1.404863,3.125 3.125,3.125 1.720136,0 3.125,-1.4049 3.125,-3.125 0,-0.083 -0.025,-0.1695 -0.03125,-0.25 -0.124497,1.6059 -1.455754,2.875 -3.09375,2.875 C 28.193167,1021.6151 26.861909,1020.346 26.737412,1018.7401 z m 9.59375,0 c -0.0062,0.081 -0.03125,0.1677 -0.03125,0.25 0,1.7201 1.404864,3.125 3.125,3.125 1.720137,0 3.09375,-1.4049 3.09375,-3.125 0,-0.083 -0.025,-0.1695 -0.03125,-0.25 -0.124497,1.6059 -1.424504,2.875 -3.0625,2.875 C 37.786922,1021.6151 36.455659,1020.346 36.331162,1018.7401 z m 9.59375,0 c -0.0062,0.081 -0.03125,0.1677 -0.03125,0.25 0,1.7201 1.373613,3.125 3.09375,3.125 1.720136,0 3.125,-1.4049 3.125,-3.125 0,-0.083 -0.025,-0.1695 -0.03125,-0.25 -0.124497,1.6059 -1.455756,2.875 -3.09375,2.875 C 47.349421,1021.6151 46.049409,1020.346 45.924912,1018.7401 z m 9.5625,0 c -0.0062,0.081 -0.03125,0.1677 -0.03125,0.25 0,1.7201 1.404863,3.125 3.125,3.125 1.720136,0 3.125,-1.4049 3.125,-3.125 0,-0.083 -0.025,-0.1695 -0.03125,-0.25 -0.124498,1.6059 -1.455755,2.875 -3.09375,2.875 C 56.94317,1021.6151 55.611908,1020.346 55.487412,1018.7401 z m 9.59375,0 c -0.0062,0.081 -0.03125,0.1677 -0.03125,0.25 0,1.0845 0.562968,2.035 1.40625,2.5937 l 0,-0.4687 C 65.68357,1020.5985 65.157507,1019.7249 65.081162,1018.7401 z m -41.75,9.5937 c -0.07626,0.9838 -0.603802,1.827 -1.375,2.3438 l 0,0.5 c 0.848386,-0.5579 1.40625,-1.5054 1.40625,-2.5938 C 23.362412,1028.5014 23.337406,1028.4143 23.331162,1028.3338 z m 3.40625,0 c -0.0062,0.081 -0.03125,0.1679 -0.03125,0.25 0,1.7201 1.404863,3.0938 3.125,3.0938 1.720136,0 3.125,-1.3737 3.125,-3.0938 0,-0.083 -0.025,-0.1695 -0.03125,-0.25 -0.124497,1.606 -1.455754,2.875 -3.09375,2.875 C 28.193167,1031.2088 26.861909,1029.9398 26.737412,1028.3338 z m 9.59375,0 c -0.0062,0.081 -0.03125,0.1679 -0.03125,0.25 0,1.7201 1.404864,3.0938 3.125,3.0938 1.720137,0 3.09375,-1.3737 3.09375,-3.0938 0,-0.083 -0.025,-0.1695 -0.03125,-0.25 -0.124497,1.606 -1.424504,2.875 -3.0625,2.875 C 37.786922,1031.2088 36.455659,1029.9398 36.331162,1028.3338 z m 9.59375,0 c -0.0062,0.081 -0.03125,0.1679 -0.03125,0.25 0,1.7201 1.373613,3.0938 3.09375,3.0938 1.720136,0 3.125,-1.3737 3.125,-3.0938 0,-0.083 -0.025,-0.1695 -0.03125,-0.25 -0.124497,1.606 -1.455756,2.875 -3.09375,2.875 C 47.349421,1031.2088 46.049409,1029.9398 45.924912,1028.3338 z m 9.5625,0 c -0.0062,0.081 -0.03125,0.1679 -0.03125,0.25 0,1.7201 1.404863,3.0938 3.125,3.0938 1.720136,0 3.125,-1.3737 3.125,-3.0938 0,-0.083 -0.025,-0.1695 -0.03125,-0.25 -0.124498,1.606 -1.455755,2.875 -3.09375,2.875 C 56.94317,1031.2088 55.611908,1029.9398 55.487412,1028.3338 z m 9.59375,0 c -0.0062,0.081 -0.03125,0.1679 -0.03125,0.25 0,1.0884 0.557864,2.0359 1.40625,2.5938 l 0,-0.5 C 65.684966,1030.1608 65.157423,1029.3176 65.081162,1028.3338 z m -41.75,9.5938 c -0.07634,0.9848 -0.602406,1.8271 -1.375,2.3437 l 0,0.4688 c 0.843282,-0.5588 1.40625,-1.5093 1.40625,-2.5938 C 23.362412,1038.0639 23.337406,1038.0081 23.331162,1037.9276 z m 3.40625,0 c -0.0062,0.081 -0.03125,0.1366 -0.03125,0.2187 0,1.7201 1.404863,3.125 3.125,3.125 1.720136,0 3.125,-1.4049 3.125,-3.125 0,-0.082 -0.025,-0.1382 -0.03125,-0.2187 -0.124497,1.606 -1.455754,2.875 -3.09375,2.875 C 28.193167,1040.8026 26.861909,1039.5336 26.737412,1037.9276 z m 9.59375,0 c -0.0062,0.081 -0.03125,0.1366 -0.03125,0.2187 0,1.7201 1.404864,3.125 3.125,3.125 1.720137,0 3.09375,-1.4049 3.09375,-3.125 0,-0.082 -0.025,-0.1382 -0.03125,-0.2187 -0.124497,1.606 -1.424504,2.875 -3.0625,2.875 C 37.786922,1040.8026 36.455659,1039.5336 36.331162,1037.9276 z m 9.59375,0 c -0.0062,0.081 -0.03125,0.1366 -0.03125,0.2187 0,1.7201 1.373613,3.125 3.09375,3.125 1.720136,0 3.125,-1.4049 3.125,-3.125 0,-0.082 -0.025,-0.1382 -0.03125,-0.2187 -0.124497,1.606 -1.455756,2.875 -3.09375,2.875 C 47.349421,1040.8026 46.049409,1039.5336 45.924912,1037.9276 z m 9.5625,0 c -0.0062,0.081 -0.03125,0.1366 -0.03125,0.2187 0,1.7201 1.404863,3.125 3.125,3.125 1.720136,0 3.125,-1.4049 3.125,-3.125 0,-0.082 -0.025,-0.1382 -0.03125,-0.2187 -0.124498,1.606 -1.455755,2.875 -3.09375,2.875 C 56.94317,1040.8026 55.611908,1039.5336 55.487412,1037.9276 z m 9.59375,0 c -0.0062,0.081 -0.03125,0.1366 -0.03125,0.2187 0,1.0845 0.562968,2.035 1.40625,2.5938 l 0,-0.4688 C 65.68357,1039.7547 65.157507,1038.9124 65.081162,1037.9276 z m -41.75,9.5625 c -0.02133,0.2751 -0.06946,0.5619 -0.15625,0.8125 0.03206,0.042 0.0606,0.084 0.09375,0.125 0.05036,-0.2206 0.09375,-0.4518 0.09375,-0.6875 C 23.362412,1047.6577 23.337406,1047.5706 23.331162,1047.4901 z m 3.40625,0 c -0.0062,0.081 -0.03125,0.1679 -0.03125,0.25 0,1.2651 0.760366,2.3561 1.84375,2.8437 l 2.5625,0 c 1.083384,-0.4876 1.84375,-1.5786 1.84375,-2.8437 0,-0.082 -0.025,-0.1695 -0.03125,-0.25 -0.124497,1.6059 -1.455754,2.875 -3.09375,2.875 C 28.193167,1050.3651 26.861909,1049.096 26.737412,1047.4901 z m 9.59375,0 c -0.0062,0.081 -0.03125,0.1679 -0.03125,0.25 0,1.2651 0.760367,2.3561 1.84375,2.8437 l 2.53125,0 c 1.083384,-0.4876 1.84375,-1.5786 1.84375,-2.8437 0,-0.082 -0.025,-0.1695 -0.03125,-0.25 -0.124497,1.6059 -1.424504,2.875 -3.0625,2.875 C 37.786922,1050.3651 36.455659,1049.096 36.331162,1047.4901 z m 9.59375,0 c -0.0062,0.081 -0.03125,0.1679 -0.03125,0.25 0,1.2651 0.760366,2.3561 1.84375,2.8437 l 2.53125,0 c 1.083383,-0.4876 1.84375,-1.5786 1.84375,-2.8437 0,-0.082 -0.025,-0.1695 -0.03125,-0.25 -0.124497,1.6059 -1.455756,2.875 -3.09375,2.875 C 47.349421,1050.3651 46.049409,1049.096 45.924912,1047.4901 z m 9.5625,0 c -0.0062,0.081 -0.03125,0.1679 -0.03125,0.25 0,1.2651 0.760367,2.3561 1.84375,2.8437 l 2.5625,0 c 1.083383,-0.4876 1.84375,-1.5786 1.84375,-2.8437 0,-0.082 -0.025,-0.1695 -0.03125,-0.25 -0.124498,1.6059 -1.455755,2.875 -3.09375,2.875 C 56.94317,1050.3651 55.611908,1049.096 55.487412,1047.4901 z m 9.59375,0 c -0.0062,0.081 -0.03125,0.1679 -0.03125,0.25 0,0.2357 0.04339,0.4669 0.09375,0.6875 0.03315,-0.041 0.06169,-0.083 0.09375,-0.125 C 65.150625,1048.052 65.102491,1047.7652 65.081162,1047.4901 Z"
         style="color:#000000;fill:#ffffff;fill-opacity:0.07692309;fill-rule:nonzero;stroke:none;stroke-width:0.2;marker:none;visibility:visible;display:inline;overflow:visible;enable-background:accumulate"
         inkscape:connector-curvature="0" />
    </g>
    <path
       inkscape:connector-curvature="0"
       style="color:#000000;fill:url(#linearGradient1655);fill-opacity:1;fill-rule:nonzero;stroke:none;stroke-width:0.2;marker:none;visibility:visible;display:inline;overflow:visible;enable-background:accumulate"
       d="m 9.09375,1008.1122 c -2.9528818,0 -5.34375,2.3909 -5.34375,5.3438 l 0,0.9062 c 0,-2.9529 2.3908682,-5.3437 5.34375,-5.3437 l 29.8125,0 c 2.952882,0 5.34375,2.3908 5.34375,5.3437 l 0,-0.9062 c 0,-2.9529 -2.390868,-5.3438 -5.34375,-5.3438 L 9.09375,1008.1122 Z"
       id="path1644" />
    <path
       id="path1657"
       d="m 9.09375,1048.6122 c -2.9528818,0 -5.34375,-2.3909 -5.34375,-5.3437 l 0,-0.9063 c 0,2.9529 2.3908682,5.3438 5.34375,5.3438 l 29.8125,0 c 2.952882,0 5.34375,-2.3909 5.34375,-5.3438 l 0,0.9063 c 0,2.9528 -2.390868,5.3437 -5.34375,5.3437 L 9.09375,1048.6122 Z"
       style="color:#000000;fill:url(#linearGradient1659);fill-opacity:1;fill-rule:nonzero;stroke:none;stroke-width:0.2;marker:none;visibility:visible;display:inline;overflow:visible;enable-background:accumulate"
       inkscape:connector-curvature="0" />
    <path
       inkscape:connector-curvature="0"
       style="color:#000000;fill:url(#linearGradient1674);fill-opacity:1;fill-rule:nonzero;stroke:none;stroke-width:0.2;marker:none;visibility:visible;display:inline;overflow:visible;enable-background:accumulate"
       d="m 3.75,1028.3622 0,14.9063 c 0,2.9528 2.3908682,5.3437 5.34375,5.3437 l 0.71875,0 c -2.9528818,0 -5.34375,-2.3909 -5.34375,-5.3437 l 0,-14.9063 L 3.75,1028.3622 Z"
       id="path1663" />
    <path
       id="path1676"
       d="m 44.25,1028.3622 0,14.9063 c 0,2.9528 -2.390868,5.3437 -5.34375,5.3437 l -0.71875,0 c 2.952882,0 5.34375,-2.3909 5.34375,-5.3437 l 0,-14.9063 L 44.25,1028.3622 Z"
       style="color:#000000;fill:url(#linearGradient1678);fill-opacity:1;fill-rule:nonzero;stroke:none;stroke-width:0.2;marker:none;visibility:visible;display:inline;overflow:visible;enable-background:accumulate"
       inkscape:connector-curvature="0" />
    <path
       id="path1680"
       d="m 3.75,1028.3622 0,-14.9062 c 0,-2.9529 2.3908682,-5.3438 5.34375,-5.3438 l 0.71875,0 c -2.9528818,0 -5.34375,2.391 -5.34375,5.3438 l 0,14.9062 L 3.75,1028.3622 Z"
       style="color:#000000;fill:url(#linearGradient1684);fill-opacity:1;fill-rule:nonzero;stroke:none;stroke-width:0.2;marker:none;visibility:visible;display:inline;overflow:visible;enable-background:accumulate"
       inkscape:connector-curvature="0" />
    <path
       inkscape:connector-curvature="0"
       style="color:#000000;fill:url(#linearGradient1686);fill-opacity:1;fill-rule:nonzero;stroke:none;stroke-width:0.2;marker:none;visibility:visible;display:inline;overflow:visible;enable-background:accumulate"
       d="m 44.25,1028.3622 0,-14.9063 c 0,-2.9528 -2.390868,-5.3437 -5.34375,-5.3437 l -0.71875,0 c 2.952882,0 5.34375,2.3909 5.34375,5.3437 l 0,14.9063 L 44.25,1028.3622 Z"
       id="path1682" />
    <g
       id="g1369"
       transform="matrix(0.93239891,0,0,0.93239891,1.6224239,69.518426)">
      <path
         sodipodi:type="arc"
         style="opacity:0.3;fill:url(#radialGradient1333);fill-opacity:1;stroke:none"
         id="path1331"
         sodipodi:cx="17.103146"
         sodipodi:cy="23.914173"
         sodipodi:rx="8.087534"
         sodipodi:ry="8.087534"
         d="m 25.19068,23.914173 c 0,4.466622 -3.620913,8.087534 -8.087534,8.087534 -4.466622,0 -8.0875344,-3.620912 -8.0875344,-8.087534 0,-4.466622 3.6209124,-8.087534 8.0875344,-8.087534 C 21.569767,15.826639 25.19068,19.447551 25.19068,23.914173 Z"
         transform="matrix(1.9891768,0,0,1.9891768,-10.021178,980.79266)" />
      <path
         transform="matrix(1.7418826,0,0,1.7418826,-5.7916698,986.7065)"
         d="m 25.19068,23.914173 c 0,4.466622 -3.620913,8.087534 -8.087534,8.087534 -4.466622,0 -8.0875344,-3.620912 -8.0875344,-8.087534 0,-4.466622 3.6209124,-8.087534 8.0875344,-8.087534 C 21.569767,15.826639 25.19068,19.447551 25.19068,23.914173 Z"
         sodipodi:ry="8.087534"
         sodipodi:rx="8.087534"
         sodipodi:cy="23.914173"
         sodipodi:cx="17.103146"
         id="path1335"
         style="opacity:0.3;fill:url(#radialGradient1337);fill-opacity:1;stroke:none"
         sodipodi:type="arc" />
      <path
         transform="matrix(1.3709413,0,0,1.3709413,0.5525925,995.57726)"
         d="m 25.19068,23.914173 c 0,4.466622 -3.620913,8.087534 -8.087534,8.087534 -4.466622,0 -8.0875344,-3.620912 -8.0875344,-8.087534 0,-4.466622 3.6209124,-8.087534 8.0875344,-8.087534 C 21.569767,15.826639 25.19068,19.447551 25.19068,23.914173 Z"
         sodipodi:ry="8.087534"
         sodipodi:rx="8.087534"
         sodipodi:cy="23.914173"
         sodipodi:cx="17.103146"
         id="path1313"
         style="opacity:0.3;fill:url(#radialGradient1321);fill-opacity:1;stroke:none"
         sodipodi:type="arc" />
    </g>
    <g
       id="g1410"
       transform="matrix(0.87011802,0,0,0.93239891,4.0118641,68.192721)">
      <path
         inkscape:transform-center-y="4.3545135e-05"
         inkscape:transform-center-x="-3.626999"
         transform="matrix(1.0750051,-0.59252188,0.62065456,1.0262779,-9.2382955,1014.8022)"
         d="m 25.059449,27.680882 -10.121817,0 -10.1218177,-1e-6 5.0609086,-8.76575 L 14.937632,10.14938 19.99854,18.91513 Z"
         inkscape:randomized="0"
         inkscape:rounded="0"
         inkscape:flatsided="false"
         sodipodi:arg2="1.5707963"
         sodipodi:arg1="0.52359878"
         sodipodi:r2="5.8438339"
         sodipodi:r1="11.687668"
         sodipodi:cy="21.837048"
         sodipodi:cx="14.937632"
         sodipodi:sides="3"
         id="path1329"
         style="fill:#1483e4;fill-opacity:1;stroke:none"
         sodipodi:type="star" />
      <path
         inkscape:connector-curvature="0"
         id="path1346"
         d="m 13.125,1016.3674 0,1.0995 10.875,5.9974 9.875,5.4477 1,-0.5498 L 24,1022.3648 13.125,1016.3674 Z"
         style="fill:#ffffff;fill-opacity:0.2352432;stroke:none" />
      <path
         inkscape:connector-curvature="0"
         id="path1351"
         d="m 13.125,1016.3674 0,11.9948 0,5.4726 c 3.790313,-4.0942 9.798261,-7.3177 14.53125,-9.4459 L 24,1022.3648 13.125,1016.3674 Z"
         style="fill:#ffffff;fill-opacity:0.0865801;stroke:none" />
      <path
         inkscape:connector-curvature="0"
         id="path1356"
         d="m 34,1028.812 -10,5.5226 -10.875,5.9974 0,0.9496 L 24,1035.2842 34.875,1029.2868 34,1028.812 Z"
         style="fill:#000000;fill-opacity:0.23529412;stroke:none" />
      <path
         style="fill:#000000;fill-opacity:0.11769798;stroke:none"
         d="m 34,1029.7741 -10,5.5226 -10.875,5.9974 0,0.9496 L 24,1036.2463 34.875,1030.2489 34,1029.7741 Z"
         id="path1361"
         inkscape:connector-curvature="0" />
      <path
         inkscape:connector-curvature="0"
         id="path1363"
         d="m 34,1030.7361 -10,5.5227 -10.875,5.9974 0,0.9496 L 24,1037.2084 34.875,1031.211 34,1030.7361 Z"
         style="fill:#000000;fill-opacity:0.06060606;stroke:none" />
      <path
         inkscape:connector-curvature="0"
         id="path1374"
         d="m 12.4375,1016.3622 0,12 0,12 0.6875,-0.375 0,-11.625 0,-11.625 L 12.4375,1016.3622 Z"
         style="fill:#000000;fill-opacity:0.23529412;stroke:none" />
      <path
         style="fill:#000000;fill-opacity:0.11764706;stroke:none"
         d="m 11.75,1016.3622 0,12 0,12 0.6875,-0.375 0,-11.625 0,-11.625 L 11.75,1016.3622 Z"
         id="path1379"
         inkscape:connector-curvature="0" />
      <path
         inkscape:connector-curvature="0"
         id="path1381"
         d="m 11.0625,1016.3622 0,12 0,12 0.6875,-0.375 0,-11.625 0,-11.625 L 11.0625,1016.3622 Z"
         style="fill:#000000;fill-opacity:0.05882353;stroke:none" />
    </g>
  </g>
</svg>
