<?xml version="1.0" encoding="UTF-8" standalone="no"?>
<!-- Created with Inkscape (http://www.inkscape.org/) -->

<svg
   xmlns:dc="http://purl.org/dc/elements/1.1/"
   xmlns:cc="http://creativecommons.org/ns#"
   xmlns:rdf="http://www.w3.org/1999/02/22-rdf-syntax-ns#"
   xmlns:svg="http://www.w3.org/2000/svg"
   xmlns="http://www.w3.org/2000/svg"
   xmlns:xlink="http://www.w3.org/1999/xlink"
   xmlns:sodipodi="http://sodipodi.sourceforge.net/DTD/sodipodi-0.dtd"
   xmlns:inkscape="http://www.inkscape.org/namespaces/inkscape"
   width="48"
   height="48"
   id="svg1239"
   version="1.1"
   inkscape:version="0.48+devel r12312"
   sodipodi:docname="folder-documents.svg">
  <defs
     id="defs1241">
    <linearGradient
       inkscape:collect="always"
       id="linearGradient4421">
      <stop
         style="stop-color:#11b8fe;stop-opacity:1"
         offset="0"
         id="stop4423" />
      <stop
         style="stop-color:#0eb9fd;stop-opacity:1"
         offset="1"
         id="stop4425" />
    </linearGradient>
    <linearGradient
       inkscape:collect="always"
       xlink:href="#linearGradient4421"
       id="linearGradient4406"
       x1="26"
       y1="33.5625"
       x2="26"
       y2="14"
       gradientUnits="userSpaceOnUse"
       gradientTransform="matrix(1.1757196,0,0,1.1757196,640.35414,415.83068)" />
    <linearGradient
       inkscape:collect="always"
       xlink:href="#linearGradient4421"
       id="linearGradient963"
       gradientUnits="userSpaceOnUse"
       gradientTransform="matrix(1.1757196,0,0,1.1757196,-4.21728,-3.96008)"
       x1="26"
       y1="33.5625"
       x2="26"
       y2="14" />
    <linearGradient
       inkscape:collect="always"
       id="linearGradient2476">
      <stop
         style="stop-color:#121212;stop-opacity:1"
         offset="0"
         id="stop2478" />
      <stop
         style="stop-color:#54555a;stop-opacity:1"
         offset="1"
         id="stop2480" />
    </linearGradient>
    <linearGradient
       gradientTransform="translate(644.57142,419.79076)"
       y2="2.2098041"
       x2="32.350136"
       y1="47.487148"
       x1="32.350136"
       gradientUnits="userSpaceOnUse"
       id="linearGradient886"
       xlink:href="#linearGradient2476"
       inkscape:collect="always" />
  </defs>
  <sodipodi:namedview
     id="base"
     pagecolor="#ffffff"
     bordercolor="#666666"
     borderopacity="1.0"
     inkscape:pageopacity="0.0"
     inkscape:pageshadow="2"
     inkscape:zoom="5.656854"
     inkscape:cx="9.4151599"
     inkscape:cy="29.072744"
     inkscape:document-units="px"
     inkscape:current-layer="layer1"
     showgrid="false"
     fit-margin-top="0"
     fit-margin-left="0"
     fit-margin-right="0"
     fit-margin-bottom="0"
     inkscape:window-width="1366"
     inkscape:window-height="714"
     inkscape:window-x="0"
     inkscape:window-y="30"
     inkscape:window-maximized="1"
     showguides="false" />
  <metadata
     id="metadata1244">
    <rdf:RDF>
      <cc:Work
         rdf:about="">
        <dc:format>image/svg+xml</dc:format>
        <dc:type
           rdf:resource="http://purl.org/dc/dcmitype/StillImage" />
        <dc:title />
      </cc:Work>
    </rdf:RDF>
  </metadata>
  <g
     inkscape:label="Capa 1"
     inkscape:groupmode="layer"
     id="layer1"
     transform="translate(-644.57142,-419.79076)">
    <rect
       style="color:#000000;fill:#333333;fill-opacity:1;fill-rule:nonzero;stroke:none;stroke-width:0.2;marker:none;visibility:visible;display:inline;overflow:visible;enable-background:accumulate"
       id="rect6294"
       width="45.5"
       height="45.5"
       x="645.82141"
       y="421.04077"
       ry="6.3565426" />
    <rect
       ry="5.8565426"
       y="421.54077"
       x="646.32141"
       height="44.5"
       width="44.5"
       id="rect6296"
       style="color:#000000;fill:#f9f9f9;fill-opacity:1;fill-rule:nonzero;stroke:none;stroke-width:0.2;marker:none;visibility:visible;display:inline;overflow:visible;enable-background:accumulate" />
    <path
       inkscape:connector-curvature="0"
       style="fill:url(#linearGradient886);fill-opacity:1;stroke:none"
       d="m 652.16517,421.54076 c -3.24452,0 -5.84375,2.63048 -5.84375,5.875 l 0,32.78125 c 0,3.24452 2.59923,5.84375 5.84375,5.84375 l 32.8125,0 c 0.3946,0 0.75267,-0.0513 1.125,-0.125 l 0,-23.90625 3.84375,-1.1875 0,22.4375 c 0.54792,-0.89173 0.875,-1.93486 0.875,-3.0625 l 0,-19.65625 0,-1.40625 0,-11.71875 c 0,-3.24452 -2.59923,-5.875 -5.84375,-5.875 L 652.16517,421.54076 Z"
       id="rect833" />
    <path
       id="path6361"
       d="m 646.32141,427.9783 0,-0.5625 c 0,-3.2445 2.59922,-5.875 5.84375,-5.875 l 32.8125,0 c 3.24452,0 5.84375,2.6305 5.84375,5.875 l 0,0.5625 c 0,-3.2445 -2.59923,-5.875 -5.84375,-5.875 l -32.8125,0 C 648.92063,422.1033 646.32141,424.7338 646.32141,427.9783 Z"
       style="color:#000000;fill:#ffffff;fill-opacity:1;fill-rule:nonzero;stroke:none;stroke-width:0.2;marker:none;visibility:visible;display:inline;overflow:visible;enable-background:accumulate"
       inkscape:connector-curvature="0" />
    <path
       inkscape:connector-curvature="0"
       style="color:#000000;fill:#000000;fill-opacity:1;fill-rule:nonzero;stroke:none;stroke-width:0.2;marker:none;visibility:visible;display:inline;overflow:visible;enable-background:accumulate"
       d="m 646.32141,459.6033 0,0.5625 c 0,3.2445 2.59922,5.875 5.84375,5.875 l 32.8125,0 c 3.24452,0 5.84375,-2.6305 5.84375,-5.875 l 0,-0.5625 c 0,3.2445 -2.59923,5.875 -5.84375,5.875 l -32.8125,0 C 648.92063,465.4783 646.32141,462.8478 646.32141,459.6033 Z"
       id="path6388" />
    <path
       style="fill:#000000;fill-opacity:0.23376626"
       d="M 9.75 10 L 9.75 34 L 34.25 34 L 34.25 19.75 L 24.3125 10 L 9.75 10 z M 12.75 12.9375 L 23.75 12.9375 L 31.25 20.3125 L 31.25 31.0625 L 12.75 31.0625 L 12.75 12.9375 z "
       transform="translate(644.57142,419.79076)"
       id="path972" />
    <path
       style="fill:#000000;fill-opacity:0.23376626"
       d="m 670.97816,429.8027 7.85552,7.74056 L 678.83368,429.8027 Z"
       id="path955" />
    <path
       style="fill:#ffffff;fill-opacity:0.23529412"
       d="M 13.5625 14.1875 L 13.5625 38.1875 L 38.09375 38.1875 L 38.09375 23.9375 L 28.125 14.1875 L 13.5625 14.1875 z M 16.5625 17.125 L 27.5625 17.125 L 35.09375 24.46875 L 35.09375 35.25 L 16.5625 35.25 L 16.5625 17.125 z "
       transform="translate(644.57142,419.79076)"
       id="path968" />
    <path
       style="fill:#ffffff;fill-opacity:0.23529412"
       d="m 674.80138,433.97948 7.85552,7.74056 L 682.6569,433.97948 Z"
       id="path953" />
    <path
       style="fill:url(#linearGradient963);fill-opacity:1"
       d="M 12.25 12.5 L 12.25 35.5 L 35.75 35.5 L 35.75 21.84375 L 26.21875 12.5 L 12.25 12.5 z M 15.25 15.4375 L 25.65625 15.4375 L 32.75 22.375 L 32.75 32.5625 L 15.25 32.5625 L 15.25 15.4375 z "
       transform="translate(644.57142,419.79076)"
       id="path959" />
    <path
       style="fill:url(#linearGradient4406);fill-opacity:1"
       d="m 672.79665,432.29076 7.53196,7.42171 L 680.32861,432.29076 Z"
       id="path4384" />
  </g>
</svg>
