<?xml version="1.0" encoding="UTF-8" standalone="no"?>
<!-- Created with Inkscape (http://www.inkscape.org/) -->

<svg
   xmlns:dc="http://purl.org/dc/elements/1.1/"
   xmlns:cc="http://creativecommons.org/ns#"
   xmlns:rdf="http://www.w3.org/1999/02/22-rdf-syntax-ns#"
   xmlns:svg="http://www.w3.org/2000/svg"
   xmlns="http://www.w3.org/2000/svg"
   xmlns:xlink="http://www.w3.org/1999/xlink"
   xmlns:sodipodi="http://sodipodi.sourceforge.net/DTD/sodipodi-0.dtd"
   xmlns:inkscape="http://www.inkscape.org/namespaces/inkscape"
   width="48"
   height="48"
   id="svg1239"
   version="1.1"
   inkscape:version="0.48+devel r12312"
   sodipodi:docname="folder-remote.svg">
  <defs
     id="defs1241">
    <linearGradient
       inkscape:collect="always"
       id="linearGradient4421">
      <stop
         style="stop-color:#11b8fe;stop-opacity:1"
         offset="0"
         id="stop4423" />
      <stop
         style="stop-color:#0eb9fd;stop-opacity:1"
         offset="1"
         id="stop4425" />
    </linearGradient>
    <linearGradient
       gradientTransform="matrix(1.2,0,0,1.2,639.77141,-790.24388)"
       y2="1018.364"
       x2="25.632622"
       y1="1038.3719"
       x1="25.632622"
       gradientUnits="userSpaceOnUse"
       id="linearGradient1053"
       xlink:href="#linearGradient4421"
       inkscape:collect="always" />
    <linearGradient
       inkscape:collect="always"
       id="linearGradient2476">
      <stop
         style="stop-color:#121212;stop-opacity:1"
         offset="0"
         id="stop2478" />
      <stop
         style="stop-color:#54555a;stop-opacity:1"
         offset="1"
         id="stop2480" />
    </linearGradient>
    <linearGradient
       gradientTransform="translate(644.57142,419.79076)"
       y2="2.2098041"
       x2="32.350136"
       y1="47.487148"
       x1="32.350136"
       gradientUnits="userSpaceOnUse"
       id="linearGradient886"
       xlink:href="#linearGradient2476"
       inkscape:collect="always" />
  </defs>
  <sodipodi:namedview
     id="base"
     pagecolor="#ffffff"
     bordercolor="#666666"
     borderopacity="1.0"
     inkscape:pageopacity="0.0"
     inkscape:pageshadow="2"
     inkscape:zoom="5.656854"
     inkscape:cx="-4.4815112"
     inkscape:cy="37.245291"
     inkscape:document-units="px"
     inkscape:current-layer="layer1"
     showgrid="false"
     fit-margin-top="0"
     fit-margin-left="0"
     fit-margin-right="0"
     fit-margin-bottom="0"
     inkscape:window-width="1366"
     inkscape:window-height="714"
     inkscape:window-x="0"
     inkscape:window-y="30"
     inkscape:window-maximized="1"
     showguides="false" />
  <metadata
     id="metadata1244">
    <rdf:RDF>
      <cc:Work
         rdf:about="">
        <dc:format>image/svg+xml</dc:format>
        <dc:type
           rdf:resource="http://purl.org/dc/dcmitype/StillImage" />
        <dc:title />
      </cc:Work>
    </rdf:RDF>
  </metadata>
  <g
     inkscape:label="Capa 1"
     inkscape:groupmode="layer"
     id="layer1"
     transform="translate(-644.57142,-419.79076)">
    <rect
       style="color:#000000;fill:#333333;fill-opacity:1;fill-rule:nonzero;stroke:none;stroke-width:0.2;marker:none;visibility:visible;display:inline;overflow:visible;enable-background:accumulate"
       id="rect6294"
       width="45.5"
       height="45.5"
       x="645.82141"
       y="421.04077"
       ry="6.3565426" />
    <rect
       ry="5.8565426"
       y="421.54077"
       x="646.32141"
       height="44.5"
       width="44.5"
       id="rect6296"
       style="color:#000000;fill:#f9f9f9;fill-opacity:1;fill-rule:nonzero;stroke:none;stroke-width:0.2;marker:none;visibility:visible;display:inline;overflow:visible;enable-background:accumulate" />
    <path
       inkscape:connector-curvature="0"
       style="fill:url(#linearGradient886);fill-opacity:1;stroke:none"
       d="m 652.16517,421.54076 c -3.24452,0 -5.84375,2.63048 -5.84375,5.875 l 0,32.78125 c 0,3.24452 2.59923,5.84375 5.84375,5.84375 l 32.8125,0 c 0.3946,0 0.75267,-0.0513 1.125,-0.125 l 0,-23.90625 3.84375,-1.1875 0,22.4375 c 0.54792,-0.89173 0.875,-1.93486 0.875,-3.0625 l 0,-19.65625 0,-1.40625 0,-11.71875 c 0,-3.24452 -2.59923,-5.875 -5.84375,-5.875 L 652.16517,421.54076 Z"
       id="rect833" />
    <path
       id="path6361"
       d="m 646.32141,427.9783 0,-0.5625 c 0,-3.2445 2.59922,-5.875 5.84375,-5.875 l 32.8125,0 c 3.24452,0 5.84375,2.6305 5.84375,5.875 l 0,0.5625 c 0,-3.2445 -2.59923,-5.875 -5.84375,-5.875 l -32.8125,0 C 648.92063,422.1033 646.32141,424.7338 646.32141,427.9783 Z"
       style="color:#000000;fill:#ffffff;fill-opacity:1;fill-rule:nonzero;stroke:none;stroke-width:0.2;marker:none;visibility:visible;display:inline;overflow:visible;enable-background:accumulate"
       inkscape:connector-curvature="0" />
    <path
       inkscape:connector-curvature="0"
       style="color:#000000;fill:#000000;fill-opacity:1;fill-rule:nonzero;stroke:none;stroke-width:0.2;marker:none;visibility:visible;display:inline;overflow:visible;enable-background:accumulate"
       d="m 646.32141,459.6033 0,0.5625 c 0,3.2445 2.59922,5.875 5.84375,5.875 l 32.8125,0 c 3.24452,0 5.84375,-2.6305 5.84375,-5.875 l 0,-0.5625 c 0,3.2445 -2.59923,5.875 -5.84375,5.875 l -32.8125,0 C 648.92063,465.4783 646.32141,462.8478 646.32141,459.6033 Z"
       id="path6388" />
    <path
       inkscape:connector-curvature="0"
       id="path839"
       d="m 666.57141,429.79076 c -4.85072,0 -9.68654,2.44044 -13.38752,7.31244 l 1.5375,2.02512 c 6.54751,-8.61948 17.15255,-8.61948 23.70005,0 l 1.53751,-2.02512 C 676.25797,432.2312 671.42214,429.79064 666.57141,429.79076 z m 0,6.15012 c -3.65443,0 -7.29927,1.84188 -10.08751,5.51232 l 1.725,2.28756 c 4.6203,-6.08232 12.10473,-6.08232 16.72504,0 l 1.725,-2.28756 C 673.8707,437.78276 670.22586,435.94088 666.57141,435.94088 z m 0,6.18744 c -2.45352,0 -4.91553,1.21056 -6.78751,3.675 l 1.65,2.13744 c 2.85093,-3.74328 7.46443,-3.7494 10.31253,0 l 1.61251,-2.13744 C 671.48695,443.33888 669.02495,442.12832 666.57141,442.12832 z m 0,6.18744 c -1.59235,0 -2.8875,1.22892 -2.8875,2.73756 0,1.50864 1.29515,2.73744 2.8875,2.73744 1.59236,0 2.88752,-1.2288 2.88752,-2.73744 C 669.45893,449.54468 668.16377,448.31576 666.57141,448.31576 Z"
       style="fill:#000000;fill-opacity:0.23529412;stroke:none" />
    <path
       style="fill:#ffffff;fill-opacity:0.23529412;stroke:none"
       d="m 670.57141,433.79076 c -4.85072,0 -9.68654,2.44044 -13.38752,7.31244 l 1.5375,2.02512 c 6.54751,-8.61948 17.15255,-8.61948 23.70005,0 l 1.53751,-2.02512 C 680.25797,436.2312 675.42214,433.79064 670.57141,433.79076 z m 0,6.15012 c -3.65443,0 -7.29927,1.84188 -10.08751,5.51232 l 1.725,2.28756 c 4.6203,-6.08232 12.10473,-6.08232 16.72504,0 l 1.725,-2.28756 C 677.8707,441.78276 674.22586,439.94088 670.57141,439.94088 z m 0,6.18744 c -2.45352,0 -4.91553,1.21056 -6.78751,3.675 l 1.65,2.13744 c 2.85093,-3.74328 7.46443,-3.7494 10.31253,0 l 1.61251,-2.13744 C 675.48695,447.33888 673.02495,446.12832 670.57141,446.12832 z m 0,6.18744 c -1.59235,0 -2.8875,1.22892 -2.8875,2.73756 0,1.50864 1.29515,2.73744 2.8875,2.73744 1.59236,0 2.88752,-1.2288 2.88752,-2.73744 C 673.45893,453.54468 672.16377,452.31576 670.57141,452.31576 Z"
       id="path843"
       inkscape:connector-curvature="0" />
    <path
       style="fill:url(#linearGradient1053);fill-opacity:1;stroke:none"
       d="m 668.57141,431.79076 c -4.85072,0 -9.68654,2.44044 -13.38752,7.31244 l 1.5375,2.02512 c 6.54751,-8.61948 17.15255,-8.61948 23.70005,0 l 1.53751,-2.02512 C 678.25797,434.2312 673.42214,431.79064 668.57141,431.79076 z m 0,6.15012 c -3.65443,0 -7.29927,1.84188 -10.08751,5.51232 l 1.725,2.28756 c 4.6203,-6.08232 12.10473,-6.08232 16.72504,0 l 1.725,-2.28756 C 675.8707,439.78276 672.22586,437.94088 668.57141,437.94088 z m 0,6.18744 c -2.45352,0 -4.91553,1.21056 -6.78751,3.675 l 1.65,2.13744 c 2.85093,-3.74328 7.46443,-3.7494 10.31253,0 l 1.61251,-2.13744 C 673.48695,445.33888 671.02495,444.12832 668.57141,444.12832 z m 0,6.18744 c -1.59235,0 -2.8875,1.22892 -2.8875,2.73756 0,1.50864 1.29515,2.73744 2.8875,2.73744 1.59236,0 2.88752,-1.2288 2.88752,-2.73744 C 671.45893,451.54468 670.16377,450.31576 668.57141,450.31576 Z"
       id="path2830"
       inkscape:connector-curvature="0" />
  </g>
</svg>
