<?xml version="1.0" encoding="UTF-8" standalone="no"?>
<!-- Created with Inkscape (http://www.inkscape.org/) -->

<svg
   xmlns:dc="http://purl.org/dc/elements/1.1/"
   xmlns:cc="http://creativecommons.org/ns#"
   xmlns:rdf="http://www.w3.org/1999/02/22-rdf-syntax-ns#"
   xmlns:svg="http://www.w3.org/2000/svg"
   xmlns="http://www.w3.org/2000/svg"
   xmlns:xlink="http://www.w3.org/1999/xlink"
   xmlns:sodipodi="http://sodipodi.sourceforge.net/DTD/sodipodi-0.dtd"
   xmlns:inkscape="http://www.inkscape.org/namespaces/inkscape"
   width="48"
   height="48"
   id="svg1239"
   version="1.1"
   inkscape:version="0.48+devel r12312"
   sodipodi:docname="folder-music.svg">
  <defs
     id="defs1241">
    <linearGradient
       id="linearGradient4421-9"
       inkscape:collect="always">
      <stop
         id="stop4423-9"
         offset="0"
         style="stop-color:#11b8fe;stop-opacity:1" />
      <stop
         id="stop4425-0"
         offset="1"
         style="stop-color:#0eb9fd;stop-opacity:1" />
    </linearGradient>
    <linearGradient
       gradientTransform="matrix(1.15,0,0,1.15,640.97142,416.19076)"
       y2="13.999998"
       x2="25.187502"
       y1="34.007812"
       x1="25.187502"
       gradientUnits="userSpaceOnUse"
       id="linearGradient1090"
       xlink:href="#linearGradient4421-9"
       inkscape:collect="always" />
    <linearGradient
       inkscape:collect="always"
       id="linearGradient2476">
      <stop
         style="stop-color:#121212;stop-opacity:1"
         offset="0"
         id="stop2478" />
      <stop
         style="stop-color:#54555a;stop-opacity:1"
         offset="1"
         id="stop2480" />
    </linearGradient>
    <linearGradient
       gradientTransform="translate(644.57142,419.79076)"
       y2="2.2098041"
       x2="32.350136"
       y1="47.487148"
       x1="32.350136"
       gradientUnits="userSpaceOnUse"
       id="linearGradient886"
       xlink:href="#linearGradient2476"
       inkscape:collect="always" />
  </defs>
  <sodipodi:namedview
     id="base"
     pagecolor="#ffffff"
     bordercolor="#666666"
     borderopacity="1.0"
     inkscape:pageopacity="0.0"
     inkscape:pageshadow="2"
     inkscape:zoom="5.656854"
     inkscape:cx="4.7878851"
     inkscape:cy="38.776668"
     inkscape:document-units="px"
     inkscape:current-layer="layer1"
     showgrid="false"
     fit-margin-top="0"
     fit-margin-left="0"
     fit-margin-right="0"
     fit-margin-bottom="0"
     inkscape:window-width="1366"
     inkscape:window-height="714"
     inkscape:window-x="0"
     inkscape:window-y="30"
     inkscape:window-maximized="1"
     showguides="false" />
  <metadata
     id="metadata1244">
    <rdf:RDF>
      <cc:Work
         rdf:about="">
        <dc:format>image/svg+xml</dc:format>
        <dc:type
           rdf:resource="http://purl.org/dc/dcmitype/StillImage" />
        <dc:title />
      </cc:Work>
    </rdf:RDF>
  </metadata>
  <g
     inkscape:label="Capa 1"
     inkscape:groupmode="layer"
     id="layer1"
     transform="translate(-644.57142,-419.79076)">
    <rect
       style="color:#000000;fill:#333333;fill-opacity:1;fill-rule:nonzero;stroke:none;stroke-width:0.2;marker:none;visibility:visible;display:inline;overflow:visible;enable-background:accumulate"
       id="rect6294"
       width="45.5"
       height="45.5"
       x="645.82141"
       y="421.04077"
       ry="6.3565426" />
    <rect
       ry="5.8565426"
       y="421.54077"
       x="646.32141"
       height="44.5"
       width="44.5"
       id="rect6296"
       style="color:#000000;fill:#f9f9f9;fill-opacity:1;fill-rule:nonzero;stroke:none;stroke-width:0.2;marker:none;visibility:visible;display:inline;overflow:visible;enable-background:accumulate" />
    <path
       inkscape:connector-curvature="0"
       style="fill:url(#linearGradient886);fill-opacity:1;stroke:none"
       d="m 652.16517,421.54076 c -3.24452,0 -5.84375,2.63048 -5.84375,5.875 l 0,32.78125 c 0,3.24452 2.59923,5.84375 5.84375,5.84375 l 32.8125,0 c 0.3946,0 0.75267,-0.0513 1.125,-0.125 l 0,-23.90625 3.84375,-1.1875 0,22.4375 c 0.54792,-0.89173 0.875,-1.93486 0.875,-3.0625 l 0,-19.65625 0,-1.40625 0,-11.71875 c 0,-3.24452 -2.59923,-5.875 -5.84375,-5.875 L 652.16517,421.54076 Z"
       id="rect833" />
    <path
       id="path6361"
       d="m 646.32141,427.9783 0,-0.5625 c 0,-3.2445 2.59922,-5.875 5.84375,-5.875 l 32.8125,0 c 3.24452,0 5.84375,2.6305 5.84375,5.875 l 0,0.5625 c 0,-3.2445 -2.59923,-5.875 -5.84375,-5.875 l -32.8125,0 C 648.92063,422.1033 646.32141,424.7338 646.32141,427.9783 Z"
       style="color:#000000;fill:#ffffff;fill-opacity:1;fill-rule:nonzero;stroke:none;stroke-width:0.2;marker:none;visibility:visible;display:inline;overflow:visible;enable-background:accumulate"
       inkscape:connector-curvature="0" />
    <path
       inkscape:connector-curvature="0"
       style="color:#000000;fill:#000000;fill-opacity:1;fill-rule:nonzero;stroke:none;stroke-width:0.2;marker:none;visibility:visible;display:inline;overflow:visible;enable-background:accumulate"
       d="m 646.32141,459.6033 0,0.5625 c 0,3.2445 2.59922,5.875 5.84375,5.875 l 32.8125,0 c 3.24452,0 5.84375,-2.6305 5.84375,-5.875 l 0,-0.5625 c 0,3.2445 -2.59923,5.875 -5.84375,5.875 l -32.8125,0 C 648.92063,465.4783 646.32141,462.8478 646.32141,459.6033 Z"
       id="path6388" />
    <path
       inkscape:connector-curvature="0"
       id="path855"
       d="m 659.95918,429.79076 0,3.06122 18.57143,0 0,-3.06122 L 659.95918,429.79076 z m 0,5.22449 0,3.06122 0,7.75511 c -0.39934,-0.13047 -0.82241,-0.20409 -1.26531,-0.20409 -2.25423,0 -4.08163,1.82742 -4.08163,4.08164 0,2.25422 1.8274,4.08163 4.08163,4.08163 2.25422,0 4.08164,-1.82741 4.08164,-4.08163 l 0,-11.63266 12.93875,0 0,7.75511 c -0.39931,-0.13047 -0.82241,-0.20409 -1.2653,-0.20409 -2.25423,0 -4.08163,1.82742 -4.08163,4.08164 0,2.25422 1.8274,4.08163 4.08163,4.08163 2.25423,0 4.08164,-1.82741 4.08164,-4.08163 l 0,-11.63266 0,-3.06122 -2.81634,0 -12.93875,0 L 659.95918,435.01525 Z"
       style="fill:#000000;fill-opacity:0.23529412;stroke:none" />
    <path
       style="fill:#ffffff;fill-opacity:0.23529412;stroke:none"
       d="m 663.95918,433.79076 0,3.06122 18.57143,0 0,-3.06122 L 663.95918,433.79076 z m 0,5.22449 0,3.06122 0,7.75511 c -0.39934,-0.13047 -0.82241,-0.20409 -1.26531,-0.20409 -2.25423,0 -4.08163,1.82742 -4.08163,4.08164 0,2.25422 1.8274,4.08163 4.08163,4.08163 2.25422,0 4.08164,-1.82741 4.08164,-4.08163 l 0,-11.63266 12.93875,0 0,7.75511 c -0.39931,-0.13047 -0.82241,-0.20409 -1.2653,-0.20409 -2.25423,0 -4.08163,1.82742 -4.08163,4.08164 0,2.25422 1.8274,4.08163 4.08163,4.08163 2.25423,0 4.08164,-1.82741 4.08164,-4.08163 l 0,-11.63266 0,-3.06122 -2.81634,0 -12.93875,0 L 663.95918,439.01525 Z"
       id="path859"
       inkscape:connector-curvature="0" />
    <path
       style="fill:url(#linearGradient1090);fill-opacity:1;stroke:none"
       d="m 662.23469,432.29076 0,2.93367 17.79762,0 0,-2.93367 L 662.23469,432.29076 z m 0,5.0068 0,2.93367 0,7.43198 c -0.3827,-0.12503 -0.78814,-0.19558 -1.21259,-0.19558 -2.1603,0 -3.91156,1.75127 -3.91156,3.91157 0,2.16029 1.75126,3.91156 3.91156,3.91156 2.1603,0 3.91157,-1.75127 3.91157,-3.91156 l 0,-11.14797 12.39964,0 0,7.43198 c -0.38267,-0.12503 -0.78814,-0.19558 -1.21258,-0.19558 -2.1603,0 -3.91156,1.75127 -3.91156,3.91157 0,2.16029 1.75126,3.91156 3.91156,3.91156 2.1603,0 3.91157,-1.75127 3.91157,-3.91156 l 0,-11.14797 0,-2.93367 -2.69899,0 -12.39964,0 L 662.23469,437.29756 Z"
       id="path1271"
       inkscape:connector-curvature="0" />
  </g>
</svg>
