<?xml version="1.0" encoding="UTF-8" standalone="no"?>
<!-- Created with Inkscape (http://www.inkscape.org/) -->

<svg
   xmlns:dc="http://purl.org/dc/elements/1.1/"
   xmlns:cc="http://creativecommons.org/ns#"
   xmlns:rdf="http://www.w3.org/1999/02/22-rdf-syntax-ns#"
   xmlns:svg="http://www.w3.org/2000/svg"
   xmlns="http://www.w3.org/2000/svg"
   xmlns:xlink="http://www.w3.org/1999/xlink"
   xmlns:sodipodi="http://sodipodi.sourceforge.net/DTD/sodipodi-0.dtd"
   xmlns:inkscape="http://www.inkscape.org/namespaces/inkscape"
   width="48"
   height="48"
   id="svg1239"
   version="1.1"
   inkscape:version="0.48+devel r12312"
   sodipodi:docname="folder-download.svg">
  <defs
     id="defs1241">
    <linearGradient
       inkscape:collect="always"
       id="linearGradient4421-3">
      <stop
         style="stop-color:#11b8fe;stop-opacity:1"
         offset="0"
         id="stop4423-8" />
      <stop
         style="stop-color:#0eb9fd;stop-opacity:1"
         offset="1"
         id="stop4425-0" />
    </linearGradient>
    <linearGradient
       y2="1018.3532"
       x2="26.78167"
       y1="1037.6897"
       x1="26.78167"
       gradientTransform="matrix(1.1905314,0,0,0.77749003,639.9986,-1113.7721)"
       gradientUnits="userSpaceOnUse"
       id="linearGradient1154"
       xlink:href="#linearGradient4421-3"
       inkscape:collect="always" />
    <linearGradient
       inkscape:collect="always"
       id="linearGradient2476">
      <stop
         style="stop-color:#121212;stop-opacity:1"
         offset="0"
         id="stop2478" />
      <stop
         style="stop-color:#54555a;stop-opacity:1"
         offset="1"
         id="stop2480" />
    </linearGradient>
    <linearGradient
       gradientTransform="translate(644.57142,419.79076)"
       y2="2.2098041"
       x2="32.350136"
       y1="47.487148"
       x1="32.350136"
       gradientUnits="userSpaceOnUse"
       id="linearGradient886"
       xlink:href="#linearGradient2476"
       inkscape:collect="always" />
  </defs>
  <sodipodi:namedview
     id="base"
     pagecolor="#ffffff"
     bordercolor="#666666"
     borderopacity="1.0"
     inkscape:pageopacity="0.0"
     inkscape:pageshadow="2"
     inkscape:zoom="5.6568542"
     inkscape:cx="30.878836"
     inkscape:cy="29.145482"
     inkscape:document-units="px"
     inkscape:current-layer="layer1"
     showgrid="false"
     fit-margin-top="0"
     fit-margin-left="0"
     fit-margin-right="0"
     fit-margin-bottom="0"
     inkscape:window-width="1366"
     inkscape:window-height="714"
     inkscape:window-x="0"
     inkscape:window-y="30"
     inkscape:window-maximized="1"
     showguides="false" />
  <metadata
     id="metadata1244">
    <rdf:RDF>
      <cc:Work
         rdf:about="">
        <dc:format>image/svg+xml</dc:format>
        <dc:type
           rdf:resource="http://purl.org/dc/dcmitype/StillImage" />
        <dc:title />
      </cc:Work>
    </rdf:RDF>
  </metadata>
  <g
     inkscape:label="Capa 1"
     inkscape:groupmode="layer"
     id="layer1"
     transform="translate(-644.57142,-419.79076)">
    <rect
       style="color:#000000;fill:#333333;fill-opacity:1;fill-rule:nonzero;stroke:none;stroke-width:0.2;marker:none;visibility:visible;display:inline;overflow:visible;enable-background:accumulate"
       id="rect6294"
       width="45.5"
       height="45.5"
       x="645.82141"
       y="421.04077"
       ry="6.3565426" />
    <rect
       ry="5.8565426"
       y="421.54077"
       x="646.32141"
       height="44.5"
       width="44.5"
       id="rect6296"
       style="color:#000000;fill:#f9f9f9;fill-opacity:1;fill-rule:nonzero;stroke:none;stroke-width:0.2;marker:none;visibility:visible;display:inline;overflow:visible;enable-background:accumulate" />
    <path
       inkscape:connector-curvature="0"
       style="fill:url(#linearGradient886);fill-opacity:1;stroke:none"
       d="m 652.16517,421.54076 c -3.24452,0 -5.84375,2.63048 -5.84375,5.875 l 0,32.78125 c 0,3.24452 2.59923,5.84375 5.84375,5.84375 l 32.8125,0 c 0.3946,0 0.75267,-0.0513 1.125,-0.125 l 0,-23.90625 3.84375,-1.1875 0,22.4375 c 0.54792,-0.89173 0.875,-1.93486 0.875,-3.0625 l 0,-19.65625 0,-1.40625 0,-11.71875 c 0,-3.24452 -2.59923,-5.875 -5.84375,-5.875 L 652.16517,421.54076 Z"
       id="rect833" />
    <path
       id="path6361"
       d="m 646.32141,427.9783 0,-0.5625 c 0,-3.2445 2.59922,-5.875 5.84375,-5.875 l 32.8125,0 c 3.24452,0 5.84375,2.6305 5.84375,5.875 l 0,0.5625 c 0,-3.2445 -2.59923,-5.875 -5.84375,-5.875 l -32.8125,0 C 648.92063,422.1033 646.32141,424.7338 646.32141,427.9783 Z"
       style="color:#000000;fill:#ffffff;fill-opacity:1;fill-rule:nonzero;stroke:none;stroke-width:0.2;marker:none;visibility:visible;display:inline;overflow:visible;enable-background:accumulate"
       inkscape:connector-curvature="0" />
    <path
       inkscape:connector-curvature="0"
       style="color:#000000;fill:#000000;fill-opacity:1;fill-rule:nonzero;stroke:none;stroke-width:0.2;marker:none;visibility:visible;display:inline;overflow:visible;enable-background:accumulate"
       d="m 646.32141,459.6033 0,0.5625 c 0,3.2445 2.59922,5.875 5.84375,5.875 l 32.8125,0 c 3.24452,0 5.84375,-2.6305 5.84375,-5.875 l 0,-0.5625 c 0,3.2445 -2.59923,5.875 -5.84375,5.875 l -32.8125,0 C 648.92063,465.4783 646.32141,462.8478 646.32141,459.6033 Z"
       id="path6388" />
    <path
       inkscape:connector-curvature="0"
       style="fill:#ffffff;fill-opacity:0.23529412"
       d="m 664.19637,433.79076 0,2.4 0.78747,0 1.46263,0 8.2499,0 1.08749,0 1.01251,0 0,-2.4 L 664.19637,433.79076 z m 0,5.5499 0,2.7 2.2501,0 0,-2.7 L 664.19637,439.34066 z m 10.53757,0 0,2.7 2.06243,0 0,-2.7 L 674.73395,439.34066 z m -10.53757,5.8501 0,1.23757 -4.98748,0 5.66243,5.66243 5.7,5.7 5.70001,-5.7 5.66261,-5.66243 -5.13757,0 0,-1.23757 -2.02504,0 0,2.92505 1.76262,0 -3.22506,3.4499 -2.73757,2.73757 -2.73738,-2.73757 -3.22505,-3.4499 1.87495,0 0,-2.92505 L 664.19637,445.19076 Z"
       id="path1008" />
    <path
       id="path1004"
       d="m 660.19637,429.79076 0,2.4 0.78747,0 1.46263,0 8.2499,0 1.08749,0 1.01251,0 0,-2.4 L 660.19637,429.79076 z m 0,5.5499 0,2.7 2.2501,0 0,-2.7 L 660.19637,435.34066 z m 10.53757,0 0,2.7 2.06243,0 0,-2.7 L 670.73395,435.34066 z m -10.53757,5.8501 0,1.23757 -4.98748,0 5.66243,5.66243 5.7,5.7 5.70001,-5.7 5.66261,-5.66243 -5.13757,0 0,-1.23757 -2.02504,0 0,2.92505 1.76262,0 -3.22506,3.4499 -2.73757,2.73757 -2.73738,-2.73757 -3.22505,-3.4499 1.87495,0 0,-2.92505 L 660.19637,441.19076 Z"
       style="fill:#000000;fill-opacity:0.23529412"
       inkscape:connector-curvature="0" />
    <path
       inkscape:connector-curvature="0"
       style="fill:url(#linearGradient1154);fill-opacity:1"
       d="m 662.46203,432.29076 0,2.3 0.75467,0 1.40163,0 7.9062,0 1.04218,0 0.97032,0 0,-2.3 L 662.46203,432.29076 z m 0,5.3187 0,2.5875 2.1563,0 0,-2.5875 L 662.46203,437.60946 z m 10.09847,0 0,2.5875 1.97653,0 0,-2.5875 L 672.5605,437.60946 z m -10.09847,5.6063 0,1.18597 -4.77968,0 5.42652,5.42653 5.4625,5.4625 5.4625,-5.4625 5.42662,-5.42653 -4.92347,0 0,-1.18597 -1.94065,0 0,2.80315 1.68913,0 -3.09066,3.3062 -2.62347,2.62347 -2.62338,-2.62347 -3.09065,-3.3062 1.79685,0 0,-2.80315 L 662.46203,443.21576 Z"
       id="path1022" />
  </g>
</svg>
