<?xml version="1.0" encoding="UTF-8" standalone="no"?>
<!-- Created with Inkscape (http://www.inkscape.org/) -->

<svg
   xmlns:dc="http://purl.org/dc/elements/1.1/"
   xmlns:cc="http://creativecommons.org/ns#"
   xmlns:rdf="http://www.w3.org/1999/02/22-rdf-syntax-ns#"
   xmlns:svg="http://www.w3.org/2000/svg"
   xmlns="http://www.w3.org/2000/svg"
   xmlns:xlink="http://www.w3.org/1999/xlink"
   xmlns:sodipodi="http://sodipodi.sourceforge.net/DTD/sodipodi-0.dtd"
   xmlns:inkscape="http://www.inkscape.org/namespaces/inkscape"
   width="48"
   height="48"
   id="svg1239"
   version="1.1"
   inkscape:version="0.48+devel r12312"
   sodipodi:docname="folder-pictures.svg">
  <defs
     id="defs1241">
    <linearGradient
       id="linearGradient4421"
       inkscape:collect="always">
      <stop
         id="stop4423"
         offset="0"
         style="stop-color:#11b8fe;stop-opacity:1" />
      <stop
         id="stop4425"
         offset="1"
         style="stop-color:#0eb9fd;stop-opacity:1" />
    </linearGradient>
    <linearGradient
       gradientTransform="matrix(1.1499986,0,0,1.1499986,640.97145,-738.82441)"
       y2="1018.3617"
       x2="28.257206"
       y1="1038.3793"
       x1="28.257206"
       gradientUnits="userSpaceOnUse"
       id="linearGradient1083"
       xlink:href="#linearGradient4421"
       inkscape:collect="always" />
    <linearGradient
       inkscape:collect="always"
       id="linearGradient2476">
      <stop
         style="stop-color:#121212;stop-opacity:1"
         offset="0"
         id="stop2478" />
      <stop
         style="stop-color:#54555a;stop-opacity:1"
         offset="1"
         id="stop2480" />
    </linearGradient>
    <linearGradient
       gradientTransform="translate(644.57142,419.79076)"
       y2="2.2098041"
       x2="32.350136"
       y1="47.487148"
       x1="32.350136"
       gradientUnits="userSpaceOnUse"
       id="linearGradient886"
       xlink:href="#linearGradient2476"
       inkscape:collect="always" />
  </defs>
  <sodipodi:namedview
     id="base"
     pagecolor="#ffffff"
     bordercolor="#666666"
     borderopacity="1.0"
     inkscape:pageopacity="0.0"
     inkscape:pageshadow="2"
     inkscape:zoom="7.9999999"
     inkscape:cx="18.611432"
     inkscape:cy="24.576604"
     inkscape:document-units="px"
     inkscape:current-layer="layer1"
     showgrid="false"
     fit-margin-top="0"
     fit-margin-left="0"
     fit-margin-right="0"
     fit-margin-bottom="0"
     inkscape:window-width="1366"
     inkscape:window-height="714"
     inkscape:window-x="0"
     inkscape:window-y="30"
     inkscape:window-maximized="1"
     showguides="false" />
  <metadata
     id="metadata1244">
    <rdf:RDF>
      <cc:Work
         rdf:about="">
        <dc:format>image/svg+xml</dc:format>
        <dc:type
           rdf:resource="http://purl.org/dc/dcmitype/StillImage" />
        <dc:title />
      </cc:Work>
    </rdf:RDF>
  </metadata>
  <g
     inkscape:label="Capa 1"
     inkscape:groupmode="layer"
     id="layer1"
     transform="translate(-644.57142,-419.79076)">
    <rect
       style="color:#000000;fill:#333333;fill-opacity:1;fill-rule:nonzero;stroke:none;stroke-width:0.2;marker:none;visibility:visible;display:inline;overflow:visible;enable-background:accumulate"
       id="rect6294"
       width="45.5"
       height="45.5"
       x="645.82141"
       y="421.04077"
       ry="6.3565426" />
    <rect
       ry="5.8565426"
       y="421.54077"
       x="646.32141"
       height="44.5"
       width="44.5"
       id="rect6296"
       style="color:#000000;fill:#f9f9f9;fill-opacity:1;fill-rule:nonzero;stroke:none;stroke-width:0.2;marker:none;visibility:visible;display:inline;overflow:visible;enable-background:accumulate" />
    <path
       inkscape:connector-curvature="0"
       style="fill:url(#linearGradient886);fill-opacity:1;stroke:none"
       d="m 652.16517,421.54076 c -3.24452,0 -5.84375,2.63048 -5.84375,5.875 l 0,32.78125 c 0,3.24452 2.59923,5.84375 5.84375,5.84375 l 32.8125,0 c 0.3946,0 0.75267,-0.0513 1.125,-0.125 l 0,-23.90625 3.84375,-1.1875 0,22.4375 c 0.54792,-0.89173 0.875,-1.93486 0.875,-3.0625 l 0,-19.65625 0,-1.40625 0,-11.71875 c 0,-3.24452 -2.59923,-5.875 -5.84375,-5.875 L 652.16517,421.54076 Z"
       id="rect833" />
    <path
       id="path6361"
       d="m 646.32141,427.9783 0,-0.5625 c 0,-3.2445 2.59922,-5.875 5.84375,-5.875 l 32.8125,0 c 3.24452,0 5.84375,2.6305 5.84375,5.875 l 0,0.5625 c 0,-3.2445 -2.59923,-5.875 -5.84375,-5.875 l -32.8125,0 C 648.92063,422.1033 646.32141,424.7338 646.32141,427.9783 Z"
       style="color:#000000;fill:#ffffff;fill-opacity:1;fill-rule:nonzero;stroke:none;stroke-width:0.2;marker:none;visibility:visible;display:inline;overflow:visible;enable-background:accumulate"
       inkscape:connector-curvature="0" />
    <path
       inkscape:connector-curvature="0"
       style="color:#000000;fill:#000000;fill-opacity:1;fill-rule:nonzero;stroke:none;stroke-width:0.2;marker:none;visibility:visible;display:inline;overflow:visible;enable-background:accumulate"
       d="m 646.32141,459.6033 0,0.5625 c 0,3.2445 2.59922,5.875 5.84375,5.875 l 32.8125,0 c 3.24452,0 5.84375,-2.6305 5.84375,-5.875 l 0,-0.5625 c 0,3.2445 -2.59923,5.875 -5.84375,5.875 l -32.8125,0 C 648.92063,465.4783 646.32141,462.8478 646.32141,459.6033 Z"
       id="path6388" />
    <path
       sodipodi:nodetypes="cccccccccccccccsssss"
       id="path851"
       d="m 654.30307,429.79076 0,24 24.53671,0 L 678.83978,429.79076 z m 2.3885,2.16337 19.75971,0 0,16.68286 -3.31606,0 -2.76909,-4.61508 -2.73494,4.61508 -1.23069,0 -4.95702,-8.40983 L 656.69157,448.2951 z m 15.042,0.95713 c -1.42413,0 -2.56397,1.13616 -2.56397,2.52981 0,1.39344 1.13984,2.49567 2.56397,2.49567 1.42413,0 2.59817,-1.10223 2.59817,-2.49567 C 674.33174,434.04742 673.1577,432.91126 671.73357,432.91126 Z"
       style="fill:#000000;fill-opacity:0.23529412"
       inkscape:connector-curvature="0" />
    <path
       sodipodi:nodetypes="cccccccccccccccsssss"
       id="path855"
       d="m 658.30307,433.79076 0,24 24.53671,0 L 682.83978,433.79076 z m 2.3885,2.16337 19.75971,0 0,16.68286 -3.31606,0 -2.76909,-4.61508 -2.73494,4.61508 -1.23069,0 -4.95702,-8.40983 L 660.69157,452.2951 z m 15.042,0.95713 c -1.42413,0 -2.56397,1.13616 -2.56397,2.52981 0,1.39344 1.13984,2.49567 2.56397,2.49567 1.42413,0 2.59817,-1.10223 2.59817,-2.49567 C 678.33174,438.04742 677.1577,436.91126 675.73357,436.91126 Z"
       style="fill:#ffffff;fill-opacity:0.23529412"
       inkscape:connector-curvature="0" />
    <path
       inkscape:connector-curvature="0"
       style="fill:url(#linearGradient1083);fill-opacity:1"
       d="m 656.81426,432.29076 0,23 23.51431,0 L 680.32857,432.29076 z m 2.289,2.07327 18.93641,0 0,15.98766 -3.17796,0 -2.65368,-4.42278 -2.62095,4.42278 -1.17948,0 -4.75042,-8.05938 L 659.10326,450.0241 z m 14.4152,0.91723 c -1.36473,0 -2.45707,1.08876 -2.45707,2.42441 0,1.33534 1.09234,2.39167 2.45707,2.39167 1.36483,0 2.48997,-1.05633 2.48997,-2.39167 C 676.00843,436.37002 674.88329,435.28126 673.51846,435.28126 Z"
       id="rect982"
       sodipodi:nodetypes="cccccccccccccccsssss" />
  </g>
</svg>
