<?xml version="1.0" encoding="UTF-8" standalone="no"?>
<!-- Created with Inkscape (http://www.inkscape.org/) -->

<svg
   xmlns:dc="http://purl.org/dc/elements/1.1/"
   xmlns:cc="http://creativecommons.org/ns#"
   xmlns:rdf="http://www.w3.org/1999/02/22-rdf-syntax-ns#"
   xmlns:svg="http://www.w3.org/2000/svg"
   xmlns="http://www.w3.org/2000/svg"
   xmlns:sodipodi="http://sodipodi.sourceforge.net/DTD/sodipodi-0.dtd"
   xmlns:inkscape="http://www.inkscape.org/namespaces/inkscape"
   width="48"
   height="48"
   id="svg3979"
   version="1.1"
   inkscape:version="0.48+devel r12240"
   sodipodi:docname="document-preview-archive.svg">
  <defs
     id="defs3981">
    <linearGradient
       id="linearGradient1069-77">
      <stop
         id="stop1071-69"
         offset="0"
         style="stop-color:#ffffff;stop-opacity:1" />
      <stop
         id="stop1073-1"
         offset="1"
         style="stop-color:#e6e6e6;stop-opacity:1" />
    </linearGradient>
    <linearGradient
       id="linearGradient6707-4">
      <stop
         style="stop-color:#000000;stop-opacity:1;"
         offset="0"
         id="stop6709-7" />
      <stop
         style="stop-color:#ffffff;stop-opacity:1;"
         offset="1"
         id="stop6711-3" />
    </linearGradient>
    <linearGradient
       id="linearGradient4917">
      <stop
         style="stop-color:#f2f2f2;stop-opacity:1"
         offset="0"
         id="stop4919" />
      <stop
         style="stop-color:#ffffff;stop-opacity:1;"
         offset="1"
         id="stop4921" />
    </linearGradient>
    <linearGradient
       id="linearGradient3658">
      <stop
         id="stop3660"
         offset="0"
         style="stop-color:#999999;stop-opacity:1;" />
      <stop
         id="stop3662"
         offset="1"
         style="stop-color:#ffffff;stop-opacity:1;" />
    </linearGradient>
  </defs>
  <sodipodi:namedview
     id="base"
     pagecolor="#ffffff"
     bordercolor="#666666"
     borderopacity="1.0"
     inkscape:pageopacity="0.0"
     inkscape:pageshadow="2"
     inkscape:zoom="1.465625"
     inkscape:cx="-105.57115"
     inkscape:cy="14.157119"
     inkscape:document-units="px"
     inkscape:current-layer="layer1"
     showgrid="false"
     fit-margin-top="0"
     fit-margin-left="0"
     fit-margin-right="0"
     fit-margin-bottom="0"
     inkscape:window-width="1366"
     inkscape:window-height="716"
     inkscape:window-x="0"
     inkscape:window-y="28"
     inkscape:window-maximized="1" />
  <metadata
     id="metadata3984">
    <rdf:RDF>
      <cc:Work
         rdf:about="">
        <dc:format>image/svg+xml</dc:format>
        <dc:type
           rdf:resource="http://purl.org/dc/dcmitype/StillImage" />
        <dc:title />
      </cc:Work>
    </rdf:RDF>
  </metadata>
  <g
     inkscape:label="Capa 1"
     inkscape:groupmode="layer"
     id="layer1"
     transform="translate(-601.71428,-491.21933)">
    <g
       id="g47"
       transform="translate(-45.474574,-1.932455)">
      <rect
         id="rect830"
         height="18.75"
         width="30"
         style="fill:#1a1a1a"
         y="513.39673"
         x="656.18866" />
      <polygon
         transform="matrix(0.9375,0,0,0.9375,656.18865,502.14674)"
         id="polygon832"
         points="18,8 32,8 28,0 18,0 "
         style="fill:#1a1a1a" />
      <polygon
         transform="matrix(0.9375,0,0,0.9375,656.18865,502.14674)"
         id="polygon834"
         points="14,0 4,0 0,8 14,8 "
         style="fill:#1a1a1a" />
      <path
         id="path5429"
         transform="translate(601.71428,491.21933)"
         d="m 75.375,22.1875 c -1.01907,0 -1.97587,0.26426 -2.8125,0.71875 -1.8406,0.99985 -3.09375,2.94554 -3.09375,5.1875 0,3.26103 2.64523,5.90625 5.90625,5.90625 0.66582,0 1.30997,-0.14052 1.90625,-0.34375 l 1.15625,2.03125 c -0.34874,0.26935 -0.44542,0.76358 -0.21875,1.15625 l 2.375,4.09375 3.53125,0 c 0.241221,-0.196603 0.381225,-0.481825 0.34375,-0.78125 -0.0144,-0.115085 -0.06319,-0.23667 -0.125,-0.34375 l -2.8125,-4.90625 c -0.22411,-0.39054 -0.72048,-0.53321 -1.125,-0.375 l -1.15625,-2 c 1.2315,-1.08248 2.03125,-2.66654 2.03125,-4.4375 C 81.28125,24.83273 78.63602,22.1875 75.375,22.1875 z m 0,2.03125 c 2.13423,0 3.84375,1.7407 3.84375,3.875 0,2.13424 -1.70949,3.84375 -3.84375,3.84375 -2.13427,0 -3.875,-1.7095 -3.875,-3.84375 0,-1.46726 0.82661,-2.75185 2.03125,-3.40625 C 74.07882,24.39007 74.70802,24.21875 75.375,24.21875 Z"
         style="fill:#ffffff;fill-opacity:1;stroke:none"
         inkscape:connector-curvature="0" />
    </g>
  </g>
</svg>
