<?xml version="1.0" encoding="UTF-8" standalone="no"?>
<!-- Created with Inkscape (http://www.inkscape.org/) -->

<svg
   xmlns:dc="http://purl.org/dc/elements/1.1/"
   xmlns:cc="http://creativecommons.org/ns#"
   xmlns:rdf="http://www.w3.org/1999/02/22-rdf-syntax-ns#"
   xmlns:svg="http://www.w3.org/2000/svg"
   xmlns="http://www.w3.org/2000/svg"
   xmlns:sodipodi="http://sodipodi.sourceforge.net/DTD/sodipodi-0.dtd"
   xmlns:inkscape="http://www.inkscape.org/namespaces/inkscape"
   width="48"
   height="48"
   id="svg1618"
   version="1.1"
   inkscape:version="0.48+devel r12272"
   sodipodi:docname="image-missing.svg">
  <defs
     id="defs1620" />
  <sodipodi:namedview
     id="base"
     pagecolor="#ffffff"
     bordercolor="#666666"
     borderopacity="1.0"
     inkscape:pageopacity="0.0"
     inkscape:pageshadow="2"
     inkscape:zoom="5.8625"
     inkscape:cx="45.12483"
     inkscape:cy="36.67804"
     inkscape:document-units="px"
     inkscape:current-layer="layer1"
     showgrid="false"
     inkscape:window-width="1366"
     inkscape:window-height="716"
     inkscape:window-x="0"
     inkscape:window-y="28"
     inkscape:window-maximized="1" />
  <metadata
     id="metadata1623">
    <rdf:RDF>
      <cc:Work
         rdf:about="">
        <dc:format>image/svg+xml</dc:format>
        <dc:type
           rdf:resource="http://purl.org/dc/dcmitype/StillImage" />
        <dc:title />
      </cc:Work>
    </rdf:RDF>
  </metadata>
  <g
     inkscape:label="Capa 1"
     inkscape:groupmode="layer"
     id="layer1"
     transform="translate(0,-1004.3622)">
    <path
       style="fill:#1a1a1a;fill-opacity:1;stroke:none"
       d="M 8 8 L 8 40 L 40 40 L 40 8 L 8 8 z M 16.5 12.875 C 17.157444 12.875 17.843083 13.12435 18.34375 13.625 L 24 20.125 L 29.65625 13.625 C 30.661564 12.6237 32.311167 12.6237 33.3125 13.625 C 34.313793 14.6303 34.313793 16.2472 33.3125 17.25 L 27.40625 24 L 33.3125 30.75 C 34.313793 31.7554 34.313793 33.3737 33.3125 34.375 C 32.311167 35.3763 30.661564 35.3763 29.65625 34.375 L 24 27.90625 L 18.34375 34.375 C 17.342417 35.3763 15.692771 35.3763 14.6875 34.375 C 13.686207 33.3737 13.686207 31.7554 14.6875 30.75 L 20.59375 24 L 14.6875 17.25 C 13.686207 16.2472 13.686207 14.6304 14.6875 13.625 C 15.190135 13.12435 15.842556 12.875 16.5 12.875 z "
       transform="translate(0,1004.3622)"
       id="rect859" />
  </g>
</svg>
