<?xml version="1.0" encoding="UTF-8" standalone="no"?>
<!-- Created with Inkscape (http://www.inkscape.org/) -->

<svg
   xmlns:dc="http://purl.org/dc/elements/1.1/"
   xmlns:cc="http://creativecommons.org/ns#"
   xmlns:rdf="http://www.w3.org/1999/02/22-rdf-syntax-ns#"
   xmlns:svg="http://www.w3.org/2000/svg"
   xmlns="http://www.w3.org/2000/svg"
   xmlns:xlink="http://www.w3.org/1999/xlink"
   xmlns:sodipodi="http://sodipodi.sourceforge.net/DTD/sodipodi-0.dtd"
   xmlns:inkscape="http://www.inkscape.org/namespaces/inkscape"
   width="48.000011"
   height="48.014492"
   id="svg5453"
   version="1.1"
   inkscape:version="0.48+devel r12325"
   sodipodi:docname="foto.svg">
  <defs
     id="defs5455">
    <linearGradient
       id="linearGradient3795-1">
      <stop
         style="stop-color:#803400;stop-opacity:1"
         offset="0"
         id="stop3797-1" />
      <stop
         style="stop-color:#c87137;stop-opacity:1"
         offset="1"
         id="stop3799-3" />
    </linearGradient>
    <linearGradient
       y2="1027.8474"
       x2="10.329165"
       y1="1027.8474"
       x1="0.079164565"
       gradientTransform="matrix(0.95833999,0,0,0.95833999,1.02498,-961.51016)"
       gradientUnits="userSpaceOnUse"
       id="linearGradient867"
       xlink:href="#linearGradient2347"
       inkscape:collect="always" />
    <linearGradient
       id="linearGradient2347"
       inkscape:collect="always">
      <stop
         id="stop2349"
         offset="0"
         style="stop-color:#9b5821;stop-opacity:0.99215686" />
      <stop
         style="stop-color:#944815;stop-opacity:1"
         offset="0.30000001"
         id="stop2351" />
      <stop
         id="stop2353"
         offset="1"
         style="stop-color:#633415;stop-opacity:1" />
    </linearGradient>
    <linearGradient
       inkscape:collect="always"
       xlink:href="#linearGradient3795-1"
       id="linearGradient954"
       x1="-67.766136"
       y1="25.004784"
       x2="-68.767975"
       y2="25.004784"
       gradientUnits="userSpaceOnUse"
       gradientTransform="matrix(-0.78606389,0,0,0.78606389,-47.91946,4.85842)" />
    <linearGradient
       y2="-994.90985"
       x2="88.429985"
       y1="-1042.1093"
       x1="88.429985"
       gradientTransform="matrix(0.95833999,0,0,-0.95833999,-59.68594,-952.15571)"
       gradientUnits="userSpaceOnUse"
       id="linearGradient3170"
       xlink:href="#linearGradient3795-1"
       inkscape:collect="always" />
  </defs>
  <sodipodi:namedview
     id="base"
     pagecolor="#ffffff"
     bordercolor="#666666"
     borderopacity="1.0"
     inkscape:pageopacity="0"
     inkscape:pageshadow="2"
     inkscape:zoom="5.6568543"
     inkscape:cx="36.2855"
     inkscape:cy="34.545219"
     inkscape:document-units="px"
     inkscape:current-layer="layer1"
     showgrid="false"
     fit-margin-top="0"
     fit-margin-left="0"
     fit-margin-right="0"
     fit-margin-bottom="0"
     inkscape:window-width="1366"
     inkscape:window-height="714"
     inkscape:window-x="0"
     inkscape:window-y="30"
     inkscape:window-maximized="1" />
  <metadata
     id="metadata5458">
    <rdf:RDF>
      <cc:Work
         rdf:about="">
        <dc:format>image/svg+xml</dc:format>
        <dc:type
           rdf:resource="http://purl.org/dc/dcmitype/StillImage" />
        <dc:title></dc:title>
      </cc:Work>
    </rdf:RDF>
  </metadata>
  <g
     inkscape:label="Capa 1"
     inkscape:groupmode="layer"
     id="layer1"
     transform="translate(-384.57143,-499.78351)">
    <rect
       style="color:#000000;fill:#333333;fill-opacity:1;fill-rule:nonzero;stroke:none;stroke-width:0.2;marker:none;visibility:visible;display:inline;overflow:visible;enable-background:accumulate"
       id="rect6294"
       width="45.5"
       height="45.5"
       x="385.82144"
       y="501.04074"
       ry="6.3565426" />
    <path
       style="fill:url(#linearGradient3170);fill-opacity:1;stroke:none"
       d="M 7.59375 1.75 C 4.3492254 1.75 1.75 4.3804754 1.75 7.625 L 1.75 40.40625 C 1.75 43.650775 4.3492254 46.25 7.59375 46.25 L 40.40625 46.25 C 43.650775 46.25 46.25 43.650775 46.25 40.40625 L 46.25 7.625 C 46.25 4.3804754 43.650775 1.75 40.40625 1.75 L 7.59375 1.75 z "
       transform="translate(384.57143,499.78351)"
       id="rect2991-1" />
    <path
       style="opacity:0.26259604;fill:#bf652b;fill-opacity:1;fill-rule:nonzero;stroke:none"
       d="M 7.65625 11.0625 C 6.71953 12.05243 7.02946 13.37273 5.375 14.1875 C 5.01005 14.99003 6.12229 16.15248 4.8125 16.71875 L 4.8125 14.03125 C 3.55949 16.63033 3.79294 21.35655 7.09375 22.375 L 7.09375 26.5 L 7.21875 26.96875 L 7.21875 27.03125 L 7.21875 27.46875 L 7.21875 27.5625 L 7.15625 28.03125 L 7.125 28.15625 L 7.0625 28.375 C 6.85554 29.13273 6.56276 29.8305 6.875 30.4375 L 7.09375 30.75 C 7.46277 33.91533 8.38501 36.92305 8.21875 40.21875 L 8.21875 41.1875 C 6.9414 42.27521 8.49681 39.46317 7.09375 39.21875 C 7.1005738 41.605487 8.0027549 43.779891 7.6875 46.25 L 9.28125 46.25 C 9.292887 46.099563 9.3195046 45.965819 9.34375 45.875 C 9.6607056 44.714342 9.6106265 45.440197 10.125 46.25 L 10.46875 46.25 C 10.363121 40.863956 9.3230541 35.135548 11.625 30.03125 C 10.74911 32.81773 10.92347 36.7815 11.625 39.625 C 11.7142 39.99979 12.26745 41.72374 12.75 40.9375 C 12.7824 36.91668 11.64181 32.72617 13.3125 29.03125 L 13.3125 27.46875 C 13.19085 26.69473 13.71511 25.81218 12.75 25.25 C 10.7387 26.43547 11.65338 22.35024 11.625 21.8125 L 11.625 19.6875 C 10.40844 16.67285 8.19557 14.42744 7.65625 11.0625 z M 7.65625 14.34375 C 9.46481 16.43767 9.29219 19.59636 8.78125 21.8125 C 6.95648 19.67783 7.86711 16.88579 7.65625 14.34375 z M 5.9375 17.15625 C 7.08103 17.26217 6.36905 17.73799 6.53125 18.125 C 6.9692 19.18826 7.39092 20.58342 6.53125 19.125 C 6.21884 18.59948 5.61309 18.1747 5.9375 17.15625 z M 9.90625 22.8125 C 11.69452 24.02648 11.27976 26.36357 10.46875 27.78125 C 9.1468 26.41653 10.28337 24.41349 9.90625 22.8125 z M 8.21875 24.375 C 9.53259 25.03903 8.40819 26.32252 8.78125 27.21875 C 6.3401 26.73397 8.07683 25.12458 8.21875 24.375 z M 9.34375 29.34375 C 10.6657 31.79209 9.53318 34.81538 9.90625 37.5 C 8.79516 37.77311 9.57489 36.39242 9.34375 35.96875 C 8.79632 35.97175 8.90696 36.14017 8.78125 36.25 C 7.63772 34.04201 8.43137 31.67803 9.34375 29.34375 z M 5.9375 40.5 L 5.9375 46 C 6.3739612 46.130182 6.8078543 46.193589 7.28125 46.21875 C 4.9702857 44.777598 7.8961813 42.025285 5.9375 40.5 z M 4.25 42.0625 C 4.2519816 43.121676 4.3117182 44.214953 4.40625 45.3125 C 4.5733266 45.420763 4.759159 45.533899 4.9375 45.625 C 4.8904167 45.505971 4.8407178 45.400695 4.8125 45.3125 C 4.46377 44.23702 5.5314 42.52284 4.25 42.0625 z "
       transform="translate(384.57143,499.78351)"
       id="path19954" />
    <path
       style="opacity:0.26259604;fill:#e7c494;fill-opacity:1;fill-rule:nonzero;stroke:none"
       d="M 8.75 1.75 C 9.1873556 4.8950628 9.4928076 8.0827004 9.34375 11.375 C 10.62515 11.26093 9.56173 10.55688 9.90625 10.21875 C 11.22414 11.0213 10.09163 12.42994 10.46875 13.46875 C 11.73799 13.41175 10.72593 12.79332 11.0625 12.5 C 12.38445 13.20476 11.25583 14.51957 11.625 15.46875 L 11.625 17.71875 C 13.63631 16.47217 11.6887 15.0942 12.1875 13.46875 C 12.1845 12.85768 13.15551 13.43782 12.75 13.75 L 12.75 14.75 C 13.43531 15.38144 13.3571 16.21649 13.3125 17.03125 C 14.34248 15.96799 14.13162 14.00891 13.3125 12.9375 L 13.3125 11.9375 C 13.52336 10.54833 14.0737 11.81306 13.875 13.03125 L 14.4375 12.9375 C 15.56887 15.01106 15.65862 17.31248 15.59375 19.6875 C 14.51509 19.98896 15.39871 18.62897 14.4375 18.4375 C 13.07906 18.69008 14.11309 19.54229 14.4375 19.84375 C 14.4982 21.89286 13.63284 20.00101 13.3125 19.125 C 12.50554 19.89086 12.89598 21.01157 12.75 22.25 L 12.75 23.09375 C 16.01838 24.05924 13.35189 26.00219 13.875 27.46875 L 13.875 27.625 C 15.18478 28.10571 14.06427 29.17024 14.4375 29.875 C 15.09036 29.8587 15.04866 29.66413 15 29.46875 C 16.32195 30.92717 15.22051 32.99281 15.59375 34.6875 L 15.59375 34.96875 C 17.56855 37.71448 17.89126 40.11458 18.40625 43.3125 C 18.80365 36.19153 20.12154 29.18461 18.40625 21.65625 L 18.40625 20.40625 C 15.082418 14.339935 17.018433 8.1605836 16.46875 1.75 L 8.75 1.75 z M 12.75 2.1875 C 13.79216 3.81295 13.20591 7.06646 13.875 9.25 C 12.00156 7.8364 12.99331 4.48104 12.75 2.1875 z M 15.59375 21.5625 C 17.33742 23.13091 16.92847 24.47517 17.28125 26.21875 C 15.70384 24.91921 15.84921 23.1961 15.59375 21.5625 z M 17.28125 29.03125 C 18.60321 30.1108 17.46258 31.83634 17.84375 33.15625 C 16.5218 32.07262 17.65838 30.35523 17.28125 29.03125 z M 17.46875 35.53125 C 17.76882 35.49355 18.17221 35.93808 17.84375 36.96875 C 16.97191 36.08881 17.16867 35.56893 17.46875 35.53125 z "
       transform="translate(384.57143,499.78351)"
       id="path19998" />
    <path
       style="opacity:0.26259604;fill:#c9813f;fill-opacity:1;fill-rule:nonzero;stroke:none"
       d="M 6.65625 1.84375 C 6.0489856 1.9430509 5.4658576 2.136352 4.9375 2.40625 C 5.2685961 4.6148092 6.1041459 6.8732634 4.8125 8.9375 C 4.31373 10.10261 5.09751 11.28976 4.25 11.9375 C 4.94342 11.40791 2.09271 5.6994 4.25 5.125 C 3.8886777 4.5266606 4.9353307 3.5865041 3.75 3.1875 C 3.7048939 3.2267846 3.6688676 3.2718665 3.625 3.3125 C 3.5789002 3.7097027 4.2533213 4.2743613 3.125 4.40625 C 3.0729178 4.2806752 3.0182486 4.1575591 2.96875 4.03125 C 2.2071924 5.0195516 1.75 6.2752637 1.75 7.625 L 1.75 17.3125 C 1.8174606 17.42441 1.9118733 17.51758 2 17.59375 C 3.32194 16.55494 2.18117 14.89602 2.5625 13.625 C 5.53081 16.01631 2.30994 19.18227 3.125 21.96875 C 2.1675147 21.734525 1.9644042 21.325156 1.75 20.90625 L 1.75 24.34375 C 2.0916387 25.075085 2.5462288 25.55933 3.125 25.5 C 2.79249 26.50622 3.81957 28.57762 2.5625 28.875 C 2.4953247 28.389102 2.2506789 28.67887 1.75 28.8125 L 1.75 30.65625 C 2.3211566 31.198786 2.2903768 32.332186 3.125 32.71875 C 4.76325 30.96703 2.59959 28.25581 4.25 26.5 C 4.78933 30.04013 6.74097 33.21941 7.09375 36.8125 L 7.09375 39.21875 C 8.49681 39.46317 6.94124 42.27521 8.21875 41.1875 L 8.21875 40.21875 C 8.38518 36.92305 7.46277 33.91533 7.09375 30.75 L 6.875 30.4375 C 6.45733 29.83458 5.95822 29.17625 5.5 28.5 L 5.4375 28.4375 L 5.28125 28.125 L 5.1875 28.03125 L 5.03125 27.75 L 4.9375 27.59375 L 4.78125 27.375 L 4.6875 27.21875 L 4.59375 26.96875 L 4.53125 26.8125 L 4.40625 26.59375 L 4.34375 26.4375 L 4.28125 26.21875 L 4.21875 26.0625 L 4.1875 25.875 L 4.15625 25.71875 L 4.125 25.5 L 4.125 25.34375 L 4.125 25.15625 L 4.125 25.03125 L 4.21875 24.6875 C 4.16585 24.99286 5.60092 23.88701 5.9375 23.5 C 5.8765 24.60399 6.07999 25.65673 7.09375 26.5 L 7.09375 22.375 C 3.79294 21.35655 3.55949 16.66158 4.8125 14.0625 L 4.8125 16.71875 C 6.12229 16.15248 5.00988 14.99003 5.375 14.1875 C 7.02946 13.37273 6.71953 12.05243 7.65625 11.0625 C 8.19557 14.42744 10.40848 16.6729 11.625 19.6875 L 11.625 17.71875 L 11.625 15.46875 C 10.08408 15.36707 12.00156 16.10593 10.46875 16 C 10.23355 15.20154 11.2253 13.45813 9.34375 13.90625 C 8.56924 11.31532 7.19514 8.87888 7.09375 6.125 C 5.86508 6.0957 6.83927 6.64007 6.53125 6.84375 C 5.82161 6.65636 5.03784 5.24866 7.09375 5.28125 L 7.09375 4.15625 L 7.09375 2.1875 C 6.92633 2.0864742 6.7780195 1.9575389 6.65625 1.84375 z M 3.6875 21.8125 C 4.98917 22.10174 3.8891 23.01388 4.25 23.53125 C 2.95238 23.24609 4.05245 22.33395 3.6875 21.8125 z "
       transform="translate(384.57143,499.78351)"
       id="path19870" />
    <g
       id="g4206">
      <path
         id="path19368"
         transform="translate(384.57143,499.78351)"
         d="M 46.21875 34.96875 L 46.21875 36.96875 C 46.231495 36.999758 46.237405 37.031642 46.25 37.0625 L 46.25 34.96875 C 46.238366 34.971119 46.230839 34.966459 46.21875 34.96875 z "
         style="opacity:0.26259604;fill:#d79f5d;fill-opacity:1;fill-rule:nonzero;stroke:none" />
      <path
         id="path19378"
         transform="translate(384.57143,499.78351)"
         d="M 45.625 36.96875 C 45.625 37.49019 45.659 37.98671 45.6875 38.5 L 45.71875 39.1875 L 45.75 39.1875 L 45.84375 40.03125 L 45.9375 40.84375 L 46.0625 41.53125 L 46.09375 41.75 C 46.193801 41.319681 46.25 40.867879 46.25 40.40625 L 46.25 37.125 C 46.228808 37.072697 46.209125 37.021362 46.1875 36.96875 L 45.625 36.96875 z "
         style="opacity:0.26259604;fill:#c9813f;fill-opacity:1;fill-rule:nonzero;stroke:none" />
      <path
         d="m 430.78859,533.63143 c 0,-0.46848 0,-0.94512 0,-1.41768 l -0.57176,0 c 0.35279,0.4359 -0.7218,1.22621 0.57176,1.41768"
         style="opacity:0.26259604;fill:#c9813f;fill-opacity:1;fill-rule:nonzero;stroke:none"
         id="path19430"
         inkscape:connector-curvature="0" />
      <path
         d="m 430.21683,532.21375 0,-0.27702 -0.5677,0 c 0,0.89216 0,1.7884 0,2.68463 1.30572,0.33405 0.20275,1.27103 0.5677,1.84135 l 0,0.28126 0.57176,0 c 0,-0.65588 0,-1.31584 0,-1.97987 0,-0.37886 0,-0.75365 0,-1.13251 -1.29356,-0.19163 -0.21897,-0.98178 -0.57176,-1.41768"
         style="opacity:0.26259604;fill:#bf652b;fill-opacity:1;fill-rule:nonzero;stroke:none"
         id="path19432"
         inkscape:connector-curvature="0" />
      <path
         d="m 429.08141,529.52912 0,1.84136 c 0.83534,0.0228 0.52311,0.34626 0.56772,0.56625 l 0.5677,0 c -0.37712,-0.994 0.74613,-2.35872 -0.5677,-3.11237 -0.31208,0.20793 0.66908,0.72921 -0.56772,0.70476"
         style="opacity:0.26259604;fill:#c9813f;fill-opacity:1;fill-rule:nonzero;stroke:none"
         id="path19436"
         inkscape:connector-curvature="0" />
      <path
         d="m 429.64913,536.46271 0.5677,0 c -0.36495,-0.57032 0.73802,-1.5073 -0.5677,-1.84135 0,0.42367 0,0.84734 0,1.2751 l 0,0.56625"
         style="opacity:0.26259604;fill:#c9813f;fill-opacity:1;fill-rule:nonzero;stroke:none"
         id="path19438"
         inkscape:connector-curvature="0" />
      <path
         d="m 430.21683,540.99276 c -1.3179,0.75365 -0.19464,2.1143 -0.5677,3.10831 1.31383,-0.75366 0.19042,-2.11838 0.5677,-3.10831"
         style="opacity:0.26259604;fill:#e7c494;fill-opacity:1;fill-rule:nonzero;stroke:none"
         id="path19440"
         inkscape:connector-curvature="0" />
      <path
         d="m 429.64913,528.82436 c 0,-0.46849 0,-0.94104 0,-1.41768 l -0.56772,0 c 0,0.71292 0,1.41768 0,2.12244 1.2368,0.0228 0.25564,-0.49699 0.56772,-0.70476"
         style="opacity:0.26259604;fill:#bf652b;fill-opacity:1;fill-rule:nonzero;stroke:none"
         id="path19444"
         inkscape:connector-curvature="0" />
      <path
         d="m 429.08141,531.37048 c 0.37712,1.46249 -0.75018,3.29976 0.56772,4.52598 0,-0.42776 0,-0.85143 0,-1.2751 0,-0.89623 0,-1.79247 0,-2.68463 -0.0447,-0.21999 0.26762,-0.54181 -0.56772,-0.56625"
         style="opacity:0.26259604;fill:#d79f5d;fill-opacity:1;fill-rule:nonzero;stroke:none"
         id="path19446"
         inkscape:connector-curvature="0" />
      <path
         d="m 429.08141,530.52313 0,-0.99401 c 0,-0.70476 0,-1.40952 0,-2.12244 -0.36495,-0.51737 0.73397,-1.40546 -0.56365,-1.69469 0.37306,1.56026 -0.75829,3.48716 0.56365,4.81114"
         style="opacity:0.26259604;fill:#d79f5d;fill-opacity:1;fill-rule:nonzero;stroke:none"
         id="path19450"
         inkscape:connector-curvature="0" />
      <path
         d="m 428.51776,519.06357 c 0,-0.61515 0,-1.22621 0,-1.83728 -0.94482,0.28516 -0.94482,1.55211 0,1.83728"
         style="opacity:0.26259604;fill:#c9813f;fill-opacity:1;fill-rule:nonzero;stroke:none"
         id="path19458"
         inkscape:connector-curvature="0" />
      <path
         d="m 427.37828,512.27664 c 0,1.13251 0,2.26095 0,3.39346 0.94484,-0.80253 0.94484,-2.58685 0,-3.39346"
         style="opacity:0.26259604;fill:#c9813f;fill-opacity:1;fill-rule:nonzero;stroke:none"
         id="path19460"
         inkscape:connector-curvature="0" />
      <path
         d="m 426.25098,529.10952 c 0.35685,0.47256 -0.73396,1.31177 0.56771,1.55212 -0.3609,-0.47664 0.72586,-1.31584 -0.56771,-1.55212"
         style="opacity:0.26259604;fill:#d79f5d;fill-opacity:1;fill-rule:nonzero;stroke:none"
         id="path19462"
         inkscape:connector-curvature="0" />
      <path
         d="m 426.81869,531.79415 c 0,-0.37479 0,-0.75365 0,-1.13251 -1.30167,-0.24051 -0.21086,-1.07956 -0.56771,-1.55212 0,-0.47255 0,-0.94918 0,-1.4136 -1.31384,-0.52552 -0.19853,-1.64988 -0.57176,-2.40761 0,-0.94512 0,-1.88209 0,-2.8272 -1.31384,0.8066 -0.19076,2.21207 -0.56366,3.25088 0,0.74957 0,1.50729 0,2.26095 1.30979,0.66403 0.19465,1.93097 0.56366,2.83128 1.62203,0.0228 -0.49066,0.96956 1.13947,0.98993"
         style="opacity:0.26259604;fill:#c9813f;fill-opacity:1;fill-rule:nonzero;stroke:none"
         id="path19464"
         inkscape:connector-curvature="0" />
      <path
         d="m 426.81869,531.79415 c -1.63013,-0.0195 0.48256,-0.96549 -1.13947,-0.98993 0,0.71291 0,1.40953 0,2.12245 1.43549,0.16685 -0.2352,4.24081 1.13947,2.96979 0,-1.13252 0,-2.26503 0,-3.39755 l 0,-0.70476"
         style="opacity:0.26259604;fill:#bf652b;fill-opacity:1;fill-rule:nonzero;stroke:none"
         id="path19466"
         inkscape:connector-curvature="0" />
      <path
         d="m 425.67922,525.28831 c 0.37307,0.75773 -0.74208,1.88209 0.57176,2.40761 -0.37306,-0.7618 0.74208,-1.88209 -0.57176,-2.40761"
         style="opacity:0.26259604;fill:#d79f5d;fill-opacity:1;fill-rule:nonzero;stroke:none"
         id="path19468"
         inkscape:connector-curvature="0" />
      <path
         d="m 426.25098,537.7378 c -0.19853,-0.94511 -0.46227,-1.86172 -1.13542,-2.69277 0.13366,-1.67432 -1.00159,-0.40738 -0.57176,0.57034 l 0,0.56218 c 1.69907,0.23628 -0.78263,1.51544 1.70718,1.56025"
         style="opacity:0.26259604;fill:#bf652b;fill-opacity:1;fill-rule:nonzero;stroke:none"
         id="path19470"
         inkscape:connector-curvature="0" />
      <path
         d="m 429.64913,528.82436 c 1.31383,0.75365 0.19042,2.11837 0.5677,3.11237 l 0,0.27702 0.57176,0 c -0.22708,-1.89024 1.00566,-3.41791 0.56365,-5.36925 -1.41926,-0.67217 0.36091,1.74765 -1.13541,1.97986 -0.37712,-0.89623 0.74613,-2.16318 -0.5677,-2.83128 0,0.46848 0,0.94511 0,1.4136 0,0.47664 0,0.94919 0,1.41768"
         style="opacity:0.26259604;fill:#d79f5d;fill-opacity:1;fill-rule:nonzero;stroke:none"
         id="path19820"
         inkscape:connector-curvature="0" />
      <path
         id="path19822"
         transform="translate(384.57143,499.78351)"
         d="M 42.71875 2.25 C 42.6467 5.646256 43.063224 9.1492035 42.8125 12.5 C 43.75733 13.30662 43.75733 15.10372 42.8125 15.90625 C 43.16529 19.12455 43.04436 22.42836 43.96875 25.5 C 44.33776 24.69746 43.19021 23.53907 44.5 22.96875 C 44.86901 23.53907 43.75271 24.44312 45.0625 24.78125 C 44.57184 22.96433 44.93791 20.97186 43.96875 19.28125 C 43.02392 18.99607 43.02392 17.72266 43.96875 17.4375 C 43.72745 12.489253 43.150189 7.700006 43.78125 2.8125 C 43.45467 2.5828601 43.090151 2.4097953 42.71875 2.25 z "
         style="opacity:0.26259604;fill:#d79f5d;fill-opacity:1;fill-rule:nonzero;stroke:none" />
      <path
         id="path19828"
         transform="translate(384.57143,499.78351)"
         d="M 42.25 32.71875 L 42.25 36.09375 C 44.64249 37.91881 40.27113 39.89364 42.25 41.625 L 42.25 43.46875 C 42.1728 43.65191 42.16371 44.49158 42.8125 44.03125 C 43.18963 42.47506 42.08024 40.53458 43.40625 39.21875 C 43.401262 41.000926 44.364237 42.5278 44.84375 44.1875 C 44.950398 44.062131 45.06035 43.946706 45.15625 43.8125 C 45.157764 42.898883 44.549916 41.820173 45.65625 41.1875 C 45.471107 41.673501 45.653551 42.260947 45.71875 42.8125 C 45.872681 42.470976 46.007013 42.123055 46.09375 41.75 L 46.0625 41.53125 L 45.9375 40.84375 L 45.84375 40.03125 L 45.75 39.1875 L 45.6875 38.5 C 45.6583 37.98671 45.65625 37.49019 45.65625 36.96875 L 45.65625 36.6875 L 45.09375 36.6875 C 44.72068 37.82001 45.82196 39.32252 44.5 40.21875 C 42.6873 37.98224 43.72199 35.04081 42.25 32.71875 z "
         style="opacity:0.26259604;fill:#d79f5d;fill-opacity:1;fill-rule:nonzero;stroke:none" />
      <path
         d="m 431.57527,545.70613 -0.0892,-0.35034 0.0892,0.35034"
         style="opacity:0.26259604;fill:#d79f5d;fill-opacity:1;fill-rule:nonzero;stroke:none"
         id="path19834"
         inkscape:connector-curvature="0" />
      <path
         d="m 430.21683,536.7438 c 0,0.52145 0.0162,1.03474 0.0447,1.54804 -0.0292,-0.5133 -0.0447,-1.02659 -0.0447,-1.54804"
         style="opacity:0.26259604;fill:#d79f5d;fill-opacity:1;fill-rule:nonzero;stroke:none"
         id="path19836"
         inkscape:connector-curvature="0" />
      <path
         d="m 431.20626,544.25587 -0.10121,-0.45627 0.10121,0.45627"
         style="opacity:0.26259604;fill:#d79f5d;fill-opacity:1;fill-rule:nonzero;stroke:none"
         id="path19840"
         inkscape:connector-curvature="0" />
      <path
         d="m 430.60611,541.31051 -0.0973,-0.68031 0.0973,0.68031"
         style="opacity:0.26259604;fill:#d79f5d;fill-opacity:1;fill-rule:nonzero;stroke:none"
         id="path19842"
         inkscape:connector-curvature="0" />
      <path
         d="m 430.8778,542.7893 -0.10542,-0.55404 0.10542,0.55404"
         style="opacity:0.26259604;fill:#d79f5d;fill-opacity:1;fill-rule:nonzero;stroke:none"
         id="path19844"
         inkscape:connector-curvature="0" />
      <path
         d="m 430.39931,539.80729 -0.0811,-0.84734 0.0811,0.84734"
         style="opacity:0.26259604;fill:#d79f5d;fill-opacity:1;fill-rule:nonzero;stroke:none"
         id="path19846"
         inkscape:connector-curvature="0" />
      <path
         id="path19850"
         transform="translate(384.57143,499.78351)"
         d="M 38.96875 28.125 C 38.87805 28.1695 38.83462 28.40796 38.84375 29.03125 L 38.84375 30.75 C 38.92065 35.36967 37.18467 40.17952 37.6875 45.3125 C 37.915591 45.560084 37.565807 45.955489 37.625 46.25 L 38.28125 46.25 L 38.28125 45.03125 L 38.28125 44.65625 L 38.1875 44.25 L 38.15625 44.21875 L 38.125 43.875 L 38.125 43.78125 L 38.15625 43.4375 L 38.15625 43.375 L 38.28125 43 L 38.28125 41.90625 C 39.47749 39.71047 37.97076 36.60185 39.40625 34.125 C 39.76714 34.64644 38.66708 35.55043 39.96875 35.84375 C 39.53892 34.86603 40.66507 33.60692 40.53125 35.28125 C 41.2044 36.1123 41.45756 37.02363 41.65625 37.96875 C 39.16644 37.92385 41.66895 36.64253 39.96875 36.40625 C 40.057571 39.527649 40.814472 42.813978 41.53125 46.125 C 42.842439 45.865419 44.008465 45.192775 44.84375 44.21875 C 44.368456 42.543977 43.369177 41.014822 43.375 39.21875 C 42.04899 40.53458 43.18963 42.47506 42.8125 44.03125 C 42.16369 44.49158 42.17296 43.65207 42.25 43.46875 L 42.25 41.625 C 40.27113 39.89364 44.64249 37.91881 42.25 36.09375 C 40.87533 37.36477 42.52941 33.32327 41.09375 33.15625 C 41.00455 33.31919 41.19225 33.53805 40.53125 33.5625 C 40.17442 32.79663 40.27289 31.75333 39.96875 30.4375 C 39.83782 29.85995 39.24091 27.99152 38.96875 28.125 z "
         style="opacity:0.26259604;fill:#c9813f;fill-opacity:1;fill-rule:nonzero;stroke:none" />
      <path
         id="path19906"
         transform="translate(384.57143,499.78351)"
         d="M 43.78125 2.8125 C 43.150189 7.700006 43.72745 12.489253 43.96875 17.4375 L 43.96875 19.28125 C 44.93791 20.97186 44.57184 22.96433 45.0625 24.78125 L 45.0625 26.21875 C 46.37634 26.88685 45.27897 28.13502 45.65625 29.03125 C 45.999157 28.977999 46.173511 28.812942 46.25 28.59375 L 46.25 27.71875 C 46.203126 27.40195 46.14772 27.114976 46.25 27 L 46.25 7.625 C 46.25 5.6381125 45.285728 3.8703982 43.78125 2.8125 z M 46.25 31.28125 C 46.200895 31.649099 46.171374 32.04314 46.21875 32.4375 L 46.21875 33.875 L 46.21875 34.96875 C 46.230839 34.966459 46.238366 34.971119 46.25 34.96875 L 46.25 31.28125 z "
         style="opacity:0.26259604;fill:#e7c494;fill-opacity:1;fill-rule:nonzero;stroke:none" />
      <path
         d="m 429.08141,522.73812 c -1.30978,0.57033 -0.19464,1.74766 -0.56365,2.55019 -0.22708,0.20369 -0.68125,0.23628 0,0.42368 1.29762,0.2894 0.19886,1.17732 0.56365,1.69469 l 0.56772,0 c 0,-0.46849 0,-0.94512 0,-1.4136 0,-0.46849 0,-0.94104 0,-1.40953 -1.30979,-0.33813 -0.19887,-1.2751 -0.56772,-1.84543"
         style="opacity:0.26259604;fill:#c9813f;fill-opacity:1;fill-rule:nonzero;stroke:none"
         id="path19910"
         inkscape:connector-curvature="0" />
      <path
         id="path19916"
         transform="translate(384.57143,499.78351)"
         d="M 38.84375 8.6875 C 39.01406 9.19672 38.75555 9.61434 38.28125 9.96875 L 37.6875 9.96875 L 37.6875 15.1875 L 37.6875 18.4375 C 36.7305 19.38262 37.24665 16.63551 37.125 16 C 35.62462 16.23628 37.41928 18.70343 36 18.03125 C 34.34554 19.79112 36.70093 22.5172 34.3125 24.09375 C 33.59069 20.78584 34.23895 17.12047 33.15625 13.90625 L 33.15625 16 C 32.80346 16.43183 33.89137 17.24603 32.59375 17.4375 C 32.39522 20.83096 33.93943 23.80755 34.3125 27.0625 C 36.56306 23.44905 34.43459 29.01281 36 30.03125 C 36.30397 27.79475 35.5945 23.94165 36 21.65625 C 36.007 21.59925 36.79653 18.8119 37.125 20.15625 C 37.0601 24.35633 36.64766 29.17976 36.5625 32.3125 C 36.4733 32.14564 36.661 31.89536 36 31.875 C 36.46633 34.58814 36.26532 37.44305 37.125 40.0625 C 36.41536 39.26811 35.02794 38.96826 35.4375 40.21875 C 33.73843 37.57893 36.01562 33.95232 34.3125 31.3125 C 34.0692 32.53464 35.01346 37.1262 33.15625 34.4375 L 33.15625 34.6875 C 33.32234 36.0563 34.0744 37.31335 33.75 38.8125 L 33.75 40.21875 C 35.04356 40.41852 33.9597 41.20133 34.3125 41.625 L 34.3125 43.3125 C 35.6304 43.92764 34.50177 45.17576 34.875 46.03125 L 34.875 46.25 L 37.625 46.25 C 37.565844 45.955485 37.9157 45.560084 37.6875 45.3125 C 37.18467 40.17952 38.9208 35.36967 38.84375 30.75 C 37.89892 30.50133 37.89892 29.27974 38.84375 29.03125 C 38.80715 26.53809 39.79439 29.66755 39.96875 30.4375 C 40.27273 31.75333 40.17425 32.79663 40.53125 33.5625 C 41.19223 33.5397 41.00454 33.31903 41.09375 33.15625 L 41.09375 31 C 40.72474 30.09969 41.84104 28.85152 40.53125 28.1875 C 38.41451 24.47221 37.89487 18.38334 38.84375 13.90625 C 39.2087 13.28296 38.09646 12.32043 39.40625 11.9375 C 39.03315 10.90276 40.15759 9.49003 38.84375 8.6875 z M 39.40625 34.125 C 37.97076 36.60185 39.47765 39.71047 38.28125 41.90625 L 38.28125 43 L 38.46875 42.65625 L 38.5 42.625 L 38.625 42.53125 C 38.099096 43.345131 39.378443 44.826964 39.75 46.25 L 40.40625 46.25 C 40.800854 46.25 41.158919 46.198712 41.53125 46.125 C 40.814306 42.813264 40.057489 39.528313 39.96875 36.40625 L 39.96875 35.84375 C 38.66709 35.55034 39.76715 34.64644 39.40625 34.125 z M 35.4375 43.46875 C 36.75134 44.03501 35.63083 45.22057 36 46.03125 C 34.6821 45.45685 35.80652 44.27129 35.4375 43.46875 z M 38.28125 44.65625 L 38.28125 45.03125 L 38.28125 46.25 L 38.96875 46.25 C 38.72116 45.735144 38.453634 45.188166 38.28125 44.65625 z "
         style="opacity:0.26259604;fill:#d79f5d;fill-opacity:1;fill-rule:nonzero;stroke:none" />
      <path
         id="path19992"
         transform="translate(384.57143,499.78351)"
         d="M 37.75 1.75 C 37.891445 2.1812904 38.065536 2.5896664 38.28125 3 L 38.28125 1.75 L 37.75 1.75 z M 39.96875 1.75 L 39.96875 6.96875 C 38.42784 7.20503 40.42928 5.34905 38.84375 5.125 L 38.84375 8.6875 C 40.15759 9.49003 39.03318 10.90276 39.40625 11.9375 L 39.40625 15.3125 C 40.72819 16.4491 39.59164 18.1937 39.96875 19.5625 C 38.27779 18.85365 38.98568 17.55645 38.84375 16.46875 L 38.84375 13.90625 C 37.89487 18.38334 38.41451 24.47221 40.53125 28.1875 L 40.53125 25.9375 C 39.20931 24.19392 40.34587 21.8236 39.96875 19.84375 C 41.35153 20.54037 41.08969 21.64868 41.09375 22.6875 L 41.09375 25.5 C 42.40759 26.02551 41.28302 27.14444 41.65625 27.90625 L 41.65625 29.34375 C 42.94982 29.58003 41.88894 30.39836 42.25 30.875 L 42.25 32 L 42.25 32.71875 C 43.72199 35.04081 42.68739 37.98224 44.5 40.21875 C 45.82195 39.32252 44.68943 37.82001 45.0625 36.6875 L 45.0625 36.09375 C 43.7446 34.86754 44.87695 33.05624 44.5 31.59375 L 44.5 30.75 C 43.17805 29.42601 44.34165 27.49776 43.96875 25.9375 C 43.28749 25.75011 43.74166 25.70368 43.96875 25.5 C 43.04419 22.42836 43.16529 19.12455 42.8125 15.90625 L 42.8125 12.5 C 43.063322 9.1492035 42.646734 5.646256 42.71875 2.25 C 42.007169 1.9438416 41.23259 1.75 40.40625 1.75 L 39.96875 1.75 z "
         style="opacity:0.26259604;fill:#e7c494;fill-opacity:1;fill-rule:nonzero;stroke:none" />
      <path
         d="m 424.5438,519.62983 c 0.37712,1.97985 -0.75018,4.33857 0.57176,6.08216 0.37307,-1.03881 -0.75018,-2.44428 0.56366,-3.25088 -0.003,-1.03882 0.2472,-2.13467 -1.13542,-2.83128"
         style="opacity:0.26259604;fill:#d79f5d;fill-opacity:1;fill-rule:nonzero;stroke:none"
         id="path19472"
         inkscape:connector-curvature="0" />
      <path
         id="path19478"
         transform="translate(384.57143,499.78351)"
         d="M 38.90625 1.75 C 38.900579 2.8735027 38.619628 4.0593347 38.84375 5.125 C 40.42928 5.34889 38.42784 7.20503 39.96875 6.96875 L 39.96875 1.75 L 38.90625 1.75 z "
         style="opacity:0.26259604;fill:#d79f5d;fill-opacity:1;fill-rule:nonzero;stroke:none" />
      <path
         d="m 423.41243,516.24044 c 0.14178,1.08769 -0.55959,2.39945 1.13137,3.10829 -0.37712,-1.36879 0.75829,-3.10829 -0.56365,-4.24489 -0.34469,0.33405 0.70963,1.02252 -0.56772,1.1366"
         style="opacity:0.26259604;fill:#d79f5d;fill-opacity:1;fill-rule:nonzero;stroke:none"
         id="path19480"
         inkscape:connector-curvature="0" />
      <path
         d="m 423.98015,515.10384 c 0,-1.1325 0,-2.26095 0,-3.39346 -1.30979,0.38293 -0.20276,1.36064 -0.56772,1.98394 0,0.84327 0,1.69469 0,2.54612 1.27735,-0.11408 0.2232,-0.80255 0.56772,-1.1366"
         style="opacity:0.26259604;fill:#c9813f;fill-opacity:1;fill-rule:nonzero;stroke:none"
         id="path19482"
         inkscape:connector-curvature="0" />
      <path
         id="path19484"
         transform="translate(384.57143,499.78351)"
         d="M 38.625 42.53125 L 38.5 42.625 L 38.46875 42.65625 L 38.28125 43 L 38.28125 44.65625 C 38.453634 45.188166 38.72116 45.735144 38.96875 46.25 L 39.75 46.25 C 39.378455 44.827037 38.099096 43.345225 38.625 42.53125 z "
         style="opacity:0.26259604;fill:#e7c494;fill-opacity:1;fill-rule:nonzero;stroke:none" />
      <path
         id="path19486"
         transform="translate(384.57143,499.78351)"
         d="M 38.28125 1.75 L 38.28125 3 C 37.90413 3.98993 39.00539 5.36728 37.6875 6.125 L 37.6875 9.96875 L 38.28125 9.96875 C 38.75569 9.61434 39.01406 9.19672 38.84375 8.6875 L 38.84375 5.125 C 38.619538 4.0593347 38.900546 2.8735027 38.90625 1.75 L 38.28125 1.75 z "
         style="opacity:0.26259604;fill:#c9813f;fill-opacity:1;fill-rule:nonzero;stroke:none" />
      <path
         d="m 423.41243,530.52313 c 0,-0.57033 0,-1.13252 0,-1.69877 -0.94482,0.24866 -0.94482,1.45026 0,1.69877"
         style="opacity:0.26259604;fill:#e7c494;fill-opacity:1;fill-rule:nonzero;stroke:none"
         id="path19488"
         inkscape:connector-curvature="0" />
      <path
         d="m 421.71337,503.64428 c 0,0.52145 0,1.03881 0,1.55619 l 0.56365,0 c -0.3609,-0.47256 0.73397,-1.31176 -0.56365,-1.55619"
         style="opacity:0.26259604;fill:#c9813f;fill-opacity:1;fill-rule:nonzero;stroke:none"
         id="path19490"
         inkscape:connector-curvature="0" />
      <path
         d="m 421.71337,510.57787 c -1.6788,0.2894 0.53932,1.54804 -1.13542,1.84135 0,1.78839 0,3.58086 0,5.37332 1.41927,0.67218 -0.36496,-1.74765 1.13542,-1.98393 0.12165,0.63551 -0.39334,3.35273 0.56365,2.40761 0,-1.08363 0,-2.17133 0,-3.25496 -1.3179,-1.17732 -0.19464,-2.96979 -0.56365,-4.38339"
         style="opacity:0.26259604;fill:#c9813f;fill-opacity:1;fill-rule:nonzero;stroke:none"
         id="path19492"
         inkscape:connector-curvature="0" />
      <path
         d="m 420.57795,512.41922 c 1.67474,-0.29331 -0.54338,-1.55211 1.13542,-1.84135 -0.34063,-0.29332 0.70153,-0.9329 -0.57177,-0.98993 -1.06648,0.72513 -0.36901,1.89024 -0.56365,2.83128"
         style="opacity:0.26259604;fill:#d79f5d;fill-opacity:1;fill-rule:nonzero;stroke:none"
         id="path19494"
         inkscape:connector-curvature="0" />
      <path
         d="m 421.1416,532.07524 c 0.0853,-3.13274 0.50689,-7.96017 0.57177,-12.16025 -0.32846,-1.34435 -1.12731,1.49508 -1.13542,1.55211 -0.40551,2.2854 0.30397,6.11068 0,8.34719 0,0.61107 0,1.22621 0,1.83728 0.66097,0.0195 0.47444,0.25681 0.56365,0.42367"
         style="opacity:0.26259604;fill:#e7c494;fill-opacity:1;fill-rule:nonzero;stroke:none"
         id="path19496"
         inkscape:connector-curvature="0" />
      <path
         id="path19500"
         transform="translate(384.57143,499.78351)"
         d="M 36 1.75 L 36 2.875 C 36.277005 2.5679348 36.453187 2.1725387 36.5625 1.75 L 36 1.75 z "
         style="opacity:0.26259604;fill:#c9813f;fill-opacity:1;fill-rule:nonzero;stroke:none" />
      <path
         id="path19502"
         transform="translate(384.57143,499.78351)"
         d="M 34.3125 46.03125 C 34.245085 46.097365 34.208061 46.163925 34.21875 46.25 L 34.875 46.25 L 34.875 46.03125 L 34.3125 46.03125 z "
         style="opacity:0.26259604;fill:#bf652b;fill-opacity:1;fill-rule:nonzero;stroke:none" />
      <path
         d="m 420.01025,543.25371 c 0.36901,0.80254 -0.7502,1.97172 0.5677,2.54612 -0.36901,-0.81068 0.74613,-1.97986 -0.5677,-2.54612"
         style="opacity:0.26259604;fill:#e7c494;fill-opacity:1;fill-rule:nonzero;stroke:none"
         id="path19506"
         inkscape:connector-curvature="0" />
      <path
         d="m 419.44253,508.02768 c 0.37307,0.94919 -0.74613,2.26502 0.56772,2.97794 -0.37307,-0.9492 0.74612,-2.26503 -0.56772,-2.97794"
         style="opacity:0.26259604;fill:#d79f5d;fill-opacity:1;fill-rule:nonzero;stroke:none"
         id="path19508"
         inkscape:connector-curvature="0" />
      <path
         d="m 418.87077,545.79983 0.57176,0 c -0.37306,-0.85549 0.74614,-2.07763 -0.57176,-2.69277 l 0,0.28125 c 0,0.81069 0,1.60508 0,2.41168"
         style="opacity:0.26259604;fill:#c9813f;fill-opacity:1;fill-rule:nonzero;stroke:none"
         id="path19510"
         inkscape:connector-curvature="0" />
      <path
         id="path19512"
         transform="translate(384.57143,499.78351)"
         d="M 29.75 1.75 C 30.065644 4.6433594 29.904003 7.7607671 29.21875 10.375 L 29.21875 11.21875 C 30.53664 12.43681 29.40007 14.29159 29.78125 15.75 L 29.78125 17.3125 C 30.46655 21.90366 31.89223 26.28792 32.59375 30.875 L 32.59375 31.4375 C 33.89949 31.77154 32.79551 32.71091 33.15625 33.28125 L 33.15625 34.4375 C 35.01346 37.1262 34.0692 32.53464 34.3125 31.3125 L 34.3125 27.0625 C 33.93943 23.80755 32.39506 20.83096 32.59375 17.4375 L 32.59375 16.59375 C 31.28397 15.93378 32.39637 14.64216 32.03125 13.75 L 32.03125 10.90625 L 32.03125 10.09375 C 31.49155 7.4525312 31.368206 4.6045901 31.375 1.75 L 29.75 1.75 z "
         style="opacity:0.26259604;fill:#e7c494;fill-opacity:1;fill-rule:nonzero;stroke:none" />
      <path
         d="m 418.87077,541.40828 c -0.35279,-0.42367 0.72991,-1.20991 -0.56365,-1.40952 0,0.46848 0,0.94511 0,1.40952 l 0.56365,0"
         style="opacity:0.26259604;fill:#c9813f;fill-opacity:1;fill-rule:nonzero;stroke:none"
         id="path19514"
         inkscape:connector-curvature="0" />
      <path
         d="m 418.87077,543.38815 0,-0.28126 c 0,-0.56625 0,-1.12843 0,-1.69877 l -0.56365,0 c 0.36495,0.6233 -0.74208,1.60508 0.56365,1.97986"
         style="opacity:0.26259604;fill:#bf652b;fill-opacity:1;fill-rule:nonzero;stroke:none"
         id="path19516"
         inkscape:connector-curvature="0" />
      <path
         id="path19518"
         transform="translate(384.57143,499.78351)"
         d="M 32.59375 36.09375 L 32.59375 41.5 C 33.9076 41.97255 32.79129 43.04524 33.15625 43.75 L 33.15625 43.90625 C 34.46198 44.29326 33.38083 45.26801 33.75 45.875 L 33.75 46.25 L 34.21875 46.25 C 34.20805 46.163922 34.245123 46.097365 34.3125 46.03125 L 34.3125 43.59375 C 33.00677 43.21897 34.11479 42.24829 33.75 41.625 L 33.75 40.21875 L 33.75 38.8125 C 32.06311 38.24218 34.28471 36.66408 32.59375 36.09375 z "
         style="opacity:0.26259604;fill:#aa4a1e;fill-opacity:1;fill-rule:nonzero;stroke:none" />
      <path
         d="m 417.73941,543.67331 c 0.36901,0.61515 -0.73802,1.60508 0.56771,1.97986 -0.36901,-0.60699 0.73802,-1.59284 -0.56771,-1.97986"
         style="opacity:0.26259604;fill:#bf652b;fill-opacity:1;fill-rule:nonzero;stroke:none"
         id="path19520"
         inkscape:connector-curvature="0" />
      <path
         d="m 417.73941,509.16426 c -0.35685,-0.47663 0.72991,-1.31583 -0.56771,-1.55618 0.35685,0.48071 -0.72586,1.31583 0.56771,1.55618"
         style="opacity:0.26259604;fill:#d79f5d;fill-opacity:1;fill-rule:nonzero;stroke:none"
         id="path19526"
         inkscape:connector-curvature="0" />
      <path
         d="m 416.60805,509.30685 c 1.62202,0.013 -0.49472,0.96548 1.13136,0.98993 0,-0.38294 0,-0.75773 0,-1.13252 -1.29357,-0.24051 -0.21086,-1.07547 -0.56771,-1.55618 0,-0.94512 0,-1.89024 0,-2.82721 -1.31789,1.22621 -0.19043,3.06349 -0.56365,4.52598"
         style="opacity:0.26259604;fill:#c9813f;fill-opacity:1;fill-rule:nonzero;stroke:none"
         id="path19528"
         inkscape:connector-curvature="0" />
      <path
         d="m 416.60805,509.30685 0,1.40953 c 1.2814,0.15057 0.21086,0.89623 0.56365,1.27509 l 0.56771,0 c 0,-0.56625 0,-1.12843 0,-1.69469 -1.62608,-0.0228 0.49066,-0.97772 -1.13136,-0.98993"
         style="opacity:0.26259604;fill:#bf652b;fill-opacity:1;fill-rule:nonzero;stroke:none"
         id="path19530"
         inkscape:connector-curvature="0" />
      <path
         d="m 417.1717,513.40915 0.56771,0 c 0,-0.46848 0,-0.94919 0,-1.41768 l -0.56771,0 c 0,0.46849 0,0.9492 0,1.41768"
         style="opacity:0.26259604;fill:#aa4a1e;fill-opacity:1;fill-rule:nonzero;stroke:none"
         id="path19532"
         inkscape:connector-curvature="0" />
      <path
         d="m 417.1717,513.40915 0,0.14275 c 0,0.74957 0,1.50322 0,2.25687 l 0.56771,0 c 0,-0.70476 0,-1.40953 0,-2.11429 l 0,-0.28516 -0.56771,0"
         style="opacity:0.26259604;fill:#bf652b;fill-opacity:1;fill-rule:nonzero;stroke:none"
         id="path19534"
         inkscape:connector-curvature="0" />
      <path
         d="m 417.1717,516.37487 0,0.85142 c 1.29762,-0.19163 0.21508,-0.98585 0.56771,-1.41768 l -0.56771,0 0,0.56626"
         style="opacity:0.26259604;fill:#c9813f;fill-opacity:1;fill-rule:nonzero;stroke:none"
         id="path19536"
         inkscape:connector-curvature="0" />
      <path
         d="m 417.1717,533.06518 0.56771,0 c -0.3609,-0.57034 0.73802,-1.50324 -0.56771,-1.83728 0,0.42367 0,0.84734 0,1.27101 l 0,0.56627"
         style="opacity:0.26259604;fill:#d79f5d;fill-opacity:1;fill-rule:nonzero;stroke:none"
         id="path19538"
         inkscape:connector-curvature="0" />
      <path
         d="m 417.1717,533.06518 c 0.35685,0.42774 -0.7218,1.22213 0.56771,1.41767 l 0,-0.28125 c 0,-0.37479 0,-0.75365 0,-1.13659 l -0.56771,0"
         style="opacity:0.26259604;fill:#c9813f;fill-opacity:1;fill-rule:nonzero;stroke:none"
         id="path19540"
         inkscape:connector-curvature="0" />
      <path
         d="m 417.1717,541.27386 c 0.36901,0.70883 -0.74208,1.78838 0.56771,2.26094 -0.36495,-0.70476 0.74613,-1.78839 -0.56771,-2.26094"
         style="opacity:0.26259604;fill:#bf652b;fill-opacity:1;fill-rule:nonzero;stroke:none"
         id="path19542"
         inkscape:connector-curvature="0" />
      <path
         id="path19544"
         transform="translate(384.57143,499.78351)"
         d="M 31.90625 1.75 C 31.970486 2.3502311 32.198875 2.9140889 32.59375 3.3125 L 32.59375 1.75 L 31.90625 1.75 z "
         style="opacity:0.26259604;fill:#c9813f;fill-opacity:1;fill-rule:nonzero;stroke:none" />
      <path
         d="m 416.60805,510.71638 c 0,0.94512 0,1.89023 0,2.83536 l 0.56365,0 0,-0.14275 c 0,-0.46848 0,-0.9492 0,-1.41768 -0.35279,-0.37886 0.71775,-1.12436 -0.56365,-1.27509"
         style="opacity:0.26259604;fill:#c9813f;fill-opacity:1;fill-rule:nonzero;stroke:none"
         id="path19546"
         inkscape:connector-curvature="0" />
      <path
         d="m 417.1717,516.37487 0,-0.56626 c 0,-0.75365 0,-1.5073 0,-2.25687 l -0.56365,0 c 0.36495,0.89215 -0.74613,2.16317 0.56365,2.82313"
         style="opacity:0.26259604;fill:#d79f5d;fill-opacity:1;fill-rule:nonzero;stroke:none"
         id="path19548"
         inkscape:connector-curvature="0" />
      <path
         d="m 417.1717,532.49891 c 0,-0.42367 0,-0.84734 0,-1.27101 l 0,-0.56626 c -2.06402,-0.80254 -0.40551,-2.53797 -1.70313,-3.54013 0,-0.65995 0,-1.31175 0,-1.97578 -1.30167,0.33812 -0.19853,1.27102 -0.56365,1.83727 0.0405,3.06757 0.36901,5.35704 0,8.34719 1.58959,0.29756 -0.66908,-3.02682 1.70313,-1.69876 0.34467,-0.33813 -0.70964,-1.02252 0.56365,-1.13252"
         style="opacity:0.26259604;fill:#c9813f;fill-opacity:1;fill-rule:nonzero;stroke:none"
         id="path19550"
         inkscape:connector-curvature="0" />
      <path
         id="path19556"
         transform="translate(384.57143,499.78351)"
         d="M 29.21875 1.75 L 29.21875 8.09375 L 29.21875 10.375 C 29.904003 7.7607671 30.065644 4.6433594 29.75 1.75 L 29.21875 1.75 z "
         style="opacity:0.26259604;fill:#d79f5d;fill-opacity:1;fill-rule:nonzero;stroke:none" />
      <path
         d="m 413.77356,518.50138 c 0.48255,1.45027 0.70153,-0.4033 0.56771,-1.41767 0,-0.51737 0,-1.03882 0,-1.56027 -0.86779,0.83513 -0.78668,2.32613 -0.56771,2.97794"
         style="opacity:0.26259604;fill:#c9813f;fill-opacity:1;fill-rule:nonzero;stroke:none"
         id="path19558"
         inkscape:connector-curvature="0" />
      <path
         id="path19568"
         transform="translate(384.57143,499.78351)"
         d="M 28.0625 1.75 L 28.0625 5.125 C 29.74941 5.78903 27.52373 7.42564 29.21875 8.09375 L 29.21875 1.75 L 28.0625 1.75 z "
         style="opacity:0.26259604;fill:#bf652b;fill-opacity:1;fill-rule:nonzero;stroke:none" />
      <path
         id="path19570"
         transform="translate(384.57143,499.78351)"
         d="M 24.71875 1.75 C 24.852468 9.0732801 26.607646 16.998954 26.9375 24.65625 L 26.9375 25.25 L 27.5 25.09375 C 28.48132 23.9205 27.66411 27.40924 28.625 27.90625 C 28.88453 28.40732 28.05494 29.93739 29.21875 29.75 C 28.6632 27.5909 29.5397 24.42588 27.5 23.09375 C 27.28524 18.01373 27.70565 13.556 28.0625 9.25 L 28.0625 7.84375 C 26.68783 6.43422 27.96228 4.27262 27.5 3.4375 C 26.91202 2.38239 27.24684 5.90239 26.375 6.28125 C 26.378427 4.7540802 26.481909 3.2383901 26.65625 1.75 L 24.71875 1.75 z "
         style="opacity:0.26259604;fill:#e7c494;fill-opacity:1;fill-rule:nonzero;stroke:none" />
      <path
         d="m 412.63814,536.03497 c 0.37307,0.994 -0.75018,2.35464 0.56771,3.11644 -0.37712,-0.99401 0.74613,-2.35872 -0.56771,-3.11644"
         style="opacity:0.26259604;fill:#d79f5d;fill-opacity:1;fill-rule:nonzero;stroke:none"
         id="path19572"
         inkscape:connector-curvature="0" />
      <path
         id="path19574"
         transform="translate(384.57143,499.78351)"
         d="M 26.65625 1.75 C 26.481707 3.2383901 26.377622 4.7540802 26.375 6.28125 C 27.24684 5.90239 26.91202 2.38239 27.5 3.4375 C 27.96228 4.27262 26.68783 6.43422 28.0625 7.84375 L 28.0625 5.125 L 28.0625 1.75 L 26.65625 1.75 z "
         style="opacity:0.26259604;fill:#d79f5d;fill-opacity:1;fill-rule:nonzero;stroke:none" />
      <path
         d="m 412.07044,536.7438 c -0.51906,-1.21398 -0.74208,0.79846 -0.57177,1.70285 0,0.36663 0,0.74957 0,1.12436 0.85967,-0.96141 0.84346,-2.18355 0.57177,-2.82721"
         style="opacity:0.26259604;fill:#bf652b;fill-opacity:1;fill-rule:nonzero;stroke:none"
         id="path19576"
         inkscape:connector-curvature="0" />
      <path
         id="path19578"
         transform="translate(384.57143,499.78351)"
         d="M 24.6875 37.8125 C 24.31443 39.60089 25.65549 40.95345 25.25 42.75 L 25.25 43.46875 C 25.728291 44.427808 25.984873 45.349705 26.21875 46.25 L 27.5 46.25 C 27.011741 43.56598 26.065393 40.215674 24.6875 37.8125 z "
         style="opacity:0.26259604;fill:#e7c494;fill-opacity:1;fill-rule:nonzero;stroke:none" />
      <path
         d="m 409.23594,509.73052 c -0.01,-0.013 -0.0259,-1.9432 -0.57176,-1.56026 -2.8061,2.00023 1.6423,3.05535 0.57176,4.67263 -0.1703,1.46249 0.0973,3.00646 0.56772,2.11837 0.73396,-1.38916 -0.19044,-3.71936 -0.56772,-5.23074"
         style="opacity:0.26259604;fill:#e7c494;fill-opacity:1;fill-rule:nonzero;stroke:none"
         id="path19588"
         inkscape:connector-curvature="0" />
      <path
         d="m 409.23594,519.77241 c 0.37712,2.02467 -0.76234,4.43227 0.56772,6.22067 0,-1.03881 0,-2.07356 0,-3.11237 -0.37713,-0.98993 0.74613,-2.35873 -0.56772,-3.1083"
         style="opacity:0.26259604;fill:#c9813f;fill-opacity:1;fill-rule:nonzero;stroke:none"
         id="path19590"
         inkscape:connector-curvature="0" />
      <path
         d="m 409.80366,545.2295 c 0,-0.65588 0,-1.31991 0,-1.97579 l 0,-0.71291 c -1.57743,-0.73328 0.5596,-2.40353 -1.70313,-2.96979 0,0.47256 0,0.95326 0,1.42175 0.86778,1.3362 0.27575,3.03497 1.70313,4.23674"
         style="opacity:0.26259604;fill:#c9813f;fill-opacity:1;fill-rule:nonzero;stroke:none"
         id="path19592"
         inkscape:connector-curvature="0" />
      <path
         id="path19594"
         transform="translate(384.57143,499.78351)"
         d="M 22.96875 41.1875 L 22.96875 42.5 L 22.96875 43.1875 C 24.23799 43.96152 24.1343 45.06448 24.09375 46.15625 L 24.09375 46.25 L 25.25 46.25 L 25.25 45.4375 C 23.82261 44.23573 24.39903 42.52371 23.53125 41.1875 L 22.96875 41.1875 z "
         style="opacity:0.26259604;fill:#bf652b;fill-opacity:1;fill-rule:nonzero;stroke:none" />
      <path
         d="m 407.53282,542.96855 c -0.0649,1.09992 0.013,2.16318 1.13136,2.96979 0.0405,-1.09177 0.13787,-2.19577 -1.13136,-2.96979"
         style="opacity:0.26259604;fill:#c9813f;fill-opacity:1;fill-rule:nonzero;stroke:none"
         id="path19596"
         inkscape:connector-curvature="0" />
      <path
         d="m 408.10053,535.75388 c 0.0405,-1.23436 -0.17842,-2.40354 -1.13542,-3.3894 -0.0691,1.23843 0.0934,2.41983 1.13542,3.3894"
         style="opacity:0.26259604;fill:#d79f5d;fill-opacity:1;fill-rule:nonzero;stroke:none"
         id="path19600"
         inkscape:connector-curvature="0" />
      <path
         d="m 406.96511,532.36448 c 0,-0.66403 0,-1.32398 0,-1.98393 l -0.56365,0 c -0.35685,0.38293 0.71369,1.12029 -0.57177,1.27102 0.15799,1.99208 -0.57987,4.20008 1.13542,5.80107 0.34874,-0.38701 -0.7218,-1.12436 0.56771,-1.27509 0.34063,0.33812 -0.70964,1.02252 0.56771,1.12843 l 0,-1.5521 c -1.04215,-0.96957 -1.20435,-2.15097 -1.13542,-3.3894"
         style="opacity:0.26259604;fill:#c9813f;fill-opacity:1;fill-rule:nonzero;stroke:none"
         id="path19602"
         inkscape:connector-curvature="0" />
      <path
         d="m 407.53282,536.17755 c -1.28951,0.15056 -0.21897,0.88808 -0.56771,1.27509 0,0.42367 0,0.84734 0,1.27103 1.25301,0.0163 0.23941,0.60292 0.56771,0.84734 l 0.56771,0 c 0,-0.75773 0,-1.51138 0,-2.26503 -1.27735,-0.10591 -0.22708,-0.79031 -0.56771,-1.12843"
         style="opacity:0.26259604;fill:#bf652b;fill-opacity:1;fill-rule:nonzero;stroke:none"
         id="path19604"
         inkscape:connector-curvature="0" />
      <path
         d="m 407.53282,540.99276 0.56771,0 c 0,-0.46849 0,-0.94919 0,-1.42175 l -0.56771,0 c 0,0.47256 0,0.95326 0,1.42175"
         style="opacity:0.26259604;fill:#aa4a1e;fill-opacity:1;fill-rule:nonzero;stroke:none"
         id="path19606"
         inkscape:connector-curvature="0" />
      <path
         id="path19824"
         transform="translate(384.57143,499.78351)"
         d="M 31.375 1.75 C 31.368206 4.6045901 31.49155 7.4525312 32.03125 10.09375 L 32.03125 9.5 C 32.40432 8.03751 31.27586 6.22621 32.59375 5 L 32.59375 3.3125 C 32.198875 2.9140889 31.970484 2.3502311 31.90625 1.75 L 31.375 1.75 z "
         style="opacity:0.26259604;fill:#d79f5d;fill-opacity:1;fill-rule:nonzero;stroke:none" />
      <path
         d="m 422.84473,542.77708 -0.13366,0.37886 0.13366,-0.37886"
         style="opacity:0.26259604;fill:#c9813f;fill-opacity:1;fill-rule:nonzero;stroke:none"
         id="path19852"
         inkscape:connector-curvature="0" />
      <path
         d="m 422.72714,543.99514 -0.0405,-0.35034 0.0405,0.35034"
         style="opacity:0.26259604;fill:#c9813f;fill-opacity:1;fill-rule:nonzero;stroke:none"
         id="path19854"
         inkscape:connector-curvature="0" />
      <path
         d="m 422.84473,544.45141 -0.10543,-0.40738 0.10543,0.40738"
         style="opacity:0.26259604;fill:#c9813f;fill-opacity:1;fill-rule:nonzero;stroke:none"
         id="path19856"
         inkscape:connector-curvature="0" />
      <path
         d="m 422.67848,543.56332 0.0292,-0.3259 -0.0292,0.3259"
         style="opacity:0.26259604;fill:#c9813f;fill-opacity:1;fill-rule:nonzero;stroke:none"
         id="path19858"
         inkscape:connector-curvature="0" />
      <path
         d="m 420.01025,539.99876 c -0.40957,-1.25066 0.99348,-0.93697 1.70312,-0.14242 -0.85967,-2.61945 -0.66909,-5.49146 -1.13542,-8.20461 0,-0.61107 0,-1.2262 0,-1.83728 -1.56525,-1.01845 0.54338,-6.58324 -1.70718,-2.96979 0,1.41361 0,2.82313 0,4.24082 1.70313,2.63981 -0.5596,6.27363 1.13948,8.91344"
         style="opacity:0.26259604;fill:#c9813f;fill-opacity:1;fill-rule:nonzero;stroke:none"
         id="path19860"
         inkscape:connector-curvature="0" />
      <path
         id="path19862"
         transform="translate(384.57143,499.78351)"
         d="M 20.5625 1.75 C 20.463988 6.4711122 20.61384 11.201456 21.25 16 C 22.92881 22.84804 25.87798 30.17121 24.09375 37.40625 C 24.00845 37.23515 24.20033 36.99319 23.53125 36.96875 L 23.53125 37.5 L 23.53125 39.78125 C 25.79397 40.34751 23.67273 42.01671 25.25 42.75 C 25.65549 40.95345 24.31443 39.60089 24.6875 37.8125 C 26.065393 40.215674 27.011761 43.56598 27.5 46.25 L 28.125 46.25 C 27.791274 44.118608 26.742265 42.325138 26.9375 39.78125 L 26.9375 38.65625 C 25.9724 36.02051 25.03163 33.25002 26.9375 30.875 C 28.15808 32.17861 27.19587 34.00766 27.5 35.53125 C 28.46105 36.21157 27.94084 34.32719 28.0625 33.875 C 28.43557 33.12135 27.31522 31.96301 28.625 31.4375 C 29.08728 34.74948 29.37284 39.21572 29.21875 43.46875 C 29.20255 43.79873 30.19081 43.88067 29.78125 44.3125 C 29.87435 44.52433 29.57312 44.82612 30.34375 44.875 L 30.34375 44.03125 C 31.37779 43.72588 30.22401 42.85446 31.46875 42.59375 C 31.56215 42.81373 31.25657 43.14676 32.03125 43.1875 L 32.03125 35.125 L 32.03125 33.875 C 29.65904 32.54695 31.93333 35.82864 30.34375 35.53125 C 30.71276 32.54109 30.38425 30.28632 30.34375 27.21875 C 30.7087 26.6525 29.60458 25.68187 30.90625 25.34375 L 30.90625 27.34375 C 32.20387 28.34591 30.52973 30.07246 32.59375 30.875 C 31.89223 26.28792 30.46655 21.90366 29.78125 17.3125 C 29.9149 18.32687 29.70115 20.16903 29.21875 18.71875 C 28.99977 18.06695 28.91346 16.58512 29.78125 15.75 C 29.40007 14.29159 30.53664 12.43681 29.21875 11.21875 C 28.84568 12.39607 29.93884 13.95706 28.625 14.90625 C 28.24788 13.06897 29.38445 10.85915 28.0625 9.25 C 27.70565 13.556 27.28508 18.01373 27.5 23.09375 C 29.5397 24.42588 28.6632 27.5909 29.21875 29.75 C 28.05494 29.93739 28.88453 28.40732 28.625 27.90625 C 27.66395 27.40924 28.48132 23.9205 27.5 25.09375 L 26.9375 25.25 L 26.9375 24.65625 C 26.607646 16.998954 24.853851 9.0732801 24.71875 1.75 L 20.5625 1.75 z M 21.84375 6.28125 C 23.97266 6.45659 22.86447 7.68229 22.40625 8.09375 C 21.10053 7.75969 22.2006 6.8475 21.84375 6.28125 z M 24.1875 8.34375 C 24.217055 8.340225 24.254825 8.335665 24.28125 8.34375 C 24.6512 8.45698 24.6804 9.95806 24.6875 9.96875 C 25.06462 11.48013 25.98395 13.79834 25.25 15.1875 C 24.7796 16.07559 24.51719 14.49374 24.6875 13.03125 C 25.75803 11.41396 21.28764 10.37523 24.09375 8.375 C 24.127965 8.351065 24.157945 8.347275 24.1875 8.34375 z M 24.6875 20 C 26.00134 20.74958 24.87303 22.10382 25.25 23.09375 L 25.25 26.21875 C 23.91993 24.43036 25.06462 22.02468 24.6875 20 z M 25.25 43.46875 L 25.25 45.4375 L 25.25 46.25 L 26.21875 46.25 C 25.984873 45.349705 25.728291 44.427808 25.25 43.46875 z "
         style="opacity:0.26259604;fill:#d79f5d;fill-opacity:1;fill-rule:nonzero;stroke:none" />
      <path
         d="m 423.07181,542.43081 0.34062,-0.30961 -0.34062,0.30961"
         style="opacity:0.26259604;fill:#d79f5d;fill-opacity:1;fill-rule:nonzero;stroke:none"
         id="path19918"
         inkscape:connector-curvature="0" />
      <path
         d="m 423.74901,546.52497 c -0.27574,-0.65588 -0.6772,-1.37287 -0.90428,-2.07356 0.22708,0.70069 0.62854,1.41768 0.90428,2.07356"
         style="opacity:0.26259604;fill:#d79f5d;fill-opacity:1;fill-rule:nonzero;stroke:none"
         id="path19920"
         inkscape:connector-curvature="0" />
      <path
         d="m 423.0556,542.45118 -0.21087,0.3259 0.21087,-0.3259"
         style="opacity:0.26259604;fill:#d79f5d;fill-opacity:1;fill-rule:nonzero;stroke:none"
         id="path19924"
         inkscape:connector-curvature="0" />
      <path
         d="m 422.68659,543.6448 -0.01,-0.0815 0.01,0.0815"
         style="opacity:0.26259604;fill:#d79f5d;fill-opacity:1;fill-rule:nonzero;stroke:none"
         id="path19930"
         inkscape:connector-curvature="0" />
      <path
         d="m 422.70686,543.23742 0.003,-0.0815 -0.003,0.0815"
         style="opacity:0.26259604;fill:#d79f5d;fill-opacity:1;fill-rule:nonzero;stroke:none"
         id="path19932"
         inkscape:connector-curvature="0" />
      <path
         d="m 422.84473,544.45141 0,0"
         style="opacity:0.26259604;fill:#d79f5d;fill-opacity:1;fill-rule:nonzero;stroke:none"
         id="path19934"
         inkscape:connector-curvature="0" />
      <path
         d="m 422.7393,544.04403 -0.013,-0.0489 0.013,0.0489"
         style="opacity:0.26259604;fill:#d79f5d;fill-opacity:1;fill-rule:nonzero;stroke:none"
         id="path19936"
         inkscape:connector-curvature="0" />
      <path
         d="m 422.84473,542.77708 -0.13366,0.37886 -0.003,0.0815 -0.0292,0.3259 0.01,0.0815 0.0405,0.35034 0.013,0.0489 0.10543,0.40738 c 0,-0.55811 0,-1.12029 0,-1.67433"
         style="opacity:0.26259604;fill:#d79f5d;fill-opacity:1;fill-rule:nonzero;stroke:none"
         id="path19938"
         inkscape:connector-curvature="0" />
      <path
         d="m 422.27702,505.20047 -0.56365,0 c -0.38118,1.1814 0.75019,2.73352 -0.57177,3.67863 l 0,0.70884 c 1.2733,0.057 0.2313,0.69661 0.57177,0.98993 0.36901,1.4136 -0.75425,3.20607 0.56365,4.38339 0,-1.74358 0,-3.48716 0,-5.23074 0,-1.27102 0,-2.54612 0,-3.81714 l 0,-0.71291"
         style="opacity:0.26259604;fill:#bf652b;fill-opacity:1;fill-rule:nonzero;stroke:none"
         id="path19940"
         inkscape:connector-curvature="0" />
      <path
         id="path19942"
         transform="translate(384.57143,499.78351)"
         d="M 36.5625 1.75 C 36.453187 2.1725387 36.277005 2.5679348 36 2.875 C 35.65938 5.08299 36.41652 7.00798 36.5625 9.09375 C 37.88446 8.14864 36.74398 6.58765 37.125 5.40625 L 37.125 3.84375 C 38.42262 4.08818 37.3266 4.93369 37.6875 5.40625 L 37.6875 6.125 C 39.00539 5.36728 37.90429 3.98993 38.28125 3 C 38.065536 2.5896664 37.891445 2.1812904 37.75 1.75 L 36.5625 1.75 z "
         style="opacity:0.26259604;fill:#d79f5d;fill-opacity:1;fill-rule:nonzero;stroke:none" />
      <path
         id="path19944"
         transform="translate(384.57143,499.78351)"
         d="M 26.9375 30.875 C 25.03163 33.25002 25.9724 36.02051 26.9375 38.65625 C 26.7672 37.75187 26.9811 35.75476 27.5 36.96875 C 27.77185 37.61241 27.79734 38.81984 26.9375 39.78125 C 26.742149 42.325138 27.791232 44.118608 28.125 46.25 L 33.75 46.25 L 33.75 45.875 C 32.44427 45.50021 33.52542 44.52139 33.15625 43.90625 L 33.15625 43.75 C 31.84646 43.27745 32.9626 42.20883 32.59375 41.5 L 32.59375 36.09375 C 32.25718 35.7962 33.30049 35.19019 32.03125 35.125 L 32.03125 43.1875 C 31.25673 43.1468 31.56202 42.81373 31.46875 42.59375 C 30.22385 42.85446 31.37794 43.72572 30.34375 44.03125 L 30.34375 44.875 C 29.57328 44.8261 29.87451 44.52433 29.78125 44.3125 C 30.19081 43.88067 29.20252 43.79873 29.21875 43.46875 C 29.37284 39.21572 29.08728 34.74948 28.625 31.4375 C 27.31522 31.96301 28.43557 33.12135 28.0625 33.875 C 27.94084 34.32719 28.46105 36.21157 27.5 35.53125 C 27.19603 34.00766 28.15808 32.17861 26.9375 30.875 z M 28.0625 36.25 C 29.37634 37.00772 28.24772 38.38099 28.625 39.375 C 27.30711 38.61319 28.43557 37.244 28.0625 36.25 z "
         style="opacity:0.26259604;fill:#c9813f;fill-opacity:1;fill-rule:nonzero;stroke:none" />
      <path
         d="m 413.77356,507.89325 c -1.69502,-0.66811 0.55149,-2.30984 -1.13542,-2.97387 0,0.90031 0,1.79246 0,2.6887 0,0.47256 0,0.94104 0,1.40953 1.32195,1.60915 0.19043,3.82528 0.56771,5.66256 1.31384,-0.94919 0.19465,-2.49723 0.56771,-3.67455 l 0,-0.84735 c 0,-0.75773 0,-1.51545 0,-2.26502"
         style="opacity:0.26259604;fill:#c9813f;fill-opacity:1;fill-rule:nonzero;stroke:none"
         id="path19946"
         inkscape:connector-curvature="0" />
      <path
         id="path19952"
         transform="translate(384.57143,499.78351)"
         d="M 19.53125 18.4375 C 18.26606 18.5027 19.3136 19.14011 18.96875 19.4375 C 20.28259 19.91005 19.16629 20.94741 19.53125 21.65625 L 18.40625 21.65625 C 20.12154 29.18461 18.80365 36.19153 18.40625 43.3125 C 17.89126 40.11458 17.56855 37.71448 15.59375 34.96875 L 15.59375 36.96875 L 15.59375 37.09375 C 15.36666 38.70697 17.43245 39.76048 16.71875 41.5 L 16.71875 41.625 C 18.02854 42.10571 16.91614 43.20148 17.28125 43.90625 L 17.28125 44.15625 C 18.57888 44.35603 17.48285 45.16193 17.84375 45.59375 L 17.84375 46.15625 C 17.859494 46.189649 17.88959 46.216835 17.90625 46.25 L 22.3125 46.25 C 22.334268 45.967218 22.367786 45.692768 22.40625 45.4375 C 22.730475 45.62232 22.934803 45.916897 23.0625 46.25 L 24.09375 46.25 L 24.09375 46.15625 C 22.97455 45.34965 22.90387 44.28743 22.96875 43.1875 L 22.96875 42.5 C 21.65086 41.59969 22.77932 40.07001 22.40625 38.9375 L 22.40625 37.65625 C 20.69096 36.05525 21.40816 33.83583 21.25 31.84375 L 21.25 30.03125 C 19.91183 27.81919 19.5318 24.61687 20.6875 22.25 C 20.79292 20.86084 20.55312 19.54964 19.53125 18.4375 z "
         style="opacity:0.26259604;fill:#d79f5d;fill-opacity:1;fill-rule:nonzero;stroke:none" />
      <path
         d="m 417.1717,533.06518 0,-0.56627 c -1.27329,0.10984 -0.21898,0.79439 -0.56365,1.13252 0,0.42775 0,0.85142 0,1.27102 1.26924,0.0652 0.22708,0.69662 0.56365,0.99401 1.69096,0.57033 -0.55149,2.11429 1.13542,2.68462 0.3244,-1.49916 -0.40146,-2.72943 -0.56771,-4.09823 -1.28951,-0.19554 -0.21086,-0.98993 -0.56771,-1.41767"
         style="opacity:0.26259604;fill:#bf652b;fill-opacity:1;fill-rule:nonzero;stroke:none"
         id="path19982"
         inkscape:connector-curvature="0" />
      <path
         id="path19994"
         transform="translate(384.57143,499.78351)"
         d="M 32.59375 1.75 L 32.59375 3.3125 L 32.59375 5 L 32.59375 7.84375 C 33.89137 8.08427 32.7994 8.92962 33.15625 9.40625 L 33.15625 10.5 L 33.15625 12.21875 L 33.15625 13.625 L 33.15625 13.90625 C 34.23895 17.12047 33.59069 20.78584 34.3125 24.09375 C 36.70093 22.5172 34.34571 19.79112 36 18.03125 L 36 12.625 C 36.19464 11.68396 35.49602 10.53764 36.5625 9.8125 L 36.5625 9.09375 C 36.41652 7.00798 35.65938 5.08299 36 2.875 L 36 1.75 L 32.59375 1.75 z M 34.875 8.25 C 36.18884 8.96291 35.06444 10.26955 35.4375 11.21875 C 34.12366 10.50583 35.24807 9.19918 34.875 8.25 z "
         style="opacity:0.26259604;fill:#e7c494;fill-opacity:1;fill-rule:nonzero;stroke:none" />
      <path
         id="path19996"
         transform="translate(384.57143,499.78351)"
         d="M 17.5 1.75 C 17.542294 3.3179215 17.579166 4.8942495 17.84375 6.40625 L 17.84375 8.8125 C 18.76831 10.08759 18.60785 11.61357 18.96875 13.03125 L 18.96875 14.1875 C 20.28665 14.9004 19.16208 16.21521 19.53125 17.15625 L 19.53125 18.4375 C 20.55312 19.54964 20.79292 20.86084 20.6875 22.25 L 20.6875 22.96875 C 21.66882 24.28458 21.88836 25.7835 21.84375 27.34375 L 21.84375 28.34375 C 23.14948 28.82038 22.03303 29.88083 22.40625 30.59375 L 22.40625 32.5625 C 23.36325 33.54837 23.5718 34.73439 23.53125 35.96875 L 23.53125 36.96875 C 24.20033 36.99155 24.00859 37.23531 24.09375 37.40625 C 25.87798 30.17121 22.92881 22.84804 21.25 16 C 20.613792 11.201456 20.463983 6.4711122 20.5625 1.75 L 17.5 1.75 z "
         style="opacity:0.26259604;fill:#e7c494;fill-opacity:1;fill-rule:nonzero;stroke:none" />
      <path
         id="path19598"
         transform="translate(384.57143,499.78351)"
         d="M 22.40625 45.4375 C 22.367754 45.692768 22.334272 45.967218 22.3125 46.25 L 23.0625 46.25 C 22.934793 45.916897 22.730439 45.62232 22.40625 45.4375 z "
         style="opacity:0.26259604;fill:#e7c494;fill-opacity:1;fill-rule:nonzero;stroke:none" />
      <path
         d="m 406.40146,506.05189 c 0.35685,0.56626 -0.74208,1.5073 0.56365,1.84136 0.45822,-0.41146 1.56525,-1.66618 -0.56365,-1.84136"
         style="opacity:0.26259604;fill:#c9813f;fill-opacity:1;fill-rule:nonzero;stroke:none"
         id="path19608"
         inkscape:connector-curvature="0" />
      <path
         d="m 407.53282,539.57101 c -0.32846,-0.24442 0.6853,-0.83105 -0.56771,-0.84734 0.37307,1.13251 -0.75018,2.6398 0.56771,3.54011 0,-0.42774 0,-0.8555 0,-1.27102 0,-0.46849 0,-0.94919 0,-1.42175"
         style="opacity:0.26259604;fill:#c9813f;fill-opacity:1;fill-rule:nonzero;stroke:none"
         id="path19610"
         inkscape:connector-curvature="0" />
      <path
         d="m 406.40146,530.38055 0.56365,0 c -0.37306,-0.71292 0.74208,-1.78432 -0.56365,-2.26095 0,0.4196 0,0.84734 0,1.27101 l 0,0.98994"
         style="opacity:0.26259604;fill:#d79f5d;fill-opacity:1;fill-rule:nonzero;stroke:none"
         id="path19612"
         inkscape:connector-curvature="0" />
      <path
         d="m 406.40146,527.12151 c 0.0445,-1.56025 -0.15832,-3.06756 -1.13948,-4.38339 -0.0444,1.57249 0.1541,3.07978 1.13948,4.38339"
         style="opacity:0.26259604;fill:#d79f5d;fill-opacity:1;fill-rule:nonzero;stroke:none"
         id="path19616"
         inkscape:connector-curvature="0" />
      <path
         d="m 406.40146,529.39061 c 0,-0.42367 0,-0.85141 0,-1.27101 l 0,-0.99809 c -0.98538,-1.30361 -1.18408,-2.8109 -1.13948,-4.38339 l 0,-0.70476 c -1.15569,2.36687 -0.77046,5.56887 0.56771,7.78093 0.0892,-0.16686 -0.10121,-0.4033 0.57177,-0.42368"
         style="opacity:0.26259604;fill:#c9813f;fill-opacity:1;fill-rule:nonzero;stroke:none"
         id="path19618"
         inkscape:connector-curvature="0" />
      <path
         d="m 406.40146,530.38055 0,-0.98994 c -0.67315,0.0195 -0.48256,0.25682 -0.57177,0.42368 0,0.61107 0,1.22621 0,1.83728 1.28546,-0.15057 0.21476,-0.88809 0.57177,-1.27102"
         style="opacity:0.26259604;fill:#bf652b;fill-opacity:1;fill-rule:nonzero;stroke:none"
         id="path19620"
         inkscape:connector-curvature="0" />
      <path
         d="m 404.12657,516.94113 c -0.36901,-0.94105 0.75019,-2.25689 -0.56771,-2.96979 l 0,0.42774 c 0.37712,0.80253 -0.74208,1.97171 0.56771,2.54205"
         style="opacity:0.26259604;fill:#d79f5d;fill-opacity:1;fill-rule:nonzero;stroke:none"
         id="path19626"
         inkscape:connector-curvature="0" />
      <path
         d="m 402.99521,519.77241 0,0.42367 c 0,0.42367 0,0.84734 0,1.27102 0.37711,0 0.7583,0 1.13136,0 -0.36495,-0.70884 0.74613,-1.78839 -0.56771,-2.26095 -0.0405,0.22422 0.27185,0.53774 -0.56365,0.56626"
         style="opacity:0.26259604;fill:#c9813f;fill-opacity:1;fill-rule:nonzero;stroke:none"
         id="path19628"
         inkscape:connector-curvature="0" />
      <path
         d="m 402.43155,511.42522 c 0.37307,1.93097 -0.7583,4.24488 0.56366,5.94365 0.37306,-0.94104 -0.74613,-2.26503 0.56365,-2.96979 l 0,-0.42774 c 0,-0.37479 0,-0.75366 0,-1.12845 -1.52876,-0.0978 0.35279,-1.77617 -1.12731,-1.41767"
         style="opacity:0.26259604;fill:#c9813f;fill-opacity:1;fill-rule:nonzero;stroke:none"
         id="path19634"
         inkscape:connector-curvature="0" />
      <path
         d="m 401.85978,509.73052 c 0.34874,1.82506 0.66504,0.46441 0.57177,-1.12844 0,-0.8066 0,-1.60915 0,-2.41575 -0.87183,0.76586 -0.74613,2.61536 -0.57177,3.54419"
         style="opacity:0.26259604;fill:#c9813f;fill-opacity:1;fill-rule:nonzero;stroke:none"
         id="path19638"
         inkscape:connector-curvature="0" />
      <path
         d="m 402.43155,532.92667 c -0.38117,-1.31991 0.75019,-3.02276 -0.57177,-4.10231 0.37713,1.32398 -0.75018,3.01867 0.57177,4.10231"
         style="opacity:0.26259604;fill:#d79f5d;fill-opacity:1;fill-rule:nonzero;stroke:none"
         id="path19640"
         inkscape:connector-curvature="0" />
      <path
         d="m 402.43155,536.7438 c 0.65692,-2.06134 -1.74367,-1.75987 0,0"
         style="opacity:0.26259604;fill:#d79f5d;fill-opacity:1;fill-rule:nonzero;stroke:none"
         id="path19642"
         inkscape:connector-curvature="0" />
      <path
         d="m 402.43155,545.37208 c -0.3609,-0.43182 0.72586,-1.21806 -0.57177,-1.41768 0.35685,0.42776 -0.72179,1.21807 0.57177,1.41768"
         style="opacity:0.26259604;fill:#c9813f;fill-opacity:1;fill-rule:nonzero;stroke:none"
         id="path19644"
         inkscape:connector-curvature="0" />
      <path
         id="path19646"
         transform="translate(384.57143,499.78351)"
         d="M 16.71875 43.90625 C 16.52 44.759578 16.676375 45.499257 16.875 46.25 L 17.84375 46.25 L 17.84375 46.15625 L 17.84375 45.59375 C 16.55019 45.3943 17.63794 44.584 17.28125 44.15625 L 17.28125 43.90625 L 16.71875 43.90625 z "
         style="opacity:0.26259604;fill:#bf652b;fill-opacity:1;fill-rule:nonzero;stroke:none" />
      <path
         d="m 400.15667,521.32859 c 0.25562,1.63359 0.12586,3.36495 1.70311,4.66449 -0.35278,-1.74359 0.0405,-3.09608 -1.70311,-4.66449"
         style="opacity:0.26259604;fill:#d79f5d;fill-opacity:1;fill-rule:nonzero;stroke:none"
         id="path19648"
         inkscape:connector-curvature="0" />
      <path
         d="m 401.29613,543.67331 0.56365,0 c -0.36494,-0.70476 0.74614,-1.78431 -0.56365,-2.26503 0,0.42776 0,0.8555 0,1.27918 l 0,0.98585"
         style="opacity:0.26259604;fill:#c9813f;fill-opacity:1;fill-rule:nonzero;stroke:none"
         id="path19650"
         inkscape:connector-curvature="0" />
      <path
         d="m 401.29613,542.68746 c 0,-0.42368 0,-0.85142 0,-1.27918 l 0,-0.13426 c -1.55308,-0.74551 -0.44605,-2.15504 -1.70312,-2.97387 -0.30007,1.67841 0.58798,3.05941 1.70312,4.38747"
         style="opacity:0.26259604;fill:#bf652b;fill-opacity:1;fill-rule:nonzero;stroke:none"
         id="path19656"
         inkscape:connector-curvature="0" />
      <path
         d="m 398.4576,530.94273 c 1.33006,0.994 0.42172,2.54205 1.69907,3.54012 -0.37308,-1.69469 0.75829,-3.7764 -0.56366,-5.23482 0.0487,0.19554 0.0892,0.40331 -0.56365,0.4196 -0.37307,-0.70476 0.73802,-1.78024 -0.57176,-2.26095 0,0.52145 0,1.03475 0,1.56026 0,0.65995 0,1.31991 0,1.97579"
         style="opacity:0.26259604;fill:#d79f5d;fill-opacity:1;fill-rule:nonzero;stroke:none"
         id="path19658"
         inkscape:connector-curvature="0" />
      <path
         d="m 398.4576,530.94273 0,0.70884 c 0,0.47256 0,0.94511 0,1.41361 1.36655,1.03066 0.42983,2.62351 1.69907,3.67862 0,-0.65588 0,-1.31584 0,-1.97986 l 0,-0.28125 c -1.27735,-0.99808 -0.36901,-2.54612 -1.69907,-3.54012"
         style="opacity:0.26259604;fill:#c9813f;fill-opacity:1;fill-rule:nonzero;stroke:none"
         id="path19660"
         inkscape:connector-curvature="0" />
      <path
         d="m 399.59301,536.88638 0.56366,0 0,-0.14241 c -1.26924,-1.05512 -0.33252,-2.64796 -1.69907,-3.67863 -0.0487,1.38101 0.14987,2.70092 1.13541,3.82121"
         style="opacity:0.26259604;fill:#bf652b;fill-opacity:1;fill-rule:nonzero;stroke:none"
         id="path19662"
         inkscape:connector-curvature="0" />
      <path
         id="path19664"
         transform="translate(384.57143,499.78351)"
         d="M 15 42.90625 C 15.110549 43.996568 15.081819 45.118064 15.03125 46.25 L 15.59375 46.25 L 15.59375 45.75 C 15.22474 44.84562 16.31384 43.5662 15 42.90625 z "
         style="opacity:0.26259604;fill:#8a2d1c;fill-opacity:1;fill-rule:nonzero;stroke:none" />
      <path
         d="m 397.32623,522.88071 c 0,0.70883 0,1.41767 0,2.12651 0.9651,0.56219 0.44606,1.49101 0.56771,2.26503 l 0.56366,0 c -0.52311,-1.46657 2.13701,-3.42605 -1.13137,-4.39154"
         style="opacity:0.26259604;fill:#d79f5d;fill-opacity:1;fill-rule:nonzero;stroke:none"
         id="path19666"
         inkscape:connector-curvature="0" />
      <path
         d="m 398.4576,509.01761 c -0.66909,-2.18355 -0.0892,-5.44258 -1.13137,-7.06803 0.24331,2.29355 -0.74208,5.65442 1.13137,7.06803"
         style="opacity:0.26259604;fill:#d79f5d;fill-opacity:1;fill-rule:nonzero;stroke:none"
         id="path19668"
         inkscape:connector-curvature="0" />
      <path
         d="m 398.4576,527.40668 0,-0.13427 -0.56366,0 c 0,0.51737 0,1.03067 0,1.55211 l 0,0.14242 0.56366,0 c 0,-0.52551 0,-1.03881 0,-1.56026"
         style="opacity:0.26259604;fill:#c9813f;fill-opacity:1;fill-rule:nonzero;stroke:none"
         id="path19670"
         inkscape:connector-curvature="0" />
      <path
         d="m 398.4576,528.96694 -0.56366,0 c 0.36901,0.85143 -0.75019,2.06949 0.56366,2.68463 l 0,-0.70884 c 0,-0.65588 0,-1.31584 0,-1.97579"
         style="opacity:0.26259604;fill:#bf652b;fill-opacity:1;fill-rule:nonzero;stroke:none"
         id="path19672"
         inkscape:connector-curvature="0" />
      <path
         d="m 397.89394,539.28992 c 0.36901,1.32398 -0.75424,3.0146 0.56366,4.09823 -0.37712,-1.31991 0.75423,-3.01461 -0.56366,-4.09823"
         style="opacity:0.26259604;fill:#bf652b;fill-opacity:1;fill-rule:nonzero;stroke:none"
         id="path19674"
         inkscape:connector-curvature="0" />
      <path
         id="path19676"
         transform="translate(384.57143,499.78351)"
         d="M 13.3125 46.03125 C 13.357105 46.102033 13.367021 46.171128 13.375 46.25 L 13.8125 46.25 C 13.707661 46.153612 13.551358 46.091612 13.3125 46.03125 z "
         style="opacity:0.26259604;fill:#bf652b;fill-opacity:1;fill-rule:nonzero;stroke:none" />
      <path
         d="m 397.32623,522.03336 c -0.81912,-0.0326 -0.20275,-0.42368 -1.13541,-0.42368 0.0292,0.53774 -0.8759,4.58301 1.13541,3.39754 0,-0.70884 0,-1.41768 0,-2.12651 l 0,-0.84735"
         style="opacity:0.26259604;fill:#c9813f;fill-opacity:1;fill-rule:nonzero;stroke:none"
         id="path19680"
         inkscape:connector-curvature="0" />
      <path
         d="m 399.59301,538.29998 c 1.25707,0.81884 0.14988,2.22837 1.70312,2.97388 0.7137,-1.73951 -1.36655,-2.77425 -1.13946,-4.38748 l -0.56366,0 c 0,0.47256 0,0.94105 0,1.4136"
         style="opacity:0.26259604;fill:#c9813f;fill-opacity:1;fill-rule:nonzero;stroke:none"
         id="path19872"
         inkscape:connector-curvature="0" />
      <path
         id="path19874"
         transform="translate(384.57143,499.78351)"
         d="M 16.46875 1.75 C 17.018433 8.1605836 15.082418 14.339935 18.40625 20.40625 L 18.40625 20 L 18.40625 17.59375 C 17.0843 15.89498 18.21698 13.55597 17.84375 11.625 C 19.32385 11.26651 17.43999 12.93348 18.96875 13.03125 C 18.60785 11.61357 18.76831 10.08759 17.84375 8.8125 C 17.93685 10.40535 17.62983 11.79381 17.28125 9.96875 C 17.10705 9.03993 16.97191 7.17212 17.84375 6.40625 C 17.579209 4.8942495 17.542299 3.3179215 17.5 1.75 L 16.46875 1.75 z "
         style="opacity:0.26259604;fill:#d79f5d;fill-opacity:1;fill-rule:nonzero;stroke:none" />
      <path
         d="m 397.32623,522.03336 c 0.14598,-1.23843 -0.23941,-2.3465 0.56771,-3.11238 0.32018,0.87586 1.19624,2.75796 1.13542,0.70885 -0.32441,-0.30147 -1.35845,-1.16103 0,-1.41361 0.96105,0.1913 0.0487,1.57655 1.12731,1.2751 0.0649,-2.37502 0.003,-4.71745 -1.12731,-6.79101 l -0.57176,0.14242 c 0.19853,-1.21806 -0.3528,-2.52167 -0.56366,-1.13251 l 0,0.98993 c 0.81912,1.0714 1.02999,3.03904 0,4.1023 0.0447,-0.81476 0.11743,-1.63358 -0.56771,-2.26502 l 0,-0.98586 c 0.40551,-0.31352 -0.57582,-0.90031 -0.57176,-0.28941 -0.49878,1.62545 1.44765,2.99831 -0.56365,4.24489 0,0.66403 0,1.31991 0,1.98394 0,0.70476 0,1.40953 0,2.11836 0.93266,0 0.31629,0.39109 1.13541,0.42369"
         style="opacity:0.26259604;fill:#d79f5d;fill-opacity:1;fill-rule:nonzero;stroke:none"
         id="path19876"
         inkscape:connector-curvature="0" />
      <path
         d="m 403.55886,514.39908 c -1.30978,0.70476 -0.19075,2.02875 -0.56365,2.96979 0,0.80253 0,1.601 0,2.40354 0.83534,-0.0293 0.5231,-0.34221 0.56365,-0.56626 0.34468,-0.29755 -0.69747,-0.92475 0.56771,-0.98993 0,-0.42368 0,-0.84735 0,-1.27509 -1.30979,-0.57034 -0.19043,-1.73952 -0.56771,-2.54205"
         style="opacity:0.26259604;fill:#bf652b;fill-opacity:1;fill-rule:nonzero;stroke:none"
         id="path19984"
         inkscape:connector-curvature="0" />
      <path
         id="path19990"
         transform="translate(384.57143,499.78351)"
         d="M 13.3125 29.03125 C 11.64181 32.72617 12.78245 36.91668 12.75 40.9375 C 12.26745 41.72374 11.71422 39.99979 11.625 39.625 C 10.92347 36.7815 10.74911 32.81773 11.625 30.03125 C 9.3230541 35.135548 10.363156 40.863956 10.46875 46.25 L 13.375 46.25 C 13.366997 46.171128 13.35711 46.102033 13.3125 46.03125 C 13.551358 46.091612 13.707659 46.153612 13.8125 46.25 L 15.03125 46.25 C 15.081819 45.118064 15.110549 43.996568 15 42.90625 C 16.31384 43.5662 15.22474 44.84562 15.59375 45.75 L 15.59375 46.25 L 16.875 46.25 C 16.676372 45.499257 16.52 44.759578 16.71875 43.90625 L 16.71875 42.90625 C 15.60361 41.57819 14.69993 40.17841 15 38.5 L 15 37.09375 C 14.01462 35.97346 13.82634 34.66226 13.875 33.28125 L 13.875 31.84375 C 12.56116 31.22861 13.68151 30.03892 13.3125 29.1875 L 13.3125 29.03125 z M 13.3125 39.53125 C 14.63039 40.61487 13.49788 42.27385 13.875 43.59375 C 12.5571 42.51013 13.68151 40.85522 13.3125 39.53125 z "
         style="opacity:0.26259604;fill:#aa4a1e;fill-opacity:1;fill-rule:nonzero;stroke:none" />
      <path
         d="m 394.48769,522.60369 c 0.37712,1.60099 -0.75018,3.58493 0.57176,4.94965 0.81102,-1.41768 1.21652,-3.73566 -0.57176,-4.94965"
         style="opacity:0.26259604;fill:#c9813f;fill-opacity:1;fill-rule:nonzero;stroke:none"
         id="path19686"
         inkscape:connector-curvature="0" />
      <path
         id="path19688"
         transform="translate(384.57143,499.78351)"
         d="M 9.625 45.28125 C 9.6061906 45.271952 9.5824587 45.291184 9.5625 45.3125 C 9.5093 45.3693 9.43803 45.52975 9.34375 45.875 C 9.3194845 45.965819 9.2928845 46.099563 9.28125 46.25 L 10.125 46.25 C 9.8263277 45.778463 9.723975 45.330178 9.625 45.28125 z "
         style="opacity:0.26259604;fill:#c9813f;fill-opacity:1;fill-rule:nonzero;stroke:none" />
      <path
         d="m 393.91998,529.10952 c -0.91239,2.33429 -1.70719,4.71745 -0.56366,6.92545 0.12555,-0.10984 0.0162,-0.27702 0.56366,-0.28093 0.2313,0.42367 -0.54338,1.82505 0.56771,1.55211 -0.37306,-2.68463 0.75424,-5.74812 -0.56771,-8.19646"
         style="opacity:0.26259604;fill:#aa4a1e;fill-opacity:1;fill-rule:nonzero;stroke:none"
         id="path19690"
         inkscape:connector-curvature="0" />
      <path
         d="m 392.22091,514.10984 c 0.21086,2.54205 -0.68936,5.36517 1.13541,7.49984 0.51094,-2.21613 0.67315,-5.40591 -1.13541,-7.49984"
         style="opacity:0.26259604;fill:#aa4a1e;fill-opacity:1;fill-rule:nonzero;stroke:none"
         id="path19694"
         inkscape:connector-curvature="0" />
      <path
         d="m 392.78862,524.1558 c -0.14177,0.74958 -1.87344,2.34243 0.5677,2.8272 -0.37306,-0.89623 0.74613,-2.16317 -0.5677,-2.8272"
         style="opacity:0.26259604;fill:#c9813f;fill-opacity:1;fill-rule:nonzero;stroke:none"
         id="path19696"
         inkscape:connector-curvature="0" />
      <path
         id="path19698"
         transform="translate(384.57143,499.78351)"
         d="M 7.59375 1.75 C 7.3909672 1.75 7.1973581 1.7613269 7 1.78125 C 7.0095266 1.9277229 7.0282869 2.0858961 7.09375 2.1875 L 7.09375 4.15625 C 7.64119 4.15625 7.52649 4.2961 7.65625 4.40625 C 7.96832 5.18434 6.98601 7.05168 8.21875 7.125 C 8.1626778 5.3136228 7.9769387 3.5196137 7.75 1.75 L 7.59375 1.75 z "
         style="opacity:0.26259604;fill:#e7c494;fill-opacity:1;fill-rule:nonzero;stroke:none" />
      <path
         d="m 389.95007,533.63143 c 0,-0.42367 0,-0.84327 0,-1.26695 0.27997,-0.6681 -1.02593,-0.35034 -0.56365,0.13427 -0.64476,2.89239 2.33166,4.95373 1.13542,7.63835 l 0,0.15057 c 2.05591,1.601 -1.30167,4.56264 1.69907,5.93143 0.38928,-2.55019 -0.55959,-4.76225 -0.56771,-7.2106 0,-0.80254 0,-1.601 0,-2.40353 -1.45171,-0.76995 -0.76235,-2.07763 -1.70313,-2.97386"
         style="opacity:0.26259604;fill:#aa4a1e;fill-opacity:1;fill-rule:nonzero;stroke:none"
         id="path19700"
         inkscape:connector-curvature="0" />
      <path
         id="path19702"
         transform="translate(384.57143,499.78351)"
         d="M 6.96875 1.78125 C 6.8586931 1.7929644 6.7643631 1.8260712 6.65625 1.84375 C 6.7780195 1.9575389 6.92633 2.0864742 7.09375 2.1875 C 7.028283 2.0858961 7.0095263 1.9277229 7 1.78125 C 6.999925 1.7800967 6.9688223 1.7824055 6.96875 1.78125 z "
         style="opacity:0.26259604;fill:#d79f5d;fill-opacity:1;fill-rule:nonzero;stroke:none" />
      <path
         d="m 391.08955,506.61815 c 0.30818,-0.20369 -0.66503,-0.73329 0.56365,-0.70477 l 0,-0.85142 c -2.05591,-0.0326 -1.27329,1.36879 -0.56365,1.55619"
         style="opacity:0.26259604;fill:#bf652b;fill-opacity:1;fill-rule:nonzero;stroke:none"
         id="path19704"
         inkscape:connector-curvature="0" />
      <path
         d="m 391.08955,517.93513 c -0.1622,-0.38701 0.57582,-0.88809 -0.56771,-0.994 -0.3244,1.01844 0.2553,1.45433 0.56771,1.97985 0.85967,1.45842 0.43795,0.0775 0,-0.98585"
         style="opacity:0.26259604;fill:#aa4a1e;fill-opacity:1;fill-rule:nonzero;stroke:none"
         id="path19706"
         inkscape:connector-curvature="0" />
      <path
         d="m 389.38642,538.72367 c -0.34062,0.29331 0.69747,0.92882 -0.57176,0.98992 0,0.71291 0,1.4136 0,2.12245 1.2814,0.46034 0.22287,2.17947 0.57176,3.25495 0.14598,0.45627 0.55554,1.51545 1.13542,1.12844 0,-1.97578 0,-3.95565 0,-5.93144 l 0,-0.15056 c -0.64475,-0.40738 -0.11776,-1.104 -1.13542,-1.4136"
         style="opacity:0.26259604;fill:#c9813f;fill-opacity:1;fill-rule:nonzero;stroke:none"
         id="path19710"
         inkscape:connector-curvature="0" />
      <path
         id="path19712"
         transform="translate(384.57143,499.78351)"
         d="M 4.9375 2.40625 C 4.5112369 2.6239957 4.1073533 2.8762676 3.75 3.1875 C 4.9353244 3.5865041 3.888521 4.5266606 4.25 5.125 L 4.25 5.28125 C 5.56384 5.75788 4.43927 6.81834 4.8125 7.53125 L 4.8125 8.9375 C 6.1041459 6.8732634 5.2685961 4.6148092 4.9375 2.40625 z "
         style="opacity:0.26259604;fill:#bf652b;fill-opacity:1;fill-rule:nonzero;stroke:none" />
      <path
         d="m 389.38642,507.32698 c -0.37307,-0.71291 0.74208,-1.78838 -0.57176,-2.26502 0.37712,0.70884 -0.73397,1.79246 0.57176,2.26502"
         style="opacity:0.26259604;fill:#c9813f;fill-opacity:1;fill-rule:nonzero;stroke:none"
         id="path19716"
         inkscape:connector-curvature="0" />
      <path
         d="m 388.81466,505.06196 0,-0.14241 c -2.1573,0.5744 0.69341,6.26141 0,6.79099 0.8475,-0.64773 0.073,-1.80468 0.57176,-2.96979 0,-0.46848 0,-0.94511 0,-1.4136 -1.30573,-0.47256 -0.19464,-1.55619 -0.57176,-2.26502"
         style="opacity:0.26259604;fill:#d79f5d;fill-opacity:1;fill-rule:nonzero;stroke:none"
         id="path19718"
         inkscape:connector-curvature="0" />
      <path
         d="m 388.81466,523.30845 c -0.3609,-0.51737 0.73397,-1.40952 -0.56771,-1.69877 0.36495,0.52145 -0.72991,1.41361 0.56771,1.69877"
         style="opacity:0.26259604;fill:#d79f5d;fill-opacity:1;fill-rule:nonzero;stroke:none"
         id="path19722"
         inkscape:connector-curvature="0" />
      <path
         id="path19726"
         transform="translate(384.57143,499.78351)"
         d="M 2.5625 13.625 C 2.18133 14.89602 3.32194 16.55494 2 17.59375 C 1.9118733 17.51758 1.8174606 17.42441 1.75 17.3125 L 1.75 20.90625 C 1.9644042 21.325156 2.1675147 21.734525 3.125 21.96875 C 2.30994 19.18227 5.53081 16.01631 2.5625 13.625 z "
         style="opacity:0.26259604;fill:#bf652b;fill-opacity:1;fill-rule:nonzero;stroke:none" />
      <path
         id="path19728"
         transform="translate(384.57143,499.78351)"
         d="M 3.125 40.5 C 3.3430283 41.613995 3.0568447 42.854138 3.03125 44.03125 C 3.2338106 44.286831 3.4455811 44.531835 3.6875 44.75 L 3.6875 43.46875 C 3.31849 42.51956 4.43885 41.20477 3.125 40.5 z "
         style="opacity:0.26259604;fill:#8a2d1c;fill-opacity:1;fill-rule:nonzero;stroke:none" />
      <path
         d="m 385.98423,538.01482 c 0.36495,0.71292 -0.74614,1.79247 0.56365,2.27317 -0.36495,-0.71698 0.74613,-1.79246 -0.56365,-2.27317"
         style="opacity:0.26259604;fill:#8a2d1c;fill-opacity:1;fill-rule:nonzero;stroke:none"
         id="path19730"
         inkscape:connector-curvature="0" />
      <path
         d="m 391.45856,530.23797 0,0.003 0,-0.003"
         style="opacity:0.26259604;fill:#c9813f;fill-opacity:1;fill-rule:nonzero;stroke:none"
         id="path19868"
         inkscape:connector-curvature="0" />
      <path
         d="m 390.52184,523.16587 -0.003,0.11407 0.003,-0.11407"
         style="opacity:0.26259604;fill:#d79f5d;fill-opacity:1;fill-rule:nonzero;stroke:none"
         id="path19878"
         inkscape:connector-curvature="0" />
      <path
         d="m 390.51779,523.27994 c -0.33658,0.38701 -1.76395,1.51137 -1.71124,1.20584 l -0.0892,0.3259 -0.003,0.10592 -0.0195,0.21999 0.013,0.13851 0.0162,0.21997 0.0324,0.13851 0.0487,0.21999 0.0447,0.15056 0.073,0.21999 0.0609,0.15089 0.10122,0.23204 0.073,0.14666 0.12555,0.24443 0.0772,0.14242 0.14988,0.25681 0.0769,0.12613 0.17031,0.28516 0.0691,0.10592 0.19854,0.29755 0.0528,0.0733 c 0.45823,0.67626 0.96511,1.34435 1.38278,1.95136 l 0,-0.003 c -0.31208,-0.60699 -0.0529,-1.32805 0.1541,-2.08577 l 0.0607,-0.19978 0.0324,-0.15871 0.0772,-0.42775 0.007,-0.0857 0,-0.46441 -0.007,-0.0449 -0.12977,-0.48479 c -1.01376,-0.84327 -1.19624,-1.89838 -1.13541,-3.00237"
         style="opacity:0.26259604;fill:#d79f5d;fill-opacity:1;fill-rule:nonzero;stroke:none"
         id="path19880"
         inkscape:connector-curvature="0" />
      <path
         d="m 388.72139,525.49607 -0.0162,-0.21997 0.0162,0.21997"
         style="opacity:0.26259604;fill:#d79f5d;fill-opacity:1;fill-rule:nonzero;stroke:none"
         id="path19882"
         inkscape:connector-curvature="0" />
      <path
         d="m 388.693,525.13759 0.0195,-0.21999 -0.0195,0.21999"
         style="opacity:0.26259604;fill:#d79f5d;fill-opacity:1;fill-rule:nonzero;stroke:none"
         id="path19884"
         inkscape:connector-curvature="0" />
      <path
         d="m 389.75543,527.80999 -0.17031,-0.28517 0.17031,0.28517"
         style="opacity:0.26259604;fill:#d79f5d;fill-opacity:1;fill-rule:nonzero;stroke:none"
         id="path19886"
         inkscape:connector-curvature="0" />
      <path
         d="m 388.71734,524.81168 0.0892,-0.3259 -0.0892,0.3259"
         style="opacity:0.26259604;fill:#d79f5d;fill-opacity:1;fill-rule:nonzero;stroke:none"
         id="path19888"
         inkscape:connector-curvature="0" />
      <path
         d="m 390.07578,528.28662 c 0.45822,0.67625 0.96511,1.34843 1.38278,1.95135 -0.41767,-0.607 -0.92456,-1.2751 -1.38278,-1.95135"
         style="opacity:0.26259604;fill:#d79f5d;fill-opacity:1;fill-rule:nonzero;stroke:none"
         id="path19890"
         inkscape:connector-curvature="0" />
      <path
         d="m 389.28099,526.99931 -0.12587,-0.24444 0.12587,0.24444"
         style="opacity:0.26259604;fill:#d79f5d;fill-opacity:1;fill-rule:nonzero;stroke:none"
         id="path19892"
         inkscape:connector-curvature="0" />
      <path
         d="m 389.50807,527.39853 -0.15019,-0.2568 0.15019,0.2568"
         style="opacity:0.26259604;fill:#d79f5d;fill-opacity:1;fill-rule:nonzero;stroke:none"
         id="path19894"
         inkscape:connector-curvature="0" />
      <path
         d="m 389.0823,526.60822 -0.10123,-0.23205 0.10123,0.23205"
         style="opacity:0.26259604;fill:#d79f5d;fill-opacity:1;fill-rule:nonzero;stroke:none"
         id="path19896"
         inkscape:connector-curvature="0" />
      <path
         d="m 390.02307,528.21329 -0.19854,-0.29755 0.19854,0.29755"
         style="opacity:0.26259604;fill:#d79f5d;fill-opacity:1;fill-rule:nonzero;stroke:none"
         id="path19898"
         inkscape:connector-curvature="0" />
      <path
         d="m 388.92009,526.22528 -0.073,-0.21998 0.073,0.21998"
         style="opacity:0.26259604;fill:#d79f5d;fill-opacity:1;fill-rule:nonzero;stroke:none"
         id="path19900"
         inkscape:connector-curvature="0" />
      <path
         d="m 388.8025,525.85457 -0.0487,-0.21999 0.0487,0.21999"
         style="opacity:0.26259604;fill:#d79f5d;fill-opacity:1;fill-rule:nonzero;stroke:none"
         id="path19902"
         inkscape:connector-curvature="0" />
      <path
         d="m 391.6532,530.52313 -0.19464,-0.28516 0,0.003 0.19464,0.28126"
         style="opacity:0.26259604;fill:#bf652b;fill-opacity:1;fill-rule:nonzero;stroke:none"
         id="path19956"
         inkscape:connector-curvature="0" />
      <path
         d="m 391.6532,530.52313 -0.19464,-0.28125 0.19464,0.28125"
         style="opacity:0.26259604;fill:#bf652b;fill-opacity:1;fill-rule:nonzero;stroke:none"
         id="path19958"
         inkscape:connector-curvature="0" />
      <path
         d="m 391.70591,527.78962 -0.0324,0.15871 0.0324,-0.15871"
         style="opacity:0.26259604;fill:#bf652b;fill-opacity:1;fill-rule:nonzero;stroke:none"
         id="path19960"
         inkscape:connector-curvature="0" />
      <path
         d="m 391.79107,527.27632 -0.007,0.0857 0.007,-0.0857"
         style="opacity:0.26259604;fill:#bf652b;fill-opacity:1;fill-rule:nonzero;stroke:none"
         id="path19962"
         inkscape:connector-curvature="0" />
      <path
         d="m 391.78296,526.7671 0.007,0.0449 -0.007,-0.0449"
         style="opacity:0.26259604;fill:#bf652b;fill-opacity:1;fill-rule:nonzero;stroke:none"
         id="path19964"
         inkscape:connector-curvature="0" />
      <path
         d="m 391.45856,530.23389 c -0.31208,-0.607 -0.0528,-1.32805 0.15409,-2.08578 -0.20697,0.75773 -0.46634,1.47878 -0.15409,2.08578"
         style="opacity:0.26259604;fill:#bf652b;fill-opacity:1;fill-rule:nonzero;stroke:none"
         id="path19966"
         inkscape:connector-curvature="0" />
      <path
         id="path19968"
         transform="translate(384.57143,499.78351)"
         d="M 7.75 1.75 C 7.9769405 3.5196137 8.1626866 5.3136228 8.21875 7.125 C 6.98601 7.0517 7.96832 5.18434 7.65625 4.40625 C 7.52649 4.29642 7.64205 4.15625 7.09375 4.15625 L 7.09375 5.28125 L 7.09375 6.125 C 7.19498 8.87888 8.56924 11.31532 9.34375 13.90625 C 11.2253 13.45813 10.23355 15.20154 10.46875 16 C 12.00156 16.10593 10.08408 15.36691 11.625 15.46875 C 11.25599 14.51957 12.38445 13.20476 11.0625 12.5 C 10.72593 12.79332 11.73799 13.41172 10.46875 13.46875 C 10.09163 12.42994 11.22414 11.0213 9.90625 10.21875 C 9.56156 10.55688 10.62515 11.26093 9.34375 11.375 C 9.492891 8.0827004 9.1873799 4.8950628 8.75 1.75 L 7.75 1.75 z "
         style="opacity:0.26259604;fill:#d79f5d;fill-opacity:1;fill-rule:nonzero;stroke:none" />
      <path
         id="path19970"
         transform="translate(384.57143,499.78351)"
         d="M 1.75 33.5625 L 1.75 38.40625 C 2.5013604 38.939667 1.6736112 39.859076 2 40.5 C 1.9025637 40.46424 1.8222748 40.44827 1.75 40.40625 C 1.75 41.793745 2.2307006 43.061158 3.03125 44.0625 C 3.0514347 42.876331 3.3450197 41.624164 3.125 40.5 C 4.43885 41.20476 3.31849 42.51956 3.6875 43.46875 L 3.6875 44.75 C 3.9172136 44.957158 4.1455273 45.143556 4.40625 45.3125 C 4.3117655 44.214532 4.2521401 43.120454 4.25 42.0625 L 4.25 39.9375 C 3.06997 39.05349 4.47112 37.5267 3.125 36.6875 C 2.81261 36.89542 3.79119 37.42663 2.5625 37.40625 C 3.1370225 35.801325 2.4955314 34.648254 1.75 33.5625 z "
         style="opacity:0.26259604;fill:#aa4a1e;fill-opacity:1;fill-rule:nonzero;stroke:none" />
      <path
         id="path19974"
         transform="translate(384.57143,499.78351)"
         d="M 3.625 3.3125 C 3.3856362 3.5342166 3.1682096 3.7724039 2.96875 4.03125 C 3.0182469 4.1575591 3.0729178 4.2806752 3.125 4.40625 C 4.2533213 4.2745012 3.5788237 3.7097311 3.625 3.3125 z "
         style="opacity:0.26259604;fill:#d79f5d;fill-opacity:1;fill-rule:nonzero;stroke:none" />
      <path
         id="path19986"
         transform="translate(384.57143,499.78351)"
         d="M 4.25 26.5 C 2.59959 28.25581 4.76325 30.96703 3.125 32.71875 C 2.2903768 32.332186 2.3211566 31.198793 1.75 30.65625 L 1.75 33.5625 C 2.49553 34.648254 3.1370225 35.801325 2.5625 37.40625 C 3.79119 37.42585 2.81277 36.89526 3.125 36.6875 C 4.47129 37.5267 3.07 39.05349 4.25 39.9375 C 5.51923 39.8763 4.47172 39.23081 4.8125 38.9375 C 5.83032 39.24711 5.29274 39.93637 5.9375 40.34375 C 7.13374 37.65912 4.16774 35.61115 4.8125 32.71875 C 4.35022 32.23398 5.65481 31.89424 5.375 32.5625 L 5.375 33.875 C 6.31578 34.77123 5.64205 36.04255 7.09375 36.8125 C 6.74097 33.21941 4.78933 30.04013 4.25 26.5 z "
         style="opacity:0.26259604;fill:#bf652b;fill-opacity:1;fill-rule:nonzero;stroke:none" />
      <path
         id="path20000"
         transform="translate(384.57143,499.78351)"
         d="M 1.75 24.34375 L 1.75 28.8125 C 2.2506789 28.67887 2.4953247 28.389102 2.5625 28.875 C 3.81957 28.57746 2.79233 26.50622 3.125 25.5 C 2.546224 25.55933 2.0916374 25.075085 1.75 24.34375 z "
         style="opacity:0.26259604;fill:#d79f5d;fill-opacity:1;fill-rule:nonzero;stroke:none" />
    </g>
    <path
       style="opacity:0.67000002;fill:#ffffff;fill-opacity:1;stroke:none"
       d="M 2.375 5 C 1.9834529 5.7866307 1.75 6.6834675 1.75 7.625 L 1.75 40.40625 C 1.75 41.34412 1.9863062 42.215642 2.375 43 C 2.3755775 42.582158 2.3732174 42.195283 2.375 41.71875 L 2.375 5 z "
       transform="translate(384.57143,499.78351)"
       id="path2367" />
    <path
       style="opacity:0.67000002;fill:url(#linearGradient867);fill-opacity:1;stroke:none"
       d="M 7.59375 1.75 C 4.3492254 1.75 1.75 4.3804754 1.75 7.625 L 1.75 40.40625 C 1.75 43.650775 4.3492254 46.25 7.59375 46.25 L 10.4375 46.25 L 10.4375 1.75 L 7.59375 1.75 z "
       transform="translate(384.57143,499.78351)"
       id="rect2991" />
    <path
       style="opacity:0.91000001;fill:#633415;fill-opacity:1;stroke:none"
       d="M 9.71875 1.75 L 9.71875 46.25 L 10.4375 46.25 L 10.4375 1.75 L 9.71875 1.75 z "
       transform="translate(384.57143,499.78351)"
       id="rect2357" />
    <path
       style="fill:url(#linearGradient954);fill-opacity:1;stroke:none"
       d="M 6.15625 1.9375 C 5.8737152 2.0096428 5.5766824 2.107381 5.3125 2.21875 L 5.3125 45.8125 C 5.5754267 45.92334 5.875137 45.990507 6.15625 46.0625 L 6.15625 1.9375 z "
       transform="translate(384.57143,499.78351)"
       id="rect946" />
    <rect
       style="opacity:0.8;color:#000000;fill:none;stroke:#9b5821;stroke-width:0.54511636;stroke-linejoin:round;stroke-miterlimit:4;stroke-opacity:1;stroke-dasharray:2.18046547, 2.18046547;stroke-dashoffset:0;marker:none;visibility:visible;display:inline;overflow:visible;enable-background:accumulate"
       id="rect7163-9-8-1-7-0-0-1-8-7-3"
       width="29.072277"
       height="29.39992"
       x="397.9389"
       y="509.11826"
       ry="0.29979184"
       rx="0.27667433" />
    <rect
       style="opacity:0.8;color:#000000;fill:none;stroke:#512502;stroke-width:0.54511636;stroke-linejoin:round;stroke-miterlimit:4;stroke-opacity:1;stroke-dasharray:2.18046547, 2.18046547;stroke-dashoffset:0;marker:none;visibility:visible;display:inline;overflow:visible;enable-background:accumulate"
       id="rect7163-9-7-7-1-7-8-7-9-3-8-5"
       width="29.072277"
       height="29.39992"
       x="398.13034"
       y="509.06329"
       ry="0.29979184"
       rx="0.27667433" />
    <path
       style="color:#bebebe;fill:#502d16;fill-opacity:1;fill-rule:nonzero;stroke:none;stroke-width:1;marker:none;visibility:visible;display:inline;overflow:visible;enable-background:accumulate"
       d="m 411.16235,514.11011 c -1.61171,0 -2.9092,1.3274 -2.9092,2.97622 l -4.36384,0 c -1.6117,0 -2.90922,1.32741 -2.90922,2.97626 l 0,8.9287 c 0,1.64881 1.29752,2.97619 2.90922,2.97619 l 17.45528,0 c 1.61168,0 2.90918,-1.32738 2.90918,-2.97619 l 0,-8.9287 c 0,-1.64885 -1.2975,-2.97626 -2.90918,-2.97626 l -4.36387,0 c 0,-1.64882 -1.29749,-2.97622 -2.90919,-2.97622 L 411.16235,514.11011 z m 1.45458,5.95248 c 2.41006,0 4.36379,1.99875 4.36379,4.46434 0,2.46559 -1.95373,4.46436 -4.36379,4.46436 -2.41002,0 -4.36378,-1.99877 -4.36378,-4.46436 C 408.25315,522.06134 410.20691,520.06259 412.61693,520.06259 z m 0,2.97625 c -0.80333,0 -1.45458,0.66624 -1.45458,1.48809 0,0.82189 0.65125,1.4881 1.45458,1.4881 0.80337,0 1.4546,-0.66621 1.4546,-1.4881 C 414.07153,523.70508 413.4203,523.03884 412.61693,523.03884 Z"
       id="path9231-9-8-4"
       inkscape:connector-curvature="0" />
    <path
       style="opacity:0.91000001;fill:#9b5821;fill-opacity:1;stroke:none"
       d="M 10.125 1.75 L 10.125 46.25 L 10.4375 46.25 L 10.4375 1.75 L 10.125 1.75 z "
       transform="translate(384.57143,499.78351)"
       id="path2362" />
    <path
       id="path6361"
       d="m 386.32143,507.97828 0,-0.5625 c 0,-3.2445 2.59922,-5.875 5.84375,-5.875 l 32.8125,0 c 3.24452,0 5.84375,2.6305 5.84375,5.875 l 0,0.5625 c 0,-3.2445 -2.59923,-5.875 -5.84375,-5.875 l -32.8125,0 C 388.92065,502.10328 386.32143,504.73378 386.32143,507.97828 Z"
       style="color:#000000;fill:#ffffff;fill-opacity:1;fill-rule:nonzero;stroke:none;stroke-width:0.2;marker:none;visibility:visible;display:inline;overflow:visible;enable-background:accumulate"
       inkscape:connector-curvature="0" />
    <path
       inkscape:connector-curvature="0"
       style="color:#000000;fill:#000000;fill-opacity:1;fill-rule:nonzero;stroke:none;stroke-width:0.2;marker:none;visibility:visible;display:inline;overflow:visible;enable-background:accumulate"
       d="m 386.32143,539.60328 0,0.5625 c 0,3.2445 2.59922,5.875 5.84375,5.875 l 32.8125,0 c 3.24452,0 5.84375,-2.6305 5.84375,-5.875 l 0,-0.5625 c 0,3.2445 -2.59923,5.875 -5.84375,5.875 l -32.8125,0 C 388.92065,545.47828 386.32143,542.84778 386.32143,539.60328 Z"
       id="path6388" />
  </g>
</svg>
