<?xml version="1.0" encoding="UTF-8" standalone="no"?>
<!-- Created with Inkscape (http://www.inkscape.org/) -->

<svg
   xmlns:dc="http://purl.org/dc/elements/1.1/"
   xmlns:cc="http://creativecommons.org/ns#"
   xmlns:rdf="http://www.w3.org/1999/02/22-rdf-syntax-ns#"
   xmlns:svg="http://www.w3.org/2000/svg"
   xmlns="http://www.w3.org/2000/svg"
   xmlns:xlink="http://www.w3.org/1999/xlink"
   xmlns:sodipodi="http://sodipodi.sourceforge.net/DTD/sodipodi-0.dtd"
   xmlns:inkscape="http://www.inkscape.org/namespaces/inkscape"
   width="48.000011"
   height="48.014492"
   id="svg5453"
   version="1.1"
   inkscape:version="0.48+devel r12312"
   sodipodi:docname="system-restart.svg">
  <defs
     id="defs5455">
    <linearGradient
       gradientUnits="userSpaceOnUse"
       y2="1005.7004"
       x2="25.1199"
       y1="1051.0239"
       x1="25.1199"
       id="linearGradient885"
       xlink:href="#linearGradient3257-0-4"
       inkscape:collect="always"
       gradientTransform="translate(384.57143,-504.57144)" />
    <linearGradient
       id="linearGradient3257-0-4">
      <stop
         offset="0"
         style="stop-color:#69a123;stop-opacity:1"
         id="stop3259-2-5" />
      <stop
         offset="1"
         style="stop-color:#abbd3b;stop-opacity:1"
         id="stop3261-6-0" />
    </linearGradient>
  </defs>
  <sodipodi:namedview
     id="base"
     pagecolor="#ffffff"
     bordercolor="#666666"
     borderopacity="1.0"
     inkscape:pageopacity="0.0"
     inkscape:pageshadow="2"
     inkscape:zoom="4.9422552"
     inkscape:cx="4.6778166"
     inkscape:cy="32.97902"
     inkscape:document-units="px"
     inkscape:current-layer="layer1"
     showgrid="false"
     fit-margin-top="0"
     fit-margin-left="0"
     fit-margin-right="0"
     fit-margin-bottom="0"
     inkscape:window-width="1366"
     inkscape:window-height="714"
     inkscape:window-x="0"
     inkscape:window-y="30"
     inkscape:window-maximized="1" />
  <metadata
     id="metadata5458">
    <rdf:RDF>
      <cc:Work
         rdf:about="">
        <dc:format>image/svg+xml</dc:format>
        <dc:type
           rdf:resource="http://purl.org/dc/dcmitype/StillImage" />
        <dc:title />
      </cc:Work>
    </rdf:RDF>
  </metadata>
  <g
     inkscape:label="Capa 1"
     inkscape:groupmode="layer"
     id="layer1"
     transform="translate(-384.57143,-499.78351)">
    <rect
       style="color:#000000;fill:#333333;fill-opacity:1;fill-rule:nonzero;stroke:none;stroke-width:0.2;marker:none;visibility:visible;display:inline;overflow:visible;enable-background:accumulate"
       id="rect6294"
       width="45.5"
       height="45.5"
       x="385.82144"
       y="501.04074"
       ry="6.3565426" />
    <rect
       ry="5.8565426"
       y="501.54074"
       x="386.32144"
       height="44.5"
       width="44.5"
       id="rect6296"
       style="color:#000000;fill:url(#linearGradient885);fill-opacity:1.0;fill-rule:nonzero;stroke:none;stroke-width:0.2;marker:none;visibility:visible;display:inline;overflow:visible;enable-background:accumulate" />
    <path
       id="path6361"
       d="m 386.32143,507.97828 0,-0.5625 c 0,-3.2445 2.59922,-5.875 5.84375,-5.875 l 32.8125,0 c 3.24452,0 5.84375,2.6305 5.84375,5.875 l 0,0.5625 c 0,-3.2445 -2.59923,-5.875 -5.84375,-5.875 l -32.8125,0 C 388.92065,502.10328 386.32143,504.73378 386.32143,507.97828 Z"
       style="color:#000000;fill:#ffffff;fill-opacity:1;fill-rule:nonzero;stroke:none;stroke-width:0.2;marker:none;visibility:visible;display:inline;overflow:visible;enable-background:accumulate"
       inkscape:connector-curvature="0" />
    <path
       inkscape:connector-curvature="0"
       style="color:#000000;fill:#000000;fill-opacity:1;fill-rule:nonzero;stroke:none;stroke-width:0.2;marker:none;visibility:visible;display:inline;overflow:visible;enable-background:accumulate"
       d="m 386.32143,539.60328 0,0.5625 c 0,3.2445 2.59922,5.875 5.84375,5.875 l 32.8125,0 c 3.24452,0 5.84375,-2.6305 5.84375,-5.875 l 0,-0.5625 c 0,3.2445 -2.59923,5.875 -5.84375,5.875 l -32.8125,0 C 388.92065,545.47828 386.32143,542.84778 386.32143,539.60328 Z"
       id="path6388" />
    <path
       style="fill:#ffffff;fill-rule:evenodd;clip-rule:evenodd"
       inkscape:connector-curvature="0"
       d="m 412.49566,514.04508 c -2.15411,-0.94987 -4.592,-1.09904 -6.8568,-0.38113 -4.30235,1.35418 -7.09665,5.4367 -6.8062,9.93098 l -2.936,0.19195 c -0.38034,-5.85198 3.26219,-11.16662 8.85551,-12.93293 3.27748,-1.03271 6.8262,-0.67551 9.84031,0.95382 l 2.81824,-3.01059 0.7497,8.3527 -8.84763,0.29437 L 412.49566,514.04508 z m -0.1099,21.0348 c -1.24034,0.3886 -2.5274,0.58485 -3.80698,0.58485 -2.08464,0 -4.1528,-0.53774 -6.02116,-1.54296 l -2.82177,3.01488 -0.74971,-8.35268 8.84293,-0.2983 -3.17935,3.40307 c 2.15097,0.94597 4.58809,1.09513 6.85289,0.38075 4.30235,-1.3581 7.10057,-5.44416 6.80618,-9.93059 l 2.93601,-0.19235 C 421.62985,527.99069 417.98694,533.30965 412.38576,535.07988 Z"
       id="Refresh__x2014__Reloads_the_data_for_the_current_activity._While_the_refresh_process_is_ongoing_x2C__replace_the_Refresh_icon_in_the_action_bar_with_a_circular_activity_indicator_until_the_refresh_is_complete._2_" />
    <path
       style="fill:#ffffff;fill-opacity:0.23529412;fill-rule:evenodd;clip-rule:evenodd"
       d="m 408.23895,513.21189 c -0.87389,0.0289 -1.75218,0.17359 -2.60148,0.4428 -4.14985,1.30617 -6.90693,5.16094 -6.83579,9.46494 0.16186,-4.07691 2.86481,-7.66156 6.83579,-8.91143 2.13465,-0.67666 4.41637,-0.55927 6.47601,0.24907 l 0.38745,-0.41512 C 411.15462,513.44848 409.69544,513.16379 408.23895,513.21189 z m 9.85239,3.92989 -8.24723,0.27675 -0.52583,0.58118 8.82841,-0.30443 L 418.09134,517.14178 z m 0.2214,5.75645 c 0.0105,0.15903 0.0249,0.31255 0.0277,0.47049 0.007,-0.15801 0.002,-0.3111 0,-0.47049 L 418.31274,522.89823 z m 2.96125,0.47049 c -0.16019,5.34956 -3.67728,10.06112 -8.88376,11.70662 -1.24034,0.3886 -2.53959,0.58119 -3.81917,0.58119 -2.08466,0 -4.13718,-0.5446 -6.00554,-1.54982 l -2.82288,3.0166 -0.69189,-7.80441 -0.0553,0 0.74723,8.35792 2.82289,-3.0166 c 1.86835,1.00522 3.92088,1.54982 6.00553,1.54982 1.27959,0 2.57884,-0.19259 3.81918,-0.58119 C 417.77589,533.92673 421.34913,528.94482 421.27399,523.36872 z m -22.47231,0.2214 -2.90591,0.19372 c 0.005,0.18161 -0.0119,0.37074 0,0.5535 l 2.93358,-0.19371 C 398.81725,523.95625 398.80318,523.77587 398.80168,523.59012 z m 9.02213,5.45202 -0.52582,0.0276 -2.65683,2.82287 c 0.12508,0.0549 0.26052,0.0888 0.38746,0.13839 L 407.82381,529.04214 Z"
       id="path826"
       inkscape:connector-curvature="0" />
    <path
       inkscape:connector-curvature="0"
       id="path831"
       d="m 408.23895,513.76886 c -0.87389,0.0289 -1.75218,0.17357 -2.60148,0.44281 -4.14985,1.30616 -6.90693,5.16092 -6.83579,9.46493 0.16186,-4.07691 2.86481,-7.66156 6.83579,-8.91143 2.13465,-0.67666 4.41637,-0.55927 6.47601,0.24907 l 0.38745,-0.41512 C 411.15462,514.00544 409.69544,513.72076 408.23895,513.76886 z m 9.85239,3.92987 -8.24723,0.27676 -0.52583,0.58119 8.82841,-0.30444 L 418.09134,517.69873 z m 0.2214,5.75647 c 0.0105,0.15903 0.0249,0.31255 0.0277,0.47048 0.007,-0.158 0.002,-0.3111 0,-0.47048 L 418.31274,523.4552 z m 2.96125,0.47048 c -0.16019,5.34958 -3.67728,10.06114 -8.88376,11.70663 -1.24034,0.3886 -2.53959,0.58119 -3.81917,0.58119 -2.08466,0 -4.13718,-0.5446 -6.00554,-1.54981 l -2.82288,3.01659 -0.69189,-7.80441 -0.0553,0 0.74723,8.35792 2.82289,-3.0166 c 1.86835,1.00522 3.92088,1.54982 6.00553,1.54982 1.27959,0 2.57884,-0.19259 3.81918,-0.58119 C 417.77589,534.48371 421.34913,529.50178 421.27399,523.92568 z m -22.47231,0.22141 -2.90591,0.19372 c 0.005,0.18161 -0.0119,0.37073 0,0.5535 l 2.93358,-0.19372 C 398.81725,524.51323 398.80318,524.33284 398.80168,524.14709 z m 9.02213,5.45202 -0.52582,0.0276 -2.65683,2.82288 c 0.12508,0.0549 0.26052,0.0888 0.38746,0.13839 L 407.82381,529.59911 Z"
       style="fill:#ffffff;fill-opacity:0.11764706;fill-rule:evenodd;clip-rule:evenodd" />
    <path
       style="fill:#ffffff;fill-opacity:0.05882353;fill-rule:evenodd;clip-rule:evenodd"
       d="m 408.23895,514.32583 c -0.87389,0.0289 -1.75218,0.17357 -2.60148,0.44281 -4.14985,1.30616 -6.90693,5.16091 -6.83579,9.46493 0.16186,-4.07693 2.86481,-7.66156 6.83579,-8.91144 2.13465,-0.67665 4.41637,-0.55926 6.47601,0.24908 l 0.38745,-0.41513 C 411.15462,514.5624 409.69544,514.27773 408.23895,514.32583 z m 9.85239,3.92987 -8.24723,0.27676 -0.52583,0.58119 8.82841,-0.30444 L 418.09134,518.2557 z m 0.2214,5.75647 c 0.0105,0.15903 0.0249,0.31255 0.0277,0.47047 0.007,-0.15799 0.002,-0.3111 0,-0.47047 L 418.31274,524.01217 z m 2.96125,0.47047 c -0.16019,5.34959 -3.67728,10.06115 -8.88376,11.70664 -1.24034,0.3886 -2.53959,0.58119 -3.81917,0.58119 -2.08466,0 -4.13718,-0.5446 -6.00554,-1.54981 l -2.82288,3.01659 -0.69189,-7.80442 -0.0553,0 0.74723,8.35793 2.82289,-3.0166 c 1.86835,1.00522 3.92088,1.54982 6.00553,1.54982 1.27959,0 2.57884,-0.1926 3.81918,-0.58119 C 417.77589,535.04068 421.34913,530.05874 421.27399,524.48264 z m -22.47231,0.2214 -2.90591,0.19374 c 0.005,0.18161 -0.0119,0.37073 0,0.5535 l 2.93358,-0.19373 C 398.81725,525.07019 398.80318,524.88981 398.80168,524.70404 z m 9.02213,5.45205 -0.52582,0.0276 -2.65683,2.82288 c 0.12508,0.0549 0.26052,0.0888 0.38746,0.13838 L 407.82381,530.15608 Z"
       id="path833"
       inkscape:connector-curvature="0" />
    <path
       style="fill:#000000;fill-opacity:0.23584451;fill-rule:evenodd;clip-rule:evenodd"
       d="m 417.39946,508.79076 -2.79521,3.0166 c -3.01412,-1.62933 -6.5749,-1.97366 -9.85239,-0.94096 -5.35728,1.69178 -8.9264,6.62068 -8.88376,12.17713 0.15266,-5.36673 3.67567,-10.08966 8.88376,-11.73433 3.27749,-1.0327 6.83827,-0.68837 9.85239,0.94096 l 2.79521,-3.0166 0.71955,7.91512 0.0277,0 L 417.39946,508.79076 z m -5.20295,5.59041 -2.87823,3.07195 0.41513,-0.0277 2.76752,-2.93357 C 412.40231,514.44837 412.29629,514.42129 412.19651,514.38117 z m 9.04982,7.77675 -2.93359,0.19372 c 0.01,0.14969 0.0247,0.29409 0.0277,0.4428 l 2.90591,-0.19371 C 421.24171,522.45171 421.25619,522.30767 421.24633,522.15792 z m -22.44465,0.91328 c -0.006,0.17469 -0.004,0.34946 0,0.52583 l 0.0277,0 C 398.81785,523.41902 398.8036,523.24777 398.80168,523.0712 z m 19.53873,0.24908 c -0.13902,4.092 -2.84849,7.68046 -6.83579,8.9391 -2.1611,0.68167 -4.48246,0.5838 -6.55904,-0.24907 l -0.30442,0.3321 c 2.15097,0.94597 4.59866,1.10182 6.86346,0.38746 C 415.63655,531.42555 418.39025,527.59503 418.34041,523.32028 z m -10.5166,5.17528 -8.82841,0.27675 0.0553,0.47047 8.35794,-0.27675 L 407.82381,528.49556 Z"
       id="path835"
       inkscape:connector-curvature="0" />
    <path
       id="path840"
       d="m 417.39946,509.23107 -2.79521,3.0166 c -3.01412,-1.62933 -6.5749,-1.97366 -9.85239,-0.94096 -5.35728,1.69177 -8.9264,6.62068 -8.88376,12.17712 0.15266,-5.36672 3.67567,-10.08964 8.88376,-11.73431 3.27749,-1.03271 6.83827,-0.68837 9.85239,0.94096 l 2.79521,-3.0166 0.71955,7.91512 0.0277,0 L 417.39946,509.23107 z m -5.20295,5.5904 -2.87823,3.07196 0.41513,-0.0277 2.76752,-2.93358 C 412.40231,514.88868 412.2963,514.86161 412.19651,514.82147 z m 9.04982,7.77675 -2.93359,0.19373 c 0.01,0.1497 0.0247,0.29409 0.0277,0.44281 l 2.9059,-0.19374 C 421.24171,522.89203 421.25619,522.74798 421.24633,522.59822 z m -22.44465,0.91329 c -0.007,0.17469 -0.004,0.34948 0,0.52582 l 0.0277,0 C 398.81785,523.85933 398.8036,523.68808 398.80168,523.51151 z m 19.53873,0.24907 c -0.13902,4.09201 -2.84849,7.68047 -6.83579,8.93911 -2.16109,0.68167 -4.48246,0.5838 -6.55904,-0.24907 l -0.30442,0.33211 c 2.15097,0.94594 4.59866,1.10181 6.86346,0.38745 C 415.63655,531.86588 418.39025,528.03536 418.34041,523.76058 z m -10.5166,5.17527 -8.82841,0.27675 0.0553,0.47049 8.35794,-0.27675 L 407.82381,528.93585 Z"
       style="fill:#000000;fill-opacity:0.11888547;fill-rule:evenodd;clip-rule:evenodd"
       inkscape:connector-curvature="0" />
    <path
       inkscape:connector-curvature="0"
       style="fill:#000000;fill-opacity:0.05882353;fill-rule:evenodd;clip-rule:evenodd"
       d="m 417.39946,509.67068 -2.79521,3.01659 c -3.01412,-1.62932 -6.5749,-1.97366 -9.85239,-0.94096 -5.35728,1.69179 -8.9264,6.62068 -8.88376,12.17712 0.15266,-5.3667 3.67567,-10.08964 8.88376,-11.73431 3.27749,-1.0327 6.83827,-0.68837 9.85239,0.94096 l 2.79521,-3.0166 0.71955,7.91512 0.0277,0 L 417.39946,509.67068 z m -5.20295,5.59041 -2.87823,3.07195 0.41513,-0.0277 2.76752,-2.93358 C 412.40231,515.32829 412.2963,515.30121 412.19651,515.26109 z m 9.04982,7.77675 -2.93359,0.19372 c 0.01,0.14969 0.0247,0.29408 0.0277,0.4428 l 2.9059,-0.19373 C 421.24171,523.33163 421.25619,523.18758 421.24633,523.03784 z m -22.44465,0.91327 c -0.007,0.17469 -0.004,0.34948 0,0.52583 l 0.0277,0 C 398.81785,524.29893 398.8036,524.1277 398.80168,523.95111 z m 19.53873,0.24908 c -0.13902,4.092 -2.84849,7.68046 -6.83579,8.9391 -2.16109,0.68167 -4.48246,0.58381 -6.55904,-0.24906 l -0.30442,0.3321 c 2.15097,0.94595 4.59866,1.10181 6.86346,0.38745 C 415.63655,532.30548 418.39025,528.47496 418.34041,524.20019 z m -10.5166,5.17528 -8.82841,0.27676 0.0553,0.47047 8.35794,-0.27676 L 407.82381,529.37547 Z"
       id="path842" />
  </g>
</svg>
